<svg xmlns="http://www.w3.org/2000/svg" fill="none" class="s-y_bCXRrkrYfP"><path fill="#FFA500" d="M30.528 28.11h-2.59v5.45h2.59zM30.528 23.708h-2.59v2.816h2.59zM30.15 22.12h-2.212v-1.308h2.211zM20.85 20.812h2.211v1.308H20.85zM23.062 23.708H20.47v2.816h2.59zM23.062 28.11H20.47v5.45h2.59zM23.06 35.147h-4.374v26.282h4.374zM32.312 35.147h-4.374v26.282h4.374z" class="bengaluru_svg__dynamic-shade-fill s-y_bCXRrkrYfP"></path><path fill="#FFA500" d="M35.092 0a.373.373 0 0 0-.373.375.373.373 0 1 0 .745 0A.373.373 0 0 0 35.093 0M37.002 44.388a.309.309 0 0 0 0-.617.309.309 0 0 0 0 .617M13.974 2.938a.34.34 0 0 0 .338-.34.34.34 0 1 0-.677 0c0 .188.151.34.339.34M13.29 35.488h.057v.057a.285.285 0 1 0 .569 0v-.057h.056a.284.284 0 0 0 .285-.286.285.285 0 0 0-.284-.286h-.057v-.057a.285.285 0 1 0-.569 0v.057h-.057a.285.285 0 0 0-.284.286c0 .158.127.286.284.286M39.18 59.455a1.38 1.38 0 0 0-.694-1.135 1.09 1.09 0 0 0-1.03-.72c-.606 0-1.098.495-1.098 1.104v.056a1.107 1.107 0 0 0 .339 2.155h.225l.182.004v.788a.285.285 0 1 0 .569 0v-.788q.118 0 .193-.006a1.383 1.383 0 0 0 1.313-1.457zm-.777.618a.81.81 0 0 1-.565.269c-.176.01-.622.005-.912.002h-.23a.534.534 0 0 1-.001-1.068.288.288 0 0 0 .265-.386.532.532 0 0 1 .497-.72c.248 0 .46.169.515.41.021.086.08.159.16.197a.817.817 0 0 1 .269 1.294zM20.124 35.82a.284.284 0 0 0-.284.286v24.418a.284.284 0 1 0 .568 0V36.106a.284.284 0 0 0-.284-.285M21.718 35.82a.284.284 0 0 0-.284.286v24.418a.284.284 0 1 0 .567 0V36.106a.284.284 0 0 0-.284-.285M25.493 3.93h.011a.284.284 0 0 0 .284-.286V2.597a.284.284 0 0 0-.284-.286h-.011a.284.284 0 0 0-.284.286v1.047c0 .158.127.285.284.285" class="bengaluru_svg__dynamic-shade-fill s-y_bCXRrkrYfP"></path><path fill="#FFA500" d="M33.214 33.56h-2.117v-5.45h.536a.285.285 0 0 0 .284-.286V26.81a.285.285 0 0 0-.284-.285h-.536v-2.816h.536a.285.285 0 0 0 .284-.286v-1.014a.285.285 0 0 0-.284-.286h-.915v-1.308h.094a.285.285 0 0 0 .285-.286v-1.014a.285.285 0 0 0-.285-.286h-2.875v-2.144q.001-.015-.004-.032-.001-.014-.005-.027-.004-.015-.008-.026-.005-.016-.013-.027l-.008-.017c-.481-.81-.464-3.02-.419-3.802a.285.285 0 1 0-.568-.035c-.008.109-.136 2.401.305 3.698h-.544V9.168a.285.285 0 1 0-.568 0v7.648h-.317V5.072a.285.285 0 0 0-.284-.285h-.012a.284.284 0 0 0-.284.285v11.742h-.316V9.166a.284.284 0 1 0-.569 0v7.648h-.544c.442-1.297.313-3.59.305-3.698a.285.285 0 1 0-.568.035c.047.782.062 2.993-.42 3.802l-.007.017q-.007.014-.013.027l-.008.026-.005.027-.004.032v2.144h-2.875a.285.285 0 0 0-.285.286v1.014c0 .159.127.286.285.286h.094v1.308h-.915a.285.285 0 0 0-.284.286v1.015c0 .157.127.285.284.285h.536v2.816h-.536a.285.285 0 0 0-.284.286v1.014c0 .158.127.286.284.286h.536v5.451h-2.117a.285.285 0 0 0-.284.285v1.015c0 .158.127.286.284.286h.332v26.567c0 .158.127.286.284.286h14.196a.285.285 0 0 0 .284-.285V35.144h.332a.285.285 0 0 0 .284-.286v-1.015a.285.285 0 0 0-.284-.285zm-2.686 0h-2.59v-5.45h2.59zm-6.899 1.301V21.954h3.738V61.43h-3.74V34.86zm7.72-7.322h-3.412v-.444h3.412zm-.82-1.015h-2.592v-2.816h2.591zm.82-3.387h-3.412v-.444h3.412zm-1.2-1.015h-2.212v-1.308h2.212zm.38-2.325v.444h-2.592v-.444zm-5.037-2.412h1.875v3.998h-3.738v-3.998zm-5.022 2.412h2.59v.444h-2.59zm.379 1.015h2.212v1.308h-2.212zm-1.2 1.88h3.412v.443h-3.412zm.82 1.014h2.592v2.816H20.47zm-.82 3.387h3.412v.444h-3.412zm.82 1.015h2.592v5.451H20.47zm-2.4 6.022h4.99v.444h-4.99zm.616 1.015h4.374v26.282h-4.375zm13.627 26.282h-4.375V35.145h4.375zm.616-26.853h-4.99v-.444h4.99z" class="bengaluru_svg__dynamic-shade-fill s-y_bCXRrkrYfP"></path><path fill="#FFA500" d="M30.876 60.81a.284.284 0 0 0 .284-.286V36.106a.284.284 0 1 0-.568 0v24.418c0 .158.127.286.284.286M29.282 60.81a.284.284 0 0 0 .284-.286V36.106a.284.284 0 1 0-.568 0v24.418c0 .158.127.286.284.286M14.532 51.907a1.52 1.52 0 0 0-1.24.644 1.52 1.52 0 0 0-1.239-.644 1.53 1.53 0 0 0-1.524 1.531c0 .158.127.286.285.286h2.194v7.928a.285.285 0 1 0 .569 0v-7.928h2.195a.285.285 0 0 0 .284-.286 1.53 1.53 0 0 0-1.524-1.53m-3.39 1.245a.96.96 0 0 1 .911-.674c.426 0 .79.284.912.674H11.14zm2.479 0a.96.96 0 0 1 .911-.674c.428 0 .79.284.912.674z" class="bengaluru_svg__dynamic-shade-fill s-y_bCXRrkrYfP"></path><path fill="#F5F5F5" d="M11.14 53.153a.96.96 0 0 1 .912-.675c.427 0 .79.284.912.675h-1.825zM13.62 53.153a.96.96 0 0 1 .91-.675c.43 0 .791.284.912.675zM38.402 60.073a.81.81 0 0 1-.564.268c-.177.01-.622.006-.912.002h-.23a.534.534 0 0 1-.001-1.068.287.287 0 0 0 .265-.387.533.533 0 0 1 .497-.72c.248 0 .46.17.515.412.021.086.08.158.16.196a.816.816 0 0 1 .269 1.295zM25.492 17.385h1.8739999999999999v3.999H23.63v-3.999z" class="bengaluru_svg__dynamic-shade-fill s-y_bCXRrkrYfP"></path><path fill="#FFA500" d="M41.12 21.221a.28.28 0 0 0 .362 0l1.654-1.373 1.655 1.373a.28.28 0 0 0 .362 0l1.656-1.373 1.657 1.373a.283.283 0 0 0 .4-.038c.1-.122.083-.3-.038-.402l-1.837-1.523a.28.28 0 0 0-.362 0l-1.656 1.373-1.655-1.373a.28.28 0 0 0-.362 0l-1.654 1.373-1.655-1.373a.28.28 0 0 0-.4.038c-.1.122-.083.301.038.402z" class="bengaluru_svg__dynamic-shade-fill s-y_bCXRrkrYfP"></path><path fill="url(#bengaluru_svg__a)" class="bengaluru_svg__dynamic-shade-fill s-y_bCXRrkrYfP" d="M18.686 61.429H0v.57h18.686z"></path><path fill="url(#bengaluru_svg__b)" class="bengaluru_svg__dynamic-shade-fill s-y_bCXRrkrYfP" d="M51 61.429H32.315v.57H51z"></path><defs class="s-y_bCXRrkrYfP"><linearGradient id="bengaluru_svg__a" x1="0" x2="18.686" y1="61.714" y2="61.714" gradientUnits="userSpaceOnUse" class="s-y_bCXRrkrYfP"><stop stop-color="#fff" class="s-y_bCXRrkrYfP"></stop><stop class="bengaluru_svg__dynamic-shade-stop-color s-y_bCXRrkrYfP" offset="1" stop-color="#FFA500"></stop></linearGradient><linearGradient id="bengaluru_svg__b" x1="32.315" x2="51" y1="61.714" y2="61.714" gradientUnits="userSpaceOnUse" class="s-y_bCXRrkrYfP"><stop class="bengaluru_svg__dynamic-shade-stop-color s-y_bCXRrkrYfP" stop-color="#FFA500"></stop><stop offset="1" stop-color="#fff" class="s-y_bCXRrkrYfP"></stop></linearGradient></defs></svg>