<svg xmlns="http://www.w3.org/2000/svg" fill="none" class="s-y_bCXRrkrYfP"><g clip-path="url(#delhi_svg__a)" class="s-y_bCXRrkrYfP"><path fill="#F5F5F5" d="M52.343 8.69a.332.332 0 0 1-.448-.297 1.76 1.76 0 0 0-1.758-1.684c-.947 0-1.673.69-1.755 1.604a.333.333 0 0 1-.322.304 1.16 1.16 0 0 0-1.136 1.168c0 .638.525 1.17 1.17 1.17h4.66c.644 0 1.17-.526 1.17-1.17a1.172 1.172 0 0 0-1.58-1.095M27.625 61.195l2.717-2.267.046.913-1.622 1.354zm-4.358 0 6.9-5.754.046.913-5.805 4.841zm.443-14.907 5.752-4.797.047.913-5.848 4.877.051-.993zm-.19 3.793 6.12-5.103.046.913-6.215 5.183.05-.993zm-.191 3.793 6.488-5.408.046.913-6.583 5.49.051-.992zm-.19 3.794 6.855-5.715.046.913-6.95 5.797.05-.993zm.715-14.183.051-.995 2.727-2.273h1.142zm1.201-7.405 3.97-3.31.047.913-2.876 2.397zm-.671-3.075 4.464-3.725.047.913-4.562 3.805zm.141-2.8.051-.996 1.997-1.663h1.14zm1.78-6.07 2.193-1.827.047.912-1.1.916zm-1.203-5.313.05-.994 1.403-1.17h1.141l-2.594 2.162zm-.142 2.8 3.363-2.802.047.913-3.459 2.885.05-.993zm.551-7.727 2.46-2.052.046.913-1.364 1.139zm-.026-2.661.05-.993.898-.749h1.141l-2.09 1.744zm.241-4.789 1.893-1.577.046.913-1.644 1.371h-.33z" class="bengaluru_svg__dynamic-shade-fill s-y_bCXRrkrYfP"></path><path fill="#3C3C3C" d="M22.609 61.86h8.198zm8.515-.665-1.07-21.222 2.071-3.383a.34.34 0 0 0 .007-.337.34.34 0 0 0-.29-.17h-1.986l-.443-8.763 1.64-2.675a.34.34 0 0 0 .006-.337.34.34 0 0 0-.29-.17h-1.515l-.39-7.722 1.234-2.014a.34.34 0 0 0 .007-.337.34.34 0 0 0-.29-.17h-1.078l-.234-4.66.966-1.578a.334.334 0 0 0-.284-.507h-.787l-.12-2.353h.249a.33.33 0 0 0 .332-.332V2.998a.33.33 0 0 0-.332-.332h-1.485v-1.49a.332.332 0 1 0-.664 0v1.496h-1.485a.33.33 0 0 0-.332.333V4.47c0 .184.148.333.332.333h.248l-.12 2.353h-.786a.333.333 0 0 0-.283.507l.966 1.578-.235 4.66h-1.077a.332.332 0 0 0-.284.507l1.234 2.014-.39 7.721h-1.515a.332.332 0 0 0-.284.508l1.638 2.674-.443 8.763h-1.986a.332.332 0 0 0-.283.508l2.071 3.383-1.07 21.222m5.333 0 2.717-2.267.046.913-1.622 1.354zm-2.18 0 4.808-4.01.047.912-3.714 3.098zm-2.178 0 6.9-5.754.046.913-5.805 4.84zm.443-14.907 5.752-4.797.047.913-5.847 4.876.05-.992zm-.095 1.896 5.936-4.95.046.913-6.03 5.03.05-.993zm-.095 1.897 6.12-5.103.046.913-6.215 5.182.05-.992zm-.096 1.896 6.304-5.255.047.913-6.4 5.335.052-.992zm-.095 1.897 6.488-5.408.046.913-6.583 5.49.051-.993zm-.095 1.897 6.671-5.562.047.913-6.767 5.644.051-.993zm-.095 1.896 6.855-5.714.047.913-6.951 5.796.05-.992zm-.096 1.897 7.04-5.87.046.913-7.134 5.95.05-.993zm6.36-19.347.021.44-5.663 4.724.051-.992 5.003-4.172h.59zm-5.547 3.268.052-.995 2.727-2.273h1.141zm.096-1.897.05-.992.453-.377h1.14l-1.643 1.371zm1.103-5.506 3.97-3.31.047.913-2.876 2.397zm-.394-8.535h.875l-.913.763zm-.18 3.563 4.272-3.563h.009l.047.904-4.379 3.652zm-.095 1.897 4.465-3.725.046.913-4.562 3.804zm.142-2.8.05-.996 1.997-1.664h1.141zm-.237 4.696 4.648-3.877.047.913-4.746 3.957zm4.826-.39.046.913-.784.654H27.24zm-2.81-10.378 2.194-1.828.046.913-1.099.915zm-1.25-4.409 3.18-2.65.046.913-3.274 2.73.05-.993zm.047-.904.05-.995 1.403-1.17h1.142l-2.595 2.163zm.095-1.897.014-.265h.305zm-.237 4.698 3.364-2.803.046.913-3.459 2.884.051-.992zm3.627 2.428.005.084h-.107zm-3.075-10.154 2.46-2.052.046.913-1.365 1.138zm-.073-1.758 2.444-2.038.046.913-2.539 2.118.05-.992zm.046-.904.051-.992.898-.75h1.14l-2.089 1.745zm2.575 2.353.015.308h-.383zm-.326-6.434h-.676l.65-.54zm.463-3.82v.802H27.05v-.802zm-2.969 0h1.152v.802h-1.152zm1.434 1.467-.89.742.037-.742zm-.935 1.646 1.892-1.577.046.913-1.644 1.371h-.33zm2.867 1.372-.618 1.008h-2.526l-.618-1.008zm.63 6.742-.88 1.434h-3.264l-.88-1.434zm-4.36 8.96 3.546-2.957.046.912-3.188 2.66h-.434l.03-.617zm4.073 1.281h1.2409999999999999l-1.274 2.08h-4.385l-1.274-2.08zm2.314 11.945-1.72 2.807h-5.641l-1.72-2.807zM29.812 61.2l.627-.523.027.523zM49.312 29.28a.331.331 0 0 0 .321-.419 17.8 17.8 0 0 1-.629-4.697.332.332 0 1 0-.664 0c0 1.653.219 3.293.651 4.873.04.148.175.243.321.243M49.388 30.302q.133.377.285.758a.335.335 0 0 0 .432.183.33.33 0 0 0 .184-.432c-.097-.243-.19-.49-.276-.729a.334.334 0 0 0-.424-.204.334.334 0 0 0-.204.424zM15.966 43.414a.436.436 0 1 0 .001-.872.436.436 0 0 0 0 .872M57.668 10.035H55.22a.332.332 0 1 1 0-.665h2.447a.332.332 0 1 1 0 .665M54.89 11.152c0-.184.148-.333.331-.333h1.224a.332.332 0 1 1 0 .665H55.22a.33.33 0 0 1-.332-.332M53.334 7.376h-.459a.332.332 0 1 1 0-.665h.459a.332.332 0 1 1 0 .665" class="bengaluru_svg__dynamic-shade-fill s-y_bCXRrkrYfP"></path><path fill="#3C3C3C" d="M55.253 8.324a.33.33 0 0 0-.333-.332h-1.777a1.778 1.778 0 0 0-.636-.024 2.42 2.42 0 0 0-2.373-1.924 2.42 2.42 0 0 0-2.377 1.937c-.86.155-1.5.9-1.5 1.801 0 1.01.822 1.835 1.835 1.835h4.659c1.01 0 1.835-.822 1.835-1.835 0-.425-.147-.815-.39-1.125h.722a.33.33 0 0 0 .332-.333zm-2.5.29c.645 0 1.17.526 1.17 1.17 0 .645-.525 1.17-1.17 1.17h-4.66c-.644 0-1.17-.525-1.17-1.17s.5-1.15 1.137-1.167a.333.333 0 0 0 .322-.304 1.75 1.75 0 0 1 1.755-1.604c.919 0 1.717.74 1.759 1.684.004.106.06.204.148.264.089.06.2.07.3.033q.199-.076.41-.075M12.08 19.882a.33.33 0 0 0 .332-.333v-.314h.315a.332.332 0 1 0 0-.665h-.315v-.315a.332.332 0 1 0-.664 0v.315h-.315a.332.332 0 1 0 0 .665h.315v.314c0 .184.148.332.332.332M.332 36.415h.315v.315a.332.332 0 1 0 .665 0v-.315h.314a.332.332 0 1 0 0-.665h-.314v-.314a.332.332 0 1 0-.665 0v.314H.332a.332.332 0 1 0 0 .665M39.774 16.994h.066v.067a.332.332 0 1 0 .665 0v-.067h.066a.332.332 0 1 0 0-.664h-.066v-.067a.332.332 0 1 0-.665 0v.067h-.066a.332.332 0 1 0 0 .664M39.32 56.806q.086-.299.086-.614a2.234 2.234 0 0 0-2.231-2.231 2.234 2.234 0 0 0-2.227 2.346 1.94 1.94 0 0 0 1.24 3.435h.723v1.453a.332.332 0 1 0 .665 0v-1.453h1.13c.844 0 1.533-.687 1.533-1.534a1.54 1.54 0 0 0-.92-1.402m-.612 2.271h-2.517a1.277 1.277 0 0 1-.707-2.338.33.33 0 0 0 .144-.323 1.568 1.568 0 0 1 1.549-1.788 1.568 1.568 0 0 1 1.407 2.251.34.34 0 0 0 .004.301.33.33 0 0 0 .246.173c.423.062.743.43.743.858a.87.87 0 0 1-.869.868zM16.979 52.038a1.78 1.78 0 0 0-1.45.749 1.78 1.78 0 0 0-3.23 1.032c0 .184.149.332.333.332h2.565v7.01a.332.332 0 1 0 .665 0v-7.01h2.566a.33.33 0 0 0 .332-.332c0-.982-.8-1.781-1.781-1.781m-3.964 1.449a1.12 1.12 0 0 1 1.066-.785c.498 0 .924.33 1.065.785h-2.133zm2.898 0a1.117 1.117 0 0 1 2.131 0z" class="bengaluru_svg__dynamic-shade-fill s-y_bCXRrkrYfP"></path><path fill="#F5F5F5" d="M13.015 53.487a1.12 1.12 0 0 1 1.066-.785c.498 0 .924.33 1.065.785h-2.133zM15.913 53.487a1.117 1.117 0 0 1 2.131 0zM38.708 59.075h-2.517a1.277 1.277 0 0 1-.707-2.338.33.33 0 0 0 .144-.324 1.568 1.568 0 0 1 1.549-1.788c.864 0 1.566.703 1.566 1.567 0 .237-.053.468-.16.685a.34.34 0 0 0 .005.301.33.33 0 0 0 .246.173c.423.062.743.43.743.857a.87.87 0 0 1-.869.869z" class="bengaluru_svg__dynamic-shade-fill s-y_bCXRrkrYfP"></path><path fill="url(#delhi_svg__b)" class="bengaluru_svg__dynamic-shade-fill s-y_bCXRrkrYfP" d="M15.6 61.195H5.773v.665H15.6z"></path><path fill="#3C3C3C" d="M37.52 61.195H15.603v.665H37.52z" class="bengaluru_svg__dynamic-shade-fill s-y_bCXRrkrYfP"></path><path fill="url(#delhi_svg__c)" class="bengaluru_svg__dynamic-shade-fill s-y_bCXRrkrYfP" d="M47.35 61.195h-9.83v.665h9.83z"></path></g><defs class="s-y_bCXRrkrYfP"><linearGradient id="delhi_svg__b" x1="5.772" x2="15.603" y1="61.527" y2="61.527" gradientUnits="userSpaceOnUse" class="s-y_bCXRrkrYfP"><stop stop-color="#fff" class="s-y_bCXRrkrYfP"></stop><stop class="delhi_svg__dynamic-shade-stop-color s-y_bCXRrkrYfP" offset="1" stop-color="#3C3C3C"></stop></linearGradient><linearGradient id="delhi_svg__c" x1="37.52" x2="47.351" y1="61.527" y2="61.527" gradientUnits="userSpaceOnUse" class="s-y_bCXRrkrYfP"><stop class="delhi_svg__dynamic-shade-stop-color s-y_bCXRrkrYfP" stop-color="#3C3C3C"></stop><stop offset="1" stop-color="#fff" class="s-y_bCXRrkrYfP"></stop></linearGradient><clipPath id="delhi_svg__a" class="s-y_bCXRrkrYfP"><path fill="#fff" d="M0 .844h58V61.86H0z" class="s-y_bCXRrkrYfP"></path></clipPath></defs></svg>