<svg xmlns="http://www.w3.org/2000/svg" fill="bengaluru_svg__dynamic-shade-fill" class="s-y_bCXRrkrYfP"><g clip-path="url(#faridabad_svg__a)" class="s-y_bCXRrkrYfP"><path fill="#3C3C3C" d="M80.106 12.696a.235.235 0 0 0 .298 0l1.359-1.13 1.356 1.13a.235.235 0 0 0 .298 0l1.358-1.13 1.359 1.13a.235.235 0 0 0 .33-.031.24.24 0 0 0-.032-.333l-1.508-1.253a.235.235 0 0 0-.298 0l-1.358 1.13-1.356-1.13a.235.235 0 0 0-.298 0l-1.359 1.13-1.356-1.13a.234.234 0 0 0-.329.032.24.24 0 0 0 .032.332zM26.429 4.39h1.708a2.845 2.845 0 0 0-.378 3.17h-1.33a.393.393 0 0 0-.392.395c0 .219.175.395.392.395h1.442c.133 0 .25-.068.321-.168a2.86 2.86 0 0 0 2.114.937h5.413A2.584 2.584 0 0 0 38.3 6.54a2.584 2.584 0 0 0-2.58-2.58q-.399.002-.777.12a2.59 2.59 0 0 0-2.531-2.071c-.978 0-1.85.54-2.292 1.392-.31.021-.606.093-.883.203h-2.81a.393.393 0 0 0-.393.395c0 .219.175.395.392.395zm3.89-.208h.042a.4.4 0 0 0 .378-.247 1.8 1.8 0 0 1 3.472.671v.04A.389.389 0 0 0 34.8 5a1.797 1.797 0 0 1 2.717 1.535c0 .988-.807 1.79-1.797 1.79h-5.413c-1.147 0-2.08-.929-2.08-2.074a2.08 2.08 0 0 1 2.096-2.072z" class="bengaluru_svg__dynamic-shade-fill s-y_bCXRrkrYfP"></path><path fill="#3C3C3C" d="M23.77 5.957h2.885a.393.393 0 0 0 .392-.395.393.393 0 0 0-.392-.395h-2.884a.393.393 0 0 0-.392.395c0 .218.175.395.392.395M25.358 7.955a.393.393 0 0 0-.392-.395h-.303a.393.393 0 0 0-.393.395c0 .219.176.395.393.395h.303a.393.393 0 0 0 .392-.395M29.162 2.795h.303a.393.393 0 0 0 .392-.395.393.393 0 0 0-.392-.395h-.303a.393.393 0 0 0-.392.395c0 .218.175.395.392.395M18.464 20.886h.371v.374a.393.393 0 1 0 .784 0v-.374h.371a.393.393 0 0 0 .392-.395.393.393 0 0 0-.392-.395h-.37v-.374a.393.393 0 1 0-.785 0v.374h-.371a.393.393 0 0 0-.392.395c0 .219.175.395.392.395M84.598 23.214h.371v.374a.393.393 0 1 0 .784 0v-.374h.372a.393.393 0 0 0 .392-.395.393.393 0 0 0-.392-.395h-.372v-.374a.393.393 0 1 0-.784 0v.374h-.37a.393.393 0 0 0-.393.395c0 .218.175.395.392.395" class="bengaluru_svg__dynamic-shade-fill s-y_bCXRrkrYfP"></path><path fill="url(#faridabad_svg__b)" class="bengaluru_svg__dynamic-shade-fill s-y_bCXRrkrYfP" d="M25.762 51.21H.004V52h25.758z"></path><path fill="#3C3C3C" d="M83.202 51.21H25.764V52h57.438z" class="bengaluru_svg__dynamic-shade-fill s-y_bCXRrkrYfP"></path><path fill="url(#faridabad_svg__c)" class="bengaluru_svg__dynamic-shade-fill s-y_bCXRrkrYfP" d="M108.96 51.21H83.202V52h25.758z"></path></g><g clip-path="url(#faridabad_svg__d)" class="s-y_bCXRrkrYfP"><path fill="#3C3C3C" d="M54.237 13.433c.037 1.52.062 1.72.261 1.757.187.038.212-.112.212-1.707 0-1.683-.012-1.758-.249-1.758-.25 0-.25.062-.224 1.708M54.012 16.316c-.474.187-.798.735-.798 1.321v.549h2.618v-.436c0-1.085-.922-1.808-1.82-1.434M51.844 20.106c-1.11 2.443-2.381 8.464-3.266 15.557l-.287 2.218h-3.303v1.808l-.873.548c-.474.287-.873.611-.873.71 0 .138-.199.175-.81.175-.449 0-.81-.05-.81-.112 0-.212-.511-3.864-.76-5.435-.599-3.727-1.496-7.267-2.107-8.264l-.25-.4h-3.378l-.386.836c-.436.972-1.072 3.378-1.52 5.771-.35 1.845-1.073 6.72-1.073 7.255v.35H29.53v1.4449999999999998l-.685.412c-.611.374-.686.461-.686.835 0 .399-.025.424-.436.424-.486 0-.399.287-.81-2.68-.437-3.104-1.035-5.672-1.584-6.894l-.199-.411-1.321.037-1.322.038-.299.748c-.548 1.383-1.171 4.45-1.645 8.003l-.15 1.159h-1.832v.536c0 .498-.038.573-.436.785-.424.224-.437.25-.437.997 0 .723.025.798.437 1.16l.436.374v3.378h-2.867c-1.833 0-2.867.05-2.867.124 0 .075 1.072.125 2.966.125 3.516.013 73.858 0 77.972 0 1.795 0 2.83-.05 2.83-.125 0-.074-1.035-.124-2.867-.124H90.86V48.09l.436-.374c.411-.362.436-.437.436-1.16 0-.773-.012-.785-.436-1.022-.399-.212-.436-.286-.436-.76v-.536h-1.8450000000000002l-.088-.848c-.286-2.83-1.284-7.604-1.795-8.601l-.261-.524h-2.593l-.274.649c-.524 1.234-1.247 4.624-1.62 7.64-.213 1.771-.175 1.684-.811 1.684-.561 0-.561 0-.561-.436 0-.387-.062-.474-.623-.823-.611-.374-.611-.387-.649-1.085l-.037-.71-1.271-.038c-.711-.012-1.284-.075-1.284-.137 0-.212-.511-3.877-.76-5.435-.6-3.727-1.497-7.267-2.108-8.264l-.249-.4h-3.378l-.361.798c-.487 1.06-.923 2.656-1.434 5.224-.411 2.119-.972 5.721-1.134 7.342l-.088.847h-.897c-.773 0-.91-.037-.96-.224-.037-.125-.436-.436-.898-.698l-.822-.461V37.88h-3.3529999999999998l-.063-.411c-.037-.212-.212-1.496-.386-2.83-.773-5.883-1.77-10.832-2.743-13.537-.685-1.945-.436-1.795-3.066-1.795h-2.244z" class="bengaluru_svg__dynamic-shade-fill s-y_bCXRrkrYfP"></path><path fill="#F5F5F5" d="M56.431 20.235c0 .024.17.445.362.938.688 1.66 1.484 5.062 2.16 9.138.361 2.176.976 6.685.976 7.118 0 .192-.12.216-1.134.216h-1.133l-.893-1.539-.88-1.527H53.03l-.808 1.527-.796 1.54h-2.364l.072-.518c.037-.276.205-1.539.374-2.79.832-6.275 2.039-11.878 2.955-13.682l.23-.445h1.869c1.025 0 1.87.012 1.87.024M38.552 28.354c.64 1.413 1.58 6.115 2.196 10.89l.23 1.742h-1.714l-.35-.67a16 16 0 0 0-.687-1.218l-.35-.548h-2.135l-.628 1.218-.627 1.218h-1.689l.073-.523c.929-6.883 1.604-10.355 2.364-12.146l.253-.609h2.763zM74.013 28.303c.624 1.407 1.584 6.201 2.183 10.947l.228 1.749-.851-.037-.852-.037-.6-1.162-.6-1.162-1.103-.036-1.092-.037-.683 1.235-.684 1.223H68.29l.06-.526c.792-6.164 1.62-10.432 2.364-12.194l.251-.611h2.747zM25.13 35.83c.4 1.098.836 3.116 1.21 5.552.436 2.758.436 2.662-.175 2.662-.474 0-.499-.024-.997-.836l-.511-.835h-1.733l-.436.835-.437.836h-.56c-.537 0-.549-.012-.5-.334.038-.18.175-1.135.325-2.114.411-2.877 1.022-5.504 1.446-6.304.174-.322.2-.334 1.134-.298l.948.036zM86.91 35.828c.498 1.48.934 3.693 1.52 7.76l.062.456h-.523c-.536 0-.536 0-1.01-.842l-.474-.842h-1.7069999999999999l-.487.806c-.473.794-.498.818-1.022.854l-.548.036.087-.745c.324-2.731 1.084-6.473 1.57-7.724l.262-.685h1.9449999999999998z" class="bengaluru_svg__dynamic-shade-fill s-y_bCXRrkrYfP"></path><path fill="#F5F5F5" d="m56.343 36.595.698 1.225-2.493.036c-1.371.013-2.518 0-2.543-.024-.038-.037.237-.612.598-1.298l.66-1.238 1.185.037 1.184.037z" class="s-y_bCXRrkrYfP"></path><path fill="#fff" d="M63.437 39.003v.624h-17.95V38.38h17.95z" class="s-y_bCXRrkrYfP"></path><path fill="#F5F5F5" d="M38.157 40.125c.262.449.474.848.474.898 0 .062-.81.1-1.808.1h-1.807l.461-.936.474-.947.86.037.872.038zM73.758 40.188l.487.935H70.53l.399-.723c.224-.387.46-.81.536-.935.112-.162.311-.212.972-.212h.835z" class="s-y_bCXRrkrYfP"></path><path fill="#D8D8D8" d="m64.126 40.75.729.378.036.847.024.846-.62.48-.619.492H44.817l-.4-.366c-.39-.354-.402-.4-.402-1.258v-.892l.766-.458.753-.457h17.863z" class="bengaluru_svg__dynamic-shade-fill s-y_bCXRrkrYfP"></path><path fill="#fff" d="M43.242 42.12v.374H30.154v-.748h13.088zM79.143 42.12v.374H65.805v-.748h13.338z" class="s-y_bCXRrkrYfP"></path><path fill="#D8D8D8" d="M43.033 43.21c0 .085.232.39.512.67.366.365.61.523.854.523.463 0 .45.304-.05.816l-.39.401h-7.314c-8.412 0-7.754.098-7.754-1.144 0-.742 0-.742.525-1.071l.512-.34h6.559c5.047 0 6.546.036 6.546.145M79.853 43.43c.512.364.536.401.536.998 0 .474-.06.693-.268.912l-.256.28H65.403l-.536-.401c-.317-.22-.536-.475-.524-.585s.377-.499.816-.876l.792-.682h6.677l6.677-.012z" class="bengaluru_svg__dynamic-shade-fill s-y_bCXRrkrYfP"></path><path fill="#F5F5F5" d="m24.706 43.678.324.56h-2.356l.275-.56c.261-.549.286-.561.86-.561.573 0 .598.025.897.56M86.472 43.616c.15.261.274.51.274.548 0 .05-.498.075-1.122.075-.61 0-1.121-.038-1.121-.075 0-.05.124-.3.274-.561.25-.449.311-.486.835-.486.536 0 .586.037.86.498" class="bengaluru_svg__dynamic-shade-fill s-y_bCXRrkrYfP"></path><path fill="#fff" d="M51.595 47.993v3.476h-.748V49.7c0-1.878-.087-2.268-.573-2.488-.162-.073-.3-.232-.3-.366s-.162-.354-.373-.5c-.2-.146-.374-.317-.374-.39 0-.256-.412-.586-.723-.586-.35 0-.773.317-.773.561 0 .086-.162.269-.374.415-.2.146-.374.366-.374.5s-.137.293-.3.366c-.486.22-.573.61-.573 2.488v1.769h-.623v-6.952999999999999h6.108zM56.705 47.993c0 3.012-.025 3.476-.187 3.476-.15 0-.187-.208-.187-1.098 0-.94-.037-1.134-.25-1.342-.136-.134-.248-.28-.248-.341-.013-.098-.599-.671-.836-.805-.162-.086-1.034.622-1.034.841 0 .074-.113.22-.25.342-.212.17-.249.354-.249 1.305v1.098h-1.246v-6.952999999999999h4.487zM63.436 47.993v3.476h-.748v-1.866c0-1.488-.037-1.915-.199-2.135-.1-.146-.274-.268-.374-.268a.18.18 0 0 1-.175-.183c0-.11-.199-.378-.436-.622-.237-.232-.436-.5-.436-.598 0-.244-.436-.451-.848-.402-.237.024-.386.146-.523.427-.1.207-.312.439-.462.512s-.311.256-.349.414c-.05.171-.249.415-.448.562l-.362.268v3.8899999999999997h-.872v-6.952h6.232z" class="bengaluru_svg__dynamic-shade-fill s-y_bCXRrkrYfP"></path><path fill="#fff" d="M28.16 44.924c0 .162-.587.187-4.488.187s-4.488-.025-4.488-.187.586-.187 4.488-.187c3.901 0 4.487.025 4.487.187M90.238 44.924c0 .162-.599.187-4.613.187-4.013 0-4.612-.025-4.612-.187s.599-.187 4.612-.187c4.014 0 4.613.025 4.613.187M64.783 46.034c.261.237.274.299.274 2.842v2.593h-.997v-3.004c0-3.316-.063-3.117.723-2.431M44.988 48.54v2.929h-.748V46.22l.35-.3c.186-.161.348-.311.373-.311.012 0 .025 1.321.025 2.93" class="s-y_bCXRrkrYfP"></path><path fill="#F5F5F5" d="M48.777 46.337c.037.101.075.294.075.44 0 .204.074.272.349.306.286.034.336.09.373.44.038.362.075.408.3.351.137-.034.299.011.361.102.063.09.112.904.112 1.82v1.673h-3.74v-1.673c0-.916.05-1.73.113-1.82.062-.09.224-.136.361-.102.225.057.262.011.3-.35.037-.35.087-.407.386-.441.262-.034.336-.102.336-.305 0-.407.125-.622.374-.622.125 0 .262.079.3.18M60.744 46.71c.1.323.175.412.412.412.25 0 .287.056.287.435 0 .39.024.435.261.379.511-.123.611.2.611 1.94v1.593h-3.864v-1.66c0-1.784.075-2.007.636-1.85.224.066.249.044.174-.157-.125-.379.037-.68.386-.68.25 0 .3-.055.3-.312 0-.68.623-.758.797-.1" class="s-y_bCXRrkrYfP"></path><path fill="#D8D8D8" d="M90.965 45.945c.208.133.27.293.27.666 0 .28-.062.573-.148.666-.11.12-1.444.16-5.299.16l-5.14-.013-.33-.32c-.391-.373-.465-.866-.122-.866.122 0 .343-.133.49-.307l.256-.293 4.871.067c3.647.053 4.944.106 5.152.24M28.845 45.971c.125.147.324.267.462.267.311 0 .286.506-.05.892l-.262.307h-5.26c-3.915 0-5.286-.04-5.398-.16-.087-.093-.15-.386-.15-.666 0-.893.013-.893 5.56-.906 4.712 0 4.874.013 5.098.266" class="bengaluru_svg__dynamic-shade-fill s-y_bCXRrkrYfP"></path><path fill="#fff" d="M43.617 48.929v2.54h-5.111000000000001V50.09c0-1.476.012-1.427-.773-2.25a3 3 0 0 1-.337-.46.7.7 0 0 0-.374-.302c-.274-.06-.76.218-.76.436 0 .084-.112.217-.25.302-.136.085-.249.194-.249.266 0 .06-.137.242-.311.411-.3.29-.312.375-.312 1.645v1.33h-4.986V46.39h13.463000000000001zM79.143 48.863v2.606h-5.111000000000001v-1.415c0-1.514.012-1.464-.773-2.308a3 3 0 0 1-.337-.472.7.7 0 0 0-.374-.31c-.274-.062-.76.223-.76.447 0 .086-.112.223-.25.31-.136.087-.249.198-.249.273 0 .062-.137.248-.311.422-.3.298-.312.385-.312 1.688v1.365h-5.111000000000001v-5.213h13.588z" class="bengaluru_svg__dynamic-shade-fill s-y_bCXRrkrYfP"></path><path fill="#F5F5F5" class="bengaluru_svg__dynamic-shade-fill s-y_bCXRrkrYfP" d="M37.135 48.24c0 .08.075.114.187.08.187-.069.237.045.2.433-.026.148.05.194.261.171.287-.023.287 0 .324 1.255l.038 1.29h-2.518l.037-1.29c.037-1.21.05-1.278.287-1.243.212.023.261-.035.249-.286 0-.24.062-.32.224-.308.137.012.212-.057.212-.228 0-.148.038-.297.087-.342.113-.091.412.25.412.468M72.661 48.155c0 .082.075.117.187.082.187-.07.237.046.2.445-.025.152.05.199.261.175.287-.023.287 0 .325 1.288l.037 1.324h-2.518l.037-1.324c.038-1.24.05-1.311.287-1.276.212.023.262-.035.25-.293 0-.246.062-.328.224-.316.137.012.212-.058.212-.234 0-.152.037-.305.087-.352.112-.093.411.258.411.48"></path><path fill="#fff" d="M80.39 49.686v1.783h-.624v-4.002000000000001l.312.225c.3.224.3.261.311 1.994M29.53 49.537c0 1.845-.012 1.932-.249 1.932s-.25-.087-.25-1.708c0-1.409.038-1.745.213-1.932.112-.125.224-.225.249-.225.012 0 .037.873.037 1.933" class="s-y_bCXRrkrYfP"></path><path fill="#fff" d="M28.533 49.724v1.745h-3.49v-.935c0-.885-.025-.972-.462-1.558-.274-.374-.56-.624-.697-.624-.212 0-.836.524-.836.698 0 .025-.112.163-.249.3-.2.2-.25.411-.25 1.184v.935h-3.365v-3.491h9.349zM90.237 49.78v1.689h-3.366v-.905c0-.747-.05-.952-.249-1.145-.137-.133-.25-.266-.25-.302s-.124-.193-.273-.362c-.412-.458-.736-.386-1.26.302-.436.567-.46.651-.46 1.507v.905h-3.491v-3.377h9.349z" class="bengaluru_svg__dynamic-shade-fill s-y_bCXRrkrYfP"></path><path fill="#F5F5F5" class="bengaluru_svg__dynamic-shade-fill s-y_bCXRrkrYfP" d="M55.084 48.856c0 .148.063.193.187.16.137-.058.187.01.187.226s.062.296.25.296c.224 0 .249.08.249.965v.966h-2.12v-.92c0-.818.025-.92.25-.977.162-.046.25-.16.25-.341 0-.205.05-.273.186-.216.125.034.187-.011.187-.148 0-.113.038-.238.075-.272.137-.114.3.034.3.261M24.133 49.36c.125 0 .174.071.125.235-.05.176 0 .234.174.234.212 0 .237.094.237.82v.82h-1.62v-.879c0-.726.024-.854.186-.808.125.047.187 0 .187-.175 0-.14.075-.246.187-.246.1 0 .2-.117.2-.27l.025-.257.05.258c.024.152.137.269.249.269M85.687 49.255c-.05.059.012.106.112.106.124 0 .2.105.2.246 0 .175.062.222.186.175.162-.046.187.082.187.809v.878h-1.62v-.82c0-.726.025-.82.237-.82.174 0 .224-.058.174-.234-.05-.164 0-.234.137-.234.112 0 .2-.082.2-.187 0-.094.062-.141.124-.106.075.047.1.129.063.187"></path><path fill="#3C3C3C" fill-rule="evenodd" d="M52.467 28.806c.013-1.92.324-2.63 1.371-3.054.35-.15 1.384 0 1.72.25.76.56.836.797.873 2.605l.05 1.67h-4.014zm3.49-.15c0-1.258-.187-1.869-.648-2.168-.448-.287-.984-.35-1.433-.15-.623.274-.785.748-.785 2.194v1.247h2.867z" class="bengaluru_svg__dynamic-shade-fill s-y_bCXRrkrYfP" clip-rule="evenodd"></path><path fill="#000" d="m53.838 25.752.02.046h-.001zm-1.371 3.054h-.05zm3.092-2.804-.03.04zm.872 2.605-.05.002v-.001zm.05 1.67.05-.001.001.051h-.051zm-4.014 0v.05h-.05v-.05zm2.842-3.79.027-.041zm-1.433-.149.02.046zm-.785 3.44v.05h-.05v-.05zm2.867 0h.05v.05h-.05zm-2.101-3.98c-.515.209-.843.485-1.047.94-.206.461-.287 1.11-.293 2.069h-.1c.006-.961.087-1.628.302-2.109.217-.485.568-.776 1.1-.992zm1.672.244a1.2 1.2 0 0 0-.347-.158 3 3 0 0 0-.486-.107 3 3 0 0 0-.488-.034c-.15.003-.272.022-.35.055l-.04-.092c.097-.04.235-.06.388-.063s.33.01.504.035c.175.025.349.063.502.11.151.048.285.106.376.174zm.852 2.566c-.019-.906-.047-1.409-.163-1.755-.113-.34-.311-.532-.69-.811l.06-.08c.382.281.602.489.725.86.122.363.15.883.168 1.784zm.05 1.67-.05-1.67.1-.003.05 1.67zm-1.957-.05h2.007v.1h-2.007zm-2.007 0h2.007v.1h-2.007zm.05-1.422v1.471h-.1v-1.47zm2.82-2.36c.485.315.67.953.67 2.21h-.1c0-1.26-.188-1.843-.625-2.126zm-1.482-.154c.467-.207 1.02-.14 1.481.154l-.054.084c-.436-.28-.955-.338-1.386-.146zm-.814 2.24c0-.723.04-1.21.161-1.553.124-.348.331-.545.654-.687l.04.092c-.3.132-.486.31-.6.628-.115.325-.155.797-.155 1.52zm0 1.247v-1.247h.1v1.247zm1.483.05H53.09v-.1h1.434zm1.434 0h-1.434v-.1h1.434zm.05-1.172v1.122h-.1v-1.122z" class="bengaluru_svg__dynamic-shade-fill s-y_bCXRrkrYfP"></path><path fill="#3C3C3C" fill-rule="evenodd" d="M35.265 34.316c0-1.47.175-1.92.91-2.281.773-.386 1.558-.162 2.044.561.162.262.212.623.212 1.596l.013 1.259-1.584.037-1.595.037zm2.618-.361c0-.835-.038-.985-.312-1.247-.399-.411-1.035-.424-1.409-.025-.236.25-.274.437-.274 1.247v.96h1.995zM70.792 34.316c0-1.483.2-1.97.922-2.306.773-.349 1.558-.124 2.032.586.162.262.212.623.212 1.596l.013 1.259-1.584.037-1.595.037zm2.618-.361c0-.835-.038-.985-.312-1.247-.399-.411-1.034-.424-1.409-.025-.236.25-.274.437-.274 1.247v.96h1.995zM22.675 39.427c0-1.06.1-1.334.599-1.596.411-.236.51-.236 1.01-.062.548.187.76.673.76 1.733v.872h-2.3689999999999998zm1.745-.212c0-.361-.062-.723-.15-.81-.087-.087-.273-.15-.423-.15-.461 0-.673.324-.673 1.01v.61h1.246zM84.391 39.39c.05-1.035.237-1.396.798-1.646.387-.162.973-.012 1.284.337.237.262.274.449.274 1.309v.984h-2.393zm1.857-.088c0-.311-.062-.673-.124-.81-.15-.274-.736-.324-.973-.087-.087.087-.15.449-.15.81v.66h1.2469999999999999z" class="bengaluru_svg__dynamic-shade-fill s-y_bCXRrkrYfP" clip-rule="evenodd"></path><path fill="#3C3C3C" d="M36.71 21.03c-.038.05-.075.685-.075 1.433 0 1.234.025 1.359.224 1.321.187-.037.212-.224.25-1.358.024-1.06 0-1.347-.15-1.397-.1-.037-.212-.037-.25 0M72.237 21.03c-.037.05-.075.685-.075 1.433 0 1.234.025 1.359.224 1.321.187-.037.212-.224.25-1.358.025-1.06 0-1.347-.15-1.397-.1-.037-.212-.037-.25 0M36.424 24.793c-.336.137-.536.498-.536.984v.387h1.995v-.387c0-.249-.125-.498-.362-.748-.374-.373-.623-.423-1.097-.236M71.95 24.793c-.336.137-.535.498-.535.984v.387h1.994v-.387c0-.249-.125-.498-.361-.748-.374-.373-.624-.423-1.097-.236M23.597 29.948c-.037.1-.05.56-.025 1.034.038.76.063.86.287.86.212 0 .25-.1.287-.747.024-.4.012-.86-.038-1.023-.075-.311-.411-.386-.51-.124M85.376 30.833c0 .997.013 1.072.25 1.072.249 0 .261-.062.224-1.022-.038-.873-.075-1.035-.25-1.072-.199-.038-.224.074-.224 1.022M23.323 32.92c-.087.087-.15.312-.15.499 0 .336.013.349.686.349.648 0 .686-.025.686-.3 0-.174-.087-.398-.2-.498-.224-.237-.81-.262-1.022-.05M85.089 32.995a.8.8 0 0 0-.212.499c0 .249.062.274.76.274h.76l-.087-.337c-.05-.2-.137-.424-.212-.498-.187-.237-.772-.2-1.01.062" class="bengaluru_svg__dynamic-shade-fill s-y_bCXRrkrYfP"></path></g><path fill="#3C3C3C" d="M56.613 5.228a.235.235 0 0 0 .298 0l1.358-1.13 1.356 1.13a.235.235 0 0 0 .298 0l1.359-1.13 1.358 1.13a.235.235 0 0 0 .33-.032.24.24 0 0 0-.032-.331l-1.507-1.253a.235.235 0 0 0-.298 0l-1.359 1.13-1.356-1.13a.235.235 0 0 0-.297 0l-1.359 1.13-1.356-1.13a.234.234 0 0 0-.33.031.24.24 0 0 0 .032.332z" class="bengaluru_svg__dynamic-shade-fill s-y_bCXRrkrYfP"></path><defs class="s-y_bCXRrkrYfP"><linearGradient id="faridabad_svg__b" x1="0.004" x2="25.762" y1="51.605" y2="51.605" gradientUnits="userSpaceOnUse" class="s-y_bCXRrkrYfP"><stop stop-color="#fff" class="s-y_bCXRrkrYfP"></stop><stop class="bengaluru_svg__dynamic-shade-fill s-y_bCXRrkrYfP" offset="1" stop-color="#3C3C3C"></stop></linearGradient><linearGradient id="faridabad_svg__c" x1="83.202" x2="108.963" y1="51.605" y2="51.605" gradientUnits="userSpaceOnUse" class="s-y_bCXRrkrYfP"><stop class="bengaluru_svg__dynamic-shade-fill s-y_bCXRrkrYfP" stop-color="#3C3C3C"></stop><stop offset="1" stop-color="#fff" class="s-y_bCXRrkrYfP"></stop></linearGradient><clipPath id="faridabad_svg__a" class="s-y_bCXRrkrYfP"><path fill="#fff" d="M.004 0h108.959v52H.003z" class="s-y_bCXRrkrYfP"></path></clipPath><clipPath id="faridabad_svg__d" class="s-y_bCXRrkrYfP"><path fill="#fff" d="M12.827 11.725H96.14v39.574H12.827z" class="s-y_bCXRrkrYfP"></path></clipPath></defs></svg>