<svg xmlns="http://www.w3.org/2000/svg" fill="none" class="s-y_bCXRrkrYfP"><path fill="#FFA500" d="M44.055 1.156a.374.374 0 0 0-.373.375.374.374 0 1 0 .745 0 .373.373 0 0 0-.373-.375M46.892 27.499a.309.309 0 0 0 0-.617.309.309 0 0 0 0 .616M20.217 1.156a.34.34 0 0 0 .339-.341.34.34 0 1 0-.678 0c0 .188.151.34.339.34M17.79 40.994h.057v.057a.285.285 0 1 0 .569 0v-.057h.056a.284.284 0 0 0 .285-.286.285.285 0 0 0-.285-.285h-.056v-.058a.285.285 0 1 0-.569 0v.057h-.057a.285.285 0 0 0-.284.286c0 .158.127.286.284.286M43.68 55.454a1.38 1.38 0 0 0-.694-1.135 1.09 1.09 0 0 0-1.03-.72c-.606 0-1.098.496-1.098 1.105v.055a1.106 1.106 0 0 0 .339 2.156h.225q.087.002.182.003v.789a.285.285 0 1 0 .569 0v-.789q.118 0 .193-.005a1.383 1.383 0 0 0 1.313-1.456zm-.777.62a.81.81 0 0 1-.565.268c-.176.009-.622.005-.912.001h-.23a.534.534 0 0 1-.001-1.068c.093 0 .18-.045.233-.123a.29.29 0 0 0 .032-.263.53.53 0 1 1 1.012-.309c.021.086.08.158.16.197a.816.816 0 0 1 .269 1.294z" class="bengaluru_svg__dynamic-shade-fill s-y_bCXRrkrYfP"></path><path fill="#F5F5F5" d="M36.946 38.515H23.053v4.1h13.893zM36.943 28.765H23.051v4.1h13.892zM36.95 23.117v-4.101h-9.422l-4.493 3.273v.828zM36.957 13.363V12.12l-1.703 1.243zM36.945 57.226V43.714l-6.818 5.667-7.097 5.972v1.873z" class="bengaluru_svg__dynamic-shade-fill s-y_bCXRrkrYfP"></path><path fill="#FFA500" fill-rule="evenodd" d="m31.778 15.078-.004-.044v-2.618L29.746 13.9v2.664zm.499-.364 2.032-1.485v-2.665l-2.032 1.485zm0-3.435 4.529-3.31a.31.31 0 1 1 .367.501l-2.362 1.727v2.664l2.688-1.965V57.95H22.5V21.861l1.678-1.226V17.97l-1.011.739a.292.292 0 0 1-.44-.12.37.37 0 0 1 .128-.422l8.92-6.52V3.2a.251.251 0 0 1 .502 0zm-5.567 7.505-2.03 1.483v-2.664l2.03-1.484zm.502-3.033v2.665l2.031-1.484v-2.665zm9.783 41.523H23.001v-1.938l13.994-11.722zm0-14.609H23.001v-4.2h13.994zm0-4.876H23.001v-4.197h13.994zm0-4.874H23.001v-4.2h13.994zm0-4.876H23.001v-4.198h13.994zm0-4.874H23.001v-.9l4.513-3.3h9.481zm0-4.876h-8.556l5.741-4.198h2.815zm0-4.874v-1.382l-1.89 1.382zM23.001 43.341h13.368L23.001 54.54z" class="bengaluru_svg__dynamic-shade-fill s-y_bCXRrkrYfP" clip-rule="evenodd"></path><path fill="#FFA500" d="m31.778 15.078.03.04.025-.018-.005-.03zm-.004-2.661h.05v-.099l-.08.058zM29.746 13.9l-.03-.04-.02.014v.026zm0 2.664h-.05v.099l.08-.058zm2.53-1.85h-.05v.098l.08-.058zm2.033-1.485.03.04.02-.015v-.025zm0-2.665h.05v-.098l-.08.058zm-2.032 1.485-.03-.04-.02.015v.025zm4.529-4.08-.03-.041zm-4.53 3.31h-.05v.099l.08-.059zm5.002-3.176-.047.019zm-.105.367.03.04zm-2.362 1.727-.03-.04-.02.014v.026zm0 2.664h-.05v.099l.08-.058zm2.688-1.965h.05v-.098l-.08.058zm0 32.081h-.05v.003zm0 .051-.05-.003v.003zm0 14.922V58h.05v-.05zm-14.999 0h-.05V58h.05zm0-36.089-.03-.04-.02.015v.025zm1.678-1.226.03.04.02-.015v-.025zm0-2.665h.05v-.099l-.08.059zm-1.011.739-.03-.04zm-.44-.12-.047.017.001.003zm.128-.422.029.04zm8.92-6.52.029.04.02-.015v-.026zm-7.095 8.62h-.05v.099l.08-.058zm2.03-1.483.03.04.02-.015v-.025zm-2.03-1.181-.03-.04-.02.014v.026zm2.03-1.484h.05v-.099l-.08.058zm.502 2.297h-.05v.099l.08-.058zm0-2.665-.029-.04-.02.015v.025zm2.031 1.18.03.041.02-.015v-.025zm0-2.664h.05v-.098l-.08.058zm-6.242 43.007h-.05v.05h.05zm13.994 0v.05h.05v-.05zm-13.994-1.938-.032-.039-.018.015v.024zm13.994-11.722h.05v-.107l-.082.069zm-13.994-.949h-.05v.05h.05zm13.994 0v.05h.05v-.05zm-13.994-4.2v-.05h-.05v.05zm13.994 0h.05v-.05h-.05zm-13.994-.676h-.05v.05h.05zm13.994 0v.05h.05v-.05zm-13.994-4.197v-.05h-.05v.05zm13.994 0h.05v-.05h-.05zm-13.994-.677h-.05v.05h.05zm13.994 0v.05h.05v-.05zm-13.994-4.2v-.05h-.05v.05zm13.994 0h.05v-.05h-.05zm-13.994-.676h-.05v.05h.05zm13.994 0v.05h.05v-.05zm-13.994-4.198v-.05h-.05v.05zm13.994 0h.05v-.05h-.05zm-13.994-.676h-.05v.05h.05zm13.994 0v.05h.05v-.05zm-13.994-.9-.03-.04-.02.015v.025zm4.513-3.3v-.05h-.016l-.013.01zm9.481 0h.05v-.05h-.05zm-8.556-.676-.03-.04-.123.09h.153zm8.556 0v.05h.05v-.05zm-2.815-4.198v-.05h-.016l-.013.01zm2.815 0h.05v-.05h-.05zm0-2.058h.05v-.098l-.08.058zm0 1.382v.05h.05v-.05zm-1.89 0-.03-.04-.123.09h.153zm1.264 29.926.032.039.106-.089h-.138zm-13.368 0v-.05h-.05v.05zm0 11.199h-.05v.107l.082-.069zm8.723-39.506q0 .027.005.053l.099-.018-.004-.036zm0-2.618v2.617h.1v-2.617zm.02-.04-2.028 1.483.06.08 2.028-1.482zM29.697 13.9v2.664h.1V13.9zm.08 2.705 2.032-1.486-.06-.081-2.032 1.486zm2.53-1.85 2.032-1.486-.059-.08-2.032 1.485zm2.053-1.526v-2.665h-.1v2.665zm-.08-2.705-2.032 1.485.06.08 2.031-1.485zm-1.952 4.19v-2.665h-.1v2.665zm4.45-6.786-4.53 3.31.06.082 4.528-3.311zm.547.156a.36.36 0 0 0-.548-.156l.06.08a.26.26 0 0 1 .395.114zm-.122.427a.36.36 0 0 0 .122-.427l-.093.038a.26.26 0 0 1-.088.308zm-2.361 1.726 2.361-1.726-.059-.081-2.361 1.726zm.02 2.624v-2.664h-.1v2.664zm2.608-2.005-2.687 1.965.059.08 2.687-1.964zm.08 32.121v-32.08h-.1v32.08zm0 .054v-.056l-.1.005v.045zm0 14.919V43.028h-.1V57.95zM22.5 58h14.999v-.1H22.5zm-.05-36.139V57.95h.1V21.861zm1.698-1.267-1.677 1.227.058.08 1.678-1.226zm-.02-2.624v2.665h.1V17.97zm-.932.78 1.011-.74-.059-.08-1.01.739zm-.515-.141c.087.201.338.27.515.14l-.059-.08a.242.242 0 0 1-.364-.1zm.144-.482a.42.42 0 0 0-.145.48l.094-.035a.32.32 0 0 1 .11-.364zm8.92-6.52-8.92 6.52.059.08 8.92-6.52zm-.02-8.406v8.445h.1V3.201zm.3-.301a.3.3 0 0 0-.3.301h.1c0-.111.09-.201.2-.201zm.302.301a.3.3 0 0 0-.301-.301V3c.11 0 .2.09.2.201zm0 8.078V3.201h-.1v8.078zm-7.617 9.029 2.03-1.484-.06-.08-2.03 1.483zm-.08-2.705v2.664h.1v-2.664zm2.05-1.525-2.03 1.484.06.08 2.03-1.483zm.08 2.706v-2.665h-.1v2.665zm.502-.368v-2.665h-.1v2.665zm1.952-1.525-2.031 1.485.059.08 2.03-1.484zm-.02-2.624v2.665h.1v-2.665zm-1.952 1.525 2.03-1.485-.058-.08-2.031 1.484zm-4.241 41.532h13.994v-.1H23.001zm-.05-1.988v1.938h.1v-1.938zm14.012-11.76L22.969 55.297l.064.077 13.994-11.722zm.082 13.698v-13.66h-.1v13.66zM23.001 42.715h13.994v-.1H23.001zm-.05-4.25v4.2h.1v-4.2zm14.044-.05H23.001v.1h13.994zm.05 4.25v-4.2h-.1v4.2zm-14.044-4.826h13.994v-.1H23.001zm-.05-4.247v4.197h.1v-4.197zm14.044-.05H23.001v.1h13.994zm.05 4.247v-4.197h-.1v4.197zm-14.044-4.824h13.994v-.1H23.001zm-.05-4.25v4.2h.1v-4.2zm14.044-.05H23.001v.1h13.994zm.05 4.25v-4.2h-.1v4.2zM23.001 28.09h13.994v-.1H23.001zm-.05-4.247v4.197h.1v-4.198zm14.044-.05H23.001v.1h13.994zm.05 4.247v-4.198h-.1v4.198zm-14.044-4.824h13.994v-.1H23.001zm-.05-.95v.9h.1v-.9zm4.534-3.34-4.514 3.3.06.08 4.513-3.3zm9.51-.01h-9.48v.1h9.48zm.05 4.25v-4.2h-.1v4.2zm-8.606-4.826h8.556v-.1h-8.556zm5.712-4.288L28.41 18.25l.059.08 5.74-4.197zm2.844-.01H34.18v.1h2.815zm.05 4.248v-4.198h-.1v4.198zm-.1-6.256v1.382h.1v-1.382zm-1.81 1.423 1.89-1.382-.06-.081-1.89 1.382zm1.86-.09h-1.89v.1h1.89zm-.626 29.925H23.001v.1h13.368zM23.033 54.578 36.401 43.38l-.064-.077L22.97 54.502zm-.082-11.237V54.54h.1V43.34z" class="bengaluru_svg__dynamic-shade-fill s-y_bCXRrkrYfP"></path><path fill="#FFA500" fill-rule="evenodd" stroke="#FFA500" stroke-width="0.1" d="M32.65 51.173h1.947v-.676H32.65zM32.65 55.486h1.947v-.677H32.65zM27.908 55.486h1.947v-.677h-1.948z" class="bengaluru_svg__dynamic-shade-fill-white s-y_bCXRrkrYfP" clip-rule="evenodd"></path><path fill="#FFA500" d="M19.032 47.907a1.52 1.52 0 0 0-1.24.644 1.52 1.52 0 0 0-1.239-.644 1.53 1.53 0 0 0-1.524 1.53c0 .159.127.286.285.286h2.194v7.928a.285.285 0 1 0 .569 0v-7.928h2.195a.284.284 0 0 0 .284-.285 1.53 1.53 0 0 0-1.524-1.531m-3.39 1.245a.96.96 0 0 1 .911-.674c.427 0 .79.284.912.674H15.64zm2.479 0a.96.96 0 0 1 .911-.674c.428 0 .79.284.912.674z" class="bengaluru_svg__dynamic-shade-fill s-y_bCXRrkrYfP"></path><path fill="#F5F5F5" d="M15.64 49.152a.96.96 0 0 1 .912-.674c.427 0 .79.284.912.674h-1.825zM18.12 49.152a.96.96 0 0 1 .91-.674c.43 0 .791.284.912.674zM42.902 56.073a.81.81 0 0 1-.564.268c-.177.01-.622.006-.912.002h-.23a.534.534 0 0 1-.001-1.068.287.287 0 0 0 .265-.387.533.533 0 0 1 .497-.72c.248 0 .46.17.515.412.021.086.08.158.16.196a.816.816 0 0 1 .269 1.295z" class="bengaluru_svg__dynamic-shade-fill s-y_bCXRrkrYfP"></path><path fill="#FFA500" d="M45.05 13.102a.28.28 0 0 0 .362 0l1.655-1.373 1.654 1.373a.28.28 0 0 0 .363 0l1.656-1.373 1.656 1.373a.283.283 0 0 0 .4-.039c.1-.121.084-.3-.038-.401l-1.836-1.524a.28.28 0 0 0-.362 0l-1.657 1.373-1.654-1.372a.28.28 0 0 0-.362 0l-1.655 1.372-1.654-1.372a.285.285 0 0 0-.362.44z" class="bengaluru_svg__dynamic-shade-fill s-y_bCXRrkrYfP"></path><path fill="url(#gurugram_svg__a)" class="bengaluru_svg__dynamic-shade-fill s-y_bCXRrkrYfP" d="M22.62 57.429H.5v.57h22.12z"></path><path fill="url(#gurugram_svg__b)" class="bengaluru_svg__dynamic-shade-fill s-y_bCXRrkrYfP" d="M59.5 57.429H37.217v.57H59.5z"></path><defs class="s-y_bCXRrkrYfP"><linearGradient id="gurugram_svg__a" x1="0.5" x2="22.619" y1="57.714" y2="57.714" gradientUnits="userSpaceOnUse" class="s-y_bCXRrkrYfP"><stop stop-color="#fff" class="s-y_bCXRrkrYfP"></stop><stop class="gurugram_svg__dynamic-shade-stop-color s-y_bCXRrkrYfP" offset="1" stop-color="#FFA500"></stop></linearGradient><linearGradient id="gurugram_svg__b" x1="37.217" x2="59.5" y1="57.714" y2="57.714" gradientUnits="userSpaceOnUse" class="s-y_bCXRrkrYfP"><stop class="gurugram_svg__dynamic-shade-stop-color s-y_bCXRrkrYfP" stop-color="#FFA500"></stop><stop offset="1" stop-color="#fff" class="s-y_bCXRrkrYfP"></stop></linearGradient></defs></svg>