<svg xmlns="http://www.w3.org/2000/svg" fill="#FFA500" class="s-y_bCXRrkrYfP"><g clip-path="url(#mumbai_svg__a)" class="s-y_bCXRrkrYfP"><path fill="#F5F5F5" class="bengaluru_svg__dynamic-shade-fill s-y_bCXRrkrYfP" d="M26.754 36.647h14.37V51.21h-2.287v-8.575h.306a.393.393 0 0 0 .392-.395.393.393 0 0 0-.392-.395h-.306v-.087c0-3.183-3.547-4.387-3.699-4.434h-.003q-.03-.008-.06-.013-.007 0-.018-.003h-.078c-.01 0-.024.005-.034.005a.3.3 0 0 0-.045.011h-.005c-.151.05-3.7 1.25-3.7 4.434v.087h-.305a.393.393 0 0 0-.392.395c0 .218.175.395.392.395h.306v8.575h-4.442zm3.543-3.375v2.586h-1.38v-2.586zm2.163 0v2.586h-1.38v-2.586zm2.163 0v2.586h-1.38v-2.586zm2.164 0v2.586h-1.38v-2.586zm2.163 0v2.586h-1.38v-2.586zm2.173 0v2.586h-1.39v-2.586zm5.968-4.3h1.5v3.51h-1.5zm24.12 4.3v2.586h-1.39v-2.586zm2.163 0v2.586h-1.38v-2.586zm2.163 0v2.586h-1.38v-2.586zm2.163 0v2.586h-1.38v-2.586zm2.163 0v2.586h-1.38v-2.586zm2.163 0v2.586h-1.379v-2.586zm-3.793 13.012c-.186-1.604-1.49-2.38-2.202-2.575q-.011.001-.027-.005c-.013 0-.026-.006-.039-.006h-.076a.1.1 0 0 0-.041.008q-.012 0-.024.003c-.713.195-2.017.971-2.202 2.575a.395.395 0 0 0-.353.392v4.534h-.381v-8.575h6.074v8.575h-.382v-4.534a.39.39 0 0 0-.352-.392zm1.518-3.647h.306a.393.393 0 0 0 .391-.395.393.393 0 0 0-.391-.395h-.306v-.087c0-3.183-3.548-4.386-3.7-4.433h-.002q-.03-.008-.06-.014-.007 0-.016-.002h-.078c-.01 0-.021.005-.032.005a.2.2 0 0 0-.044.01h-.005c-.152.05-3.7 1.251-3.7 4.435v.086h-.305a.393.393 0 0 0-.392.395c0 .219.175.395.392.395h.305v8.576h-2.286V36.65h14.37v14.563h-4.442v-8.576zM63.853 32.482h-1.5v-3.51h1.5zm-1.803 9.365h-.572c-.24-5.895-5.847-7.485-5.904-7.5q-.012.001-.024-.006c-.013 0-.026-.005-.039-.005h-.076q-.021.002-.044.008-.01 0-.02.002c-.058.016-5.665 1.606-5.905 7.501h-.575a.393.393 0 0 0-.392.395v8.97h-.533V33.276h15.01v17.938h-.534v-8.97a.393.393 0 0 0-.392-.396m-.48-9.365h-1.38v-3.51h1.38zm-2.163 0h-1.38v-3.51h1.38zm-2.164 0h-1.38v-3.51h1.38zm-2.163 0H53.7v-3.51h1.38zm-2.163 0h-1.38v-3.51h1.38zm-2.163 0h-1.38v-3.51h1.38zM31.977 42.637h6.074v8.576h-.381v-4.534a.39.39 0 0 0-.353-.393c-.185-1.603-1.49-2.38-2.203-2.575q-.01.001-.026-.005c-.013 0-.026-.005-.039-.005h-.075a.1.1 0 0 0-.042.008q-.012 0-.024.002c-.713.195-2.017.972-2.202 2.575a.395.395 0 0 0-.353.393v4.534h-.381v-8.576zm52.215-6.777h-1.38v-2.585h1.38zm0-3.375H68.945v-3.51h15.247zm-57.438-3.51h15.247v3.51H26.754zm1.38 4.3v2.585h-1.38v-2.585z"></path><path fill="#FFA500" d="M43.086 27.058v-4.273h2.926v4.273zm21.854 0v-4.273h2.926v4.273zm1.463-11.59 1.124 1.704H65.28zm-10.926 5.508h8.68v1.02H46.795v-1.02h8.681m-10.926-5.508 1.124 1.704h-2.247z" class="bengaluru_svg__dynamic-shade-fill s-y_bCXRrkrYfP"></path><path fill="#FFA500" d="M54.754 8.338a.427.427 0 0 0 0-.853.427.427 0 0 0 0 .853M81.096 12.696a.235.235 0 0 0 .298 0l1.359-1.13 1.356 1.13a.235.235 0 0 0 .298 0l1.358-1.13 1.359 1.13a.235.235 0 0 0 .33-.031.24.24 0 0 0-.032-.333l-1.508-1.253a.235.235 0 0 0-.298 0l-1.358 1.13-1.356-1.13a.235.235 0 0 0-.298 0l-1.359 1.13-1.356-1.13a.234.234 0 0 0-.329.032.24.24 0 0 0 .032.332zM32.476 2.385h1.709a2.845 2.845 0 0 0-.38 3.17h-1.33a.393.393 0 0 0-.391.395c0 .219.175.395.392.395h1.442c.133 0 .25-.068.321-.168a2.86 2.86 0 0 0 2.114.937h5.413a2.584 2.584 0 0 0 2.581-2.58 2.584 2.584 0 0 0-2.58-2.58q-.399.002-.777.12A2.59 2.59 0 0 0 38.46.004c-.977 0-1.85.54-2.292 1.393-.31.02-.606.092-.883.202h-2.81a.393.393 0 0 0-.393.395c0 .219.175.395.392.395zm3.89-.208h.042a.4.4 0 0 0 .379-.247 1.8 1.8 0 0 1 3.472.671v.04a.39.39 0 0 0 .588.355 1.797 1.797 0 0 1 2.717 1.535c0 .988-.808 1.79-1.798 1.79h-5.413c-1.147 0-2.08-.929-2.08-2.074a2.08 2.08 0 0 1 2.096-2.072z" class="bengaluru_svg__dynamic-shade-fill s-y_bCXRrkrYfP"></path><path fill="#FFA500" d="M29.819 3.952h2.884a.393.393 0 0 0 .392-.395.393.393 0 0 0-.392-.395H29.82a.393.393 0 0 0-.392.395c0 .219.175.395.392.395M31.405 5.95a.393.393 0 0 0-.392-.395h-.303a.393.393 0 0 0-.392.395c0 .219.175.395.392.395h.303a.393.393 0 0 0 .392-.395M35.209.79h.303a.393.393 0 0 0 .392-.395.393.393 0 0 0-.392-.395h-.303a.393.393 0 0 0-.392.395c0 .218.175.395.392.395M24.76 19.894h.372v.374a.393.393 0 1 0 .784 0v-.374h.371a.393.393 0 0 0 .392-.395.393.393 0 0 0-.392-.394h-.37v-.374a.393.393 0 1 0-.785 0v.373h-.371a.393.393 0 0 0-.392.395c0 .219.175.395.392.395M56.901 46.542h.079v.079a.393.393 0 1 0 .784 0v-.08h.078a.393.393 0 0 0 .392-.394.393.393 0 0 0-.392-.395h-.078v-.079a.393.393 0 1 0-.784 0v.079H56.9a.393.393 0 0 0-.392.395c0 .218.175.395.392.395M78.197 21.85a.393.393 0 0 0 .392-.394v-.08h.078a.393.393 0 0 0 .392-.394.393.393 0 0 0-.392-.395h-.078v-.08a.393.393 0 1 0-.784 0v.08h-.079a.393.393 0 0 0-.392.395c0 .218.175.395.392.395h.079v.079c0 .218.175.395.392.395" class="bengaluru_svg__dynamic-shade-fill s-y_bCXRrkrYfP"></path><path fill="#FFA500" fill-rule="evenodd" d="M42.299 22.783h-.76a.393.393 0 0 1-.392-.395c0-.219.175-.395.392-.395h.783V17.53l.014-.071q0-.006.004-.013 0-.008.003-.014a.4.4 0 0 1 .04-.081v-.008l1.787-2.712v-1.488c0-.218.175-.395.392-.395.216 0 .391.177.391.396v1.487l1.787 2.715v.005a.5.5 0 0 1 .04.082l.002.006q.005.01.006.02a.2.2 0 0 1 .013.07v2.655h17.36V17.53a.3.3 0 0 1 .017-.084l.004-.014a.4.4 0 0 1 .04-.081v-.008l1.786-2.712v-1.488c0-.218.175-.395.392-.395s.392.177.392.396v1.487l1.758 2.667.011.017.01.017.01.017.011.018a.4.4 0 0 1 .042.102q.008.017.008.035l.005.024a.2.2 0 0 1 .005.036q0 .015-.002.026l-.003.027v4.376h.784c.217 0 .392.176.392.395a.393.393 0 0 1-.392.395h-.784v4.273h16.776c.217 0 .392.176.392.395a.393.393 0 0 1-.392.395h-59.9a.393.393 0 0 1-.391-.395c0-.219.175-.395.391-.395H42.3zm.784 0v4.273h2.926v-4.273zm2.926-4.824h-2.926v4.034h2.926zm18.142 4.824H46.79v4.273h17.36zm.784-4.824v4.034h2.926v-4.034zm0 4.824v4.273h2.926v-4.273zm2.586-5.614-1.123-1.703-1.124 1.703zm-3.37 3.805H46.79v1.019h17.36zm-18.482-3.805-1.123-1.703-1.123 1.703zm39.307 16.1v17.98l-63.748.003v-.708l-.125-.003-.126-.002h-.31a1.52 1.52 0 0 1-1.516-1.527c0-.677.442-1.254 1.048-1.454v-.076c0-.843.68-1.527 1.515-1.527.643 0 1.202.4 1.419.995.562.324.925.911.956 1.57a1.917 1.917 0 0 1-1.81 2.013q-.105.009-.267.008v.709h3.96V33.27h-.446a.393.393 0 0 1-.392-.396c0-.218.175-.394.392-.394h.447v-3.51h-.447a.393.393 0 0 1-.392-.395c0-.218.175-.395.392-.395h59.897c.216 0 .391.177.391.395a.393.393 0 0 1-.391.395h-.447v3.51h.447c.216 0 .391.176.391.395a.393.393 0 0 1-.391.395zM21.228 51.253h-3.3zm-1.293-2.238c0 .406.33.737.732.737h.313c.4.006 1.014.011 1.257-.002a1.127 1.127 0 0 0 1.069-1.187 1.13 1.13 0 0 0-.662-.975.4.4 0 0 1-.22-.27.726.726 0 0 0-.71-.57.737.737 0 0 0-.684.996.4.4 0 0 1-.045.363.39.39 0 0 1-.321.171.736.736 0 0 0-.73.737m21.19-12.367H26.757V51.21h4.442v-8.575h-.306a.393.393 0 0 1-.392-.395c0-.219.175-.395.392-.395h.306v-.087c0-3.183 3.548-4.384 3.7-4.434h.005a.3.3 0 0 1 .061-.013l.017-.003h.079l.018.003a.4.4 0 0 1 .06.013h.002c.152.047 3.7 1.25 3.7 4.434v.087h.305c.217 0 .392.176.392.395a.393.393 0 0 1-.392.395h-.305v8.575h2.286zm-10.826-.79v-2.585h-1.38v2.586zm2.163 0v-2.585h-1.38v2.586zm2.164 0v-2.585h-1.38v2.586zm2.163 0v-2.585h-1.38v2.586zm2.163 0v-2.585h-1.38v2.586zm2.174 0v-2.585h-1.39v2.586zm6.061-2.585H41.91V51.21h5.277zm1.406-4.3h-1.5v3.51h1.5zm22.62 6.886v-2.586h-1.39v2.586zm2.163 0v-2.586h-1.38v2.586zm2.163 0v-2.586h-1.38v2.586zm2.163 0v-2.586h-1.38v2.586zm2.163 0v-2.586h-1.379v2.586zm2.164 0v-2.586h-1.38v2.586zm-4.554 10.818c0-1.485-1.189-2.038-1.544-2.17h-.003c-.363.132-1.541.68-1.541 2.17 0 .198-.144.361-.33.39v4.144h3.747v-4.144a.39.39 0 0 1-.329-.39m-1.442-2.967c.713.195 2.017.971 2.202 2.575h-.005a.39.39 0 0 1 .353.392v4.534h.381v-8.575H72.89v8.575h.381v-4.534c0-.203.154-.371.353-.392.186-1.603 1.49-2.38 2.202-2.575q.012-.004.024-.003a.1.1 0 0 1 .042-.008h.076l.02.003q.009.002.019.003.014.006.026.005m-.1-5.587c.579.228 3.036 1.329 3.036 3.639v.086h-6.074v-.086c0-2.31 2.455-3.411 3.037-3.639m4.126 4.515h-.3v8.576h4.44V36.65H69.832v14.563h2.285v-8.576h-.305a.393.393 0 0 1-.392-.395c0-.218.175-.395.392-.395h.305v-.086c0-3.184 3.549-4.384 3.7-4.434h.005q.02-.007.045-.01l.015-.003.016-.003h.079l.01.002h.005q.03.005.06.014h.003c.151.047 3.7 1.25 3.7 4.434v.086h.305c.217 0 .392.177.392.395a.393.393 0 0 1-.392.395m-11.02-6.384v-2.98H63.76V51.21h5.278zm-4.4-3.77h3.522v-3.51H64.64zm-2.283 0h1.5v-3.51h-1.5zm-1.651 9.76c0-5.198-4.51-6.87-5.233-7.104-.766.24-5.23 1.867-5.23 7.103a.393.393 0 0 1-.393.395h-.564v8.576h12.376v-8.576h-.564a.393.393 0 0 1-.392-.395m.776-.396h.572c.217 0 .392.177.392.395v8.97h.533V33.276h-15.01v17.938h.533v-8.97c0-.22.175-.396.392-.396h.575c.24-5.895 5.847-7.485 5.904-7.5q.01-.004.021-.003l.016-.004q.014-.004.029-.004h.076l.019.002.02.003q.011.006.023.005c.058.016 5.664 1.606 5.905 7.502m-1.288-9.365h1.38v-3.51h-1.38zm-2.164 0h1.38v-3.51h-1.38zm-2.163 0h1.38v-3.51h-1.38zm-2.163 0h1.38v-3.51h-1.38zm-2.163 0h1.38v-3.51h-1.38zm-2.164 0h1.38v-3.51h-1.38zm-14.357 5.64c-.582.228-3.037 1.329-3.037 3.639v.086h6.074v-.086c0-2.31-2.457-3.411-3.037-3.639m3.034 4.515h-6.079v8.576h.381v-4.534c0-.203.154-.371.353-.392.186-1.604 1.49-2.38 2.202-2.575q.012-.004.024-.003a.1.1 0 0 1 .042-.008h.076l.02.003.019.002a.1.1 0 0 0 .026.006c.713.194 2.017.971 2.202 2.575a.39.39 0 0 1 .353.392v4.534h.381zm-1.494 4.04c0-1.486-1.189-2.039-1.544-2.17h-.003c-.363.131-1.541.679-1.541 2.17 0 .197-.144.36-.33.389v4.144h3.747v-4.144a.39.39 0 0 1-.329-.39M82.813 35.86h1.379v-2.585h-1.38zm-13.868-3.375h15.247v-3.51H68.945zm-26.16 0h3.522v-3.51h-3.522zM42 28.975H26.754v3.51H42zM28.133 35.86v-2.585h-1.38v2.585z" class="bengaluru_svg__dynamic-shade-fill s-y_bCXRrkrYfP" clip-rule="evenodd"></path><path fill="#FFA500" d="M42.694 34.939h3.71a.393.393 0 0 0 .391-.395.393.393 0 0 0-.391-.395h-3.71a.393.393 0 0 0-.392.395c0 .218.175.395.392.395M42.694 36.648h3.71a.393.393 0 0 0 .391-.395.393.393 0 0 0-.391-.395h-3.71a.393.393 0 0 0-.392.395c0 .218.175.395.392.395M68.256 34.149h-3.71a.393.393 0 0 0-.392.395c0 .218.175.395.392.395h3.71a.393.393 0 0 0 .391-.395.393.393 0 0 0-.392-.395M68.256 35.858h-3.71a.393.393 0 0 0-.392.395c0 .218.175.395.392.395h3.71a.393.393 0 0 0 .391-.395.393.393 0 0 0-.392-.395M44.546 18.575a.393.393 0 0 0-.392.395v1.609a.393.393 0 1 0 .784 0V18.97a.393.393 0 0 0-.392-.395M66.4 20.974a.393.393 0 0 0 .393-.395V18.97a.393.393 0 1 0-.784 0v1.609c0 .218.175.395.392.395" class="bengaluru_svg__dynamic-shade-fill s-y_bCXRrkrYfP"></path><path fill="url(#mumbai_svg__b)" class="bengaluru_svg__dynamic-shade-fill s-y_bCXRrkrYfP" d="M26.752 51.21H.994V52h25.758z"></path><path fill="#FFA500" d="M84.192 51.21H26.754V52h57.438z" class="bengaluru_svg__dynamic-shade-fill s-y_bCXRrkrYfP"></path><path fill="url(#mumbai_svg__c)" class="bengaluru_svg__dynamic-shade-fill s-y_bCXRrkrYfP" d="M109.95 51.21H84.192V52h25.758z"></path></g><defs class="s-y_bCXRrkrYfP"><linearGradient id="mumbai_svg__b" x1="0.994" x2="26.752" y1="51.605" y2="51.605" gradientUnits="userSpaceOnUse" class="s-y_bCXRrkrYfP"><stop stop-color="#fff" class="s-y_bCXRrkrYfP"></stop><stop class="mumbai_svg__dynamic-shade-stop-color s-y_bCXRrkrYfP" offset="1" stop-color="#FFA500"></stop></linearGradient><linearGradient id="mumbai_svg__c" x1="84.192" x2="109.953" y1="51.605" y2="51.605" gradientUnits="userSpaceOnUse" class="s-y_bCXRrkrYfP"><stop class="mumbai_svg__dynamic-shade-stop-color s-y_bCXRrkrYfP" stop-color="#FFA500"></stop><stop offset="1" stop-color="#fff" class="s-y_bCXRrkrYfP"></stop></linearGradient><clipPath id="mumbai_svg__a" class="s-y_bCXRrkrYfP"><path fill="#fff" d="M.994 0h108.959v52H.993z" class="s-y_bCXRrkrYfP"></path></clipPath></defs></svg>