<svg xmlns="http://www.w3.org/2000/svg" fill="none" class="s-y_bCXRrkrYfP"><g clip-path="url(#noida_svg__a)" class="bengaluru_svg__dynamic-shade-fill s-y_bCXRrkrYfP"><path fill="#FFA500" d="M80.81 8.953a.235.235 0 0 0 .298 0l1.359-1.13 1.356 1.13a.235.235 0 0 0 .298 0l1.358-1.13 1.359 1.13a.235.235 0 0 0 .33-.032.24.24 0 0 0-.033-.33l-1.507-1.254a.235.235 0 0 0-.298 0l-1.358 1.13-1.356-1.13a.235.235 0 0 0-.298 0l-1.359 1.13-1.356-1.13a.234.234 0 0 0-.329.031.24.24 0 0 0 .031.332zM87.612 23.29h.37v.373a.393.393 0 1 0 .785 0v-.374h.371a.393.393 0 0 0 .392-.395.393.393 0 0 0-.392-.394h-.371v-.374a.393.393 0 1 0-.784 0v.373h-.371a.393.393 0 0 0-.392.396c0 .218.175.394.392.394" class="bengaluru_svg__dynamic-shade-fill s-y_bCXRrkrYfP"></path><path fill="url(#noida_svg__b)" class="bengaluru_svg__dynamic-shade-fill s-y_bCXRrkrYfP" d="M26.465 51.71H.707v.79h25.758z"></path><path fill="#FFA500" d="M83.906 51.71H26.468v.79h57.438z" class="bengaluru_svg__dynamic-shade-fill s-y_bCXRrkrYfP"></path><path fill="url(#noida_svg__c)" class="bengaluru_svg__dynamic-shade-fill s-y_bCXRrkrYfP" d="M109.663 51.71H83.905v.79h25.758z"></path></g><g clip-path="url(#noida_svg__d)" class="s-y_bCXRrkrYfP"><mask id="noida_svg__e" width="67" height="49" x="21.271" y="7.945" fill="#000" maskUnits="userSpaceOnUse" class="s-y_bCXRrkrYfP"><path fill="#fff" d="M21.271 7.945h67v49h-67z" class="s-y_bCXRrkrYfP"></path><path fill-rule="evenodd" d="M76.893 43.251c-.09-.393-.558-.684-1.14-.684-.583 0-1.052.29-1.141.684-.309.08-.52.296-.52.558v.354a.27.27 0 0 0-.164.245v7.723a.266.266 0 0 0 .53 0v-7.477a.265.265 0 0 0 .165-.246v-.583c.022-.024.106-.074.245-.077a.265.265 0 0 0 .259-.265v-.094c0-.116.25-.291.626-.291.375 0 .625.175.625.29v.095c0 .144.115.261.259.265.139.004.222.053.245.078v.582c0 .111.068.206.164.246v7.477a.266.266 0 0 0 .53 0v-7.723a.27.27 0 0 0-.163-.245v-.354c0-.262-.212-.477-.52-.558m6.984-7.487a.502.502 0 0 1 1 0zm.05 1.488h.9v-.68h-.9zm.47-2.494.006.007c0 .007-.013.007-.013 0zM67.16 36.76a.265.265 0 0 0-.237.385l-.174-.214v-1.116l-.001-.023a.3.3 0 0 0 .05-.02c.03.046.075.082.127.103a.265.265 0 0 0 .235.387h11.016v.415q0 .044.013.083zm.4 2.007H42.813l1.204-1.476h22.343zm-1.705 3.223h.705v-.873h-.705zm-22.024-2.25h22.71v-.15h-22.71zm-.018 2.25h.704v-.873h-.704zm-.6-5.23h-11.03a.3.3 0 0 0 .014-.083v-.415h11.015a.265.265 0 0 0 .235-.387.27.27 0 0 0 .127-.103.3.3 0 0 0 .05.02v1.139l-.175.214a.265.265 0 0 0-.237-.385m-12.141-1.787v-.2h12.65a1 1 0 0 0-.108.242.26.26 0 0 0-.144-.042zm13.545-.7.006-.006.007.006c0 .008-.013.008-.013 0m-.463 2.487h.899v-.68h-.899zm-.05-1.487a.502.502 0 0 1 1 0zm2.716 1.487h-.246a.27.27 0 0 0 .123-.13.27.27 0 0 0 .123.13m.943 0h-.246a.27.27 0 0 0 .123-.13.27.27 0 0 0 .123.13m.943 0h-.246a.27.27 0 0 0 .123-.13.27.27 0 0 0 .123.13m.944 0h-.247a.27.27 0 0 0 .123-.13.27.27 0 0 0 .124.13m.943 0h-.247a.27.27 0 0 0 .124-.13.27.27 0 0 0 .123.13m.943 0h-.246a.27.27 0 0 0 .123-.13.27.27 0 0 0 .123.13m.943 0h-.246a.27.27 0 0 0 .123-.13.27.27 0 0 0 .123.13m.944 0h-.246a.27.27 0 0 0 .123-.13.27.27 0 0 0 .123.13m.943 0h-.246a.27.27 0 0 0 .123-.13.27.27 0 0 0 .123.13m.943 0h-.246a.27.27 0 0 0 .123-.13.27.27 0 0 0 .123.13m.943 0h-.246a.27.27 0 0 0 .123-.13.27.27 0 0 0 .123.13m.944 0h-.247a.27.27 0 0 0 .124-.13.27.27 0 0 0 .123.13m.943 0h-.246a.27.27 0 0 0 .123-.13.27.27 0 0 0 .123.13m.943 0h-.246a.27.27 0 0 0 .123-.13.27.27 0 0 0 .123.13m.944 0h-.247a.27.27 0 0 0 .123-.13.27.27 0 0 0 .124.13m.943 0h-.247a.27.27 0 0 0 .124-.13.27.27 0 0 0 .123.13m.943 0h-.246a.27.27 0 0 0 .123-.13.27.27 0 0 0 .123.13m.943 0h-.246a.27.27 0 0 0 .123-.13.27.27 0 0 0 .123.13m.944 0h-.247a.27.27 0 0 0 .123-.13.27.27 0 0 0 .124.13m1.983-2.487.006-.006.007.006c0 .008-.013.008-.013 0m-.463 2.487h.899v-.68h-.899zm-.05-1.487a.502.502 0 0 1 1 0zm-33.586-1.47h11.94a.265.265 0 0 0 .26-.316h2.838q.066 0 .122-.029v.956c0 .101.057.19.141.234a.266.266 0 0 0-.217.261v.496c0 .146.118.265.265.265h16.308a.266.266 0 0 0 .265-.265v-.496a.266.266 0 0 0-.217-.26.27.27 0 0 0 .14-.235v-1.06c.047.08.132.134.231.134h2.73a.265.265 0 0 0 .26.315h11.94v.094H66.597a.265.265 0 0 0-.201.438.3.3 0 0 0-.058.113l-.059-.037a.534.534 0 1 0-1.019 0 1.03 1.03 0 0 0-.523.894.265.265 0 0 0 .054.487l-.001.023v.945h-.293a.27.27 0 0 0 .145-.236v-.565a.265.265 0 0 0-.265-.266h-.457a.27.27 0 0 0-.244.16.27.27 0 0 0-.242-.16h-.457a.27.27 0 0 0-.244.16.27.27 0 0 0-.243-.16h-.457a.27.27 0 0 0-.243.16.27.27 0 0 0-.243-.16h-.457a.27.27 0 0 0-.243.16.27.27 0 0 0-.244-.16h-.456a.27.27 0 0 0-.243.16.27.27 0 0 0-.244-.16h-.457a.27.27 0 0 0-.243.16.27.27 0 0 0-.243-.16h-.457a.27.27 0 0 0-.243.16.27.27 0 0 0-.243-.16h-.457a.27.27 0 0 0-.243.16.27.27 0 0 0-.243-.16h-.458a.27.27 0 0 0-.243.16.27.27 0 0 0-.243-.16h-.457a.27.27 0 0 0-.243.16.27.27 0 0 0-.243-.16h-.457a.27.27 0 0 0-.243.16.27.27 0 0 0-.243-.16h-.457a.27.27 0 0 0-.243.16.27.27 0 0 0-.244-.16H52.6a.27.27 0 0 0-.243.16.27.27 0 0 0-.243-.16h-.457a.27.27 0 0 0-.243.16.27.27 0 0 0-.243-.16h-.457a.27.27 0 0 0-.243.16.27.27 0 0 0-.243-.16h-.457a.27.27 0 0 0-.244.16.27.27 0 0 0-.243-.16h-.457a.27.27 0 0 0-.243.16.27.27 0 0 0-.243-.16h-.457a.27.27 0 0 0-.243.16.27.27 0 0 0-.243-.16h-.457a.27.27 0 0 0-.243.16.27.27 0 0 0-.243-.16h-.458a.265.265 0 0 0-.265.266v.565c0 .103.06.193.145.236h-.293v-.968a.265.265 0 0 0 .053-.487 1.03 1.03 0 0 0-.523-.894.534.534 0 1 0-1.019 0l-.06.037a.3.3 0 0 0-.056-.113.264.264 0 0 0-.202-.438H31.684zm6.334-7.83h.11c-.532.53-1.01 1.31-1.406 2.3-.529 1.32-.888 2.957-1.039 4.732a.27.27 0 0 0 .161.267h-2.396l.004-.043a.266.266 0 0 0-.266-.266h-.636a7.29 7.29 0 0 1 5.468-6.99m6.139 6.597h2.566q.065 0 .121-.03v.447a.3.3 0 0 0-.122-.03h-2.565zm.767-1.218h1.798a.265.265 0 0 0 .23-.398.3.3 0 0 0 .06-.026V31c0 .1.055.186.136.23h-.039a.266.266 0 0 0-.265.266v.14a.3.3 0 0 0-.122-.03h-1.798zm7.198-6.687h6.238v-.677h-6.238zm-1.874 1.92h9.986v-.925h-9.986zm-1.675.931v-.002h.009zm14.447 7a.26.26 0 0 0 .113.128h-.196a.27.27 0 0 0 .083-.127M63 31.763v.116a.27.27 0 0 0-.126-.116zm-15.563 2.882h-.195a.26.26 0 0 0 .112-.127q.023.076.083.127m-.062-2.766v-.116h.125a.27.27 0 0 0-.125.116m.073-1.636h.214a.27.27 0 0 0-.096.204v.288h-.023v-.288a.27.27 0 0 0-.095-.204m.89 2.027v2.172c0 .081.037.154.095.203h-.654a.26.26 0 0 0 .095-.203v-2.172zm-.336-2.027h.28a.27.27 0 0 0-.096.204V31c0 .1.055.186.136.23h-.36a.27.27 0 0 0 .135-.23v-.554a.27.27 0 0 0-.095-.204m.62 0h.214a.27.27 0 0 0-.095.204v.288h-.024v-.288a.27.27 0 0 0-.095-.204m.389 4.402h-.236a.26.26 0 0 0 .094-.203v-2.437c0-.108-.064-.2-.157-.242h.362a.27.27 0 0 0-.157.242v2.437c0 .081.036.154.094.203m.904-4.198v.288h-.024v-.288a.27.27 0 0 0-.095-.204h.214a.27.27 0 0 0-.095.204m-.468 3.995v-2.172h.465v2.172c0 .081.037.154.094.203h-.653a.26.26 0 0 0 .094-.203m-.271-4.2h.28a.27.27 0 0 0-.096.205V31c0 .1.055.186.136.23h-.36a.27.27 0 0 0 .135-.23v-.554a.26.26 0 0 0-.095-.204m1.134.99a.27.27 0 0 0 .136-.231v-.554a.26.26 0 0 0-.096-.204h.28a.27.27 0 0 0-.095.204V31c0 .1.055.186.135.23zm.274 3.413h-.235a.26.26 0 0 0 .094-.203v-2.437c0-.108-.065-.2-.157-.242h.361a.27.27 0 0 0-.157.242v2.437c0 .081.037.154.094.203m.9-3.413A.27.27 0 0 0 51.62 31v-.554a.27.27 0 0 0-.095-.204h.28a.27.27 0 0 0-.096.204V31c0 .1.055.186.135.23zm-.463 3.21v-2.172h.465v2.172c0 .081.036.154.094.203h-.653a.26.26 0 0 0 .094-.203m-.05-4.2h.213a.26.26 0 0 0-.095.205v.288h-.023v-.288a.26.26 0 0 0-.096-.204m1.187 4.403h-.236a.26.26 0 0 0 .094-.203v-2.437c0-.108-.064-.2-.157-.242h.362a.27.27 0 0 0-.157.242v2.437c0 .081.036.154.094.203m-.014-4.402h.215a.26.26 0 0 0-.096.204v.288h-.023v-.288a.26.26 0 0 0-.096-.204m.915 2.027v2.172c0 .081.037.154.094.203H52.5a.26.26 0 0 0 .094-.203v-2.172zm-.36-2.027h.28a.26.26 0 0 0-.096.204V31c0 .1.055.186.136.23h-.36a.27.27 0 0 0 .135-.23v-.554a.27.27 0 0 0-.095-.204m.62 0h.214a.27.27 0 0 0-.096.204v.288h-.023v-.288a.26.26 0 0 0-.096-.204m.412 4.402h-.236a.26.26 0 0 0 .095-.203v-2.437c0-.108-.065-.2-.157-.242h.361a.27.27 0 0 0-.157.242v2.437c0 .081.037.154.094.203m.762-4.402h.214a.27.27 0 0 0-.095.204v.288h-.024v-.288a.27.27 0 0 0-.095-.204m-.325 4.199v-2.172h.465v2.172c0 .081.036.154.094.203h-.653a.26.26 0 0 0 .094-.203m-.295-4.2h.28a.26.26 0 0 0-.096.205V31c0 .1.055.186.136.23h-.36a.26.26 0 0 0 .135-.23v-.554a.27.27 0 0 0-.095-.204m1.174 0h.28a.27.27 0 0 0-.095.205V31c0 .1.054.186.135.23h-.36a.27.27 0 0 0 .136-.23v-.554a.27.27 0 0 0-.096-.204m.258 4.403h-.236a.26.26 0 0 0 .094-.203v-2.437c0-.108-.064-.2-.157-.242h.362a.27.27 0 0 0-.157.242v2.437c0 .081.036.154.094.203m.876-3.413a.27.27 0 0 0 .136-.231v-.554a.27.27 0 0 0-.096-.204h.28a.27.27 0 0 0-.095.204V31c0 .1.054.186.135.23zm-.44 3.21v-2.172h.465v2.172c0 .081.037.154.095.203h-.654a.26.26 0 0 0 .094-.203m-.074-4.2h.214a.27.27 0 0 0-.095.205v.288h-.024v-.288a.27.27 0 0 0-.095-.204m1.27.493v-.288a.27.27 0 0 0-.096-.204h.214a.27.27 0 0 0-.095.204v.288zm-.058 3.91h-.236a.26.26 0 0 0 .094-.203v-2.437c0-.108-.065-.2-.157-.242h.361a.27.27 0 0 0-.157.242v2.437c0 .081.037.154.095.203m.9-2.375v2.172c0 .081.037.154.095.203h-.653a.26.26 0 0 0 .094-.203v-2.172zm-.383-2.027h.28a.27.27 0 0 0-.096.204V31c0 .1.055.186.136.23h-.36a.27.27 0 0 0 .135-.23v-.554a.26.26 0 0 0-.095-.204m.62 0h.214a.26.26 0 0 0-.096.204v.288h-.023v-.288a.27.27 0 0 0-.095-.204m.436 4.402h-.236a.26.26 0 0 0 .095-.203v-2.437c0-.108-.065-.2-.158-.242h.362a.27.27 0 0 0-.157.242v2.437c0 .081.036.154.094.203m.738-4.402h.214a.26.26 0 0 0-.095.204v.288h-.024v-.288a.26.26 0 0 0-.095-.204m-.301 4.199v-2.172h.464v2.172c0 .081.037.154.095.203h-.654a.26.26 0 0 0 .095-.203m-.32-4.2h.28a.27.27 0 0 0-.095.205V31c0 .1.055.186.136.23h-.36a.27.27 0 0 0 .135-.23v-.554a.26.26 0 0 0-.095-.204m1.175 0h.28a.26.26 0 0 0-.095.205V31c0 .1.054.186.135.23h-.36a.27.27 0 0 0 .135-.23v-.554a.27.27 0 0 0-.095-.204m.282 4.403h-.236a.27.27 0 0 0 .094-.203v-2.437c0-.108-.065-.2-.157-.242h.361a.27.27 0 0 0-.157.242v2.437c0 .081.037.154.095.203m.852-3.413a.26.26 0 0 0 .136-.231v-.554a.27.27 0 0 0-.096-.204h.28a.26.26 0 0 0-.095.204V31c0 .1.054.186.135.23zm-.416 3.21v-2.172h.465v2.172c0 .081.037.154.094.203h-.653a.26.26 0 0 0 .094-.203m-.098-4.2h.214a.27.27 0 0 0-.095.205v.288h-.024v-.288a.26.26 0 0 0-.095-.204m1.293.205v.288h-.023v-.288a.27.27 0 0 0-.096-.204h.214a.27.27 0 0 0-.095.204m-.058 4.198h-.236a.27.27 0 0 0 .095-.203v-2.437c0-.108-.065-.2-.158-.242h.362a.27.27 0 0 0-.157.242v2.437c0 .081.036.154.094.203M47.543 29.71H62.94v-.167H47.543zM62.5 32.27v2.172c0 .081.037.154.095.203h-.654a.26.26 0 0 0 .094-.203v-2.172zm-.407-2.027h.28a.27.27 0 0 0-.096.204V31c0 .1.055.186.136.23h-.36a.26.26 0 0 0 .135-.23v-.554a.27.27 0 0 0-.095-.204m.62 0h.213a.27.27 0 0 0-.095.204v.288h-.023v-.288a.27.27 0 0 0-.095-.204m-9.779-8.719h4.614a9.22 9.22 0 0 1 6.923 8.918l-.559.016a.266.266 0 0 0-.233.377.266.266 0 0 0 .081.518h1.798v.254H63.76a.27.27 0 0 0-.23.133v-.243a.265.265 0 0 0-.265-.265h-.038a.27.27 0 0 0 .135-.231v-.554c0-.086-.04-.161-.103-.21a.265.265 0 0 0 .211-.26v-.697a.265.265 0 0 0-.265-.266h-.891a.26.26 0 0 0 .035-.131V27.23a.265.265 0 1 0-.53 0v1.652q0 .072.034.131H48.521a.26.26 0 0 0 .035-.131v-.865a.3.3 0 0 0 .048.005h12.24a.266.266 0 0 0 .045-.527h.48a.265.265 0 0 0 0-.53h-.63a.3.3 0 0 0 .026-.115v-1.455a.265.265 0 0 0-.265-.266h-1.7a.27.27 0 0 0 .09-.199v-1.207a.265.265 0 0 0-.265-.265h-6.768a.265.265 0 0 0-.265.265v1.207c0 .08.035.15.09.2h-1.7a.266.266 0 0 0-.265.265v1.455q0 .062.027.114H48.29a.265.265 0 0 0-.266.266v1.652q.001.072.035.131h-.782a.266.266 0 0 0-.266.265v.698c0 .102.057.19.141.235a.27.27 0 0 0-.141.235v.025a.26.26 0 0 0-.135-.037h-.866a9.22 9.22 0 0 1 6.923-8.91m.488-.662v-.664h3.638v.664q.001.073.035.132h-3.708a.26.26 0 0 0 .035-.132m1.82-2.099.521.904H54.72zm2.894-5.052a9.22 9.22 0 0 1 6.281 8.728l-.559.015a.266.266 0 0 0-.233.377.266.266 0 0 0 .08.518h1.8v.254h-1.8a.265.265 0 0 0-.152.482.265.265 0 0 0 .153.482h2.565v.387h-2.565c-.13 0-.24.095-.261.22a9.8 9.8 0 0 0-1.985-2.23.3.3 0 0 0 .118.03h.005a.265.265 0 0 0 .265-.261l.002-.242c0-3.78-1.475-7.147-3.714-8.76m5.394 18.462v-.169q.03.051.077.085a.3.3 0 0 0-.077.084m.23.398h2.566v.387H63.76a.27.27 0 0 0-.23.133v-.653c.046.08.131.133.23.133m1.304-4.37a7.27 7.27 0 0 1 3.631-2.227h.121c-.975.97-1.753 2.759-2.18 5.066a.265.265 0 0 0 .522.096c.468-2.527 1.39-4.44 2.471-5.145h1.806c.649.422 1.244 1.277 1.724 2.48.51 1.273.857 2.857 1.003 4.58a.27.27 0 0 0 .162.222h-7.473a.3.3 0 0 0 .005-.05v-.917a.265.265 0 0 0-.265-.266h-.562a.26.26 0 0 0 .06-.168v-.784a.265.265 0 0 0-.265-.265h-.855a.3.3 0 0 0 .03-.116 9.8 9.8 0 0 0-.246-2.442c.104.049.23.026.31-.064m4.067-2.809v-.474h2.79v.474a.3.3 0 0 0 .005.052h-2.8a.3.3 0 0 0 .005-.052m1.395-1.563.322.558h-.644zm1.83 2.145a7.29 7.29 0 0 1 5.468 6.99h-.636a.266.266 0 0 0-.262.31H74.53a.27.27 0 0 0 .161-.268c-.151-1.775-.51-3.412-1.039-4.733-.395-.99-.874-1.769-1.406-2.299zm6.945 8.8v.2H66.903a.26.26 0 0 0-.144.042 1 1 0 0 0-.107-.242zm-53.804.991a.502.502 0 0 1 1 0zm.05 1.488h.9v-.68h-.9zm.47-2.494.006.007c0 .007-.013.007-.013 0zm12.436-9.367v-.474h2.79v.474q0 .027.005.052h-2.8a.3.3 0 0 0 .005-.052m1.395-1.563.323.558h-.645zm13.485-10.84a.3.3 0 0 0 .035-.131v-.664h3.638v.664q.001.073.035.132zm1.854-2.23.522.905h-1.044zm32.825 28.953-2.14-1.87a.27.27 0 0 0-.175-.066h-.543a.265.265 0 0 0 .203-.258v-1.21l-.001-.023a.265.265 0 0 0 .053-.487 1.03 1.03 0 0 0-.523-.894.534.534 0 1 0-1.019 0 1.03 1.03 0 0 0-.522.894.265.265 0 0 0 .053.487l-.001.023v1.21c0 .125.087.23.203.258h-2.812a.265.265 0 0 0-.263.236l-1.357-1.185a.27.27 0 0 0-.174-.066h-.3a.3.3 0 0 0 .013-.083v-.68a.3.3 0 0 0-.021-.104h.051a.266.266 0 0 0 .235-.39h.595a.265.265 0 0 0 .265-.264v-.732a.265.265 0 0 0-.265-.265h-.358a.3.3 0 0 0 .012-.08v-.625a.265.265 0 0 0-.266-.265h-.606l.003-.037.003-.195a7.8 7.8 0 0 0-1.678-4.844 7.87 7.87 0 0 0-4.222-2.745l-.01-.002a.3.3 0 0 0 .006-.058v-.74a.265.265 0 0 0-.265-.265h-.8a.26.26 0 0 0-.031-.184l-.564-.976v-.739a.265.265 0 0 0-.53 0v.74l-.564.975a.26.26 0 0 0-.03.184h-.801a.266.266 0 0 0-.266.266v.74q0 .03.007.057l-.01.002a7.8 7.8 0 0 0-3.945 2.415 9.7 9.7 0 0 0-1.02-2.393q.035.01.074.01h2.83a.265.265 0 0 0 .266-.265v-.917a.265.265 0 0 0-.265-.266h-.562a.26.26 0 0 0 .06-.168v-.784a.265.265 0 0 0-.265-.265h-.855a.3.3 0 0 0 .03-.116l.003-.244a9.74 9.74 0 0 0-2.092-6.039 9.8 9.8 0 0 0-5.264-3.422.3.3 0 0 0-.065-.008h-.026a.27.27 0 0 0 .035-.132v-.93a.265.265 0 0 0-.265-.264H56.17a.27.27 0 0 0 0-.265l-.717-1.242v-.945a.265.265 0 0 0-.53 0v.945l-.717 1.242a.27.27 0 0 0 0 .265h-1.102a.265.265 0 0 0-.266.265v.929q.002.073.036.132h-.026a.3.3 0 0 0-.065.008 9.8 9.8 0 0 0-5.263 3.422 9.73 9.73 0 0 0-2.09 6.283q.003.063.03.116h-.855a.265.265 0 0 0-.265.265v.784c0 .064.023.122.06.168h-.562a.265.265 0 0 0-.265.266v.917c0 .147.119.266.265.266h2.831a.265.265 0 0 0 0-.53h-2.565v-.388h2.565a.265.265 0 0 0 .153-.482.265.265 0 0 0-.153-.482H44.87v-.254h1.798a.265.265 0 0 0 .23-.398.266.266 0 0 0-.075-.52h-.866a9.22 9.22 0 0 1 6.28-8.72c-2.238 1.613-3.713 4.98-3.713 8.76l.002.242c.003.145.121.26.266.26h.004a.266.266 0 0 0 .261-.27l-.002-.232c0-2.112.464-4.1 1.34-5.75.83-1.563 1.988-2.693 3.264-3.189h3.056c1.276.496 2.433 1.626 3.264 3.189.877 1.65 1.34 3.638 1.34 5.75q0 .112-.002.233a.26.26 0 0 0 .058.17A9.8 9.8 0 0 0 57.647 21a.3.3 0 0 0-.066-.008h-.026a.26.26 0 0 0 .035-.132v-.93a.265.265 0 0 0-.265-.265h-1.102a.27.27 0 0 0 0-.264l-.716-1.242v-.945a.265.265 0 0 0-.531 0v.945l-.717 1.242a.27.27 0 0 0 0 .264h-1.102a.265.265 0 0 0-.265.266v.929q.001.073.035.132h-.026a.3.3 0 0 0-.065.008 9.8 9.8 0 0 0-5.263 3.422 9.73 9.73 0 0 0-2.09 6.283.3.3 0 0 0 .03.116h-.855a.265.265 0 0 0-.265.265v.784c0 .064.023.123.06.168h-.562a.265.265 0 0 0-.265.266v.917q0 .027.005.05H36.05a.27.27 0 0 0 .162-.222c.146-1.723.493-3.307 1.003-4.58.48-1.203 1.075-2.058 1.724-2.48h1.806c1.082.705 2.003 2.618 2.472 5.145a.266.266 0 0 0 .522-.096c-.428-2.307-1.206-4.096-2.181-5.066h.12a7.27 7.27 0 0 1 3.633 2.227.265.265 0 0 0 .397-.352 7.8 7.8 0 0 0-3.93-2.397l-.01-.002a.3.3 0 0 0 .006-.058v-.74a.265.265 0 0 0-.266-.265h-.8a.26.26 0 0 0-.03-.184l-.564-.976v-.739a.265.265 0 1 0-.531 0v.74l-.564.975a.26.26 0 0 0-.03.184h-.8a.265.265 0 0 0-.266.266v.74q0 .03.006.057l-.01.002a7.87 7.87 0 0 0-4.221 2.745 7.8 7.8 0 0 0-1.676 5.04q0 .018.004.036h-.607a.265.265 0 0 0-.266.265v.625q0 .042.013.08h-.358a.265.265 0 0 0-.266.265v.732c0 .146.119.265.266.265h.594a.264.264 0 0 0 .235.389h.051a.3.3 0 0 0-.021.104v.68q0 .044.014.083h-.3a.27.27 0 0 0-.175.066l-1.357 1.185a.265.265 0 0 0-.263-.236h-2.812a.266.266 0 0 0 .203-.258v-1.21l-.001-.023a.265.265 0 0 0 .053-.487 1.03 1.03 0 0 0-.523-.894.535.535 0 0 0-.509-.692.534.534 0 0 0-.51.692 1.03 1.03 0 0 0-.522.894.265.265 0 0 0 .053.487l-.001.023v1.21c0 .125.087.23.203.258h-.543a.27.27 0 0 0-.174.066l-2.14 1.87a.265.265 0 0 0 .174.465h1.185q.095-.002.164-.057a.3.3 0 0 0-.008.064v.392q.001.078.04.139h-.256a.265.265 0 0 0-.265.266v.833c0 .146.119.265.265.265h.379a.27.27 0 0 0-.163.245v10.93a.265.265 0 1 0 .53 0v-10.93a.27.27 0 0 0-.162-.245h5.459a.265.265 0 1 0 0-.53h-5.777v-.303h5.776a.265.265 0 1 0 0-.531H24.37a.26.26 0 0 0 .04-.139v-.127h5.242a.265.265 0 1 0 0-.53h-5.508a.27.27 0 0 0-.164.057.263.263 0 0 0-.257-.33h-.478l1.533-1.34h4.735l-.602.527a.265.265 0 0 0 .174.466h1.271a.265.265 0 0 0 0-.531h-.564l1.689-1.476h11.733c.062 0 .12-.022.165-.058l-1.33 1.631a.266.266 0 0 0 .206.434h1.048l-.001.026v.68c0 .1.056.188.138.233a.265.265 0 0 0-.04.395.27.27 0 0 0-.116.22v1.403c0 .147.119.266.265.266h1.235a.265.265 0 0 0 .266-.266v-1.404a.26.26 0 0 0-.037-.134h20.35a.26.26 0 0 0-.037.134v1.404c0 .147.119.266.266.266h1.235a.266.266 0 0 0 .265-.266v-1.404a.27.27 0 0 0-.116-.22.265.265 0 0 0-.04-.394.27.27 0 0 0 .138-.232v-.681l-.001-.026h1.049a.265.265 0 0 0 .205-.434l-1.33-1.63a.27.27 0 0 0 .165.057h11.733l1.689 1.476h-.564a.265.265 0 1 0 0 .53h1.27a.266.266 0 0 0 .175-.465l-.602-.526h4.735l1.533 1.34h-.478a.265.265 0 0 0-.257.329.27.27 0 0 0-.164-.058h-5.508a.265.265 0 1 0 0 .531h5.242v.127q.001.078.04.139H80.67a.265.265 0 1 0 0 .53h5.776v.303H80.67a.266.266 0 0 0 0 .53h5.458a.27.27 0 0 0-.163.246v10.93a.266.266 0 0 0 .531 0v-10.93a.27.27 0 0 0-.162-.245h.378a.265.265 0 0 0 .265-.265v-.834a.265.265 0 0 0-.265-.265h-.255a.26.26 0 0 0 .04-.139v-.392a.3.3 0 0 0-.009-.064.27.27 0 0 0 .164.057h1.185a.265.265 0 0 0 .175-.465m-16.58 3.54c-.089-.393-.558-.684-1.14-.684s-1.051.29-1.14.684c-.31.08-.52.296-.52.558v.354a.27.27 0 0 0-.165.245v7.723a.265.265 0 1 0 .531 0v-7.477a.27.27 0 0 0 .164-.246v-.583c.023-.024.106-.074.246-.077a.265.265 0 0 0 .258-.265v-.094c0-.116.25-.291.626-.291s.626.175.626.29v.095c0 .144.114.261.258.265.14.004.223.053.246.078v.582c0 .111.067.206.164.246v7.477a.266.266 0 0 0 .53 0v-7.723a.27.27 0 0 0-.164-.245v-.354c0-.262-.211-.477-.52-.558m-28.16 10.85a.3.3 0 0 0 .005-.054v-1.288h23.82v1.288a.3.3 0 0 0 .005.053zm1.16-11.036v9.163H43.9v-9.142l-.001-.021zm1.865 9.163h1.161v-1.714h-1.161zm.34-2.385v-7.708h.48v7.708q.002.079.041.14h-.561a.26.26 0 0 0 .04-.14m2.798 2.217v-9.352h.61c.09 0 .168-.045.216-.112v7.247q.001.079.04.14h-.115a.265.265 0 0 0-.265.266v1.979h-.546a.26.26 0 0 0 .06-.168m1.017.168h1.16v-1.714h-1.16zm.34-2.385v-7.708h.48v7.708q.002.079.041.14h-.562a.26.26 0 0 0 .04-.14m2.188 2.385h4.414V44.83H52.98zm5.781 0h1.161v-1.714h-1.16zm.34-2.385v-7.708h.481v7.708q.001.079.04.14h-.56a.26.26 0 0 0 .04-.14m1.012 0v-7.189a.26.26 0 0 0 .159.054h.667v9.352c0 .063.022.122.06.168h-.546v-1.979a.266.266 0 0 0-.265-.265h-.116a.26.26 0 0 0 .041-.14m2.803 2.385h1.161v-1.714h-1.161zm.34-2.385v-7.708h.481v7.708q.001.079.04.14h-.561a.26.26 0 0 0 .04-.14m3.22-6.778-.002.021v9.142h-.532v-9.163zm13.09-1.712a.265.265 0 0 0-.265.266v11.46H67.814c-.073 0-.139.03-.186.077v-.663a.265.265 0 0 0-.266-.265h-.357v-9.142a.3.3 0 0 0-.019-.098.265.265 0 0 0-.187-.454h-1.182a.266.266 0 0 0-.187.454.3.3 0 0 0-.019.098v9.142h-.803v-1.979a.265.265 0 0 0-.265-.265h-.116a.26.26 0 0 0 .04-.14v-7.975a.26.26 0 0 0-.042-.143h.322a.265.265 0 0 0 .234-.389h.019a.265.265 0 0 0 0-.53h-2.606a.266.266 0 0 0 0 .53h.018a.265.265 0 0 0 .235.389h.32a.26.26 0 0 0-.042.143v7.974q.002.079.041.14h-.115a.265.265 0 0 0-.266.266v1.979h-.976a.27.27 0 0 0 .06-.168v-9.618a.265.265 0 0 0-.265-.265h-.932q-.092.002-.159.053v-.36a.26.26 0 0 0-.042-.144h.321a.265.265 0 0 0 .235-.389h.018a.265.265 0 0 0 0-.53h-2.606a.266.266 0 0 0 0 .53h.018a.265.265 0 0 0 .235.39h.32a.27.27 0 0 0-.041.142v7.974q.001.079.04.14h-.115a.266.266 0 0 0-.266.266v1.979h-.305v-7.663a.265.265 0 0 0-.265-.265h-4.945a.265.265 0 0 0-.266.265v7.663h-.305v-1.979a.265.265 0 0 0-.266-.265h-.115a.26.26 0 0 0 .04-.14v-7.975a.27.27 0 0 0-.042-.143h.322a.265.265 0 0 0 .234-.389h.018a.266.266 0 0 0 0-.53H49.73a.265.265 0 0 0 0 .53h.018a.265.265 0 0 0 .235.389h.321a.26.26 0 0 0-.042.143v.42a.27.27 0 0 0-.216-.112h-.875a.265.265 0 0 0-.265.265v9.618c0 .063.022.122.06.168h-.976v-1.979a.265.265 0 0 0-.265-.265h-.116a.26.26 0 0 0 .04-.14v-7.975a.26.26 0 0 0-.042-.143h.322a.265.265 0 0 0 .234-.389h.019a.265.265 0 0 0 0-.53h-2.607a.265.265 0 0 0 0 .53h.018a.265.265 0 0 0 .235.39h.322a.26.26 0 0 0-.043.142v7.974q.001.079.04.14h-.115a.265.265 0 0 0-.265.266v1.979h-.803v-9.142a.3.3 0 0 0-.02-.098.265.265 0 0 0-.186-.454h-1.182a.265.265 0 0 0-.187.454.3.3 0 0 0-.019.098v9.142h-.357a.265.265 0 0 0-.265.265v.663a.26.26 0 0 0-.187-.077H31.073v-11.46a.266.266 0 0 0-.53 0v11.725c0 .147.118.266.265.266H42.56c.073 0 .139-.03.187-.078v.515q0 .027.005.053h-2.54a.265.265 0 0 0-.266.266v1.4a.265.265 0 1 0 .53 0v-1.135h29.421v1.135a.265.265 0 1 0 .531 0v-1.4a.265.265 0 0 0-.265-.266h-2.541a.3.3 0 0 0 .005-.053v-.514a.26.26 0 0 0 .188.077h11.752a.265.265 0 0 0 .265-.266V41.62a.265.265 0 0 0-.265-.266m-27.749 1.09c0 .146.119.265.266.265h6.209a.265.265 0 0 0 0-.531h-6.21a.265.265 0 0 0-.265.265m28.265-2.53h-.31a.26.26 0 0 0 .06-.168v-.421a.265.265 0 0 0-.265-.265H68.733a.265.265 0 0 0 0 .53H79.3v.156c0 .064.023.122.06.168H67.362a.265.265 0 0 0 0 .53h12.455v.363H67.362a.265.265 0 0 0 0 .531h12.72a.265.265 0 0 0 .266-.265v-.894a.265.265 0 0 0-.266-.265m-36.805 1.159a.265.265 0 0 0-.265-.266H30.557v-.362h12.455a.265.265 0 1 0 0-.531h-12a.26.26 0 0 0 .061-.168v-.156h10.568a.265.265 0 0 0 0-.53H30.808a.265.265 0 0 0-.266.265v.42c0 .065.023.123.06.169h-.31a.265.265 0 0 0-.266.265v.894c0 .146.119.265.266.265h12.72a.265.265 0 0 0 .265-.265m-1.636 11.324a.265.265 0 0 0 .266-.265v-7.723a.27.27 0 0 0-.164-.245v-.354c0-.262-.212-.477-.52-.558-.09-.393-.559-.684-1.14-.684-.583 0-1.052.29-1.142.684-.308.08-.52.296-.52.558v.354a.27.27 0 0 0-.163.245v7.723a.265.265 0 1 0 .53 0v-7.477a.27.27 0 0 0 .165-.246v-.583c.022-.024.106-.074.245-.077a.265.265 0 0 0 .259-.265v-.094c0-.116.25-.291.625-.291.376 0 .626.175.626.29v.095c0 .144.114.261.258.265.14.004.223.053.246.078v.582c0 .111.067.206.164.246v7.477c0 .147.119.265.265.265m-5.46 0a.265.265 0 0 0 .265-.265v-7.723a.27.27 0 0 0-.164-.245v-.354c0-.262-.211-.477-.52-.558-.089-.393-.558-.684-1.14-.684-.583 0-1.052.29-1.141.684-.308.08-.52.296-.52.558v.354a.27.27 0 0 0-.164.245v7.723a.265.265 0 1 0 .531 0v-7.477a.27.27 0 0 0 .164-.246v-.583c.023-.024.106-.074.245-.077a.265.265 0 0 0 .26-.265v-.094c0-.116.249-.291.625-.291s.625.175.625.29v.095c0 .144.115.261.259.265.14.004.223.053.245.078v.582c0 .111.068.206.164.246v7.477c0 .147.12.265.266.265" clip-rule="evenodd" class="s-y_bCXRrkrYfP"></path></mask><path fill="#FFA500" fill-rule="evenodd" d="M76.893 43.251c-.09-.393-.558-.684-1.14-.684-.583 0-1.052.29-1.141.684-.309.08-.52.296-.52.558v.354a.27.27 0 0 0-.164.245v7.723a.266.266 0 0 0 .53 0v-7.477a.265.265 0 0 0 .165-.246v-.583c.022-.024.106-.074.245-.077a.265.265 0 0 0 .259-.265v-.094c0-.116.25-.291.626-.291.375 0 .625.175.625.29v.095c0 .144.115.261.259.265.139.004.222.053.245.078v.582c0 .111.068.206.164.246v7.477a.266.266 0 0 0 .53 0v-7.723a.27.27 0 0 0-.163-.245v-.354c0-.262-.212-.477-.52-.558m6.984-7.487a.502.502 0 0 1 1 0zm.05 1.488h.9v-.68h-.9zm.47-2.494.006.007c0 .007-.013.007-.013 0zM67.16 36.76a.265.265 0 0 0-.237.385l-.174-.214v-1.116l-.001-.023a.3.3 0 0 0 .05-.02c.03.046.075.082.127.103a.265.265 0 0 0 .235.387h11.016v.415q0 .044.013.083zm.4 2.007H42.813l1.204-1.476h22.343zm-1.705 3.223h.705v-.873h-.705zm-22.024-2.25h22.71v-.15h-22.71zm-.018 2.25h.704v-.873h-.704zm-.6-5.23h-11.03a.3.3 0 0 0 .014-.083v-.415h11.015a.265.265 0 0 0 .235-.387.27.27 0 0 0 .127-.103.3.3 0 0 0 .05.02v1.139l-.175.214a.265.265 0 0 0-.237-.385m-12.141-1.787v-.2h12.65a1 1 0 0 0-.108.242.26.26 0 0 0-.144-.042zm13.545-.7.006-.006.007.006c0 .008-.013.008-.013 0m-.463 2.487h.899v-.68h-.899zm-.05-1.487a.502.502 0 0 1 1 0zm2.716 1.487h-.246a.27.27 0 0 0 .123-.13.27.27 0 0 0 .123.13m.943 0h-.246a.27.27 0 0 0 .123-.13.27.27 0 0 0 .123.13m.943 0h-.246a.27.27 0 0 0 .123-.13.27.27 0 0 0 .123.13m.944 0h-.247a.27.27 0 0 0 .123-.13.27.27 0 0 0 .124.13m.943 0h-.247a.27.27 0 0 0 .124-.13.27.27 0 0 0 .123.13m.943 0h-.246a.27.27 0 0 0 .123-.13.27.27 0 0 0 .123.13m.943 0h-.246a.27.27 0 0 0 .123-.13.27.27 0 0 0 .123.13m.944 0h-.246a.27.27 0 0 0 .123-.13.27.27 0 0 0 .123.13m.943 0h-.246a.27.27 0 0 0 .123-.13.27.27 0 0 0 .123.13m.943 0h-.246a.27.27 0 0 0 .123-.13.27.27 0 0 0 .123.13m.943 0h-.246a.27.27 0 0 0 .123-.13.27.27 0 0 0 .123.13m.944 0h-.247a.27.27 0 0 0 .124-.13.27.27 0 0 0 .123.13m.943 0h-.246a.27.27 0 0 0 .123-.13.27.27 0 0 0 .123.13m.943 0h-.246a.27.27 0 0 0 .123-.13.27.27 0 0 0 .123.13m.944 0h-.247a.27.27 0 0 0 .123-.13.27.27 0 0 0 .124.13m.943 0h-.247a.27.27 0 0 0 .124-.13.27.27 0 0 0 .123.13m.943 0h-.246a.27.27 0 0 0 .123-.13.27.27 0 0 0 .123.13m.943 0h-.246a.27.27 0 0 0 .123-.13.27.27 0 0 0 .123.13m.944 0h-.247a.27.27 0 0 0 .123-.13.27.27 0 0 0 .124.13m1.983-2.487.006-.006.007.006c0 .008-.013.008-.013 0m-.463 2.487h.899v-.68h-.899zm-.05-1.487a.502.502 0 0 1 1 0zm-33.586-1.47h11.94a.265.265 0 0 0 .26-.316h2.838q.066 0 .122-.029v.956c0 .101.057.19.141.234a.266.266 0 0 0-.217.261v.496c0 .146.118.265.265.265h16.308a.266.266 0 0 0 .265-.265v-.496a.266.266 0 0 0-.217-.26.27.27 0 0 0 .14-.235v-1.06c.047.08.132.134.231.134h2.73a.265.265 0 0 0 .26.315h11.94v.094H66.597a.265.265 0 0 0-.201.438.3.3 0 0 0-.058.113l-.059-.037a.534.534 0 1 0-1.019 0 1.03 1.03 0 0 0-.523.894.265.265 0 0 0 .054.487l-.001.023v.945h-.293a.27.27 0 0 0 .145-.236v-.565a.265.265 0 0 0-.265-.266h-.457a.27.27 0 0 0-.244.16.27.27 0 0 0-.242-.16h-.457a.27.27 0 0 0-.244.16.27.27 0 0 0-.243-.16h-.457a.27.27 0 0 0-.243.16.27.27 0 0 0-.243-.16h-.457a.27.27 0 0 0-.243.16.27.27 0 0 0-.244-.16h-.456a.27.27 0 0 0-.243.16.27.27 0 0 0-.244-.16h-.457a.27.27 0 0 0-.243.16.27.27 0 0 0-.243-.16h-.457a.27.27 0 0 0-.243.16.27.27 0 0 0-.243-.16h-.457a.27.27 0 0 0-.243.16.27.27 0 0 0-.243-.16h-.458a.27.27 0 0 0-.243.16.27.27 0 0 0-.243-.16h-.457a.27.27 0 0 0-.243.16.27.27 0 0 0-.243-.16h-.457a.27.27 0 0 0-.243.16.27.27 0 0 0-.243-.16h-.457a.27.27 0 0 0-.243.16.27.27 0 0 0-.244-.16H52.6a.27.27 0 0 0-.243.16.27.27 0 0 0-.243-.16h-.457a.27.27 0 0 0-.243.16.27.27 0 0 0-.243-.16h-.457a.27.27 0 0 0-.243.16.27.27 0 0 0-.243-.16h-.457a.27.27 0 0 0-.244.16.27.27 0 0 0-.243-.16h-.457a.27.27 0 0 0-.243.16.27.27 0 0 0-.243-.16h-.457a.27.27 0 0 0-.243.16.27.27 0 0 0-.243-.16h-.457a.27.27 0 0 0-.243.16.27.27 0 0 0-.243-.16h-.458a.265.265 0 0 0-.265.266v.565c0 .103.06.193.145.236h-.293v-.968a.265.265 0 0 0 .053-.487 1.03 1.03 0 0 0-.523-.894.534.534 0 1 0-1.019 0l-.06.037a.3.3 0 0 0-.056-.113.264.264 0 0 0-.202-.438H31.684zm6.334-7.83h.11c-.532.53-1.01 1.31-1.406 2.3-.529 1.32-.888 2.957-1.039 4.732a.27.27 0 0 0 .161.267h-2.396l.004-.043a.266.266 0 0 0-.266-.266h-.636a7.29 7.29 0 0 1 5.468-6.99m6.139 6.597h2.566q.065 0 .121-.03v.447a.3.3 0 0 0-.122-.03h-2.565zm.767-1.218h1.798a.265.265 0 0 0 .23-.398.3.3 0 0 0 .06-.026V31c0 .1.055.186.136.23h-.039a.266.266 0 0 0-.265.266v.14a.3.3 0 0 0-.122-.03h-1.798zm7.198-6.687h6.238v-.677h-6.238zm-1.874 1.92h9.986v-.925h-9.986zm-1.675.931v-.002h.009zm14.447 7a.26.26 0 0 0 .113.128h-.196a.27.27 0 0 0 .083-.127M63 31.763v.116a.27.27 0 0 0-.126-.116zm-15.563 2.882h-.195a.26.26 0 0 0 .112-.127q.023.076.083.127m-.062-2.766v-.116h.125a.27.27 0 0 0-.125.116m.073-1.636h.214a.27.27 0 0 0-.096.204v.288h-.023v-.288a.27.27 0 0 0-.095-.204m.89 2.027v2.172c0 .081.037.154.095.203h-.654a.26.26 0 0 0 .095-.203v-2.172zm-.336-2.027h.28a.27.27 0 0 0-.096.204V31c0 .1.055.186.136.23h-.36a.27.27 0 0 0 .135-.23v-.554a.27.27 0 0 0-.095-.204m.62 0h.214a.27.27 0 0 0-.095.204v.288h-.024v-.288a.27.27 0 0 0-.095-.204m.389 4.402h-.236a.26.26 0 0 0 .094-.203v-2.437c0-.108-.064-.2-.157-.242h.362a.27.27 0 0 0-.157.242v2.437c0 .081.036.154.094.203m.904-4.198v.288h-.024v-.288a.27.27 0 0 0-.095-.204h.214a.27.27 0 0 0-.095.204m-.468 3.995v-2.172h.465v2.172c0 .081.037.154.094.203h-.653a.26.26 0 0 0 .094-.203m-.271-4.2h.28a.27.27 0 0 0-.096.205V31c0 .1.055.186.136.23h-.36a.27.27 0 0 0 .135-.23v-.554a.26.26 0 0 0-.095-.204m1.134.99a.27.27 0 0 0 .136-.231v-.554a.26.26 0 0 0-.096-.204h.28a.27.27 0 0 0-.095.204V31c0 .1.055.186.135.23zm.274 3.413h-.235a.26.26 0 0 0 .094-.203v-2.437c0-.108-.065-.2-.157-.242h.361a.27.27 0 0 0-.157.242v2.437c0 .081.037.154.094.203m.9-3.413A.27.27 0 0 0 51.62 31v-.554a.27.27 0 0 0-.095-.204h.28a.27.27 0 0 0-.096.204V31c0 .1.055.186.135.23zm-.463 3.21v-2.172h.465v2.172c0 .081.036.154.094.203h-.653a.26.26 0 0 0 .094-.203m-.05-4.2h.213a.26.26 0 0 0-.095.205v.288h-.023v-.288a.26.26 0 0 0-.096-.204m1.187 4.403h-.236a.26.26 0 0 0 .094-.203v-2.437c0-.108-.064-.2-.157-.242h.362a.27.27 0 0 0-.157.242v2.437c0 .081.036.154.094.203m-.014-4.402h.215a.26.26 0 0 0-.096.204v.288h-.023v-.288a.26.26 0 0 0-.096-.204m.915 2.027v2.172c0 .081.037.154.094.203H52.5a.26.26 0 0 0 .094-.203v-2.172zm-.36-2.027h.28a.26.26 0 0 0-.096.204V31c0 .1.055.186.136.23h-.36a.27.27 0 0 0 .135-.23v-.554a.27.27 0 0 0-.095-.204m.62 0h.214a.27.27 0 0 0-.096.204v.288h-.023v-.288a.26.26 0 0 0-.096-.204m.412 4.402h-.236a.26.26 0 0 0 .095-.203v-2.437c0-.108-.065-.2-.157-.242h.361a.27.27 0 0 0-.157.242v2.437c0 .081.037.154.094.203m.762-4.402h.214a.27.27 0 0 0-.095.204v.288h-.024v-.288a.27.27 0 0 0-.095-.204m-.325 4.199v-2.172h.465v2.172c0 .081.036.154.094.203h-.653a.26.26 0 0 0 .094-.203m-.295-4.2h.28a.26.26 0 0 0-.096.205V31c0 .1.055.186.136.23h-.36a.26.26 0 0 0 .135-.23v-.554a.27.27 0 0 0-.095-.204m1.174 0h.28a.27.27 0 0 0-.095.205V31c0 .1.054.186.135.23h-.36a.27.27 0 0 0 .136-.23v-.554a.27.27 0 0 0-.096-.204m.258 4.403h-.236a.26.26 0 0 0 .094-.203v-2.437c0-.108-.064-.2-.157-.242h.362a.27.27 0 0 0-.157.242v2.437c0 .081.036.154.094.203m.876-3.413a.27.27 0 0 0 .136-.231v-.554a.27.27 0 0 0-.096-.204h.28a.27.27 0 0 0-.095.204V31c0 .1.054.186.135.23zm-.44 3.21v-2.172h.465v2.172c0 .081.037.154.095.203h-.654a.26.26 0 0 0 .094-.203m-.074-4.2h.214a.27.27 0 0 0-.095.205v.288h-.024v-.288a.27.27 0 0 0-.095-.204m1.27.493v-.288a.27.27 0 0 0-.096-.204h.214a.27.27 0 0 0-.095.204v.288zm-.058 3.91h-.236a.26.26 0 0 0 .094-.203v-2.437c0-.108-.065-.2-.157-.242h.361a.27.27 0 0 0-.157.242v2.437c0 .081.037.154.095.203m.9-2.375v2.172c0 .081.037.154.095.203h-.653a.26.26 0 0 0 .094-.203v-2.172zm-.383-2.027h.28a.27.27 0 0 0-.096.204V31c0 .1.055.186.136.23h-.36a.27.27 0 0 0 .135-.23v-.554a.26.26 0 0 0-.095-.204m.62 0h.214a.26.26 0 0 0-.096.204v.288h-.023v-.288a.27.27 0 0 0-.095-.204m.436 4.402h-.236a.26.26 0 0 0 .095-.203v-2.437c0-.108-.065-.2-.158-.242h.362a.27.27 0 0 0-.157.242v2.437c0 .081.036.154.094.203m.738-4.402h.214a.26.26 0 0 0-.095.204v.288h-.024v-.288a.26.26 0 0 0-.095-.204m-.301 4.199v-2.172h.464v2.172c0 .081.037.154.095.203h-.654a.26.26 0 0 0 .095-.203m-.32-4.2h.28a.27.27 0 0 0-.095.205V31c0 .1.055.186.136.23h-.36a.27.27 0 0 0 .135-.23v-.554a.26.26 0 0 0-.095-.204m1.175 0h.28a.26.26 0 0 0-.095.205V31c0 .1.054.186.135.23h-.36a.27.27 0 0 0 .135-.23v-.554a.27.27 0 0 0-.095-.204m.282 4.403h-.236a.27.27 0 0 0 .094-.203v-2.437c0-.108-.065-.2-.157-.242h.361a.27.27 0 0 0-.157.242v2.437c0 .081.037.154.095.203m.852-3.413a.26.26 0 0 0 .136-.231v-.554a.27.27 0 0 0-.096-.204h.28a.26.26 0 0 0-.095.204V31c0 .1.054.186.135.23zm-.416 3.21v-2.172h.465v2.172c0 .081.037.154.094.203h-.653a.26.26 0 0 0 .094-.203m-.098-4.2h.214a.27.27 0 0 0-.095.205v.288h-.024v-.288a.26.26 0 0 0-.095-.204m1.293.205v.288h-.023v-.288a.27.27 0 0 0-.096-.204h.214a.27.27 0 0 0-.095.204m-.058 4.198h-.236a.27.27 0 0 0 .095-.203v-2.437c0-.108-.065-.2-.158-.242h.362a.27.27 0 0 0-.157.242v2.437c0 .081.036.154.094.203M47.543 29.71H62.94v-.167H47.543zM62.5 32.27v2.172c0 .081.037.154.095.203h-.654a.26.26 0 0 0 .094-.203v-2.172zm-.407-2.027h.28a.27.27 0 0 0-.096.204V31c0 .1.055.186.136.23h-.36a.26.26 0 0 0 .135-.23v-.554a.27.27 0 0 0-.095-.204m.62 0h.213a.27.27 0 0 0-.095.204v.288h-.023v-.288a.27.27 0 0 0-.095-.204m-9.779-8.719h4.614a9.22 9.22 0 0 1 6.923 8.918l-.559.016a.266.266 0 0 0-.233.377.266.266 0 0 0 .081.518h1.798v.254H63.76a.27.27 0 0 0-.23.133v-.243a.265.265 0 0 0-.265-.265h-.038a.27.27 0 0 0 .135-.231v-.554c0-.086-.04-.161-.103-.21a.265.265 0 0 0 .211-.26v-.697a.265.265 0 0 0-.265-.266h-.891a.26.26 0 0 0 .035-.131V27.23a.265.265 0 1 0-.53 0v1.652q0 .072.034.131H48.521a.26.26 0 0 0 .035-.131v-.865a.3.3 0 0 0 .048.005h12.24a.266.266 0 0 0 .045-.527h.48a.265.265 0 0 0 0-.53h-.63a.3.3 0 0 0 .026-.115v-1.455a.265.265 0 0 0-.265-.266h-1.7a.27.27 0 0 0 .09-.199v-1.207a.265.265 0 0 0-.265-.265h-6.768a.265.265 0 0 0-.265.265v1.207c0 .08.035.15.09.2h-1.7a.266.266 0 0 0-.265.265v1.455q0 .062.027.114H48.29a.265.265 0 0 0-.266.266v1.652q.001.072.035.131h-.782a.266.266 0 0 0-.266.265v.698c0 .102.057.19.141.235a.27.27 0 0 0-.141.235v.025a.26.26 0 0 0-.135-.037h-.866a9.22 9.22 0 0 1 6.923-8.91m.488-.662v-.664h3.638v.664q.001.073.035.132h-3.708a.26.26 0 0 0 .035-.132m1.82-2.099.521.904H54.72zm2.894-5.052a9.22 9.22 0 0 1 6.281 8.728l-.559.015a.266.266 0 0 0-.233.377.266.266 0 0 0 .08.518h1.8v.254h-1.8a.265.265 0 0 0-.152.482.265.265 0 0 0 .153.482h2.565v.387h-2.565c-.13 0-.24.095-.261.22a9.8 9.8 0 0 0-1.985-2.23.3.3 0 0 0 .118.03h.005a.265.265 0 0 0 .265-.261l.002-.242c0-3.78-1.475-7.147-3.714-8.76m5.394 18.462v-.169q.03.051.077.085a.3.3 0 0 0-.077.084m.23.398h2.566v.387H63.76a.27.27 0 0 0-.23.133v-.653c.046.08.131.133.23.133m1.304-4.37a7.27 7.27 0 0 1 3.631-2.227h.121c-.975.97-1.753 2.759-2.18 5.066a.265.265 0 0 0 .522.096c.468-2.527 1.39-4.44 2.471-5.145h1.806c.649.422 1.244 1.277 1.724 2.48.51 1.273.857 2.857 1.003 4.58a.27.27 0 0 0 .162.222h-7.473a.3.3 0 0 0 .005-.05v-.917a.265.265 0 0 0-.265-.266h-.562a.26.26 0 0 0 .06-.168v-.784a.265.265 0 0 0-.265-.265h-.855a.3.3 0 0 0 .03-.116 9.8 9.8 0 0 0-.246-2.442c.104.049.23.026.31-.064m4.067-2.809v-.474h2.79v.474a.3.3 0 0 0 .005.052h-2.8a.3.3 0 0 0 .005-.052m1.395-1.563.322.558h-.644zm1.83 2.145a7.29 7.29 0 0 1 5.468 6.99h-.636a.266.266 0 0 0-.262.31H74.53a.27.27 0 0 0 .161-.268c-.151-1.775-.51-3.412-1.039-4.733-.395-.99-.874-1.769-1.406-2.299zm6.945 8.8v.2H66.903a.26.26 0 0 0-.144.042 1 1 0 0 0-.107-.242zm-53.804.991a.502.502 0 0 1 1 0zm.05 1.488h.9v-.68h-.9zm.47-2.494.006.007c0 .007-.013.007-.013 0zm12.436-9.367v-.474h2.79v.474q0 .027.005.052h-2.8a.3.3 0 0 0 .005-.052m1.395-1.563.323.558h-.645zm13.485-10.84a.3.3 0 0 0 .035-.131v-.664h3.638v.664q.001.073.035.132zm1.854-2.23.522.905h-1.044zm32.825 28.953-2.14-1.87a.27.27 0 0 0-.175-.066h-.543a.265.265 0 0 0 .203-.258v-1.21l-.001-.023a.265.265 0 0 0 .053-.487 1.03 1.03 0 0 0-.523-.894.534.534 0 1 0-1.019 0 1.03 1.03 0 0 0-.522.894.265.265 0 0 0 .053.487l-.001.023v1.21c0 .125.087.23.203.258h-2.812a.265.265 0 0 0-.263.236l-1.357-1.185a.27.27 0 0 0-.174-.066h-.3a.3.3 0 0 0 .013-.083v-.68a.3.3 0 0 0-.021-.104h.051a.266.266 0 0 0 .235-.39h.595a.265.265 0 0 0 .265-.264v-.732a.265.265 0 0 0-.265-.265h-.358a.3.3 0 0 0 .012-.08v-.625a.265.265 0 0 0-.266-.265h-.606l.003-.037.003-.195a7.8 7.8 0 0 0-1.678-4.844 7.87 7.87 0 0 0-4.222-2.745l-.01-.002a.3.3 0 0 0 .006-.058v-.74a.265.265 0 0 0-.265-.265h-.8a.26.26 0 0 0-.031-.184l-.564-.976v-.739a.265.265 0 0 0-.53 0v.74l-.564.975a.26.26 0 0 0-.03.184h-.801a.266.266 0 0 0-.266.266v.74q0 .03.007.057l-.01.002a7.8 7.8 0 0 0-3.945 2.415 9.7 9.7 0 0 0-1.02-2.393q.035.01.074.01h2.83a.265.265 0 0 0 .266-.265v-.917a.265.265 0 0 0-.265-.266h-.562a.26.26 0 0 0 .06-.168v-.784a.265.265 0 0 0-.265-.265h-.855a.3.3 0 0 0 .03-.116l.003-.244a9.74 9.74 0 0 0-2.092-6.039 9.8 9.8 0 0 0-5.264-3.422.3.3 0 0 0-.065-.008h-.026a.27.27 0 0 0 .035-.132v-.93a.265.265 0 0 0-.265-.264H56.17a.27.27 0 0 0 0-.265l-.717-1.242v-.945a.265.265 0 0 0-.53 0v.945l-.717 1.242a.27.27 0 0 0 0 .265h-1.102a.265.265 0 0 0-.266.265v.929q.002.073.036.132h-.026a.3.3 0 0 0-.065.008 9.8 9.8 0 0 0-5.263 3.422 9.73 9.73 0 0 0-2.09 6.283q.003.063.03.116h-.855a.265.265 0 0 0-.265.265v.784c0 .064.023.122.06.168h-.562a.265.265 0 0 0-.265.266v.917c0 .147.119.266.265.266h2.831a.265.265 0 0 0 0-.53h-2.565v-.388h2.565a.265.265 0 0 0 .153-.482.265.265 0 0 0-.153-.482H44.87v-.254h1.798a.265.265 0 0 0 .23-.398.266.266 0 0 0-.075-.52h-.866a9.22 9.22 0 0 1 6.28-8.72c-2.238 1.613-3.713 4.98-3.713 8.76l.002.242c.003.145.121.26.266.26h.004a.266.266 0 0 0 .261-.27l-.002-.232c0-2.112.464-4.1 1.34-5.75.83-1.563 1.988-2.693 3.264-3.189h3.056c1.276.496 2.433 1.626 3.264 3.189.877 1.65 1.34 3.638 1.34 5.75q0 .112-.002.233a.26.26 0 0 0 .058.17A9.8 9.8 0 0 0 57.647 21a.3.3 0 0 0-.066-.008h-.026a.26.26 0 0 0 .035-.132v-.93a.265.265 0 0 0-.265-.265h-1.102a.27.27 0 0 0 0-.264l-.716-1.242v-.945a.265.265 0 0 0-.531 0v.945l-.717 1.242a.27.27 0 0 0 0 .264h-1.102a.265.265 0 0 0-.265.266v.929q.001.073.035.132h-.026a.3.3 0 0 0-.065.008 9.8 9.8 0 0 0-5.263 3.422 9.73 9.73 0 0 0-2.09 6.283.3.3 0 0 0 .03.116h-.855a.265.265 0 0 0-.265.265v.784c0 .064.023.123.06.168h-.562a.265.265 0 0 0-.265.266v.917q0 .027.005.05H36.05a.27.27 0 0 0 .162-.222c.146-1.723.493-3.307 1.003-4.58.48-1.203 1.075-2.058 1.724-2.48h1.806c1.082.705 2.003 2.618 2.472 5.145a.266.266 0 0 0 .522-.096c-.428-2.307-1.206-4.096-2.181-5.066h.12a7.27 7.27 0 0 1 3.633 2.227.265.265 0 0 0 .397-.352 7.8 7.8 0 0 0-3.93-2.397l-.01-.002a.3.3 0 0 0 .006-.058v-.74a.265.265 0 0 0-.266-.265h-.8a.26.26 0 0 0-.03-.184l-.564-.976v-.739a.265.265 0 1 0-.531 0v.74l-.564.975a.26.26 0 0 0-.03.184h-.8a.265.265 0 0 0-.266.266v.74q0 .03.006.057l-.01.002a7.87 7.87 0 0 0-4.221 2.745 7.8 7.8 0 0 0-1.676 5.04q0 .018.004.036h-.607a.265.265 0 0 0-.266.265v.625q0 .042.013.08h-.358a.265.265 0 0 0-.266.265v.732c0 .146.119.265.266.265h.594a.264.264 0 0 0 .235.389h.051a.3.3 0 0 0-.021.104v.68q0 .044.014.083h-.3a.27.27 0 0 0-.175.066l-1.357 1.185a.265.265 0 0 0-.263-.236h-2.812a.266.266 0 0 0 .203-.258v-1.21l-.001-.023a.265.265 0 0 0 .053-.487 1.03 1.03 0 0 0-.523-.894.535.535 0 0 0-.509-.692.534.534 0 0 0-.51.692 1.03 1.03 0 0 0-.522.894.265.265 0 0 0 .053.487l-.001.023v1.21c0 .125.087.23.203.258h-.543a.27.27 0 0 0-.174.066l-2.14 1.87a.265.265 0 0 0 .174.465h1.185q.095-.002.164-.057a.3.3 0 0 0-.008.064v.392q.001.078.04.139h-.256a.265.265 0 0 0-.265.266v.833c0 .146.119.265.265.265h.379a.27.27 0 0 0-.163.245v10.93a.265.265 0 1 0 .53 0v-10.93a.27.27 0 0 0-.162-.245h5.459a.265.265 0 1 0 0-.53h-5.777v-.303h5.776a.265.265 0 1 0 0-.531H24.37a.26.26 0 0 0 .04-.139v-.127h5.242a.265.265 0 1 0 0-.53h-5.508a.27.27 0 0 0-.164.057.263.263 0 0 0-.257-.33h-.478l1.533-1.34h4.735l-.602.527a.265.265 0 0 0 .174.466h1.271a.265.265 0 0 0 0-.531h-.564l1.689-1.476h11.733c.062 0 .12-.022.165-.058l-1.33 1.631a.266.266 0 0 0 .206.434h1.048l-.001.026v.68c0 .1.056.188.138.233a.265.265 0 0 0-.04.395.27.27 0 0 0-.116.22v1.403c0 .147.119.266.265.266h1.235a.265.265 0 0 0 .266-.266v-1.404a.26.26 0 0 0-.037-.134h20.35a.26.26 0 0 0-.037.134v1.404c0 .147.119.266.266.266h1.235a.266.266 0 0 0 .265-.266v-1.404a.27.27 0 0 0-.116-.22.265.265 0 0 0-.04-.394.27.27 0 0 0 .138-.232v-.681l-.001-.026h1.049a.265.265 0 0 0 .205-.434l-1.33-1.63a.27.27 0 0 0 .165.057h11.733l1.689 1.476h-.564a.265.265 0 1 0 0 .53h1.27a.266.266 0 0 0 .175-.465l-.602-.526h4.735l1.533 1.34h-.478a.265.265 0 0 0-.257.329.27.27 0 0 0-.164-.058h-5.508a.265.265 0 1 0 0 .531h5.242v.127q.001.078.04.139H80.67a.265.265 0 1 0 0 .53h5.776v.303H80.67a.266.266 0 0 0 0 .53h5.458a.27.27 0 0 0-.163.246v10.93a.266.266 0 0 0 .531 0v-10.93a.27.27 0 0 0-.162-.245h.378a.265.265 0 0 0 .265-.265v-.834a.265.265 0 0 0-.265-.265h-.255a.26.26 0 0 0 .04-.139v-.392a.3.3 0 0 0-.009-.064.27.27 0 0 0 .164.057h1.185a.265.265 0 0 0 .175-.465m-16.58 3.54c-.089-.393-.558-.684-1.14-.684s-1.051.29-1.14.684c-.31.08-.52.296-.52.558v.354a.27.27 0 0 0-.165.245v7.723a.265.265 0 1 0 .531 0v-7.477a.27.27 0 0 0 .164-.246v-.583c.023-.024.106-.074.246-.077a.265.265 0 0 0 .258-.265v-.094c0-.116.25-.291.626-.291s.626.175.626.29v.095c0 .144.114.261.258.265.14.004.223.053.246.078v.582c0 .111.067.206.164.246v7.477a.266.266 0 0 0 .53 0v-7.723a.27.27 0 0 0-.164-.245v-.354c0-.262-.211-.477-.52-.558m-28.16 10.85a.3.3 0 0 0 .005-.054v-1.288h23.82v1.288a.3.3 0 0 0 .005.053zm1.16-11.036v9.163H43.9v-9.142l-.001-.021zm1.865 9.163h1.161v-1.714h-1.161zm.34-2.385v-7.708h.48v7.708q.002.079.041.14h-.561a.26.26 0 0 0 .04-.14m2.798 2.217v-9.352h.61c.09 0 .168-.045.216-.112v7.247q.001.079.04.14h-.115a.265.265 0 0 0-.265.266v1.979h-.546a.26.26 0 0 0 .06-.168m1.017.168h1.16v-1.714h-1.16zm.34-2.385v-7.708h.48v7.708q.002.079.041.14h-.562a.26.26 0 0 0 .04-.14m2.188 2.385h4.414V44.83H52.98zm5.781 0h1.161v-1.714h-1.16zm.34-2.385v-7.708h.481v7.708q.001.079.04.14h-.56a.26.26 0 0 0 .04-.14m1.012 0v-7.189a.26.26 0 0 0 .159.054h.667v9.352c0 .063.022.122.06.168h-.546v-1.979a.266.266 0 0 0-.265-.265h-.116a.26.26 0 0 0 .041-.14m2.803 2.385h1.161v-1.714h-1.161zm.34-2.385v-7.708h.481v7.708q.001.079.04.14h-.561a.26.26 0 0 0 .04-.14m3.22-6.778-.002.021v9.142h-.532v-9.163zm13.09-1.712a.265.265 0 0 0-.265.266v11.46H67.814c-.073 0-.139.03-.186.077v-.663a.265.265 0 0 0-.266-.265h-.357v-9.142a.3.3 0 0 0-.019-.098.265.265 0 0 0-.187-.454h-1.182a.266.266 0 0 0-.187.454.3.3 0 0 0-.019.098v9.142h-.803v-1.979a.265.265 0 0 0-.265-.265h-.116a.26.26 0 0 0 .04-.14v-7.975a.26.26 0 0 0-.042-.143h.322a.265.265 0 0 0 .234-.389h.019a.265.265 0 0 0 0-.53h-2.606a.266.266 0 0 0 0 .53h.018a.265.265 0 0 0 .235.389h.32a.26.26 0 0 0-.042.143v7.974q.002.079.041.14h-.115a.265.265 0 0 0-.266.266v1.979h-.976a.27.27 0 0 0 .06-.168v-9.618a.265.265 0 0 0-.265-.265h-.932q-.092.002-.159.053v-.36a.26.26 0 0 0-.042-.144h.321a.265.265 0 0 0 .235-.389h.018a.265.265 0 0 0 0-.53h-2.606a.266.266 0 0 0 0 .53h.018a.265.265 0 0 0 .235.39h.32a.27.27 0 0 0-.041.142v7.974q.001.079.04.14h-.115a.266.266 0 0 0-.266.266v1.979h-.305v-7.663a.265.265 0 0 0-.265-.265h-4.945a.265.265 0 0 0-.266.265v7.663h-.305v-1.979a.265.265 0 0 0-.266-.265h-.115a.26.26 0 0 0 .04-.14v-7.975a.27.27 0 0 0-.042-.143h.322a.265.265 0 0 0 .234-.389h.018a.266.266 0 0 0 0-.53H49.73a.265.265 0 0 0 0 .53h.018a.265.265 0 0 0 .235.389h.321a.26.26 0 0 0-.042.143v.42a.27.27 0 0 0-.216-.112h-.875a.265.265 0 0 0-.265.265v9.618c0 .063.022.122.06.168h-.976v-1.979a.265.265 0 0 0-.265-.265h-.116a.26.26 0 0 0 .04-.14v-7.975a.26.26 0 0 0-.042-.143h.322a.265.265 0 0 0 .234-.389h.019a.265.265 0 0 0 0-.53h-2.607a.265.265 0 0 0 0 .53h.018a.265.265 0 0 0 .235.39h.322a.26.26 0 0 0-.043.142v7.974q.001.079.04.14h-.115a.265.265 0 0 0-.265.266v1.979h-.803v-9.142a.3.3 0 0 0-.02-.098.265.265 0 0 0-.186-.454h-1.182a.265.265 0 0 0-.187.454.3.3 0 0 0-.019.098v9.142h-.357a.265.265 0 0 0-.265.265v.663a.26.26 0 0 0-.187-.077H31.073v-11.46a.266.266 0 0 0-.53 0v11.725c0 .147.118.266.265.266H42.56c.073 0 .139-.03.187-.078v.515q0 .027.005.053h-2.54a.265.265 0 0 0-.266.266v1.4a.265.265 0 1 0 .53 0v-1.135h29.421v1.135a.265.265 0 1 0 .531 0v-1.4a.265.265 0 0 0-.265-.266h-2.541a.3.3 0 0 0 .005-.053v-.514a.26.26 0 0 0 .188.077h11.752a.265.265 0 0 0 .265-.266V41.62a.265.265 0 0 0-.265-.266m-27.749 1.09c0 .146.119.265.266.265h6.209a.265.265 0 0 0 0-.531h-6.21a.265.265 0 0 0-.265.265m28.265-2.53h-.31a.26.26 0 0 0 .06-.168v-.421a.265.265 0 0 0-.265-.265H68.733a.265.265 0 0 0 0 .53H79.3v.156c0 .064.023.122.06.168H67.362a.265.265 0 0 0 0 .53h12.455v.363H67.362a.265.265 0 0 0 0 .531h12.72a.265.265 0 0 0 .266-.265v-.894a.265.265 0 0 0-.266-.265m-36.805 1.159a.265.265 0 0 0-.265-.266H30.557v-.362h12.455a.265.265 0 1 0 0-.531h-12a.26.26 0 0 0 .061-.168v-.156h10.568a.265.265 0 0 0 0-.53H30.808a.265.265 0 0 0-.266.265v.42c0 .065.023.123.06.169h-.31a.265.265 0 0 0-.266.265v.894c0 .146.119.265.266.265h12.72a.265.265 0 0 0 .265-.265m-1.636 11.324a.265.265 0 0 0 .266-.265v-7.723a.27.27 0 0 0-.164-.245v-.354c0-.262-.212-.477-.52-.558-.09-.393-.559-.684-1.14-.684-.583 0-1.052.29-1.142.684-.308.08-.52.296-.52.558v.354a.27.27 0 0 0-.163.245v7.723a.265.265 0 1 0 .53 0v-7.477a.27.27 0 0 0 .165-.246v-.583c.022-.024.106-.074.245-.077a.265.265 0 0 0 .259-.265v-.094c0-.116.25-.291.625-.291.376 0 .626.175.626.29v.095c0 .144.114.261.258.265.14.004.223.053.246.078v.582c0 .111.067.206.164.246v7.477c0 .147.119.265.265.265m-5.46 0a.265.265 0 0 0 .265-.265v-7.723a.27.27 0 0 0-.164-.245v-.354c0-.262-.211-.477-.52-.558-.089-.393-.558-.684-1.14-.684-.583 0-1.052.29-1.141.684-.308.08-.52.296-.52.558v.354a.27.27 0 0 0-.164.245v7.723a.265.265 0 1 0 .531 0v-7.477a.27.27 0 0 0 .164-.246v-.583c.023-.024.106-.074.245-.077a.265.265 0 0 0 .26-.265v-.094c0-.116.249-.291.625-.291s.625.175.625.29v.095c0 .144.115.261.259.265.14.004.223.053.245.078v.582c0 .111.068.206.164.246v7.477c0 .147.12.265.266.265" class="bengaluru_svg__dynamic-shade-fill s-y_bCXRrkrYfP" clip-rule="evenodd"></path><path stroke="#FFA500" stroke-width="0.1" d="M76.893 43.251c-.09-.393-.558-.684-1.14-.684-.583 0-1.052.29-1.141.684-.309.08-.52.296-.52.558v.354a.27.27 0 0 0-.164.245v7.723a.266.266 0 0 0 .53 0v-7.477a.265.265 0 0 0 .165-.246v-.583c.022-.024.106-.074.245-.077a.265.265 0 0 0 .259-.265v-.094c0-.116.25-.291.626-.291.375 0 .625.175.625.29v.095c0 .144.115.261.259.265.139.004.222.053.245.078v.582c0 .111.068.206.164.246v7.477a.266.266 0 0 0 .53 0v-7.723a.27.27 0 0 0-.163-.245v-.354c0-.262-.212-.477-.52-.558Zm6.984-7.487a.502.502 0 0 1 1 0zm.05 1.488h.9v-.68h-.9zm.47-2.494.006.007c0 .007-.013.007-.013 0zM67.16 36.76a.265.265 0 0 0-.237.385l-.174-.214v-1.116l-.001-.023a.3.3 0 0 0 .05-.02c.03.046.075.082.127.103a.265.265 0 0 0 .235.387h11.016v.415q0 .044.013.083zm.4 2.007H42.813l1.204-1.476h22.343zm-1.705 3.223h.705v-.873h-.705zm-22.024-2.25h22.71v-.15h-22.71zm-.018 2.25h.704v-.873h-.704zm-.6-5.23h-11.03a.3.3 0 0 0 .014-.083v-.415h11.015a.265.265 0 0 0 .235-.387.27.27 0 0 0 .127-.103.3.3 0 0 0 .05.02v1.139l-.175.214a.265.265 0 0 0-.237-.385Zm-12.141-1.787v-.2h12.65a1 1 0 0 0-.108.242.26.26 0 0 0-.144-.042zm13.545-.7.006-.006.007.006c0 .008-.013.008-.013 0Zm-.463 2.487h.899v-.68h-.899zm-.05-1.487a.502.502 0 0 1 1 0zm2.716 1.487h-.246a.27.27 0 0 0 .123-.13.27.27 0 0 0 .123.13Zm.943 0h-.246a.27.27 0 0 0 .123-.13.27.27 0 0 0 .123.13Zm.943 0h-.246a.27.27 0 0 0 .123-.13.27.27 0 0 0 .123.13Zm.944 0h-.247a.27.27 0 0 0 .123-.13.27.27 0 0 0 .124.13Zm.943 0h-.247a.27.27 0 0 0 .124-.13.27.27 0 0 0 .123.13Zm.943 0h-.246a.27.27 0 0 0 .123-.13.27.27 0 0 0 .123.13Zm.943 0h-.246a.27.27 0 0 0 .123-.13.27.27 0 0 0 .123.13Zm.944 0h-.246a.27.27 0 0 0 .123-.13.27.27 0 0 0 .123.13Zm.943 0h-.246a.27.27 0 0 0 .123-.13.27.27 0 0 0 .123.13Zm.943 0h-.246a.27.27 0 0 0 .123-.13.27.27 0 0 0 .123.13Zm.943 0h-.246a.27.27 0 0 0 .123-.13.27.27 0 0 0 .123.13Zm.944 0h-.247a.27.27 0 0 0 .124-.13.27.27 0 0 0 .123.13Zm.943 0h-.246a.27.27 0 0 0 .123-.13.27.27 0 0 0 .123.13Zm.943 0h-.246a.27.27 0 0 0 .123-.13.27.27 0 0 0 .123.13Zm.944 0h-.247a.27.27 0 0 0 .123-.13.27.27 0 0 0 .124.13Zm.943 0h-.247a.27.27 0 0 0 .124-.13.27.27 0 0 0 .123.13Zm.943 0h-.246a.27.27 0 0 0 .123-.13.27.27 0 0 0 .123.13Zm.943 0h-.246a.27.27 0 0 0 .123-.13.27.27 0 0 0 .123.13Zm.944 0h-.247a.27.27 0 0 0 .123-.13.27.27 0 0 0 .124.13Zm1.983-2.487.006-.006.007.006c0 .008-.013.008-.013 0Zm-.463 2.487h.899v-.68h-.899zm-.05-1.487a.502.502 0 0 1 1 0zm-33.586-1.47h11.94a.265.265 0 0 0 .26-.316h2.838q.066 0 .122-.029v.956c0 .101.057.19.141.234a.266.266 0 0 0-.217.261v.496c0 .146.118.265.265.265h16.308a.266.266 0 0 0 .265-.265v-.496a.266.266 0 0 0-.217-.26.27.27 0 0 0 .14-.235v-1.06c.047.08.132.134.231.134h2.73a.265.265 0 0 0 .26.315h11.94v.094H66.597a.265.265 0 0 0-.201.438.3.3 0 0 0-.058.113l-.059-.037a.534.534 0 1 0-1.019 0 1.03 1.03 0 0 0-.523.894.265.265 0 0 0 .054.487l-.001.023v.945h-.293a.27.27 0 0 0 .145-.236v-.565a.265.265 0 0 0-.265-.266h-.457a.27.27 0 0 0-.244.16.27.27 0 0 0-.242-.16h-.457a.27.27 0 0 0-.244.16.27.27 0 0 0-.243-.16h-.457a.27.27 0 0 0-.243.16.27.27 0 0 0-.243-.16h-.457a.27.27 0 0 0-.243.16.27.27 0 0 0-.244-.16h-.456a.27.27 0 0 0-.243.16.27.27 0 0 0-.244-.16h-.457a.27.27 0 0 0-.243.16.27.27 0 0 0-.243-.16h-.457a.27.27 0 0 0-.243.16.27.27 0 0 0-.243-.16h-.457a.27.27 0 0 0-.243.16.27.27 0 0 0-.243-.16h-.458a.27.27 0 0 0-.243.16.27.27 0 0 0-.243-.16h-.457a.27.27 0 0 0-.243.16.27.27 0 0 0-.243-.16h-.457a.27.27 0 0 0-.243.16.27.27 0 0 0-.243-.16h-.457a.27.27 0 0 0-.243.16.27.27 0 0 0-.244-.16H52.6a.27.27 0 0 0-.243.16.27.27 0 0 0-.243-.16h-.457a.27.27 0 0 0-.243.16.27.27 0 0 0-.243-.16h-.457a.27.27 0 0 0-.243.16.27.27 0 0 0-.243-.16h-.457a.27.27 0 0 0-.244.16.27.27 0 0 0-.243-.16h-.457a.27.27 0 0 0-.243.16.27.27 0 0 0-.243-.16h-.457a.27.27 0 0 0-.243.16.27.27 0 0 0-.243-.16h-.457a.27.27 0 0 0-.243.16.27.27 0 0 0-.243-.16h-.458a.265.265 0 0 0-.265.266v.565c0 .103.06.193.145.236h-.293v-.968a.265.265 0 0 0 .053-.487 1.03 1.03 0 0 0-.523-.894.534.534 0 1 0-1.019 0l-.06.037a.3.3 0 0 0-.056-.113.264.264 0 0 0-.202-.438H31.684zm6.334-7.83h.11c-.532.53-1.01 1.31-1.406 2.3-.529 1.32-.888 2.957-1.039 4.732a.27.27 0 0 0 .161.267h-2.396l.004-.043a.266.266 0 0 0-.266-.266h-.636a7.29 7.29 0 0 1 5.468-6.99Zm6.139 6.597h2.566q.065 0 .121-.03v.447a.3.3 0 0 0-.122-.03h-2.565zm.767-1.218h1.798a.265.265 0 0 0 .23-.398.3.3 0 0 0 .06-.026V31c0 .1.055.186.136.23h-.039a.266.266 0 0 0-.265.266v.14a.3.3 0 0 0-.122-.03h-1.798zm7.198-6.687h6.238v-.677h-6.238zm-1.874 1.92h9.986v-.925h-9.986zm-1.675.931v-.002h.009zm14.447 7a.26.26 0 0 0 .113.128h-.196a.27.27 0 0 0 .083-.127ZM63 31.763v.116a.27.27 0 0 0-.126-.116zm-15.563 2.882h-.195a.26.26 0 0 0 .112-.127q.023.076.083.127Zm-.062-2.766v-.116h.125a.27.27 0 0 0-.125.116Zm.073-1.636h.214a.27.27 0 0 0-.096.204v.288h-.023v-.288a.27.27 0 0 0-.095-.204Zm.89 2.027v2.172c0 .081.037.154.095.203h-.654a.26.26 0 0 0 .095-.203v-2.172zm-.336-2.027h.28a.27.27 0 0 0-.096.204V31c0 .1.055.186.136.23h-.36a.27.27 0 0 0 .135-.23v-.554a.27.27 0 0 0-.095-.204Zm.62 0h.214a.27.27 0 0 0-.095.204v.288h-.024v-.288a.27.27 0 0 0-.095-.204Zm.389 4.402h-.236a.26.26 0 0 0 .094-.203v-2.437c0-.108-.064-.2-.157-.242h.362a.27.27 0 0 0-.157.242v2.437c0 .081.036.154.094.203Zm.904-4.198v.288h-.024v-.288a.27.27 0 0 0-.095-.204h.214a.27.27 0 0 0-.095.204Zm-.468 3.995v-2.172h.465v2.172c0 .081.037.154.094.203h-.653a.26.26 0 0 0 .094-.203Zm-.271-4.2h.28a.27.27 0 0 0-.096.205V31c0 .1.055.186.136.23h-.36a.27.27 0 0 0 .135-.23v-.554a.26.26 0 0 0-.095-.204Zm1.134.99a.27.27 0 0 0 .136-.231v-.554a.26.26 0 0 0-.096-.204h.28a.27.27 0 0 0-.095.204V31c0 .1.055.186.135.23zm.274 3.413h-.235a.26.26 0 0 0 .094-.203v-2.437c0-.108-.065-.2-.157-.242h.361a.27.27 0 0 0-.157.242v2.437c0 .081.037.154.094.203Zm.9-3.413A.27.27 0 0 0 51.62 31v-.554a.27.27 0 0 0-.095-.204h.28a.27.27 0 0 0-.096.204V31c0 .1.055.186.135.23zm-.463 3.21v-2.172h.465v2.172c0 .081.036.154.094.203h-.653a.26.26 0 0 0 .094-.203Zm-.05-4.2h.213a.26.26 0 0 0-.095.205v.288h-.023v-.288a.26.26 0 0 0-.096-.204Zm1.187 4.403h-.236a.26.26 0 0 0 .094-.203v-2.437c0-.108-.064-.2-.157-.242h.362a.27.27 0 0 0-.157.242v2.437c0 .081.036.154.094.203Zm-.014-4.402h.215a.26.26 0 0 0-.096.204v.288h-.023v-.288a.26.26 0 0 0-.096-.204Zm.915 2.027v2.172c0 .081.037.154.094.203H52.5a.26.26 0 0 0 .094-.203v-2.172zm-.36-2.027h.28a.26.26 0 0 0-.096.204V31c0 .1.055.186.136.23h-.36a.27.27 0 0 0 .135-.23v-.554a.27.27 0 0 0-.095-.204Zm.62 0h.214a.27.27 0 0 0-.096.204v.288h-.023v-.288a.26.26 0 0 0-.096-.204Zm.412 4.402h-.236a.26.26 0 0 0 .095-.203v-2.437c0-.108-.065-.2-.157-.242h.361a.27.27 0 0 0-.157.242v2.437c0 .081.037.154.094.203Zm.762-4.402h.214a.27.27 0 0 0-.095.204v.288h-.024v-.288a.27.27 0 0 0-.095-.204Zm-.325 4.199v-2.172h.465v2.172c0 .081.036.154.094.203h-.653a.26.26 0 0 0 .094-.203Zm-.295-4.2h.28a.26.26 0 0 0-.096.205V31c0 .1.055.186.136.23h-.36a.26.26 0 0 0 .135-.23v-.554a.27.27 0 0 0-.095-.204Zm1.174 0h.28a.27.27 0 0 0-.095.205V31c0 .1.054.186.135.23h-.36a.27.27 0 0 0 .136-.23v-.554a.27.27 0 0 0-.096-.204Zm.258 4.403h-.236a.26.26 0 0 0 .094-.203v-2.437c0-.108-.064-.2-.157-.242h.362a.27.27 0 0 0-.157.242v2.437c0 .081.036.154.094.203Zm.876-3.413a.27.27 0 0 0 .136-.231v-.554a.27.27 0 0 0-.096-.204h.28a.27.27 0 0 0-.095.204V31c0 .1.054.186.135.23zm-.44 3.21v-2.172h.465v2.172c0 .081.037.154.095.203h-.654a.26.26 0 0 0 .094-.203Zm-.074-4.2h.214a.27.27 0 0 0-.095.205v.288h-.024v-.288a.27.27 0 0 0-.095-.204Zm1.27.493v-.288a.27.27 0 0 0-.096-.204h.214a.27.27 0 0 0-.095.204v.288zm-.058 3.91h-.236a.26.26 0 0 0 .094-.203v-2.437c0-.108-.065-.2-.157-.242h.361a.27.27 0 0 0-.157.242v2.437c0 .081.037.154.095.203Zm.9-2.375v2.172c0 .081.037.154.095.203h-.653a.26.26 0 0 0 .094-.203v-2.172zm-.383-2.027h.28a.27.27 0 0 0-.096.204V31c0 .1.055.186.136.23h-.36a.27.27 0 0 0 .135-.23v-.554a.26.26 0 0 0-.095-.204Zm.62 0h.214a.26.26 0 0 0-.096.204v.288h-.023v-.288a.27.27 0 0 0-.095-.204Zm.436 4.402h-.236a.26.26 0 0 0 .095-.203v-2.437c0-.108-.065-.2-.158-.242h.362a.27.27 0 0 0-.157.242v2.437c0 .081.036.154.094.203Zm.738-4.402h.214a.26.26 0 0 0-.095.204v.288h-.024v-.288a.26.26 0 0 0-.095-.204Zm-.301 4.199v-2.172h.464v2.172c0 .081.037.154.095.203h-.654a.26.26 0 0 0 .095-.203Zm-.32-4.2h.28a.27.27 0 0 0-.095.205V31c0 .1.055.186.136.23h-.36a.27.27 0 0 0 .135-.23v-.554a.26.26 0 0 0-.095-.204Zm1.175 0h.28a.26.26 0 0 0-.095.205V31c0 .1.054.186.135.23h-.36a.27.27 0 0 0 .135-.23v-.554a.27.27 0 0 0-.095-.204Zm.282 4.403h-.236a.27.27 0 0 0 .094-.203v-2.437c0-.108-.065-.2-.157-.242h.361a.27.27 0 0 0-.157.242v2.437c0 .081.037.154.095.203Zm.852-3.413a.26.26 0 0 0 .136-.231v-.554a.27.27 0 0 0-.096-.204h.28a.26.26 0 0 0-.095.204V31c0 .1.054.186.135.23zm-.416 3.21v-2.172h.465v2.172c0 .081.037.154.094.203h-.653a.26.26 0 0 0 .094-.203Zm-.098-4.2h.214a.27.27 0 0 0-.095.205v.288h-.024v-.288a.26.26 0 0 0-.095-.204Zm1.293.205v.288h-.023v-.288a.27.27 0 0 0-.096-.204h.214a.27.27 0 0 0-.095.204Zm-.058 4.198h-.236a.27.27 0 0 0 .095-.203v-2.437c0-.108-.065-.2-.158-.242h.362a.27.27 0 0 0-.157.242v2.437c0 .081.036.154.094.203ZM47.543 29.71H62.94v-.167H47.543zM62.5 32.27v2.172c0 .081.037.154.095.203h-.654a.26.26 0 0 0 .094-.203v-2.172zm-.407-2.027h.28a.27.27 0 0 0-.096.204V31c0 .1.055.186.136.23h-.36a.26.26 0 0 0 .135-.23v-.554a.27.27 0 0 0-.095-.204Zm.62 0h.213a.27.27 0 0 0-.095.204v.288h-.023v-.288a.27.27 0 0 0-.095-.204Zm-9.779-8.719h4.614a9.22 9.22 0 0 1 6.923 8.918l-.559.016a.266.266 0 0 0-.233.377.266.266 0 0 0 .081.518h1.798v.254H63.76a.27.27 0 0 0-.23.133v-.243a.265.265 0 0 0-.265-.265h-.038a.27.27 0 0 0 .135-.231v-.554c0-.086-.04-.161-.103-.21a.265.265 0 0 0 .211-.26v-.697a.265.265 0 0 0-.265-.266h-.891a.26.26 0 0 0 .035-.131V27.23a.265.265 0 1 0-.53 0v1.652q0 .072.034.131H48.521a.26.26 0 0 0 .035-.131v-.865a.3.3 0 0 0 .048.005h12.24a.266.266 0 0 0 .045-.527h.48a.265.265 0 0 0 0-.53h-.63a.3.3 0 0 0 .026-.115v-1.455a.265.265 0 0 0-.265-.266h-1.7a.27.27 0 0 0 .09-.199v-1.207a.265.265 0 0 0-.265-.265h-6.768a.265.265 0 0 0-.265.265v1.207c0 .08.035.15.09.2h-1.7a.266.266 0 0 0-.265.265v1.455q0 .062.027.114H48.29a.265.265 0 0 0-.266.266v1.652q.001.072.035.131h-.782a.266.266 0 0 0-.266.265v.698c0 .102.057.19.141.235a.27.27 0 0 0-.141.235v.025a.26.26 0 0 0-.135-.037h-.866a9.22 9.22 0 0 1 6.923-8.91Zm.488-.662v-.664h3.638v.664q.001.073.035.132h-3.708a.26.26 0 0 0 .035-.132Zm1.82-2.099.521.904H54.72zm2.894-5.052a9.22 9.22 0 0 1 6.281 8.728l-.559.015a.266.266 0 0 0-.233.377.266.266 0 0 0 .08.518h1.8v.254h-1.8a.265.265 0 0 0-.152.482.265.265 0 0 0 .153.482h2.565v.387h-2.565c-.13 0-.24.095-.261.22a9.8 9.8 0 0 0-1.985-2.23.3.3 0 0 0 .118.03h.005a.265.265 0 0 0 .265-.261l.002-.242c0-3.78-1.475-7.147-3.714-8.76Zm5.394 18.462v-.169q.03.051.077.085a.3.3 0 0 0-.077.084Zm.23.398h2.566v.387H63.76a.27.27 0 0 0-.23.133v-.653c.046.08.131.133.23.133Zm1.304-4.37a7.27 7.27 0 0 1 3.631-2.227h.121c-.975.97-1.753 2.759-2.18 5.066a.265.265 0 0 0 .522.096c.468-2.527 1.39-4.44 2.471-5.145h1.806c.649.422 1.244 1.277 1.724 2.48.51 1.273.857 2.857 1.003 4.58a.27.27 0 0 0 .162.222h-7.473a.3.3 0 0 0 .005-.05v-.917a.265.265 0 0 0-.265-.266h-.562a.26.26 0 0 0 .06-.168v-.784a.265.265 0 0 0-.265-.265h-.855a.3.3 0 0 0 .03-.116 9.8 9.8 0 0 0-.246-2.442c.104.049.23.026.31-.064Zm4.067-2.809v-.474h2.79v.474a.3.3 0 0 0 .005.052h-2.8a.3.3 0 0 0 .005-.052Zm1.395-1.563.322.558h-.644zm1.83 2.145a7.29 7.29 0 0 1 5.468 6.99h-.636a.266.266 0 0 0-.262.31H74.53a.27.27 0 0 0 .161-.268c-.151-1.775-.51-3.412-1.039-4.733-.395-.99-.874-1.769-1.406-2.299zm6.945 8.8v.2H66.903a.26.26 0 0 0-.144.042 1 1 0 0 0-.107-.242zm-53.804.991a.502.502 0 0 1 1 0zm.05 1.488h.9v-.68h-.9zm.47-2.494.006.007c0 .007-.013.007-.013 0zm12.436-9.367v-.474h2.79v.474q0 .027.005.052h-2.8a.3.3 0 0 0 .005-.052Zm1.395-1.563.323.558h-.645zm13.485-10.84a.3.3 0 0 0 .035-.131v-.664h3.638v.664q.001.073.035.132zm1.854-2.23.522.905h-1.044zm32.825 28.953-2.14-1.87a.27.27 0 0 0-.175-.066h-.543a.265.265 0 0 0 .203-.258v-1.21l-.001-.023a.265.265 0 0 0 .053-.487 1.03 1.03 0 0 0-.523-.894.534.534 0 1 0-1.019 0 1.03 1.03 0 0 0-.522.894.265.265 0 0 0 .053.487l-.001.023v1.21c0 .125.087.23.203.258h-2.812a.265.265 0 0 0-.263.236l-1.357-1.185a.27.27 0 0 0-.174-.066h-.3a.3.3 0 0 0 .013-.083v-.68a.3.3 0 0 0-.021-.104h.051a.266.266 0 0 0 .235-.39h.595a.265.265 0 0 0 .265-.264v-.732a.265.265 0 0 0-.265-.265h-.358a.3.3 0 0 0 .012-.08v-.625a.265.265 0 0 0-.266-.265h-.606l.003-.037.003-.195a7.8 7.8 0 0 0-1.678-4.844 7.87 7.87 0 0 0-4.222-2.745l-.01-.002a.3.3 0 0 0 .006-.058v-.74a.265.265 0 0 0-.265-.265h-.8a.26.26 0 0 0-.031-.184l-.564-.976v-.739a.265.265 0 0 0-.53 0v.74l-.564.975a.26.26 0 0 0-.03.184h-.801a.266.266 0 0 0-.266.266v.74q0 .03.007.057l-.01.002a7.8 7.8 0 0 0-3.945 2.415 9.7 9.7 0 0 0-1.02-2.393q.035.01.074.01h2.83a.265.265 0 0 0 .266-.265v-.917a.265.265 0 0 0-.265-.266h-.562a.26.26 0 0 0 .06-.168v-.784a.265.265 0 0 0-.265-.265h-.855a.3.3 0 0 0 .03-.116l.003-.244a9.74 9.74 0 0 0-2.092-6.039 9.8 9.8 0 0 0-5.264-3.422.3.3 0 0 0-.065-.008h-.026a.27.27 0 0 0 .035-.132v-.93a.265.265 0 0 0-.265-.264H56.17a.27.27 0 0 0 0-.265l-.717-1.242v-.945a.265.265 0 0 0-.53 0v.945l-.717 1.242a.27.27 0 0 0 0 .265h-1.102a.265.265 0 0 0-.266.265v.929q.002.073.036.132h-.026a.3.3 0 0 0-.065.008 9.8 9.8 0 0 0-5.263 3.422 9.73 9.73 0 0 0-2.09 6.283q.003.063.03.116h-.855a.265.265 0 0 0-.265.265v.784c0 .064.023.122.06.168h-.562a.265.265 0 0 0-.265.266v.917c0 .147.119.266.265.266h2.831a.265.265 0 0 0 0-.53h-2.565v-.388h2.565a.265.265 0 0 0 .153-.482.265.265 0 0 0-.153-.482H44.87v-.254h1.798a.265.265 0 0 0 .23-.398.266.266 0 0 0-.075-.52h-.866a9.22 9.22 0 0 1 6.28-8.72c-2.238 1.613-3.713 4.98-3.713 8.76l.002.242c.003.145.121.26.266.26h.004a.266.266 0 0 0 .261-.27l-.002-.232c0-2.112.464-4.1 1.34-5.75.83-1.563 1.988-2.693 3.264-3.189h3.056c1.276.496 2.433 1.626 3.264 3.189.877 1.65 1.34 3.638 1.34 5.75q0 .112-.002.233a.26.26 0 0 0 .058.17A9.8 9.8 0 0 0 57.647 21a.3.3 0 0 0-.066-.008h-.026a.26.26 0 0 0 .035-.132v-.93a.265.265 0 0 0-.265-.265h-1.102a.27.27 0 0 0 0-.264l-.716-1.242v-.945a.265.265 0 0 0-.531 0v.945l-.717 1.242a.27.27 0 0 0 0 .264h-1.102a.265.265 0 0 0-.265.266v.929q.001.073.035.132h-.026a.3.3 0 0 0-.065.008 9.8 9.8 0 0 0-5.263 3.422 9.73 9.73 0 0 0-2.09 6.283.3.3 0 0 0 .03.116h-.855a.265.265 0 0 0-.265.265v.784c0 .064.023.123.06.168h-.562a.265.265 0 0 0-.265.266v.917q0 .027.005.05H36.05a.27.27 0 0 0 .162-.222c.146-1.723.493-3.307 1.003-4.58.48-1.203 1.075-2.058 1.724-2.48h1.806c1.082.705 2.003 2.618 2.472 5.145a.266.266 0 0 0 .522-.096c-.428-2.307-1.206-4.096-2.181-5.066h.12a7.27 7.27 0 0 1 3.633 2.227.265.265 0 0 0 .397-.352 7.8 7.8 0 0 0-3.93-2.397l-.01-.002a.3.3 0 0 0 .006-.058v-.74a.265.265 0 0 0-.266-.265h-.8a.26.26 0 0 0-.03-.184l-.564-.976v-.739a.265.265 0 1 0-.531 0v.74l-.564.975a.26.26 0 0 0-.03.184h-.8a.265.265 0 0 0-.266.266v.74q0 .03.006.057l-.01.002a7.87 7.87 0 0 0-4.221 2.745 7.8 7.8 0 0 0-1.676 5.04q0 .018.004.036h-.607a.265.265 0 0 0-.266.265v.625q0 .042.013.08h-.358a.265.265 0 0 0-.266.265v.732c0 .146.119.265.266.265h.594a.264.264 0 0 0 .235.389h.051a.3.3 0 0 0-.021.104v.68q0 .044.014.083h-.3a.27.27 0 0 0-.175.066l-1.357 1.185a.265.265 0 0 0-.263-.236h-2.812a.266.266 0 0 0 .203-.258v-1.21l-.001-.023a.265.265 0 0 0 .053-.487 1.03 1.03 0 0 0-.523-.894.535.535 0 0 0-.509-.692.534.534 0 0 0-.51.692 1.03 1.03 0 0 0-.522.894.265.265 0 0 0 .053.487l-.001.023v1.21c0 .125.087.23.203.258h-.543a.27.27 0 0 0-.174.066l-2.14 1.87a.265.265 0 0 0 .174.465h1.185q.095-.002.164-.057a.3.3 0 0 0-.008.064v.392q.001.078.04.139h-.256a.265.265 0 0 0-.265.266v.833c0 .146.119.265.265.265h.379a.27.27 0 0 0-.163.245v10.93a.265.265 0 1 0 .53 0v-10.93a.27.27 0 0 0-.162-.245h5.459a.265.265 0 1 0 0-.53h-5.777v-.303h5.776a.265.265 0 1 0 0-.531H24.37a.26.26 0 0 0 .04-.139v-.127h5.242a.265.265 0 1 0 0-.53h-5.508a.27.27 0 0 0-.164.057.263.263 0 0 0-.257-.33h-.478l1.533-1.34h4.735l-.602.527a.265.265 0 0 0 .174.466h1.271a.265.265 0 0 0 0-.531h-.564l1.689-1.476h11.733c.062 0 .12-.022.165-.058l-1.33 1.631a.266.266 0 0 0 .206.434h1.048l-.001.026v.68c0 .1.056.188.138.233a.265.265 0 0 0-.04.395.27.27 0 0 0-.116.22v1.403c0 .147.119.266.265.266h1.235a.265.265 0 0 0 .266-.266v-1.404a.26.26 0 0 0-.037-.134h20.35a.26.26 0 0 0-.037.134v1.404c0 .147.119.266.266.266h1.235a.266.266 0 0 0 .265-.266v-1.404a.27.27 0 0 0-.116-.22.265.265 0 0 0-.04-.394.27.27 0 0 0 .138-.232v-.681l-.001-.026h1.049a.265.265 0 0 0 .205-.434l-1.33-1.63a.27.27 0 0 0 .165.057h11.733l1.689 1.476h-.564a.265.265 0 1 0 0 .53h1.27a.266.266 0 0 0 .175-.465l-.602-.526h4.735l1.533 1.34h-.478a.265.265 0 0 0-.257.329.27.27 0 0 0-.164-.058h-5.508a.265.265 0 1 0 0 .531h5.242v.127q.001.078.04.139H80.67a.265.265 0 1 0 0 .53h5.776v.303H80.67a.266.266 0 0 0 0 .53h5.458a.27.27 0 0 0-.163.246v10.93a.266.266 0 0 0 .531 0v-10.93a.27.27 0 0 0-.162-.245h.378a.265.265 0 0 0 .265-.265v-.834a.265.265 0 0 0-.265-.265h-.255a.26.26 0 0 0 .04-.139v-.392a.3.3 0 0 0-.009-.064.27.27 0 0 0 .164.057h1.185a.265.265 0 0 0 .175-.465Zm-16.58 3.54c-.089-.393-.558-.684-1.14-.684s-1.051.29-1.14.684c-.31.08-.52.296-.52.558v.354a.27.27 0 0 0-.165.245v7.723a.265.265 0 1 0 .531 0v-7.477a.27.27 0 0 0 .164-.246v-.583c.023-.024.106-.074.246-.077a.265.265 0 0 0 .258-.265v-.094c0-.116.25-.291.626-.291s.626.175.626.29v.095c0 .144.114.261.258.265.14.004.223.053.246.078v.582c0 .111.067.206.164.246v7.477a.266.266 0 0 0 .53 0v-7.723a.27.27 0 0 0-.164-.245v-.354c0-.262-.211-.477-.52-.558Zm-28.16 10.85a.3.3 0 0 0 .005-.054v-1.288h23.82v1.288a.3.3 0 0 0 .005.053zm1.16-11.036v9.163H43.9v-9.142l-.001-.021zm1.865 9.163h1.161v-1.714h-1.161zm.34-2.385v-7.708h.48v7.708q.002.079.041.14h-.561a.26.26 0 0 0 .04-.14Zm2.798 2.217v-9.352h.61c.09 0 .168-.045.216-.112v7.247q.001.079.04.14h-.115a.265.265 0 0 0-.265.266v1.979h-.546a.26.26 0 0 0 .06-.168Zm1.017.168h1.16v-1.714h-1.16zm.34-2.385v-7.708h.48v7.708q.002.079.041.14h-.562a.26.26 0 0 0 .04-.14Zm2.188 2.385h4.414V44.83H52.98zm5.781 0h1.161v-1.714h-1.16zm.34-2.385v-7.708h.481v7.708q.001.079.04.14h-.56a.26.26 0 0 0 .04-.14Zm1.012 0v-7.189a.26.26 0 0 0 .159.054h.667v9.352c0 .063.022.122.06.168h-.546v-1.979a.266.266 0 0 0-.265-.265h-.116a.26.26 0 0 0 .041-.14Zm2.803 2.385h1.161v-1.714h-1.161zm.34-2.385v-7.708h.481v7.708q.001.079.04.14h-.561a.26.26 0 0 0 .04-.14Zm3.22-6.778-.002.021v9.142h-.532v-9.163zm13.09-1.712a.265.265 0 0 0-.265.266v11.46H67.814c-.073 0-.139.03-.186.077v-.663a.265.265 0 0 0-.266-.265h-.357v-9.142a.3.3 0 0 0-.019-.098.265.265 0 0 0-.187-.454h-1.182a.266.266 0 0 0-.187.454.3.3 0 0 0-.019.098v9.142h-.803v-1.979a.265.265 0 0 0-.265-.265h-.116a.26.26 0 0 0 .04-.14v-7.975a.26.26 0 0 0-.042-.143h.322a.265.265 0 0 0 .234-.389h.019a.265.265 0 0 0 0-.53h-2.606a.266.266 0 0 0 0 .53h.018a.265.265 0 0 0 .235.389h.32a.26.26 0 0 0-.042.143v7.974q.002.079.041.14h-.115a.265.265 0 0 0-.266.266v1.979h-.976a.27.27 0 0 0 .06-.168v-9.618a.265.265 0 0 0-.265-.265h-.932q-.092.002-.159.053v-.36a.26.26 0 0 0-.042-.144h.321a.265.265 0 0 0 .235-.389h.018a.265.265 0 0 0 0-.53h-2.606a.266.266 0 0 0 0 .53h.018a.265.265 0 0 0 .235.39h.32a.27.27 0 0 0-.041.142v7.974q.001.079.04.14h-.115a.266.266 0 0 0-.266.266v1.979h-.305v-7.663a.265.265 0 0 0-.265-.265h-4.945a.265.265 0 0 0-.266.265v7.663h-.305v-1.979a.265.265 0 0 0-.266-.265h-.115a.26.26 0 0 0 .04-.14v-7.975a.27.27 0 0 0-.042-.143h.322a.265.265 0 0 0 .234-.389h.018a.266.266 0 0 0 0-.53H49.73a.265.265 0 0 0 0 .53h.018a.265.265 0 0 0 .235.389h.321a.26.26 0 0 0-.042.143v.42a.27.27 0 0 0-.216-.112h-.875a.265.265 0 0 0-.265.265v9.618c0 .063.022.122.06.168h-.976v-1.979a.265.265 0 0 0-.265-.265h-.116a.26.26 0 0 0 .04-.14v-7.975a.26.26 0 0 0-.042-.143h.322a.265.265 0 0 0 .234-.389h.019a.265.265 0 0 0 0-.53h-2.607a.265.265 0 0 0 0 .53h.018a.265.265 0 0 0 .235.39h.322a.26.26 0 0 0-.043.142v7.974q.001.079.04.14h-.115a.265.265 0 0 0-.265.266v1.979h-.803v-9.142a.3.3 0 0 0-.02-.098.265.265 0 0 0-.186-.454h-1.182a.265.265 0 0 0-.187.454.3.3 0 0 0-.019.098v9.142h-.357a.265.265 0 0 0-.265.265v.663a.26.26 0 0 0-.187-.077H31.073v-11.46a.266.266 0 0 0-.53 0v11.725c0 .147.118.266.265.266H42.56c.073 0 .139-.03.187-.078v.515q0 .027.005.053h-2.54a.265.265 0 0 0-.266.266v1.4a.265.265 0 1 0 .53 0v-1.135h29.421v1.135a.265.265 0 1 0 .531 0v-1.4a.265.265 0 0 0-.265-.266h-2.541a.3.3 0 0 0 .005-.053v-.514a.26.26 0 0 0 .188.077h11.752a.265.265 0 0 0 .265-.266V41.62a.265.265 0 0 0-.265-.266Zm-27.749 1.09c0 .146.119.265.266.265h6.209a.265.265 0 0 0 0-.531h-6.21a.265.265 0 0 0-.265.265Zm28.265-2.53h-.31a.26.26 0 0 0 .06-.168v-.421a.265.265 0 0 0-.265-.265H68.733a.265.265 0 0 0 0 .53H79.3v.156c0 .064.023.122.06.168H67.362a.265.265 0 0 0 0 .53h12.455v.363H67.362a.265.265 0 0 0 0 .531h12.72a.265.265 0 0 0 .266-.265v-.894a.265.265 0 0 0-.266-.265Zm-36.805 1.159a.265.265 0 0 0-.265-.266H30.557v-.362h12.455a.265.265 0 1 0 0-.531h-12a.26.26 0 0 0 .061-.168v-.156h10.568a.265.265 0 0 0 0-.53H30.808a.265.265 0 0 0-.266.265v.42c0 .065.023.123.06.169h-.31a.265.265 0 0 0-.266.265v.894c0 .146.119.265.266.265h12.72a.265.265 0 0 0 .265-.265Zm-1.636 11.324a.265.265 0 0 0 .266-.265v-7.723a.27.27 0 0 0-.164-.245v-.354c0-.262-.212-.477-.52-.558-.09-.393-.559-.684-1.14-.684-.583 0-1.052.29-1.142.684-.308.08-.52.296-.52.558v.354a.27.27 0 0 0-.163.245v7.723a.265.265 0 1 0 .53 0v-7.477a.27.27 0 0 0 .165-.246v-.583c.022-.024.106-.074.245-.077a.265.265 0 0 0 .259-.265v-.094c0-.116.25-.291.625-.291.376 0 .626.175.626.29v.095c0 .144.114.261.258.265.14.004.223.053.246.078v.582c0 .111.067.206.164.246v7.477c0 .147.119.265.265.265Zm-5.46 0a.265.265 0 0 0 .265-.265v-7.723a.27.27 0 0 0-.164-.245v-.354c0-.262-.211-.477-.52-.558-.089-.393-.558-.684-1.14-.684-.583 0-1.052.29-1.141.684-.308.08-.52.296-.52.558v.354a.27.27 0 0 0-.164.245v7.723a.265.265 0 1 0 .531 0v-7.477a.27.27 0 0 0 .164-.246v-.583c.023-.024.106-.074.245-.077a.265.265 0 0 0 .26-.265v-.094c0-.116.249-.291.625-.291s.625.175.625.29v.095c0 .144.115.261.259.265.14.004.223.053.245.078v.582c0 .111.068.206.164.246v7.477c0 .147.12.265.266.265Z" clip-rule="evenodd" mask="url(#noida_svg__e)" class="s-y_bCXRrkrYfP"></path><rect width="12.135" height="1.812" x="31.515" y="33.815" fill="#D8D8D8" class="bengaluru_svg__dynamic-shade-fill s-y_bCXRrkrYfP" rx="0.5"></rect><path fill="#D8D8D8" d="M38.496 24.968h2.694v.43h-2.694zM69.176 24.973h2.694v.43h-2.694zM53.467 20.25h3.568v.7h-3.568zM53.402 12.23h3.568v.711h-3.568z" class="bengaluru_svg__dynamic-shade-fill s-y_bCXRrkrYfP"></path><rect width="15.301" height="6.924" x="47.59" y="29.577" fill="#fff" class="bengaluru_svg__dynamic-shade-fill s-y_bCXRrkrYfP" rx="0.25"></rect><rect width="23.227" height="1.17" x="43.649" y="39.195" fill="#D8D8D8" class="bengaluru_svg__dynamic-shade-fill s-y_bCXRrkrYfP" rx="0.25"></rect><rect width="12.301" height="10.354" x="31.02" y="41.353" fill="#F5F5F5" class="bengaluru_svg__dynamic-shade-fill s-y_bCXRrkrYfP" rx="0.2"></rect><rect width="5.897" height="8.801" x="52.236" y="42.907" fill="#fff" rx="0.25" class="s-y_bCXRrkrYfP"></rect><rect width="12.446" height="10.354" x="66.93" y="41.353" fill="#F5F5F5" class="bengaluru_svg__dynamic-shade-fill s-y_bCXRrkrYfP" rx="0.2"></rect><rect width="12.135" height="1.812" x="66.877" y="33.815" fill="#D8D8D8" class="bengaluru_svg__dynamic-shade-fill s-y_bCXRrkrYfP" rx="0.5"></rect><path fill="#FFA500" d="M23.622 22.447h.371v.374a.393.393 0 1 0 .784 0v-.374h.371a.393.393 0 0 0 .392-.395.393.393 0 0 0-.392-.395h-.37v-.374a.393.393 0 1 0-.785 0v.374h-.37a.393.393 0 0 0-.393.395c0 .218.175.395.392.395" class="bengaluru_svg__dynamic-shade-fill s-y_bCXRrkrYfP"></path></g><path fill="#FFA500" d="M32.707 7.743a.235.235 0 0 0 .298 0l1.359-1.13 1.356 1.13a.235.235 0 0 0 .297 0l1.36-1.13 1.358 1.13a.235.235 0 0 0 .33-.032.24.24 0 0 0-.033-.33l-1.507-1.254a.235.235 0 0 0-.298 0l-1.358 1.13-1.356-1.13a.235.235 0 0 0-.298 0l-1.359 1.13-1.356-1.13a.234.234 0 0 0-.329.031.24.24 0 0 0 .032.332z" class="bengaluru_svg__dynamic-shade-fill s-y_bCXRrkrYfP"></path><defs class="s-y_bCXRrkrYfP"><linearGradient id="noida_svg__b" x1="0.707" x2="26.465" y1="52.105" y2="52.105" gradientUnits="userSpaceOnUse" class="s-y_bCXRrkrYfP"><stop stop-color="#fff" class="s-y_bCXRrkrYfP"></stop><stop class="noida_svg__dynamic-shade-stop-color s-y_bCXRrkrYfP" offset="1" stop-color="#FFA500"></stop></linearGradient><linearGradient id="noida_svg__c" x1="83.905" x2="109.666" y1="52.105" y2="52.105" gradientUnits="userSpaceOnUse" class="s-y_bCXRrkrYfP"><stop class="noida_svg__dynamic-shade-stop-color s-y_bCXRrkrYfP" stop-color="#FFA500"></stop><stop offset="1" stop-color="#fff" class="s-y_bCXRrkrYfP"></stop></linearGradient><clipPath id="noida_svg__a" class="s-y_bCXRrkrYfP"><path fill="#fff" d="M.707.5h108.959v52H.707z" class="s-y_bCXRrkrYfP"></path></clipPath><clipPath id="noida_svg__d" class="s-y_bCXRrkrYfP"><path fill="#fff" d="M22.4 8.989h66v43h-66z" class="s-y_bCXRrkrYfP"></path></clipPath></defs></svg>