<svg width="150" height="113" viewBox="0 0 150 113" fill="none" xmlns="http://www.w3.org/2000/svg">
<path d="M89.7874 51.2084H82.1695V61.1363H89.7874V51.2084ZM89.7874 43.1895H82.1695V48.3193H89.7874V43.1895ZM88.6756 40.2968H82.1695V37.9141H88.6726L88.6756 40.2968ZM61.3219 37.9141H67.825V40.2968H61.3219V37.9141ZM67.828 43.1895H60.2042V48.3193H67.8221L67.828 43.1895ZM67.828 51.2084H60.2042V61.1363H67.8221L67.828 51.2084ZM67.8221 64.0273H54.957V111.904H67.8221V64.0273ZM95.0346 64.0273H82.1695V111.904H95.0346V64.0273Z" fill="#F5F5F5"/>
<path d="M103.213 0C103.068 -1.28704e-06 102.925 0.0176938 102.791 0.052068C102.658 0.0864422 102.537 0.136818 102.435 0.200299C102.333 0.26378 102.252 0.339115 102.197 0.421973C102.142 0.504832 102.115 0.593579 102.115 0.683115C102.108 0.775182 102.13 0.867258 102.182 0.953737C102.234 1.04022 102.313 1.11929 102.415 1.18614C102.518 1.253 102.641 1.30624 102.778 1.34262C102.915 1.379 103.062 1.39776 103.211 1.39776C103.36 1.39776 103.507 1.379 103.644 1.34262C103.781 1.30624 103.904 1.253 104.007 1.18614C104.109 1.11929 104.189 1.04022 104.24 0.953737C104.292 0.867258 104.314 0.775182 104.307 0.683115C104.307 0.593885 104.28 0.505434 104.225 0.422814C104.171 0.340193 104.091 0.265019 103.99 0.201586C103.888 0.138153 103.768 0.0877015 103.635 0.0531133C103.502 0.0185251 103.357 0.000477162 103.213 0ZM108.83 80.8589C109.062 80.8508 109.28 80.788 109.439 80.6835C109.599 80.579 109.688 80.4407 109.688 80.297C109.688 80.1532 109.599 80.0149 109.439 79.9104C109.28 79.8059 109.062 79.7432 108.83 79.735C108.599 79.7432 108.381 79.8059 108.221 79.9104C108.062 80.0149 107.973 80.1532 107.973 80.297C107.973 80.4407 108.062 80.579 108.221 80.6835C108.381 80.788 108.599 80.8508 108.83 80.8589ZM41.0991 5.35198C41.3633 5.35101 41.6161 5.28534 41.8024 5.16929C41.9887 5.05324 42.0932 4.89625 42.0932 4.73262C42.1063 4.64677 42.0903 4.56017 42.0462 4.47837C42.0021 4.39657 41.9309 4.32138 41.8372 4.25761C41.7435 4.19383 41.6293 4.14288 41.5019 4.10802C41.3746 4.07316 41.2369 4.05515 41.0976 4.05515C40.9584 4.05515 40.8207 4.07316 40.6933 4.10802C40.566 4.14288 40.4518 4.19383 40.3581 4.25761C40.2643 4.32138 40.1932 4.39657 40.1491 4.47837C40.105 4.56017 40.0889 4.64677 40.102 4.73262C40.102 5.07509 40.5461 5.35198 41.0991 5.35198ZM39.0873 64.6463H39.2549V64.7502C39.2482 64.8208 39.2648 64.8916 39.3038 64.9581C39.3428 65.0246 39.4033 65.0855 39.4817 65.137C39.56 65.1885 39.6546 65.2295 39.7595 65.2576C39.8644 65.2856 39.9775 65.3001 40.0917 65.3001C40.206 65.3001 40.319 65.2856 40.4239 65.2576C40.5288 65.2295 40.6234 65.1885 40.7017 65.137C40.7801 65.0855 40.8407 65.0246 40.8796 64.9581C40.9186 64.8916 40.9353 64.8208 40.9285 64.7502V64.6463H41.0932C41.2037 64.6466 41.3131 64.6333 41.4151 64.6071C41.5172 64.581 41.6099 64.5426 41.6879 64.4942C41.7658 64.4457 41.8275 64.3882 41.8693 64.3249C41.9111 64.2616 41.9322 64.1938 41.9315 64.1254C41.9319 64.0572 41.9106 63.9896 41.8688 63.9265C41.827 63.8635 41.7656 63.8061 41.688 63.7577C41.6105 63.7093 41.5183 63.6709 41.4167 63.6446C41.3152 63.6183 41.2062 63.6046 41.0962 63.6044H40.9285V63.5005C40.9353 63.4299 40.9186 63.3591 40.8796 63.2926C40.8407 63.2261 40.7801 63.1652 40.7017 63.1137C40.6234 63.0622 40.5288 63.0212 40.4239 62.9931C40.319 62.9651 40.206 62.9506 40.0917 62.9506C39.9775 62.9506 39.8644 62.9651 39.7595 62.9931C39.6546 63.0212 39.56 63.0622 39.4817 63.1137C39.4033 63.1652 39.3428 63.2261 39.3038 63.2926C39.2648 63.3591 39.2482 63.4299 39.2549 63.5005V63.6044H39.0873C38.9772 63.6046 38.8683 63.6183 38.7667 63.6446C38.6652 63.6709 38.573 63.7093 38.4954 63.7577C38.4178 63.8061 38.3564 63.8635 38.3146 63.9265C38.2729 63.9896 38.2516 64.0572 38.252 64.1254C38.252 64.4132 38.6255 64.6463 39.0873 64.6463ZM115.236 108.306C115.205 107.882 115.001 107.471 114.645 107.109C114.288 106.748 113.789 106.448 113.195 106.238C112.971 105.852 112.559 105.519 112.016 105.285C111.474 105.05 110.827 104.925 110.166 104.926C108.383 104.926 106.936 105.828 106.936 106.938V107.04C106.21 107.192 105.594 107.499 105.197 107.906C104.8 108.313 104.648 108.793 104.767 109.262C104.887 109.732 105.27 110.16 105.849 110.471C106.428 110.783 107.166 110.958 107.933 110.965H108.595L109.13 110.972V112.408C109.124 112.479 109.14 112.549 109.179 112.616C109.218 112.682 109.279 112.743 109.357 112.795C109.435 112.846 109.53 112.887 109.635 112.915C109.74 112.943 109.853 112.958 109.967 112.958C110.081 112.958 110.194 112.943 110.299 112.915C110.404 112.887 110.499 112.846 110.577 112.795C110.656 112.743 110.716 112.682 110.755 112.616C110.794 112.549 110.811 112.479 110.804 112.408V110.972C111.035 110.972 111.225 110.969 111.372 110.962C111.907 110.945 112.432 110.864 112.916 110.721C113.401 110.579 113.835 110.378 114.194 110.132C114.552 109.885 114.829 109.597 115.008 109.284C115.186 108.971 115.263 108.639 115.233 108.307L115.236 108.306ZM112.951 109.431C112.74 109.577 112.485 109.696 112.2 109.78C111.914 109.864 111.605 109.912 111.289 109.921C110.772 109.94 109.46 109.93 108.607 109.925H107.93C107.724 109.925 107.52 109.9 107.329 109.851C107.139 109.803 106.965 109.731 106.819 109.641C106.673 109.551 106.557 109.443 106.478 109.325C106.399 109.207 106.358 109.081 106.358 108.953C106.358 108.825 106.398 108.699 106.477 108.581C106.556 108.463 106.671 108.355 106.817 108.265C106.963 108.175 107.136 108.103 107.326 108.054C107.517 108.005 107.721 107.98 107.927 107.98C108.062 107.978 108.194 107.956 108.312 107.917C108.431 107.877 108.532 107.821 108.609 107.752C108.685 107.683 108.734 107.604 108.751 107.521C108.768 107.439 108.753 107.355 108.707 107.276C108.617 107.13 108.587 106.972 108.617 106.816C108.648 106.661 108.739 106.512 108.883 106.383C109.027 106.254 109.219 106.149 109.443 106.076C109.666 106.003 109.916 105.965 110.169 105.965C110.898 105.965 111.522 106.273 111.683 106.712C111.745 106.868 111.919 107.001 112.154 107.071C112.5 107.167 112.803 107.313 113.041 107.496C113.278 107.679 113.442 107.894 113.519 108.124C113.596 108.354 113.584 108.592 113.485 108.819C113.385 109.045 113.2 109.254 112.945 109.428L112.951 109.431ZM59.1878 65.2511C59.0776 65.2511 58.9685 65.2646 58.8668 65.2909C58.7651 65.3171 58.6727 65.3555 58.5951 65.4039C58.5174 65.4524 58.456 65.5098 58.4144 65.573C58.3728 65.6362 58.3517 65.7039 58.3525 65.7721V110.253C58.3525 110.39 58.4405 110.522 58.5972 110.619C58.7538 110.716 58.9663 110.77 59.1878 110.77C59.4094 110.77 59.6218 110.716 59.7785 110.619C59.9351 110.522 60.0231 110.39 60.0231 110.253V65.7721C60.0235 65.704 60.0022 65.6366 59.9604 65.5736C59.9186 65.5106 59.8571 65.4534 59.7795 65.4051C59.7019 65.3569 59.6097 65.3186 59.5082 65.2925C59.4066 65.2664 59.2978 65.2511 59.1878 65.2511ZM63.8762 65.2511C63.766 65.2511 63.6569 65.2646 63.5552 65.2909C63.4534 65.3171 63.3611 65.3555 63.2834 65.4039C63.2058 65.4524 63.1444 65.5098 63.1028 65.573C63.0611 65.6362 63.0401 65.7039 63.0409 65.7721V110.253C63.0341 110.323 63.0507 110.394 63.0895 110.46C63.1284 110.526 63.1887 110.587 63.2668 110.638C63.3449 110.69 63.4391 110.731 63.5436 110.759C63.6482 110.787 63.7608 110.801 63.8747 110.801C63.9886 110.801 64.1012 110.787 64.2058 110.759C64.3103 110.731 64.4045 110.69 64.4826 110.638C64.5607 110.587 64.621 110.526 64.6599 110.46C64.6988 110.394 64.7153 110.323 64.7086 110.253V65.7721C64.7089 65.704 64.6876 65.6366 64.6458 65.5736C64.604 65.5106 64.5425 65.4534 64.4649 65.4051C64.3873 65.3569 64.2951 65.3186 64.1936 65.2925C64.092 65.2664 63.9832 65.253 63.8732 65.253M74.9794 7.15904H75.0118C75.122 7.15905 75.2311 7.14554 75.3328 7.11932C75.4345 7.09309 75.5269 7.05466 75.6045 7.00623C75.6822 6.9578 75.7436 6.90034 75.7852 6.83715C75.8268 6.77397 75.8479 6.7063 75.8471 6.63806V4.7308C75.8479 4.66255 75.8268 4.59489 75.7852 4.5317C75.7436 4.46851 75.6822 4.41105 75.6045 4.36262C75.5269 4.3142 75.4345 4.27576 75.3328 4.24954C75.2311 4.22331 75.122 4.20981 75.0118 4.20981H74.9794C74.8692 4.20981 74.7601 4.22331 74.6584 4.24954C74.5567 4.27576 74.4643 4.3142 74.3867 4.36262C74.309 4.41105 74.2476 4.46851 74.206 4.5317C74.1644 4.59489 74.1433 4.66255 74.1441 4.7308V6.63806C74.1441 6.92587 74.5176 7.15722 74.9794 7.15722" fill="#3C3C3C"/>
<path d="M97.6877 61.1347H91.461V51.2068H93.0375C93.1476 51.2066 93.2566 51.1929 93.3581 51.1666C93.4597 51.1403 93.5518 51.1018 93.6294 51.0535C93.707 51.0051 93.7684 50.9477 93.8102 50.8846C93.8519 50.8216 93.8732 50.754 93.8729 50.6858V48.8387C93.8729 48.7013 93.7849 48.5695 93.6284 48.4722C93.4718 48.3749 93.2593 48.32 93.0375 48.3195H91.461V43.1898H93.0375C93.1476 43.1895 93.2566 43.1759 93.3581 43.1496C93.4597 43.1232 93.5518 43.0848 93.6294 43.0364C93.707 42.988 93.7684 42.9307 93.8102 42.8676C93.8519 42.8045 93.8732 42.737 93.8729 42.6688V40.8216C93.8732 40.7535 93.8519 40.6859 93.8102 40.6228C93.7684 40.5597 93.707 40.5024 93.6294 40.454C93.5518 40.4056 93.4597 40.3672 93.3581 40.3409C93.2566 40.3146 93.1476 40.3009 93.0375 40.3006H90.3463V37.9179H90.6228C90.7331 37.9179 90.8423 37.9045 90.9442 37.8783C91.0461 37.852 91.1387 37.8136 91.2165 37.7652C91.2944 37.7168 91.3561 37.6594 91.3981 37.5962C91.44 37.533 91.4614 37.4653 91.461 37.397V35.5498C91.4614 35.4815 91.44 35.4138 91.3981 35.3506C91.3561 35.2874 91.2944 35.2299 91.2165 35.1815C91.1387 35.1331 91.0461 35.0947 90.9442 35.0685C90.8423 35.0423 90.7331 35.0288 90.6228 35.0288H82.1667V31.1232C82.1686 31.105 82.1647 31.0856 82.1549 31.0649C82.1529 31.0479 82.148 31.0315 82.1402 31.0158C82.1323 30.9975 82.1245 30.9818 82.1167 30.9684C82.1069 30.949 82.0941 30.9326 82.0784 30.9192L82.0549 30.8882C80.6401 29.4127 80.6901 25.3869 80.8225 23.9624C80.836 23.8922 80.8262 23.8211 80.7937 23.7533C80.7613 23.6856 80.7068 23.6226 80.6337 23.5684C80.5606 23.5141 80.4704 23.4697 80.3686 23.4378C80.2668 23.4059 80.1556 23.3872 80.0417 23.3828C79.9278 23.3785 79.8137 23.3886 79.7063 23.4125C79.599 23.4364 79.5006 23.4737 79.4173 23.522C79.334 23.5703 79.2675 23.6286 79.2219 23.6933C79.1762 23.7581 79.1524 23.8279 79.1519 23.8986C79.1283 24.0972 78.7519 28.2724 80.049 30.635H78.4489V16.7013C78.4586 16.6297 78.4442 16.5577 78.4067 16.4897C78.3691 16.4217 78.3092 16.3593 78.2306 16.3064C78.1521 16.2536 78.0568 16.2113 77.9505 16.1825C77.8443 16.1536 77.7296 16.1387 77.6136 16.1387C77.4976 16.1387 77.3829 16.1536 77.2767 16.1825C77.1704 16.2113 77.0751 16.2536 76.9966 16.3064C76.918 16.3593 76.8581 16.4217 76.8205 16.4897C76.783 16.5577 76.7686 16.6297 76.7783 16.7013V30.6332H75.8459V9.23987C75.8459 9.10249 75.758 8.97072 75.6014 8.87341C75.4449 8.7761 75.2324 8.72119 75.0106 8.7207H74.9753C74.8653 8.7207 74.7565 8.73414 74.6549 8.76026C74.5534 8.78637 74.4612 8.82464 74.3836 8.87287C74.306 8.92111 74.2445 8.97835 74.2027 9.04133C74.1609 9.10431 74.1396 9.17178 74.14 9.23987V30.6296H73.2105V16.6977C73.2105 16.5602 73.1224 16.4284 72.9654 16.3312C72.8085 16.234 72.5957 16.1794 72.3737 16.1794C72.1518 16.1794 71.939 16.234 71.7821 16.3312C71.6251 16.4284 71.537 16.5602 71.537 16.6977V30.6296H69.9369C71.237 28.2669 70.8575 24.0899 70.834 23.8931C70.8335 23.8225 70.8097 23.7526 70.764 23.6879C70.7184 23.6231 70.6519 23.5648 70.5686 23.5165C70.4853 23.4682 70.3869 23.431 70.2796 23.407C70.1722 23.3831 70.0581 23.373 69.9442 23.3774C69.8303 23.3817 69.7191 23.4004 69.6173 23.4323C69.5155 23.4642 69.4252 23.5087 69.3521 23.5629C69.279 23.6172 69.2246 23.6801 69.1921 23.7478C69.1597 23.8156 69.1499 23.8867 69.1634 23.9569C69.3016 25.3814 69.3457 29.4091 67.928 30.8828L67.9075 30.9137C67.8937 30.9307 67.881 30.9471 67.8692 30.9629L67.8457 31.0103L67.831 31.0595L67.8192 31.1178V35.0234H59.3631C59.2528 35.0234 59.1435 35.0369 59.0416 35.0631C58.9397 35.0893 58.8472 35.1277 58.7693 35.1761C58.6914 35.2245 58.6298 35.2819 58.5878 35.3451C58.5459 35.4083 58.5245 35.476 58.5248 35.5443V37.3915C58.5248 37.6811 58.8984 37.9125 59.3631 37.9125H59.6396V40.2952H56.9483C56.8383 40.2954 56.7293 40.3091 56.6278 40.3354C56.5262 40.3617 56.434 40.4002 56.3565 40.4485C56.2789 40.4969 56.2175 40.5543 56.1757 40.6174C56.1339 40.6804 56.1126 40.748 56.113 40.8162V42.6651C56.113 42.9511 56.4866 43.1843 56.9483 43.1843H58.5248V48.314H56.9483C56.8383 48.3143 56.7293 48.3279 56.6278 48.3543C56.5262 48.3806 56.434 48.419 56.3565 48.4674C56.2789 48.5158 56.2175 48.5731 56.1757 48.6362C56.1339 48.6993 56.1126 48.7669 56.113 48.835V50.6822C56.113 50.97 56.4866 51.2032 56.9483 51.2032H58.5248V61.1329H52.2982C52.0764 61.1334 51.8639 61.1883 51.7074 61.2856C51.5508 61.3829 51.4629 61.5147 51.4629 61.6521V63.5011C51.4629 63.7889 51.8364 64.022 52.2982 64.022H53.2747V112.418C53.2747 112.705 53.6482 112.939 54.11 112.939H95.8641C96.0859 112.938 96.2984 112.883 96.4549 112.786C96.6115 112.689 96.6994 112.557 96.6994 112.419V64.0202H97.6759C97.786 64.02 97.8949 64.0063 97.9965 63.98C98.098 63.9537 98.1902 63.9153 98.2678 63.8669C98.3453 63.8185 98.4068 63.7611 98.4485 63.698C98.4903 63.635 98.5116 63.5674 98.5112 63.4992V61.6503C98.5112 61.5129 98.4233 61.3811 98.2667 61.2838C98.1102 61.1865 97.8977 61.1316 97.6759 61.1311L97.6877 61.1347ZM89.7875 61.1347H82.1696V51.2068H89.7875V61.1347ZM69.4957 63.5047V39.9928H80.4901V111.904H69.4899V63.5029L69.4957 63.5047ZM92.2022 50.1667H82.1667V49.3578H92.2022V50.1667ZM89.7904 48.3177H82.1667V43.188H89.7875L89.7904 48.3177ZM92.2022 42.1478H82.1667V41.339H92.2022V42.1478ZM88.6727 40.2988H82.1667V37.9161H88.6727V40.2988ZM89.7904 36.0635V36.8723H82.1667V36.0635H89.7904ZM74.9753 31.6697H80.4901V38.9526H69.4957V31.6697H74.9753ZM60.2043 36.0635H67.8222V36.8723H60.2043V36.0635ZM61.319 37.9125H67.8251V40.2952H61.319V37.9125ZM57.7895 41.3372H67.8251V42.1442H57.7895V41.3372ZM60.2014 43.1843H67.8251V48.314H60.2043L60.2014 43.1843ZM57.7895 49.3542H67.8251V50.163H57.7895V49.3542ZM60.2014 51.2032H67.8251V61.1329H60.2043L60.2014 51.2032ZM53.1424 62.1731H67.8192V62.9819H53.1424V62.1731ZM54.9542 64.022H67.8192V111.898H54.9512L54.9542 64.022ZM95.0347 111.898H82.1667V64.022H95.0347V111.898ZM96.8465 62.9819H82.1696V62.1731H96.8465V62.9819Z" fill="#3C3C3C"/>
<path d="M90.8145 110.773C90.9247 110.773 91.0338 110.76 91.1355 110.733C91.2372 110.707 91.3296 110.669 91.4072 110.62C91.4849 110.572 91.5463 110.514 91.5879 110.451C91.6295 110.388 91.6506 110.32 91.6498 110.252V65.7713C91.6498 65.634 91.5618 65.5025 91.4051 65.4054C91.2485 65.3084 91.036 65.2539 90.8145 65.2539C90.5929 65.2539 90.3805 65.3084 90.2238 65.4054C90.0672 65.5025 89.9792 65.634 89.9792 65.7713V110.252C89.9792 110.54 90.3527 110.773 90.8145 110.773ZM86.1261 110.773C86.2363 110.773 86.3454 110.76 86.4471 110.733C86.5489 110.707 86.6412 110.669 86.7189 110.62C86.7965 110.572 86.8579 110.514 86.8995 110.451C86.9412 110.388 86.9622 110.32 86.9614 110.252V65.7713C86.9614 65.634 86.8734 65.5025 86.7168 65.4054C86.5601 65.3084 86.3477 65.2539 86.1261 65.2539C85.9046 65.2539 85.6921 65.3084 85.5355 65.4054C85.3788 65.5025 85.2908 65.634 85.2908 65.7713V110.252C85.2908 110.54 85.6643 110.773 86.1261 110.773ZM42.7426 94.555C42.0275 94.5556 41.3231 94.6625 40.6885 94.8666C40.0539 95.0707 39.5076 95.3662 39.0954 95.7281C38.6836 95.3664 38.1378 95.0712 37.5037 94.867C36.8697 94.6629 36.1658 94.5559 35.4512 94.555C34.2603 94.5579 33.1197 94.853 32.2795 95.3758C31.4393 95.8986 30.968 96.6063 30.9688 97.3439C30.9688 97.6317 31.3423 97.8649 31.807 97.8649H38.2601V112.307C38.2534 112.378 38.27 112.448 38.309 112.515C38.348 112.581 38.4085 112.642 38.4869 112.694C38.5652 112.745 38.6598 112.786 38.7647 112.814C38.8696 112.842 38.9826 112.857 39.0969 112.857C39.2112 112.857 39.3242 112.842 39.4291 112.814C39.534 112.786 39.6286 112.745 39.7069 112.694C39.7853 112.642 39.8459 112.581 39.8848 112.515C39.9238 112.448 39.9405 112.378 39.9337 112.307V97.8649H46.3898C46.4998 97.8647 46.6088 97.851 46.7103 97.8247C46.8119 97.7984 46.9041 97.7599 46.9816 97.7116C47.0592 97.6632 47.1206 97.6058 47.1624 97.5427C47.2042 97.4797 47.2255 97.4121 47.2251 97.3439C47.2251 96.6066 46.7534 95.8994 45.9133 95.377C45.0731 94.8546 43.933 94.5579 42.7426 94.555ZM32.7717 96.8247C32.9502 96.4705 33.3061 96.1606 33.7878 95.9399C34.2695 95.7191 34.852 95.5991 35.4512 95.597C36.7042 95.597 37.7748 96.1143 38.1336 96.8247H32.7659H32.7717ZM40.0631 96.8247C40.2416 96.4705 40.5974 96.1606 41.0791 95.9399C41.5608 95.7191 42.1434 95.5991 42.7426 95.597C44.0015 95.597 45.0662 96.1143 45.425 96.8247H40.0631Z" fill="#3C3C3C"/>
<path d="M32.7666 96.8263C32.9448 96.4714 33.3008 96.1609 33.7831 95.9398C34.2655 95.7187 34.849 95.5986 35.449 95.5967C36.705 95.5967 37.7726 96.1141 38.1315 96.8263H32.7637H32.7666ZM40.0609 96.8263C40.2388 96.472 40.5939 96.1619 41.0751 95.9409C41.5562 95.7199 42.1384 95.5993 42.7375 95.5967C44.0022 95.5967 45.064 96.1141 45.4199 96.8263H40.0609ZM112.951 109.432C112.741 109.577 112.485 109.695 112.201 109.779C111.916 109.863 111.607 109.911 111.292 109.92C110.772 109.938 109.463 109.931 108.61 109.924H107.933C107.727 109.924 107.523 109.899 107.332 109.85C107.142 109.801 106.968 109.73 106.822 109.64C106.676 109.549 106.56 109.442 106.481 109.324C106.402 109.206 106.361 109.08 106.361 108.952C106.361 108.824 106.401 108.698 106.48 108.58C106.559 108.462 106.675 108.354 106.82 108.264C106.966 108.174 107.139 108.102 107.329 108.053C107.52 108.004 107.724 107.979 107.93 107.978C108.066 107.977 108.198 107.956 108.318 107.916C108.437 107.877 108.539 107.82 108.615 107.751C108.692 107.682 108.74 107.602 108.756 107.519C108.773 107.436 108.757 107.352 108.71 107.273C108.621 107.127 108.591 106.969 108.622 106.814C108.653 106.658 108.744 106.51 108.888 106.381C109.031 106.252 109.223 106.147 109.447 106.074C109.67 106.001 109.919 105.962 110.172 105.962C110.901 105.962 111.525 106.272 111.686 106.712C111.748 106.869 111.922 107 112.157 107.069C112.504 107.166 112.808 107.311 113.046 107.495C113.284 107.678 113.449 107.893 113.526 108.124C113.603 108.354 113.591 108.592 113.491 108.819C113.39 109.046 113.204 109.255 112.948 109.428L112.951 109.432ZM74.9795 31.6699H80.4914V38.9547H69.5029V31.6699H74.9795Z" fill="#F5F5F5"/>
<path d="M120.943 38.6566C121.092 38.7347 121.28 38.7775 121.475 38.7775C121.67 38.7775 121.859 38.7347 122.008 38.6566L126.872 36.1555L131.74 38.6566C131.889 38.7347 132.078 38.7775 132.273 38.7775C132.467 38.7775 132.656 38.7347 132.805 38.6566L137.676 36.1555L142.549 38.6566C142.634 38.7002 142.731 38.7329 142.836 38.7531C142.941 38.7732 143.051 38.7802 143.161 38.7738C143.27 38.7673 143.376 38.7475 143.473 38.7156C143.57 38.6836 143.656 38.64 143.726 38.5874C144.02 38.3652 143.97 38.0409 143.614 37.8551L138.211 35.0807C138.062 35.0027 137.874 34.9598 137.679 34.9598C137.484 34.9598 137.295 35.0027 137.146 35.0807L132.275 37.5819L127.408 35.0807C127.259 35.0027 127.07 34.9598 126.875 34.9598C126.68 34.9598 126.492 35.0027 126.343 35.0807L121.478 37.5819L116.61 35.0807C116.526 35.0365 116.429 35.0031 116.324 34.9826C116.219 34.9621 116.108 34.9548 115.998 34.9613C115.889 34.9677 115.782 34.9878 115.685 35.0202C115.588 35.0526 115.503 35.0967 115.434 35.15C115.14 35.3722 115.19 35.6983 115.546 35.8823L120.943 38.6566Z" fill="#3C3C3C"/>
<path d="M54.9603 111.902H0V112.941H54.9603V111.902Z" fill="url(#paint0_linear_888_2)"/>
<path d="M150 111.902H95.043V112.941H150V111.902Z" fill="url(#paint1_linear_888_2)"/>
<defs>
<linearGradient id="paint0_linear_888_2" x1="0" y1="112.422" x2="54.9603" y2="112.422" gradientUnits="userSpaceOnUse">
<stop stop-color="white"/>
<stop offset="1" stop-color="#3C3C3C"/>
</linearGradient>
<linearGradient id="paint1_linear_888_2" x1="95.043" y1="112.422" x2="150" y2="112.422" gradientUnits="userSpaceOnUse">
<stop stop-color="#3C3C3C"/>
<stop offset="1" stop-color="white"/>
</linearGradient>
</defs>
</svg>
