<svg width="158" height="113" viewBox="0 0 158 113" fill="none" xmlns="http://www.w3.org/2000/svg">
<mask id="mask0_891_2521" style="mask-type:luminance" maskUnits="userSpaceOnUse" x="0" y="0" width="158" height="113">
<path d="M0 0H157.196V112.709H0V0Z" fill="white"/>
</mask>
<g mask="url(#mask0_891_2521)">
<path d="M37.1613 110.996H0V112.708H37.1613V110.996Z" fill="url(#paint0_linear_891_2521)"/>
<path d="M120.032 110.996H37.166V112.708H120.032V110.996Z" fill="#FFA500"/>
<path d="M157.191 110.996H120.029V112.708H157.191V110.996Z" fill="url(#paint1_linear_891_2521)"/>
</g>
<rect x="61.2891" y="55.9473" width="2.88136" height="45.0345" stroke="#FFA500" stroke-width="2"/>
<mask id="path-6-inside-1_891_2521" fill="white">
<rect x="44.8301" y="68.3086" width="67.5254" height="41.6897" rx="1"/>
</mask>
<rect x="44.8301" y="68.3086" width="67.5254" height="41.6897" rx="1" stroke="#FFA500" stroke-width="4" mask="url(#path-6-inside-1_891_2521)"/>
<mask id="path-7-inside-2_891_2521" fill="white">
<rect x="42" y="65" width="73" height="45" rx="1"/>
</mask>
<rect x="42" y="65" width="73" height="45" rx="1" stroke="#FFA500" stroke-width="4" mask="url(#path-7-inside-2_891_2521)"/>
<line y1="-1" x2="96" y2="-1" transform="matrix(1 -3.59755e-05 0.000125933 1 31 109.998)" stroke="#FFA500" stroke-width="2"/>
<rect x="59.6602" y="101.912" width="6.1356" height="7.08621" stroke="#FFA500" stroke-width="2"/>
<rect x="76.7461" y="90.1543" width="33.7966" height="18.8448" rx="3" stroke="#FFA500" stroke-width="2"/>
<path d="M72.8098 52.6815C77.051 51.3424 80.739 48.5304 80.739 48.5304C80.739 48.5304 83.7956 43.1648 84.6567 41.4677C85.5178 39.7707 104.507 39.5009 103.973 39.4245C103.973 39.4245 109.321 37.6837 105.817 35.1394C102.314 32.5952 95.1222 32.5952 95.1222 32.5952L88.2994 35.1394C85.6073 35.6487 84.3225 34.9701 82.0298 33.8004C82.0298 33.8004 82.6837 25.1891 82.0298 19.7399C81.3759 14.2907 78.3899 18.8191 78.895 17.8653V23.2216C78.895 23.2216 79.1304 18.7837 78.7106 17.8653C78.2907 16.9468 77.2354 17.8652 76.3879 17.8652M72.8098 52.6815C68.5687 54.0206 66.3559 54.3688 66.3559 54.3688C52.1154 57.6688 51.4198 46.2539 51.4198 46.2539C51.4198 46.2539 49.4072 28.3101 51.4201 25.8997C60.5551 25.0565 58.2612 33.7203 64.512 32.5952C70.7628 31.4702 72.1974 24.7963 72.9942 23.2216C73.791 21.6468 71.167 16.4911 72.9942 17.8653C74.1823 17.5517 74.8122 17.0558 76.3879 17.8652M72.8098 52.6815C68.6148 51.0335 64.3189 51.3764 66.3559 45.0488M76.3879 17.8652L76.3134 23.2216" stroke="#FFA500"/>
<path d="M50.8672 41.1656C62.2441 34.8091 69.0232 33.1376 82.215 33.9346" stroke="#FFA500"/>
<path d="M51.4199 41.5679H63.4059V34.4707" stroke="#FFA500"/>
<path d="M73.9961 33.9336V37.2813C74.9183 39.7226 78.3331 38.6531 77.6841 37.2813V33.9336" stroke="#FFA500"/>
<path d="M77.7891 33.9336V37.2813C78.7112 39.7226 82.1261 38.6531 81.477 37.2813V33.9336" stroke="#FFA500"/>
<path d="M88.3008 34.8712C89.7245 35.6665 90.5705 36.0549 92.7264 35.9425C94.3018 36.2559 94.529 34.6771 92.7264 33.666" stroke="#FFA500"/>
<path d="M74.0586 26.3535H79.3467" stroke="#FFA500"/>
<path d="M72.4316 29.5605H77.7198" stroke="#FFA500"/>
<path d="M68.3633 32.2324H73.6514" stroke="#FFA500"/>
<path d="M75.6855 32.2324H80.9737" stroke="#FFA500"/>
<defs>
<linearGradient id="paint0_linear_891_2521" x1="0" y1="111.852" x2="37.1613" y2="111.852" gradientUnits="userSpaceOnUse">
<stop stop-color="white"/>
<stop offset="1" stop-color="#FFA500"/>
</linearGradient>
<linearGradient id="paint1_linear_891_2521" x1="120.029" y1="111.852" x2="157.195" y2="111.852" gradientUnits="userSpaceOnUse">
<stop stop-color="#FFA500"/>
<stop offset="1" stop-color="white"/>
</linearGradient>
</defs>
</svg>
