<svg width="158" height="113" viewBox="0 0 158 113" fill="none" xmlns="http://www.w3.org/2000/svg">
<mask id="mask0_897_4965" style="mask-type:luminance" maskUnits="userSpaceOnUse" x="0" y="0" width="158" height="113">
<path d="M0 0H157.196V112.709H0V0Z" fill="white"/>
</mask>
<g mask="url(#mask0_897_4965)">
<path d="M37.1613 110.996H0V112.708H37.1613V110.996Z" fill="url(#paint0_linear_897_4965)"/>
<path d="M120.032 110.996H37.166V112.708H120.032V110.996Z" fill="#FFA500"/>
<path d="M157.191 110.996H120.029V112.708H157.191V110.996Z" fill="url(#paint1_linear_897_4965)"/>
</g>
<rect x="72.3652" y="30.7188" width="14.7143" height="2.96869" stroke="#FFA500"/>
<rect x="72.1426" y="29.248" width="15.1579" height="1.96869" rx="0.984345" fill="#FFA500"/>
<path d="M37.5137 99.6992H37.0137V100.199V106.621C37.0137 107.45 37.6852 108.121 38.5137 108.121H43.0627C43.8912 108.121 44.5627 107.45 44.5627 106.621V100.199V99.6992H44.0627H37.5137Z" stroke="#FFA500"/>
<rect x="34.8301" y="97.6055" width="12.188" height="2.71276" rx="1.35638" stroke="#FFA500"/>
<path d="M97.0625 99.6992H96.5625V100.199V106.621C96.5625 107.45 97.2341 108.121 98.0625 108.121H102.612C103.44 108.121 104.112 107.45 104.112 106.621V100.199V99.6992H103.612H97.0625Z" stroke="#FFA500"/>
<rect x="94.3809" y="97.6055" width="12.188" height="2.71276" rx="1.35638" stroke="#FFA500"/>
<path d="M54.1152 99.6992H53.6152V100.199V106.621C53.6152 107.45 54.2868 108.121 55.1152 108.121H59.6643C60.4927 108.121 61.1643 107.45 61.1643 106.621V100.199V99.6992H60.6643H54.1152Z" stroke="#FFA500"/>
<rect x="51.4336" y="97.6055" width="12.188" height="2.71276" rx="1.35638" stroke="#FFA500"/>
<path d="M115.471 99.6992H114.971V100.199V106.621C114.971 107.45 115.642 108.121 116.471 108.121H121.02C121.848 108.121 122.52 107.45 122.52 106.621V100.199V99.6992H122.02H115.471Z" stroke="#FFA500"/>
<rect x="112.787" y="97.6055" width="12.188" height="2.71276" rx="1.35638" stroke="#FFA500"/>
<path d="M78.832 30.9395C87.3361 30.8404 92.1882 40.6368 86.9452 47.3202C82.9647 52.3943 75.3059 52.4836 71.1836 47.504C65.7538 40.9451 70.3279 31.0387 78.832 30.9395Z" stroke="#FFA500" stroke-width="2"/>
<rect x="30.5" y="95.7031" width="97" height="13.7965" rx="1.5" stroke="#FFA500"/>
<path d="M52.5215 78.6543H52.0215V79.1543V86.344C52.0215 87.1725 52.6931 87.844 53.5215 87.844H58.7043C59.5327 87.844 60.2043 87.1725 60.2043 86.344V79.1543V78.6543H59.7043H52.5215Z" stroke="#FFA500"/>
<rect x="49.2656" y="76.3438" width="13.2707" height="2.88994" rx="1.44497" stroke="#FFA500"/>
<path d="M74.8984 77.9082H74.3984V78.4082V86.3425C74.3984 87.1709 75.07 87.8425 75.8984 87.8425H81.0813C81.9097 87.8425 82.5813 87.1709 82.5813 86.3424V78.4082V77.9082H82.0813H74.8984Z" stroke="#FFA500"/>
<rect x="71.6426" y="75.3574" width="13.2707" height="3.06175" rx="1.53087" stroke="#FFA500"/>
<path d="M78.6387 78.4824V87.6696" stroke="#FFA500"/>
<path d="M98.3594 78.6543H97.8594V79.1543V86.344C97.8594 87.1725 98.5309 87.844 99.3594 87.844H104.542C105.371 87.844 106.042 87.1725 106.042 86.344V79.1543V78.6543H105.542H98.3594Z" stroke="#FFA500"/>
<rect x="95.1035" y="76.3438" width="13.2707" height="2.88994" rx="1.44497" stroke="#FFA500"/>
<rect x="33.0254" y="93.4062" width="91.9474" height="2.96869" rx="1.48434" stroke="#FFA500"/>
<rect x="36.9141" y="91.7812" width="84.8947" height="1.62492" rx="0.5" stroke="#FFA500"/>
<rect x="39.0703" y="90.1328" width="78.7751" height="0.984345" rx="0.492172" stroke="#FFA500" stroke-width="0.984345"/>
<rect x="43.1309" y="73.7188" width="71.7368" height="16.4214" rx="1.5" stroke="#FFA500"/>
<rect x="71.2812" y="87.1738" width="15.0752" height="22.3275" stroke="#FFA500"/>
<rect x="41.3281" y="71.0957" width="75.3459" height="3.2968" rx="1.5" stroke="#FFA500"/>
<rect x="40.2441" y="69.125" width="77.5113" height="2.64057" rx="1.32029" stroke="#FFA500"/>
<rect x="39.1621" y="65.5156" width="79.6767" height="4.28115" rx="1.5" stroke="#FFA500"/>
<path d="M74.668 83.4062H82.6078" stroke="#FFA500"/>
<rect x="42.0488" y="62.5625" width="20.1278" height="3.62492" rx="1.5" stroke="#FFA500"/>
<rect x="99.0703" y="62.5625" width="15.4361" height="3.62492" rx="1.5" stroke="#FFA500"/>
<rect x="61.5371" y="62.5625" width="38.1729" height="3.62492" rx="1.5" stroke="#FFA500"/>
<rect x="46.3809" y="59.6094" width="18.0026" height="3.62492" rx="1.5" stroke="#FFA500"/>
<rect x="97.0664" y="59.6094" width="13.8321" height="3.62492" rx="1.5" stroke="#FFA500"/>
<rect x="63.7051" y="59.6094" width="34.0427" height="3.62492" rx="1.5" stroke="#FFA500"/>
<rect x="51.0703" y="56.6582" width="15.7805" height="3.62492" rx="1.5" stroke="#FFA500"/>
<rect x="95.1328" y="56.6582" width="12.1551" height="3.62492" rx="1.5" stroke="#FFA500"/>
<rect x="66.1309" y="56.6582" width="29.7244" height="3.62492" rx="1.5" stroke="#FFA500"/>
<rect x="54.3203" y="53.7012" width="14.3314" height="3.62492" rx="1.5" stroke="#FFA500"/>
<rect x="94.0645" y="53.7012" width="11.0614" height="3.62492" rx="1.5" stroke="#FFA500"/>
<rect x="67.9023" y="53.7012" width="26.9082" height="3.62492" rx="1.5" stroke="#FFA500"/>
<rect x="53.375" y="51.5781" width="52.3308" height="2.62492" rx="1" fill="#FFA500"/>
<path d="M79.046 35.4373C84.2689 35.4275 87.2273 41.4221 84.0414 45.5595C81.5324 48.8178 76.6209 48.8271 74.097 45.5783C70.8922 41.453 73.8231 35.4472 79.046 35.4373Z" stroke="#FFA500" stroke-width="2"/>
<mask id="path-47-inside-1_897_4965" fill="white">
<ellipse cx="66.9096" cy="33.041" rx="1.26316" ry="0.820287"/>
</mask>
<path d="M67.1728 33.041C67.1728 32.938 67.2067 32.8589 67.2356 32.8145C67.2615 32.7748 67.2781 32.7694 67.2582 32.7823C67.2142 32.8109 67.0938 32.8613 66.9096 32.8613V34.8613C67.4232 34.8613 67.9343 34.728 68.3475 34.4597C68.751 34.1976 69.1728 33.7183 69.1728 33.041H67.1728ZM66.9096 32.8613C66.7255 32.8613 66.6051 32.8109 66.5611 32.7823C66.5411 32.7694 66.5578 32.7748 66.5837 32.8145C66.6126 32.8589 66.6465 32.938 66.6465 33.041H64.6465C64.6465 33.7183 65.0682 34.1976 65.4718 34.4597C65.885 34.728 66.3961 34.8613 66.9096 34.8613V32.8613ZM66.6465 33.041C66.6465 33.144 66.6126 33.2231 66.5837 33.2675C66.5578 33.3072 66.5411 33.3126 66.5611 33.2996C66.6051 33.2711 66.7255 33.2207 66.9096 33.2207V31.2207C66.3961 31.2207 65.885 31.354 65.4718 31.6223C65.0682 31.8844 64.6465 32.3637 64.6465 33.041H66.6465ZM66.9096 33.2207C67.0938 33.2207 67.2142 33.2711 67.2582 33.2996C67.2781 33.3126 67.2615 33.3072 67.2356 33.2675C67.2067 33.2231 67.1728 33.144 67.1728 33.041H69.1728C69.1728 32.3637 68.751 31.8844 68.3475 31.6223C67.9343 31.354 67.4232 31.2207 66.9096 31.2207V33.2207Z" fill="#FFA500" mask="url(#path-47-inside-1_897_4965)"/>
<mask id="path-49-inside-2_897_4965" fill="white">
<ellipse cx="72.3237" cy="33.041" rx="1.26316" ry="0.820287"/>
</mask>
<path d="M72.5869 33.041C72.5869 32.938 72.6208 32.8589 72.6497 32.8145C72.6755 32.7748 72.6922 32.7694 72.6723 32.7823C72.6283 32.8109 72.5078 32.8613 72.3237 32.8613V34.8613C72.8372 34.8613 73.3484 34.728 73.7615 34.4597C74.1651 34.1976 74.5869 33.7183 74.5869 33.041H72.5869ZM72.3237 32.8613C72.1396 32.8613 72.0192 32.8109 71.9751 32.7823C71.9552 32.7694 71.9719 32.7748 71.9977 32.8145C72.0266 32.8589 72.0605 32.938 72.0605 33.041H70.0605C70.0605 33.7183 70.4823 34.1976 70.8859 34.4597C71.299 34.728 71.8102 34.8613 72.3237 34.8613V32.8613ZM72.0605 33.041C72.0605 33.144 72.0266 33.2231 71.9977 33.2675C71.9719 33.3072 71.9552 33.3126 71.9751 33.2996C72.0192 33.2711 72.1396 33.2207 72.3237 33.2207V31.2207C71.8102 31.2207 71.299 31.354 70.8859 31.6223C70.4823 31.8844 70.0605 32.3637 70.0605 33.041H72.0605ZM72.3237 33.2207C72.5078 33.2207 72.6283 33.2711 72.6723 33.2996C72.6922 33.3126 72.6755 33.3072 72.6497 33.2675C72.6208 33.2231 72.5869 33.144 72.5869 33.041H74.5869C74.5869 32.3637 74.1651 31.8844 73.7615 31.6223C73.3484 31.354 72.8372 31.2207 72.3237 31.2207V33.2207Z" fill="#FFA500" mask="url(#path-49-inside-2_897_4965)"/>
<mask id="path-51-inside-3_897_4965" fill="white">
<ellipse cx="66.1889" cy="36.6504" rx="1.26316" ry="0.820287"/>
</mask>
<path d="M66.4521 36.6504C66.4521 36.5474 66.486 36.4682 66.5149 36.4239C66.5408 36.3842 66.5574 36.3788 66.5375 36.3917C66.4935 36.4203 66.3731 36.4707 66.1889 36.4707V38.4707C66.7024 38.4707 67.2136 38.3374 67.6268 38.0691C68.0303 37.807 68.4521 37.3277 68.4521 36.6504H66.4521ZM66.1889 36.4707C66.0048 36.4707 65.8844 36.4203 65.8404 36.3917C65.8204 36.3788 65.8371 36.3842 65.863 36.4239C65.8919 36.4682 65.9258 36.5474 65.9258 36.6504H63.9258C63.9258 37.3277 64.3475 37.807 64.7511 38.0691C65.1643 38.3374 65.6754 38.4707 66.1889 38.4707V36.4707ZM65.9258 36.6504C65.9258 36.7533 65.8919 36.8325 65.863 36.8768C65.8371 36.9166 65.8204 36.922 65.8404 36.909C65.8844 36.8804 66.0048 36.8301 66.1889 36.8301V34.8301C65.6754 34.8301 65.1643 34.9634 64.7511 35.2317C64.3475 35.4937 63.9258 35.9731 63.9258 36.6504H65.9258ZM66.1889 36.8301C66.3731 36.8301 66.4935 36.8804 66.5375 36.909C66.5574 36.922 66.5408 36.9166 66.5149 36.8768C66.486 36.8325 66.4521 36.7533 66.4521 36.6504H68.4521C68.4521 35.9731 68.0303 35.4937 67.6268 35.2317C67.2136 34.9634 66.7024 34.8301 66.1889 34.8301V36.8301Z" fill="#FFA500" mask="url(#path-51-inside-3_897_4965)"/>
<mask id="path-53-inside-4_897_4965" fill="white">
<ellipse cx="66.9096" cy="40.2597" rx="1.26316" ry="0.820287"/>
</mask>
<path d="M67.1728 40.2597C67.1728 40.1568 67.2067 40.0776 67.2356 40.0333C67.2615 39.9935 67.2781 39.9881 67.2582 40.0011C67.2142 40.0297 67.0938 40.08 66.9096 40.08V42.08C67.4232 42.08 67.9343 41.9468 68.3475 41.6784C68.751 41.4164 69.1728 40.937 69.1728 40.2597H67.1728ZM66.9096 40.08C66.7255 40.08 66.6051 40.0297 66.5611 40.0011C66.5411 39.9881 66.5578 39.9935 66.5837 40.0333C66.6126 40.0776 66.6465 40.1568 66.6465 40.2597H64.6465C64.6465 40.937 65.0682 41.4164 65.4718 41.6784C65.885 41.9468 66.3961 42.08 66.9096 42.08V40.08ZM66.6465 40.2597C66.6465 40.3627 66.6126 40.4419 66.5837 40.4862C66.5578 40.5259 66.5411 40.5313 66.5611 40.5184C66.6051 40.4898 66.7255 40.4395 66.9096 40.4395V38.4395C66.3961 38.4395 65.885 38.5727 65.4718 38.841C65.0682 39.1031 64.6465 39.5824 64.6465 40.2597H66.6465ZM66.9096 40.4395C67.0938 40.4395 67.2142 40.4898 67.2582 40.5184C67.2781 40.5313 67.2615 40.5259 67.2356 40.4862C67.2067 40.4419 67.1728 40.3627 67.1728 40.2597H69.1728C69.1728 39.5824 68.751 39.1031 68.3475 38.841C67.9343 38.5727 67.4232 38.4395 66.9096 38.4395V40.4395Z" fill="#FFA500" mask="url(#path-53-inside-4_897_4965)"/>
<mask id="path-55-inside-5_897_4965" fill="white">
<ellipse cx="69.7964" cy="43.8691" rx="1.26316" ry="0.820287"/>
</mask>
<path d="M70.0595 43.8691C70.0595 43.7661 70.0934 43.687 70.1223 43.6426C70.1482 43.6029 70.1649 43.5975 70.1449 43.6105C70.1009 43.639 69.9805 43.6894 69.7964 43.6894V45.6894C70.3099 45.6894 70.821 45.5561 71.2342 45.2878C71.6378 45.0257 72.0595 44.5464 72.0595 43.8691H70.0595ZM69.7964 43.6894C69.6122 43.6894 69.4918 43.639 69.4478 43.6105C69.4279 43.5975 69.4445 43.6029 69.4704 43.6426C69.4993 43.687 69.5332 43.7661 69.5332 43.8691H67.5332C67.5332 44.5464 67.955 45.0257 68.3585 45.2878C68.7717 45.5561 69.2829 45.6894 69.7964 45.6894V43.6894ZM69.5332 43.8691C69.5332 43.9721 69.4993 44.0512 69.4704 44.0956C69.4445 44.1353 69.4279 44.1407 69.4478 44.1278C69.4918 44.0992 69.6122 44.0488 69.7964 44.0488V42.0488C69.2829 42.0488 68.7717 42.1821 68.3585 42.4504C67.955 42.7125 67.5332 43.1918 67.5332 43.8691H69.5332ZM69.7964 44.0488C69.9805 44.0488 70.1009 44.0992 70.1449 44.1278C70.1649 44.1407 70.1482 44.1353 70.1223 44.0956C70.0934 44.0512 70.0595 43.9721 70.0595 43.8691H72.0595C72.0595 43.1918 71.6378 42.7125 71.2342 42.4504C70.821 42.1821 70.3099 42.0488 69.7964 42.0488V44.0488Z" fill="#FFA500" mask="url(#path-55-inside-5_897_4965)"/>
<mask id="path-57-inside-6_897_4965" fill="white">
<ellipse cx="72.3237" cy="47.1484" rx="1.26316" ry="0.820287"/>
</mask>
<path d="M72.5869 47.1484C72.5869 47.0454 72.6208 46.9663 72.6497 46.9219C72.6755 46.8822 72.6922 46.8768 72.6723 46.8898C72.6283 46.9183 72.5078 46.9687 72.3237 46.9687V48.9687C72.8372 48.9687 73.3484 48.8354 73.7615 48.5671C74.1651 48.305 74.5869 47.8257 74.5869 47.1484H72.5869ZM72.3237 46.9687C72.1396 46.9687 72.0192 46.9183 71.9751 46.8898C71.9552 46.8768 71.9719 46.8822 71.9977 46.9219C72.0266 46.9663 72.0605 47.0454 72.0605 47.1484H70.0605C70.0605 47.8257 70.4823 48.305 70.8859 48.5671C71.299 48.8354 71.8102 48.9687 72.3237 48.9687V46.9687ZM72.0605 47.1484C72.0605 47.2514 72.0266 47.3305 71.9977 47.3749C71.9719 47.4146 71.9552 47.42 71.9751 47.4071C72.0192 47.3785 72.1396 47.3281 72.3237 47.3281V45.3281C71.8102 45.3281 71.299 45.4614 70.8859 45.7297C70.4823 45.9918 70.0605 46.4711 70.0605 47.1484H72.0605ZM72.3237 47.3281C72.5078 47.3281 72.6283 47.3785 72.6723 47.4071C72.6922 47.42 72.6755 47.4146 72.6497 47.3749C72.6208 47.3305 72.5869 47.2514 72.5869 47.1484H74.5869C74.5869 46.4711 74.1651 45.9918 73.7615 45.7297C73.3484 45.4614 72.8372 45.3281 72.3237 45.3281V47.3281Z" fill="#FFA500" mask="url(#path-57-inside-6_897_4965)"/>
<mask id="path-59-inside-7_897_4965" fill="white">
<ellipse cx="74.8491" cy="50.4297" rx="1.26316" ry="0.820287"/>
</mask>
<path d="M75.1123 50.4297C75.1123 50.3267 75.1462 50.2475 75.1751 50.2032C75.2009 50.1635 75.2176 50.1581 75.1977 50.171C75.1536 50.1996 75.0332 50.2499 74.8491 50.2499V52.2499C75.3626 52.2499 75.8738 52.1167 76.2869 51.8484C76.6905 51.5863 77.1123 51.107 77.1123 50.4297H75.1123ZM74.8491 50.2499C74.665 50.2499 74.5445 50.1996 74.5005 50.171C74.4806 50.1581 74.4973 50.1635 74.5231 50.2032C74.552 50.2475 74.5859 50.3267 74.5859 50.4297H72.5859C72.5859 51.107 73.0077 51.5863 73.4113 51.8484C73.8244 52.1167 74.3356 52.2499 74.8491 52.2499V50.2499ZM74.5859 50.4297C74.5859 50.5326 74.552 50.6118 74.5231 50.6561C74.4973 50.6959 74.4806 50.7013 74.5005 50.6883C74.5445 50.6597 74.665 50.6094 74.8491 50.6094V48.6094C74.3356 48.6094 73.8244 48.7426 73.4113 49.011C73.0077 49.273 72.5859 49.7524 72.5859 50.4297H74.5859ZM74.8491 50.6094C75.0332 50.6094 75.1536 50.6597 75.1977 50.6883C75.2176 50.7013 75.2009 50.6959 75.1751 50.6561C75.1462 50.6118 75.1123 50.5326 75.1123 50.4297H77.1123C77.1123 49.7524 76.6905 49.273 76.2869 49.011C75.8738 48.7426 75.3626 48.6094 74.8491 48.6094V50.6094Z" fill="#FFA500" mask="url(#path-59-inside-7_897_4965)"/>
<mask id="path-61-inside-8_897_4965" fill="white">
<ellipse cx="82.4272" cy="51.7422" rx="1.26316" ry="0.820287"/>
</mask>
<path d="M82.6904 51.7422C82.6904 51.6392 82.7243 51.56 82.7532 51.5157C82.7791 51.476 82.7957 51.4706 82.7758 51.4835C82.7318 51.5121 82.6113 51.5624 82.4272 51.5624V53.5624C82.9407 53.5624 83.4519 53.4292 83.865 53.1609C84.2686 52.8988 84.6904 52.4195 84.6904 51.7422H82.6904ZM82.4272 51.5624C82.2431 51.5624 82.1227 51.5121 82.0787 51.4835C82.0587 51.4706 82.0754 51.476 82.1013 51.5157C82.1301 51.56 82.1641 51.6392 82.1641 51.7422H80.1641C80.1641 52.4195 80.5858 52.8988 80.9894 53.1609C81.4026 53.4292 81.9137 53.5624 82.4272 53.5624V51.5624ZM82.1641 51.7422C82.1641 51.8451 82.1301 51.9243 82.1013 51.9686C82.0754 52.0084 82.0587 52.0138 82.0787 52.0008C82.1227 51.9722 82.2431 51.9219 82.4272 51.9219V49.9219C81.9137 49.9219 81.4026 50.0551 80.9894 50.3235C80.5858 50.5855 80.1641 51.0649 80.1641 51.7422H82.1641ZM82.4272 51.9219C82.6113 51.9219 82.7318 51.9722 82.7758 52.0008C82.7957 52.0138 82.7791 52.0084 82.7532 51.9686C82.7243 51.9243 82.6904 51.8451 82.6904 51.7422H84.6904C84.6904 51.0649 84.2686 50.5855 83.865 50.3235C83.4519 50.0551 82.9407 49.9219 82.4272 49.9219V51.9219Z" fill="#FFA500" mask="url(#path-61-inside-8_897_4965)"/>
<mask id="path-63-inside-9_897_4965" fill="white">
<ellipse cx="84.5952" cy="48.789" rx="1.26316" ry="0.820287"/>
</mask>
<path d="M84.8583 48.789C84.8583 48.6861 84.8923 48.6069 84.9211 48.5626C84.947 48.5228 84.9637 48.5174 84.9437 48.5304C84.8997 48.559 84.7793 48.6093 84.5952 48.6093V50.6093C85.1087 50.6093 85.6198 50.476 86.033 50.2077C86.4366 49.9457 86.8583 49.4663 86.8583 48.789H84.8583ZM84.5952 48.6093C84.4111 48.6093 84.2906 48.559 84.2466 48.5304C84.2267 48.5174 84.2434 48.5228 84.2692 48.5626C84.2981 48.6069 84.332 48.6861 84.332 48.789H82.332C82.332 49.4663 82.7538 49.9457 83.1574 50.2077C83.5705 50.476 84.0817 50.6093 84.5952 50.6093V48.6093ZM84.332 48.789C84.332 48.892 84.2981 48.9712 84.2692 49.0155C84.2434 49.0552 84.2267 49.0606 84.2466 49.0477C84.2906 49.0191 84.4111 48.9688 84.5952 48.9688V46.9688C84.0817 46.9688 83.5705 47.102 83.1574 47.3703C82.7538 47.6324 82.332 48.1117 82.332 48.789H84.332ZM84.5952 48.9688C84.7793 48.9688 84.8997 49.0191 84.9437 49.0477C84.9637 49.0606 84.947 49.0552 84.9211 49.0155C84.8923 48.9712 84.8583 48.892 84.8583 48.789H86.8583C86.8583 48.1117 86.4366 47.6324 86.033 47.3703C85.6198 47.102 85.1087 46.9688 84.5952 46.9688V48.9688Z" fill="#FFA500" mask="url(#path-63-inside-9_897_4965)"/>
<mask id="path-65-inside-10_897_4965" fill="white">
<ellipse cx="86.7593" cy="45.8379" rx="1.26316" ry="0.820287"/>
</mask>
<path d="M87.0224 45.8379C87.0224 45.7349 87.0563 45.6557 87.0852 45.6114C87.1111 45.5717 87.1277 45.5663 87.1078 45.5792C87.0638 45.6078 86.9434 45.6582 86.7593 45.6582V47.6582C87.2728 47.6582 87.7839 47.5249 88.1971 47.2566C88.6006 46.9945 89.0224 46.5152 89.0224 45.8379H87.0224ZM86.7593 45.6582C86.5751 45.6582 86.4547 45.6078 86.4107 45.5792C86.3908 45.5663 86.4074 45.5717 86.4333 45.6114C86.4622 45.6557 86.4961 45.7349 86.4961 45.8379H84.4961C84.4961 46.5152 84.9179 46.9945 85.3214 47.2566C85.7346 47.5249 86.2457 47.6582 86.7593 47.6582V45.6582ZM86.4961 45.8379C86.4961 45.9408 86.4622 46.02 86.4333 46.0643C86.4074 46.1041 86.3908 46.1095 86.4107 46.0965C86.4547 46.0679 86.5751 46.0176 86.7593 46.0176V44.0176C86.2457 44.0176 85.7346 44.1509 85.3214 44.4192C84.9179 44.6812 84.4961 45.1606 84.4961 45.8379H86.4961ZM86.7593 46.0176C86.9434 46.0176 87.0638 46.0679 87.1078 46.0965C87.1277 46.1095 87.1111 46.1041 87.0852 46.0643C87.0563 46.02 87.0224 45.9408 87.0224 45.8379H89.0224C89.0224 45.1606 88.6006 44.6812 88.1971 44.4192C87.7839 44.1509 87.2728 44.0176 86.7593 44.0176V46.0176Z" fill="#FFA500" mask="url(#path-65-inside-10_897_4965)"/>
<mask id="path-67-inside-11_897_4965" fill="white">
<ellipse cx="88.9253" cy="42.8847" rx="1.26316" ry="0.820287"/>
</mask>
<path d="M89.1884 42.8847C89.1884 42.7818 89.2223 42.7026 89.2512 42.6583C89.2771 42.6185 89.2938 42.6131 89.2738 42.6261C89.2298 42.6547 89.1094 42.705 88.9253 42.705V44.705C89.4388 44.705 89.9499 44.5718 90.3631 44.3034C90.7667 44.0414 91.1884 43.562 91.1884 42.8847H89.1884ZM88.9253 42.705C88.7412 42.705 88.6207 42.6547 88.5767 42.6261C88.5568 42.6131 88.5734 42.6185 88.5993 42.6583C88.6282 42.7026 88.6621 42.7818 88.6621 42.8847H86.6621C86.6621 43.562 87.0839 44.0414 87.4874 44.3034C87.9006 44.5718 88.4118 44.705 88.9253 44.705V42.705ZM88.6621 42.8847C88.6621 42.9877 88.6282 43.0669 88.5993 43.1112C88.5734 43.1509 88.5568 43.1563 88.5767 43.1434C88.6207 43.1148 88.7412 43.0645 88.9253 43.0645V41.0645C88.4118 41.0645 87.9006 41.1977 87.4874 41.466C87.0839 41.7281 86.6621 42.2074 86.6621 42.8847H88.6621ZM88.9253 43.0645C89.1094 43.0645 89.2298 43.1148 89.2738 43.1434C89.2938 43.1563 89.2771 43.1509 89.2512 43.1112C89.2223 43.0669 89.1884 42.9877 89.1884 42.8847H91.1884C91.1884 42.2074 90.7667 41.7281 90.3631 41.466C89.9499 41.1977 89.4388 41.0645 88.9253 41.0645V43.0645Z" fill="#FFA500" mask="url(#path-67-inside-11_897_4965)"/>
<mask id="path-69-inside-12_897_4965" fill="white">
<ellipse cx="91.0913" cy="39.9316" rx="1.26316" ry="0.820287"/>
</mask>
<path d="M91.3544 39.9316C91.3544 39.8286 91.3884 39.7495 91.4172 39.7051C91.4431 39.6654 91.4598 39.66 91.4398 39.673C91.3958 39.7015 91.2754 39.7519 91.0913 39.7519V41.7519C91.6048 41.7519 92.1159 41.6186 92.5291 41.3503C92.9327 41.0882 93.3544 40.6089 93.3544 39.9316H91.3544ZM91.0913 39.7519C90.9072 39.7519 90.7867 39.7015 90.7427 39.673C90.7228 39.66 90.7395 39.6654 90.7653 39.7051C90.7942 39.7495 90.8281 39.8286 90.8281 39.9316H88.8281C88.8281 40.6089 89.2499 41.0882 89.6535 41.3503C90.0666 41.6186 90.5778 41.7519 91.0913 41.7519V39.7519ZM90.8281 39.9316C90.8281 40.0346 90.7942 40.1137 90.7653 40.1581C90.7395 40.1978 90.7228 40.2032 90.7427 40.1903C90.7867 40.1617 90.9072 40.1113 91.0913 40.1113V38.1113C90.5778 38.1113 90.0666 38.2446 89.6535 38.5129C89.2499 38.775 88.8281 39.2543 88.8281 39.9316H90.8281ZM91.0913 40.1113C91.2754 40.1113 91.3958 40.1617 91.4398 40.1903C91.4598 40.2032 91.4431 40.1978 91.4172 40.1581C91.3884 40.1137 91.3544 40.0346 91.3544 39.9316H93.3544C93.3544 39.2543 92.9327 38.775 92.5291 38.5129C92.1159 38.2446 91.6048 38.1113 91.0913 38.1113V40.1113Z" fill="#FFA500" mask="url(#path-69-inside-12_897_4965)"/>
<mask id="path-71-inside-13_897_4965" fill="white">
<ellipse cx="93.2553" cy="36.9785" rx="1.26316" ry="0.820287"/>
</mask>
<path d="M93.5185 36.9785C93.5185 36.8755 93.5524 36.7964 93.5813 36.752C93.6072 36.7123 93.6238 36.7069 93.6039 36.7198C93.5599 36.7484 93.4395 36.7988 93.2553 36.7988V38.7988C93.7689 38.7988 94.28 38.6655 94.6932 38.3972C95.0967 38.1351 95.5185 37.6558 95.5185 36.9785H93.5185ZM93.2553 36.7988C93.0712 36.7988 92.9508 36.7484 92.9068 36.7198C92.8868 36.7069 92.9035 36.7123 92.9294 36.752C92.9583 36.7964 92.9922 36.8755 92.9922 36.9785H90.9922C90.9922 37.6558 91.4139 38.1351 91.8175 38.3972C92.2307 38.6655 92.7418 38.7988 93.2553 38.7988V36.7988ZM92.9922 36.9785C92.9922 37.0815 92.9583 37.1606 92.9294 37.205C92.9035 37.2447 92.8868 37.2501 92.9068 37.2371C92.9508 37.2086 93.0712 37.1582 93.2553 37.1582V35.1582C92.7418 35.1582 92.2307 35.2915 91.8175 35.5598C91.4139 35.8219 90.9922 36.3012 90.9922 36.9785H92.9922ZM93.2553 37.1582C93.4395 37.1582 93.5599 37.2086 93.6039 37.2371C93.6238 37.2501 93.6072 37.2447 93.5813 37.205C93.5524 37.1606 93.5185 37.0815 93.5185 36.9785H95.5185C95.5185 36.3012 95.0967 35.8219 94.6932 35.5598C94.28 35.2915 93.7689 35.1582 93.2553 35.1582V37.1582Z" fill="#FFA500" mask="url(#path-71-inside-13_897_4965)"/>
<mask id="path-73-inside-14_897_4965" fill="white">
<ellipse cx="92.894" cy="34.0234" rx="1.26316" ry="0.820287"/>
</mask>
<path d="M93.1572 34.0234C93.1572 33.9204 93.1911 33.8413 93.22 33.7969C93.2458 33.7572 93.2625 33.7518 93.2426 33.7648C93.1986 33.7933 93.0781 33.8437 92.894 33.8437V35.8437C93.4075 35.8437 93.9187 35.7104 94.3318 35.4421C94.7354 35.18 95.1572 34.7007 95.1572 34.0234H93.1572ZM92.894 33.8437C92.7099 33.8437 92.5895 33.7933 92.5455 33.7648C92.5255 33.7518 92.5422 33.7572 92.5681 33.7969C92.5969 33.8413 92.6309 33.9204 92.6309 34.0234H90.6309C90.6309 34.7007 91.0526 35.18 91.4562 35.4421C91.8694 35.7104 92.3805 35.8437 92.894 35.8437V33.8437ZM92.6309 34.0234C92.6309 34.1264 92.5969 34.2055 92.5681 34.2499C92.5422 34.2896 92.5255 34.295 92.5455 34.2821C92.5895 34.2535 92.7099 34.2031 92.894 34.2031V32.2031C92.3805 32.2031 91.8694 32.3364 91.4562 32.6047C91.0526 32.8668 90.6309 33.3461 90.6309 34.0234H92.6309ZM92.894 34.2031C93.0781 34.2031 93.1986 34.2535 93.2426 34.2821C93.2625 34.295 93.2458 34.2896 93.22 34.2499C93.1911 34.2055 93.1572 34.1264 93.1572 34.0234H95.1572C95.1572 33.3461 94.7354 32.8668 94.3318 32.6047C93.9187 32.3364 93.4075 32.2031 92.894 32.2031V34.2031Z" fill="#FFA500" mask="url(#path-73-inside-14_897_4965)"/>
<mask id="path-75-inside-15_897_4965" fill="white">
<ellipse cx="88.5639" cy="33.6953" rx="1.26316" ry="0.820287"/>
</mask>
<path d="M88.8271 33.6953C88.8271 33.5923 88.861 33.5132 88.8899 33.4688C88.9158 33.4291 88.9324 33.4237 88.9125 33.4366C88.8685 33.4652 88.7481 33.5156 88.5639 33.5156V35.5156C89.0774 35.5156 89.5886 35.3823 90.0018 35.114C90.4053 34.8519 90.8271 34.3726 90.8271 33.6953H88.8271ZM88.5639 33.5156C88.3798 33.5156 88.2594 33.4652 88.2154 33.4366C88.1954 33.4237 88.2121 33.4291 88.238 33.4688C88.2669 33.5132 88.3008 33.5923 88.3008 33.6953H86.3008C86.3008 34.3726 86.7225 34.8519 87.1261 35.114C87.5393 35.3823 88.0504 35.5156 88.5639 35.5156V33.5156ZM88.3008 33.6953C88.3008 33.7983 88.2669 33.8774 88.238 33.9218C88.2121 33.9615 88.1954 33.9669 88.2154 33.9539C88.2594 33.9254 88.3798 33.875 88.5639 33.875V31.875C88.0504 31.875 87.5393 32.0083 87.1261 32.2766C86.7225 32.5387 86.3008 33.018 86.3008 33.6953H88.3008ZM88.5639 33.875C88.7481 33.875 88.8685 33.9254 88.9125 33.9539C88.9324 33.9669 88.9158 33.9615 88.8899 33.9218C88.861 33.8774 88.8271 33.7983 88.8271 33.6953H90.8271C90.8271 33.018 90.4053 32.5387 90.0018 32.2766C89.5886 32.0083 89.0774 31.875 88.5639 31.875V33.875Z" fill="#FFA500" mask="url(#path-75-inside-15_897_4965)"/>
<mask id="path-77-inside-16_897_4965" fill="white">
<ellipse cx="84.2339" cy="33.3691" rx="1.26316" ry="0.820287"/>
</mask>
<path d="M84.497 33.3691C84.497 33.2661 84.5309 33.187 84.5598 33.1426C84.5857 33.1029 84.6024 33.0975 84.5824 33.1105C84.5384 33.139 84.418 33.1894 84.2339 33.1894V35.1894C84.7474 35.1894 85.2585 35.0561 85.6717 34.7878C86.0753 34.5257 86.497 34.0464 86.497 33.3691H84.497ZM84.2339 33.1894C84.0497 33.1894 83.9293 33.139 83.8853 33.1105C83.8654 33.0975 83.882 33.1029 83.9079 33.1426C83.9368 33.187 83.9707 33.2661 83.9707 33.3691H81.9707C81.9707 34.0464 82.3925 34.5257 82.796 34.7878C83.2092 35.0561 83.7204 35.1894 84.2339 35.1894V33.1894ZM83.9707 33.3691C83.9707 33.4721 83.9368 33.5512 83.9079 33.5956C83.882 33.6353 83.8654 33.6407 83.8853 33.6278C83.9293 33.5992 84.0497 33.5488 84.2339 33.5488V31.5488C83.7204 31.5488 83.2092 31.6821 82.796 31.9504C82.3925 32.2125 81.9707 32.6918 81.9707 33.3691H83.9707ZM84.2339 33.5488C84.418 33.5488 84.5384 33.5992 84.5824 33.6278C84.6024 33.6407 84.5857 33.6353 84.5598 33.5956C84.5309 33.5512 84.497 33.4721 84.497 33.3691H86.497C86.497 32.6918 86.0753 32.2125 85.6717 31.9504C85.2585 31.6821 84.7474 31.5488 84.2339 31.5488V33.5488Z" fill="#FFA500" mask="url(#path-77-inside-16_897_4965)"/>
<mask id="path-79-inside-17_897_4965" fill="white">
<ellipse cx="79.9018" cy="33.041" rx="1.26316" ry="0.820287"/>
</mask>
<path d="M80.165 33.041C80.165 32.938 80.1989 32.8589 80.2278 32.8145C80.2537 32.7748 80.2703 32.7694 80.2504 32.7823C80.2064 32.8109 80.0859 32.8613 79.9018 32.8613V34.8613C80.4153 34.8613 80.9265 34.728 81.3396 34.4597C81.7432 34.1976 82.165 33.7183 82.165 33.041H80.165ZM79.9018 32.8613C79.7177 32.8613 79.5973 32.8109 79.5533 32.7823C79.5333 32.7694 79.55 32.7748 79.5759 32.8145C79.6048 32.8589 79.6387 32.938 79.6387 33.041H77.6387C77.6387 33.7183 78.0604 34.1976 78.464 34.4597C78.8772 34.728 79.3883 34.8613 79.9018 34.8613V32.8613ZM79.6387 33.041C79.6387 33.144 79.6048 33.2231 79.5759 33.2675C79.55 33.3072 79.5333 33.3126 79.5533 33.2996C79.5973 33.2711 79.7177 33.2207 79.9018 33.2207V31.2207C79.3883 31.2207 78.8772 31.354 78.464 31.6223C78.0604 31.8844 77.6387 32.3637 77.6387 33.041H79.6387ZM79.9018 33.2207C80.0859 33.2207 80.2064 33.2711 80.2504 33.2996C80.2703 33.3126 80.2537 33.3072 80.2278 33.2675C80.1989 33.2231 80.165 33.144 80.165 33.041H82.165C82.165 32.3637 81.7432 31.8844 81.3396 31.6223C80.9265 31.354 80.4153 31.2207 79.9018 31.2207V33.2207Z" fill="#FFA500" mask="url(#path-79-inside-17_897_4965)"/>
<mask id="path-81-inside-18_897_4965" fill="white">
<ellipse cx="75.5718" cy="32.7109" rx="1.26316" ry="0.820287"/>
</mask>
<path d="M75.8349 32.7109C75.8349 32.6079 75.8688 32.5288 75.8977 32.4844C75.9236 32.4447 75.9402 32.4393 75.9203 32.4523C75.8763 32.4808 75.7559 32.5312 75.5718 32.5312V34.5312C76.0853 34.5312 76.5964 34.3979 77.0096 34.1296C77.4131 33.8675 77.8349 33.3882 77.8349 32.7109H75.8349ZM75.5718 32.5312C75.3876 32.5312 75.2672 32.4808 75.2232 32.4523C75.2033 32.4393 75.2199 32.4447 75.2458 32.4844C75.2747 32.5288 75.3086 32.6079 75.3086 32.7109H73.3086C73.3086 33.3882 73.7304 33.8675 74.1339 34.1296C74.5471 34.3979 75.0582 34.5312 75.5718 34.5312V32.5312ZM75.3086 32.7109C75.3086 32.8139 75.2747 32.893 75.2458 32.9374C75.2199 32.9771 75.2033 32.9825 75.2232 32.9696C75.2672 32.941 75.3876 32.8906 75.5718 32.8906V30.8906C75.0582 30.8906 74.5471 31.0239 74.1339 31.2922C73.7304 31.5543 73.3086 32.0336 73.3086 32.7109H75.3086ZM75.5718 32.8906C75.7559 32.8906 75.8763 32.941 75.9203 32.9696C75.9402 32.9825 75.9236 32.9771 75.8977 32.9374C75.8688 32.893 75.8349 32.8139 75.8349 32.7109H77.8349C77.8349 32.0336 77.4131 31.5543 77.0096 31.2922C76.5964 31.0239 76.0853 30.8906 75.5718 30.8906V32.8906Z" fill="#FFA500" mask="url(#path-81-inside-18_897_4965)"/>
<mask id="path-83-inside-19_897_4965" fill="white">
<ellipse cx="69.7964" cy="31.7285" rx="1.26316" ry="0.820287"/>
</mask>
<path d="M70.0595 31.7285C70.0595 31.6255 70.0934 31.5464 70.1223 31.502C70.1482 31.4623 70.1649 31.4569 70.1449 31.4698C70.1009 31.4984 69.9805 31.5488 69.7964 31.5488V33.5488C70.3099 33.5488 70.821 33.4155 71.2342 33.1472C71.6378 32.8851 72.0595 32.4058 72.0595 31.7285H70.0595ZM69.7964 31.5488C69.6122 31.5488 69.4918 31.4984 69.4478 31.4698C69.4279 31.4569 69.4445 31.4623 69.4704 31.502C69.4993 31.5464 69.5332 31.6255 69.5332 31.7285H67.5332C67.5332 32.4058 67.955 32.8851 68.3585 33.1472C68.7717 33.4155 69.2829 33.5488 69.7964 33.5488V31.5488ZM69.5332 31.7285C69.5332 31.8315 69.4993 31.9106 69.4704 31.955C69.4445 31.9947 69.4279 32.0001 69.4478 31.9871C69.4918 31.9586 69.6122 31.9082 69.7964 31.9082V29.9082C69.2829 29.9082 68.7717 30.0415 68.3585 30.3098C67.955 30.5719 67.5332 31.0512 67.5332 31.7285H69.5332ZM69.7964 31.9082C69.9805 31.9082 70.1009 31.9586 70.1449 31.9871C70.1649 32.0001 70.1482 31.9947 70.1223 31.955C70.0934 31.9106 70.0595 31.8315 70.0595 31.7285H72.0595C72.0595 31.0512 71.6378 30.5719 71.2342 30.3098C70.821 30.0415 70.3099 29.9082 69.7964 29.9082V31.9082Z" fill="#FFA500" mask="url(#path-83-inside-19_897_4965)"/>
<mask id="path-85-inside-20_897_4965" fill="white">
<ellipse cx="78.0991" cy="31.4004" rx="1.26316" ry="0.820287"/>
</mask>
<path d="M78.3623 31.4004C78.3623 31.2974 78.3962 31.2182 78.4251 31.1739C78.4509 31.1342 78.4676 31.1288 78.4477 31.1417C78.4036 31.1703 78.2832 31.2207 78.0991 31.2207V33.2207C78.6126 33.2207 79.1238 33.0874 79.5369 32.8191C79.9405 32.557 80.3623 32.0777 80.3623 31.4004H78.3623ZM78.0991 31.2207C77.915 31.2207 77.7945 31.1703 77.7505 31.1417C77.7306 31.1288 77.7473 31.1342 77.7731 31.1739C77.802 31.2182 77.8359 31.2974 77.8359 31.4004H75.8359C75.8359 32.0777 76.2577 32.557 76.6613 32.8191C77.0744 33.0874 77.5856 33.2207 78.0991 33.2207V31.2207ZM77.8359 31.4004C77.8359 31.5033 77.802 31.5825 77.7731 31.6268C77.7473 31.6666 77.7306 31.672 77.7505 31.659C77.7945 31.6304 77.915 31.5801 78.0991 31.5801V29.5801C77.5856 29.5801 77.0744 29.7134 76.6613 29.9817C76.2577 30.2437 75.8359 30.7231 75.8359 31.4004H77.8359ZM78.0991 31.5801C78.2832 31.5801 78.4036 31.6304 78.4477 31.659C78.4676 31.672 78.4509 31.6666 78.4251 31.6268C78.3962 31.5825 78.3623 31.5033 78.3623 31.4004H80.3623C80.3623 30.7231 79.9405 30.2437 79.5369 29.9817C79.1238 29.7134 78.6126 29.5801 78.0991 29.5801V31.5801Z" fill="#FFA500" mask="url(#path-85-inside-20_897_4965)"/>
<mask id="path-87-inside-21_897_4965" fill="white">
<ellipse cx="86.3979" cy="31.4004" rx="1.26316" ry="0.820287"/>
</mask>
<path d="M86.6611 31.4004C86.6611 31.2974 86.695 31.2182 86.7239 31.1739C86.7498 31.1342 86.7664 31.1288 86.7465 31.1417C86.7025 31.1703 86.582 31.2207 86.3979 31.2207V33.2207C86.9114 33.2207 87.4226 33.0874 87.8357 32.8191C88.2393 32.557 88.6611 32.0777 88.6611 31.4004H86.6611ZM86.3979 31.2207C86.2138 31.2207 86.0934 31.1703 86.0494 31.1417C86.0294 31.1288 86.0461 31.1342 86.072 31.1739C86.1008 31.2182 86.1348 31.2974 86.1348 31.4004H84.1348C84.1348 32.0777 84.5565 32.557 84.9601 32.8191C85.3733 33.0874 85.8844 33.2207 86.3979 33.2207V31.2207ZM86.1348 31.4004C86.1348 31.5033 86.1008 31.5825 86.072 31.6268C86.0461 31.6666 86.0294 31.672 86.0494 31.659C86.0934 31.6304 86.2138 31.5801 86.3979 31.5801V29.5801C85.8844 29.5801 85.3733 29.7134 84.9601 29.9817C84.5565 30.2437 84.1348 30.7231 84.1348 31.4004H86.1348ZM86.3979 31.5801C86.582 31.5801 86.7025 31.6304 86.7465 31.659C86.7664 31.672 86.7498 31.6666 86.7239 31.6268C86.695 31.5825 86.6611 31.5033 86.6611 31.4004H88.6611C88.6611 30.7231 88.2393 30.2437 87.8357 29.9817C87.4226 29.7134 86.9114 29.5801 86.3979 29.5801V31.5801Z" fill="#FFA500" mask="url(#path-87-inside-21_897_4965)"/>
<mask id="path-89-inside-22_897_4965" fill="white">
<ellipse cx="90.3686" cy="31.7285" rx="1.26316" ry="0.820287"/>
</mask>
<path d="M90.6318 31.7285C90.6318 31.6255 90.6657 31.5464 90.6946 31.502C90.7205 31.4623 90.7371 31.4569 90.7172 31.4698C90.6732 31.4984 90.5527 31.5488 90.3686 31.5488V33.5488C90.8821 33.5488 91.3933 33.4155 91.8064 33.1472C92.21 32.8851 92.6318 32.4058 92.6318 31.7285H90.6318ZM90.3686 31.5488C90.1845 31.5488 90.0641 31.4984 90.0201 31.4698C90.0001 31.4569 90.0168 31.4623 90.0427 31.502C90.0716 31.5464 90.1055 31.6255 90.1055 31.7285H88.1055C88.1055 32.4058 88.5272 32.8851 88.9308 33.1472C89.344 33.4155 89.8551 33.5488 90.3686 33.5488V31.5488ZM90.1055 31.7285C90.1055 31.8315 90.0716 31.9106 90.0427 31.955C90.0168 31.9947 90.0001 32.0001 90.0201 31.9871C90.0641 31.9586 90.1845 31.9082 90.3686 31.9082V29.9082C89.8551 29.9082 89.344 30.0415 88.9308 30.3098C88.5272 30.5719 88.1055 31.0512 88.1055 31.7285H90.1055ZM90.3686 31.9082C90.5527 31.9082 90.6732 31.9586 90.7172 31.9871C90.7371 32.0001 90.7205 31.9947 90.6946 31.955C90.6657 31.9106 90.6318 31.8315 90.6318 31.7285H92.6318C92.6318 31.0512 92.21 30.5719 91.8064 30.3098C91.3933 30.0415 90.8821 29.9082 90.3686 29.9082V31.9082Z" fill="#FFA500" mask="url(#path-89-inside-22_897_4965)"/>
<rect x="71.2812" y="26.7793" width="16.8797" height="2.96869" rx="1.48434" stroke="#FFA500"/>
<rect x="72.0039" y="26.123" width="15.4361" height="1.32811" rx="0.664057" stroke="#FFA500"/>
<path d="M86.4394 24.4824H73.0036C72.4831 24.4824 72.0268 24.8302 71.8888 25.3321C71.6864 26.0682 72.2402 26.7949 73.0036 26.7949H86.4394C87.2028 26.7949 87.7567 26.0682 87.5543 25.3321C87.4163 24.8302 86.9599 24.4824 86.4394 24.4824Z" stroke="#FFA500"/>
<path d="M86.0898 22.8418H73.3541C72.8284 22.8418 72.3688 23.1965 72.2356 23.7051C72.0437 24.4379 72.5966 25.1543 73.3541 25.1543H86.0898C86.8473 25.1543 87.4002 24.4379 87.2083 23.7051C87.0751 23.1965 86.6155 22.8418 86.0898 22.8418Z" stroke="#FFA500"/>
<path d="M85.7438 21.2012H74.0588C73.5251 21.2012 73.0607 21.5665 72.9351 22.0852C72.7588 22.8129 73.3101 23.5136 74.0588 23.5136H85.7438C86.4925 23.5136 87.0438 22.8129 86.8675 22.0852C86.7419 21.5665 86.2775 21.2012 85.7438 21.2012Z" stroke="#FFA500"/>
<path d="M85.3939 19.5605H74.4096C73.8705 19.5605 73.4029 19.9331 73.2825 20.4585C73.1166 21.1826 73.6667 21.873 74.4096 21.873H85.3939C86.1367 21.873 86.6868 21.1826 86.5209 20.4585C86.4005 19.9331 85.933 19.5605 85.3939 19.5605Z" stroke="#FFA500"/>
<path d="M85.0439 17.9219H74.7604C74.2159 17.9219 73.7453 18.3017 73.6303 18.8339C73.4746 19.5542 74.0235 20.2343 74.7604 20.2343H85.0439C85.7808 20.2343 86.3297 19.5542 86.174 18.8339C86.0591 18.3017 85.5884 17.9219 85.0439 17.9219Z" stroke="#FFA500"/>
<path d="M84.6938 16.2812H75.1114C74.5615 16.2812 74.0876 16.6686 73.9783 17.2075C73.8329 17.9239 74.3804 18.5937 75.1114 18.5937H84.6938C85.4247 18.5937 85.9723 17.9239 85.8269 17.2075C85.7175 16.6686 85.2437 16.2812 84.6938 16.2812Z" stroke="#FFA500"/>
<path d="M84.3416 14.6406H75.4605C74.9051 14.6406 74.4282 15.0355 74.3246 15.5812C74.1893 16.2935 74.7355 16.9531 75.4605 16.9531H84.3416C85.0666 16.9531 85.6128 16.2935 85.4775 15.5812C85.3739 15.0355 84.897 14.6406 84.3416 14.6406Z" stroke="#FFA500"/>
<path d="M84.3324 10.0449H74.7501C74.2001 10.0449 73.7263 10.4322 73.6169 10.9712C73.4715 11.6875 74.0191 12.3574 74.7501 12.3574H84.3324C85.0634 12.3574 85.611 11.6875 85.4656 10.9712C85.3562 10.4322 84.8824 10.0449 84.3324 10.0449Z" stroke="#FFA500"/>
<path d="M73.9475 11.6855H73.6519L73.5094 11.9446L72.0658 14.5695L71.6583 15.3105H72.5039H86.5791H87.4247L87.0172 14.5695L85.5736 11.9446L85.4311 11.6855H85.1355H73.9475Z" stroke="#FFA500"/>
<path d="M74.2348 10.7188H73.9317L73.7915 10.45L72.4219 7.82512L72.0404 7.09383H72.8652H86.2186H87.0435L86.6619 7.82512L85.2923 10.45L85.1521 10.7188H84.849H74.2348Z" stroke="#FFA500"/>
<path d="M81.165 7.76553H81.665V7.26553V5.57566C81.665 4.60189 80.8756 3.8125 79.9018 3.8125C78.9281 3.8125 78.1387 4.60189 78.1387 5.57566V7.26553V7.76553H78.6387H81.165Z" stroke="#FFA500"/>
<path d="M79.9023 4.31246V3" stroke="#FFA500" stroke-width="2"/>
<defs>
<linearGradient id="paint0_linear_897_4965" x1="0" y1="111.852" x2="37.1613" y2="111.852" gradientUnits="userSpaceOnUse">
<stop stop-color="white"/>
<stop offset="1" stop-color="#FFA500"/>
</linearGradient>
<linearGradient id="paint1_linear_897_4965" x1="120.029" y1="111.852" x2="157.195" y2="111.852" gradientUnits="userSpaceOnUse">
<stop stop-color="#FFA500"/>
<stop offset="1" stop-color="white"/>
</linearGradient>
</defs>
</svg>
