<svg width="150" height="113" viewBox="0 0 150 113" fill="none" xmlns="http://www.w3.org/2000/svg">
<mask id="mask0_889_2" style="mask-type:luminance" maskUnits="userSpaceOnUse" x="0" y="0" width="150" height="113">
<path d="M0 0H150V112.96H0V0Z" fill="white"/>
</mask>
<g mask="url(#mask0_889_2)">
<path d="M135.371 14.525C135.244 14.559 135.108 14.5709 134.973 14.5599C134.838 14.5489 134.709 14.5152 134.596 14.4615C134.483 14.4079 134.389 14.3359 134.323 14.2513C134.256 14.1668 134.218 14.0721 134.212 13.9751C134.162 13.1362 133.661 12.3437 132.814 11.7628C131.967 11.182 130.839 10.8577 129.666 10.8575C127.217 10.8575 125.339 12.1349 125.127 13.827C125.109 13.9776 125.014 14.1181 124.86 14.2219C124.707 14.3256 124.505 14.3854 124.294 14.3898C123.506 14.4015 122.756 14.6349 122.206 15.0396C121.656 15.4443 121.351 15.9876 121.356 16.5521C121.356 17.7333 122.714 18.7182 124.382 18.7182H136.434C138.1 18.7182 139.46 17.7444 139.46 16.5521C139.458 16.2027 139.339 15.8587 139.112 15.5494C138.885 15.2401 138.557 14.9747 138.155 14.7756C137.754 14.5766 137.292 14.4499 136.807 14.4062C136.323 14.3626 135.831 14.4033 135.374 14.525M71.4452 111.728L78.472 107.531L78.5909 109.222L74.3961 111.728H71.4452ZM60.1746 111.728L78.0194 101.076L78.1383 102.766L63.1254 111.728H60.1746ZM61.3202 84.1308L76.1961 75.25L76.3177 76.9403L61.1935 85.9692L61.3254 84.1308H61.3202ZM60.8289 91.1528L76.6565 81.7056L76.7754 83.3958L60.7021 92.9912L60.8289 91.1528ZM60.3349 98.1749L77.1142 88.163L77.2332 89.8532L60.2082 100.017L60.3401 98.1804L60.3349 98.1749ZM59.8435 105.199L77.572 94.6185L77.6909 96.3088L59.7168 107.041L59.8461 105.202L59.8435 105.199ZM61.6927 78.9416L61.8246 77.0995L68.8771 72.8914H71.8306L61.6927 78.9416ZM64.7987 65.2325L75.0659 59.1047L75.1875 60.7949L67.7496 65.2325H64.7987ZM63.0634 59.5397L74.6082 52.6436L74.7297 54.3338L62.9315 61.3781L63.0634 59.5397ZM63.428 54.3561L63.5599 52.5121L68.7246 49.4334H71.6728L63.428 54.3561ZM68.0315 43.1186L73.703 39.7362L73.8246 41.4246L70.9797 43.1204L68.0315 43.1186ZM64.9202 33.2825L65.0496 31.4423L68.678 29.2763H71.6289L64.9202 33.2788V33.2825ZM64.553 38.4662L73.2504 33.2788L73.372 34.9691L64.4263 40.3101L64.5556 38.4717L64.553 38.4662ZM65.978 24.1611L72.3401 20.3622L72.459 22.0524L68.9315 24.1611H65.978ZM65.9108 19.2347L66.0401 17.3963L68.3625 16.0097H71.3133L65.9082 19.2384L65.9108 19.2347ZM66.534 10.3687L71.4297 7.44922L71.5487 9.13947L67.297 11.6776H66.4435L66.534 10.3687Z" fill="#FFA500"/>
<path d="M80.4908 111.729L77.7236 72.4402L83.0796 66.1772C83.1581 66.0833 83.2011 65.9764 83.2042 65.867C83.2074 65.7576 83.1707 65.6495 83.0977 65.5533C83.0215 65.4588 82.9123 65.3801 82.7808 65.325C82.6493 65.2698 82.5001 65.24 82.3477 65.2386H77.2115L76.0658 49.0155L80.3072 44.0632C80.3853 43.9692 80.4278 43.8621 80.4305 43.7527C80.4332 43.6433 80.3961 43.5353 80.3227 43.4393C80.2465 43.3448 80.1373 43.2661 80.0058 43.211C79.8743 43.1558 79.7251 43.126 79.5727 43.1246H75.6546L74.646 28.8287L77.8373 25.1002C77.9159 25.0063 77.9588 24.8993 77.962 24.7899C77.9652 24.6805 77.9284 24.5724 77.8554 24.4763C77.7793 24.3818 77.6701 24.3031 77.5386 24.2479C77.4071 24.1927 77.2578 24.163 77.1054 24.1615H74.3175L73.7123 15.5344L76.2106 12.613C76.2898 12.5195 76.3328 12.4126 76.3354 12.3032C76.338 12.1939 76.3 12.086 76.2253 11.9906C76.1507 11.8951 76.042 11.8156 75.9104 11.7601C75.7788 11.7045 75.6289 11.675 75.4761 11.6744H73.4408L73.1304 7.31826H73.7744C73.8874 7.31875 73.9993 7.30319 74.1038 7.27247C74.2083 7.24176 74.3032 7.1965 74.3831 7.13933C74.4629 7.08216 74.5262 7.01421 74.5691 6.93941C74.612 6.86462 74.6337 6.78447 74.633 6.70362V3.98774C74.6337 3.90689 74.612 3.82674 74.5691 3.75195C74.5262 3.67715 74.4629 3.6092 74.3831 3.55203C74.3032 3.49486 74.2083 3.4496 74.1038 3.41889C73.9993 3.38817 73.8874 3.37261 73.7744 3.3731H69.9339V0.614638C69.9339 0.451626 69.8434 0.29529 69.6824 0.180023C69.5214 0.0647563 69.303 0 69.0753 0C68.8475 0 68.6292 0.0647563 68.4681 0.180023C68.3071 0.29529 68.2167 0.451626 68.2167 0.614638V3.38421H64.3761C64.263 3.38371 64.1508 3.39934 64.0461 3.43017C63.9415 3.461 63.8464 3.50642 63.7665 3.56379C63.6866 3.62116 63.6235 3.68933 63.5807 3.76434C63.538 3.83934 63.5165 3.91969 63.5175 4.0007V6.71288C63.5175 7.05352 63.9003 7.32937 64.3761 7.32937H65.0175L64.7072 11.6855H62.6744C62.5215 11.6858 62.3715 11.7153 62.2398 11.7708C62.108 11.8263 61.9993 11.906 61.9248 12.0015C61.8503 12.0971 61.8127 12.2051 61.8158 12.3146C61.8189 12.424 61.8626 12.5308 61.9425 12.6241L64.4408 15.5455L63.833 24.1727H61.0477C60.8943 24.172 60.7434 24.2009 60.6108 24.2561C60.4782 24.3114 60.3687 24.3911 60.2937 24.4869C60.2188 24.5827 60.181 24.6912 60.1844 24.801C60.1879 24.9108 60.2323 25.0179 60.3132 25.1113L63.5046 28.8398L62.496 43.1339H58.5779C58.424 43.133 58.2727 43.1618 58.1397 43.2172C58.0068 43.2725 57.897 43.3524 57.8219 43.4485C57.7469 43.5447 57.7093 43.6534 57.713 43.7635C57.7168 43.8736 57.7618 43.981 57.8434 44.0743L62.0796 49.0247L60.9339 65.2478H55.7977C55.6441 65.2473 55.4931 65.2764 55.3605 65.3319C55.2279 65.3873 55.1185 65.4673 55.0437 65.5633C54.969 65.6594 54.9316 65.7681 54.9355 65.878C54.9394 65.9879 54.9844 66.0951 55.0658 66.1883L60.4218 72.4513L57.6546 111.74M71.4468 111.74L78.4735 107.543L78.5925 109.233L74.3977 111.74H71.4468ZM65.8089 111.74L78.2434 104.316L78.3649 106.005L68.7598 111.74H65.8089ZM60.1761 111.74L78.021 101.087L78.1399 102.778L63.127 111.738L60.1761 111.74ZM61.3218 84.1424L76.1977 75.2616L76.3192 76.9519L61.1977 85.9789L61.327 84.1424H61.3218ZM61.0761 87.6525L76.4279 78.4885L76.5468 80.1787L60.952 89.4908L61.0813 87.6525H61.0761ZM60.8304 91.1644L76.658 81.7172L76.777 83.4074L60.7037 93.0009L60.833 91.1644H60.8304ZM60.5822 94.6745L76.8856 84.9459L77.0072 86.6361L60.4554 96.5129L60.5899 94.6764L60.5822 94.6745ZM60.3365 98.1865L77.1158 88.1746L77.2348 89.8648L60.2098 100.029L60.3417 98.1902L60.3365 98.1865ZM60.0908 101.698L77.3434 91.4014L77.4649 93.0917L59.9641 103.54L60.096 101.702L60.0908 101.698ZM59.8451 105.209L77.5735 94.6301L77.6951 96.3204L59.7184 107.051L59.8477 105.214L59.8451 105.209ZM59.5968 108.72L77.8037 97.8532L77.9227 99.5435L59.4727 110.559L59.602 108.72H59.5968ZM76.0451 72.903L76.0994 73.7176L61.4537 82.4632L61.5856 80.6267L74.5244 72.903H76.0503H76.0451ZM61.6994 78.9531L61.8339 77.1111L68.8865 72.903H71.8373L61.6994 78.9531ZM61.9477 75.4412L62.077 73.6047L63.2485 72.9067H66.1968L61.9477 75.4449V75.4412ZM64.8003 65.2478L75.0675 59.12L75.1891 60.8102L67.7511 65.2478H64.8003ZM63.7813 49.4468H66.0442L63.683 50.8594L63.7813 49.4468ZM63.3158 56.0431L74.3641 49.4468H74.3873L74.5089 51.1204L63.1839 57.8815L63.3158 56.0431ZM63.0701 59.555L74.6175 52.6589L74.7365 54.3491L62.9382 61.3915L63.0701 59.555ZM63.4373 54.3714L63.5667 52.5274L68.7313 49.4468H71.6822L63.4373 54.3714ZM62.8244 63.0651L74.8451 55.8876L74.9667 57.5778L62.6925 64.9035L62.8244 63.0651ZM75.3054 62.3431L75.4244 64.0334L73.3968 65.2441H70.446L75.3054 62.3431ZM68.0382 43.1302L73.7123 39.7459L73.8313 41.4362L70.9891 43.1302H68.0382ZM64.8054 34.9677L73.0296 30.0617L73.1485 31.752L64.6813 36.806L64.8106 34.9677H64.8054ZM64.927 33.2941L65.0563 31.452L68.6848 29.286H71.6382L64.927 33.2904V33.2941ZM65.1727 29.7821L65.2089 29.2916H65.9977L65.1727 29.7821ZM64.5598 38.4796L73.2598 33.2904L73.3787 34.9806L64.433 40.3198L64.5649 38.4833L64.5598 38.4796ZM73.9399 42.9746L73.9529 43.1302H73.6761L73.9399 42.9746ZM65.9873 24.1764L72.3494 20.3775L72.4684 22.0677L68.9382 24.1745L65.9873 24.1764ZM65.7985 20.9217L72.1192 17.1488L72.2382 18.839L65.6718 22.7601L65.8011 20.9236L65.7985 20.9217ZM65.9175 19.2482L66.0494 17.4116L68.3718 16.0232H71.3201L65.9175 19.2537V19.2482ZM72.577 23.6043L72.6158 24.1745H71.6253L72.577 23.6043ZM71.7339 11.6929H69.9856L71.6667 10.6932L71.7339 11.6929ZM72.9313 4.62089V6.10565H69.9546V4.62089H72.9313ZM65.2529 4.62089H68.2322V6.10565H65.2529V4.62089ZM68.9615 7.33677L66.6598 8.71045L66.7554 7.33677H68.9615ZM66.5434 10.384L71.4365 7.46451L71.5554 9.15477L67.3037 11.6929H66.4503L66.5434 10.384ZM73.958 12.924L72.3598 14.7902H65.827L64.2287 12.924H73.958ZM75.5873 25.4056L73.3115 28.0604H64.8701L62.5942 25.4056H75.5873ZM64.3115 41.9934L73.4822 36.5191L73.6011 38.2075L65.3563 43.132H64.2339L64.3115 41.9897V41.9934ZM74.8451 44.365H78.0546L74.7598 48.2157H63.4192L60.1244 44.365H74.8451ZM80.8296 66.479L76.3813 71.6756H61.7925L57.3442 66.479H80.8296ZM77.0977 111.738L78.7192 110.77L78.7891 111.738H77.0977ZM127.529 52.6441C127.661 52.6446 127.792 52.6232 127.91 52.5816C128.029 52.5399 128.133 52.4791 128.213 52.404C128.294 52.3288 128.349 52.2413 128.374 52.1484C128.399 52.0555 128.394 51.9596 128.359 51.8684C127.278 49.0347 126.731 46.1102 126.732 43.1727C126.732 43.0097 126.642 42.8534 126.481 42.7381C126.32 42.6229 126.101 42.5581 125.874 42.5581C125.646 42.5581 125.427 42.6229 125.266 42.7381C125.105 42.8534 125.015 43.0097 125.015 43.1727C125.015 46.233 125.581 49.2691 126.699 52.1942C126.802 52.4682 127.151 52.6441 127.529 52.6441ZM127.725 54.5361C127.955 55.0014 128.2 55.4692 128.462 55.9394C128.55 56.0894 128.715 56.2088 128.924 56.2722C129.133 56.3355 129.368 56.3377 129.58 56.2782C129.685 56.2485 129.78 56.2041 129.861 56.1477C129.942 56.0912 130.007 56.0239 130.051 55.9495C130.095 55.8751 130.118 55.7951 130.119 55.7143C130.12 55.6334 130.098 55.5533 130.055 55.4784C129.805 55.0286 129.564 54.5713 129.342 54.1288C129.265 53.975 129.107 53.8491 128.902 53.7783C128.697 53.7076 128.461 53.6978 128.245 53.7512C128.03 53.8057 127.854 53.9188 127.755 54.0658C127.657 54.2129 127.643 54.3819 127.718 54.5361H127.725ZM41.2891 78.8106C41.4371 78.8107 41.5838 78.79 41.7207 78.7495C41.8575 78.7091 41.9819 78.6497 42.0868 78.5748C42.1916 78.5 42.2748 78.4111 42.3316 78.3132C42.3884 78.2153 42.4178 78.1103 42.4179 78.0043C42.4181 77.8983 42.3891 77.7934 42.3326 77.6954C42.2761 77.5974 42.1932 77.5084 42.0886 77.4333C41.984 77.3583 41.8598 77.2987 41.7231 77.258C41.5863 77.2174 41.4397 77.1964 41.2916 77.1962C40.9926 77.1962 40.7058 77.2813 40.4943 77.4327C40.2829 77.584 40.1641 77.7893 40.1641 78.0034C40.1641 78.2175 40.2829 78.4228 40.4943 78.5742C40.7058 78.7255 40.9926 78.8106 41.2916 78.8106M149.139 17.0155H142.808C142.58 17.0155 142.361 16.9506 142.2 16.8352C142.039 16.7197 141.948 16.5632 141.948 16.3999C141.948 16.2366 142.039 16.0801 142.2 15.9646C142.361 15.8492 142.58 15.7843 142.808 15.7843H149.136C149.365 15.7843 149.583 15.8492 149.745 15.9646C149.906 16.0801 149.996 16.2366 149.996 16.3999C149.996 16.5632 149.906 16.7197 149.745 16.8352C149.583 16.9506 149.367 17.0155 149.139 17.0155ZM141.955 19.0834C141.955 18.7427 142.337 18.4669 142.811 18.4669H145.976C146.204 18.4669 146.423 18.5317 146.584 18.6472C146.745 18.7626 146.836 18.9192 146.836 19.0825C146.836 19.2457 146.745 19.4023 146.584 19.5177C146.423 19.6332 146.204 19.698 145.976 19.698H142.808C142.695 19.6985 142.583 19.6829 142.479 19.6522C142.374 19.6215 142.279 19.5763 142.199 19.5191C142.12 19.4619 142.056 19.394 142.013 19.3192C141.97 19.2444 141.949 19.1642 141.949 19.0834M137.93 12.0928H136.743C136.515 12.0928 136.297 12.028 136.135 11.9125C135.974 11.7971 135.883 11.6405 135.883 11.4772C135.883 11.314 135.974 11.1574 136.135 11.042C136.297 10.9265 136.515 10.8617 136.743 10.8617H137.93C138.159 10.8617 138.377 10.9265 138.539 11.042C138.7 11.1574 138.79 11.314 138.79 11.4772C138.79 11.6405 138.7 11.7971 138.539 11.9125C138.377 12.028 138.159 12.0928 137.93 12.0928Z" fill="#FFA500"/>
<path d="M142.897 13.846C142.898 13.765 142.876 13.6847 142.833 13.6098C142.79 13.5349 142.726 13.4668 142.646 13.4096C142.566 13.3524 142.471 13.3072 142.366 13.2766C142.261 13.246 142.149 13.2306 142.036 13.2314H137.44C136.9 13.1459 136.343 13.1308 135.795 13.1869C135.5 12.1787 134.729 11.2739 133.611 10.6251C132.493 9.97636 131.097 9.62315 129.658 9.62501C128.213 9.62258 126.81 9.97843 125.69 10.6321C124.569 11.2858 123.799 12.197 123.511 13.211C121.287 13.498 119.631 14.8772 119.631 16.5452C119.631 18.4151 121.757 19.9424 124.377 19.9424H136.426C139.038 19.9424 141.172 18.4206 141.172 16.5452C141.172 15.7584 140.792 15.0364 140.163 14.4625H142.031C142.144 14.463 142.256 14.4474 142.361 14.4165C142.465 14.3857 142.56 14.3403 142.64 14.2829C142.72 14.2256 142.783 14.1574 142.826 14.0824C142.869 14.0074 142.89 13.927 142.889 13.846H142.897ZM136.431 14.3829C138.1 14.3829 139.457 15.3567 139.457 16.5489C139.457 17.743 138.1 18.715 136.431 18.715H124.38C122.714 18.715 121.354 17.743 121.354 16.5489C121.354 15.3548 122.647 14.4199 124.294 14.3885C124.505 14.384 124.707 14.3243 124.86 14.2205C125.014 14.1167 125.109 13.9762 125.127 13.8257C125.222 13.0125 125.742 12.2549 126.584 11.7044C127.425 11.1539 128.526 10.851 129.666 10.8561C132.043 10.8561 134.106 12.2261 134.215 13.9738C134.225 14.17 134.37 14.3514 134.598 14.4625C134.828 14.5736 135.115 14.5921 135.374 14.5236C135.717 14.4298 136.07 14.3835 136.434 14.3847M31.2427 35.2435C31.3558 35.244 31.468 35.2284 31.5727 35.1976C31.6773 35.1668 31.7724 35.1213 31.8523 35.064C31.9322 35.0066 31.9953 34.9384 32.0381 34.8634C32.0808 34.7884 32.1023 34.7081 32.1013 34.6271V34.0457H32.9159C33.144 34.0457 33.3627 33.9809 33.524 33.8655C33.6853 33.75 33.7759 33.5934 33.7759 33.4302C33.7759 33.2669 33.6853 33.1104 33.524 32.9949C33.3627 32.8795 33.144 32.8146 32.9159 32.8146H32.1013V32.2315C32.1013 32.0684 32.0108 31.9121 31.8498 31.7968C31.6888 31.6816 31.4704 31.6168 31.2427 31.6168C31.015 31.6168 30.7966 31.6816 30.6355 31.7968C30.4745 31.9121 30.3841 32.0684 30.3841 32.2315V32.8146H29.5694C29.3413 32.8146 29.1226 32.8795 28.9613 32.9949C28.8001 33.1104 28.7095 33.2669 28.7095 33.4302C28.7095 33.5934 28.8001 33.75 28.9613 33.8655C29.1226 33.9809 29.3413 34.0457 29.5694 34.0457H30.3841V34.6271C30.3841 34.9677 30.7668 35.2435 31.2427 35.2435ZM0.859914 65.8514H1.67457V66.4345C1.67457 66.5978 1.76517 66.7544 1.92643 66.8698C2.0877 66.9853 2.30642 67.0501 2.53448 67.0501C2.76255 67.0501 2.98127 66.9853 3.14253 66.8698C3.3038 66.7544 3.3944 66.5978 3.3944 66.4345V65.8514H4.20647C4.43453 65.8514 4.65325 65.7865 4.81452 65.6711C4.97578 65.5556 5.06638 65.3991 5.06638 65.2358C5.06638 65.0726 4.97578 64.916 4.81452 64.8005C4.65325 64.6851 4.43453 64.6203 4.20647 64.6203H3.3944V64.0389C3.3944 63.8757 3.3038 63.7191 3.14253 63.6037C2.98127 63.4882 2.76255 63.4234 2.53448 63.4234C2.30642 63.4234 2.0877 63.4882 1.92643 63.6037C1.76517 63.7191 1.67457 63.8757 1.67457 64.0389V64.6203H0.859914C0.63185 64.6203 0.413128 64.6851 0.251863 64.8005C0.0905978 64.916 0 65.0726 0 65.2358C0 65.3991 0.0905978 65.5556 0.251863 65.6711C0.413128 65.7865 0.63185 65.8514 0.859914 65.8514ZM102.865 29.8969H103.036V30.021C103.036 30.1842 103.126 30.3408 103.288 30.4562C103.449 30.5717 103.668 30.6365 103.896 30.6365C104.124 30.6365 104.342 30.5717 104.504 30.4562C104.665 30.3408 104.756 30.1842 104.756 30.021V29.8969H104.926C105.154 29.8969 105.372 29.8322 105.533 29.7169C105.694 29.6017 105.785 29.4453 105.785 29.2823C105.785 29.1193 105.694 28.963 105.533 28.8477C105.372 28.7324 105.154 28.6677 104.926 28.6677H104.756V28.5436C104.756 28.3804 104.665 28.2238 104.504 28.1084C104.342 27.9929 104.124 27.9281 103.896 27.9281C103.668 27.9281 103.449 27.9929 103.288 28.1084C103.126 28.2238 103.036 28.3804 103.036 28.5436V28.6677H102.865C102.637 28.6677 102.419 28.7324 102.258 28.8477C102.097 28.963 102.006 29.1193 102.006 29.2823C102.006 29.4453 102.097 29.6017 102.258 29.7169C102.419 29.8322 102.637 29.8969 102.865 29.8969ZM101.691 103.602C101.839 103.233 101.913 102.854 101.913 102.465C101.911 101.37 101.303 100.32 100.221 99.546C99.1395 98.7717 97.6732 98.3361 96.1435 98.3346C95.3613 98.3356 94.5876 98.4504 93.8692 98.6719C93.1507 98.8933 92.5026 99.2169 91.9641 99.623C91.4256 100.029 91.0079 100.509 90.7363 101.034C90.4647 101.559 90.3448 102.119 90.3841 102.678C89.5876 103.149 89.014 103.785 88.7416 104.499C88.4693 105.213 88.5114 105.969 88.8623 106.665C89.2133 107.361 89.8558 107.962 90.7022 108.387C91.5486 108.811 92.5574 109.038 93.5909 109.037H95.4608V111.727C95.4608 111.89 95.5514 112.047 95.7126 112.162C95.8739 112.278 96.0926 112.343 96.3207 112.343C96.5488 112.343 96.7675 112.278 96.9287 112.162C97.09 112.047 97.1806 111.89 97.1806 111.727V109.037H100.103C102.286 109.037 104.068 107.765 104.068 106.197C104.064 105.646 103.837 105.108 103.415 104.647C102.993 104.187 102.395 103.823 101.691 103.602ZM100.106 107.806H93.5961C92.8887 107.804 92.2006 107.64 91.6332 107.338C91.0658 107.036 90.6491 106.611 90.4443 106.126C90.2395 105.641 90.2576 105.122 90.4959 104.646C90.7341 104.169 91.1799 103.759 91.7677 103.478C91.9026 103.413 92.0093 103.323 92.0752 103.217C92.1412 103.111 92.1637 102.994 92.1401 102.88C92.0587 102.469 92.1014 102.05 92.2653 101.652C92.4292 101.254 92.7105 100.885 93.0902 100.572C93.4699 100.258 93.9391 100.006 94.4663 99.8331C94.9935 99.6603 95.5663 99.5703 96.1461 99.5694C96.8319 99.5708 97.506 99.6967 98.1054 99.9353C98.7048 100.174 99.2099 100.517 99.5734 100.934C99.9369 101.35 100.147 101.825 100.184 102.316C100.221 102.806 100.084 103.295 99.7849 103.737C99.7268 103.824 99.6974 103.92 99.6992 104.016C99.701 104.113 99.7339 104.208 99.7953 104.294C99.8583 104.38 99.9488 104.453 100.059 104.509C100.17 104.565 100.298 104.601 100.431 104.614C101.525 104.729 102.353 105.41 102.353 106.203C102.352 106.629 102.114 107.037 101.693 107.339C101.272 107.64 100.701 107.809 100.106 107.81V107.806ZM43.9125 94.7745C43.1783 94.7748 42.4548 94.9008 41.8024 95.142C41.1501 95.3833 40.5878 95.7327 40.1625 96.1611C39.5965 95.5921 38.7926 95.1666 37.8667 94.9459C36.9408 94.7252 35.941 94.7209 35.0115 94.9335C34.0819 95.1461 33.2708 95.5646 32.6952 96.1287C32.1196 96.6928 31.8093 97.3732 31.8091 98.0717C31.8091 98.4124 32.1944 98.6863 32.6703 98.6863H39.3039V111.664C39.3039 111.827 39.3945 111.984 39.5557 112.099C39.717 112.215 39.9357 112.28 40.1638 112.28C40.3919 112.28 40.6106 112.215 40.7718 112.099C40.9331 111.984 41.0237 111.827 41.0237 111.664V98.6863H47.6599C47.7729 98.6868 47.8848 98.6713 47.9893 98.6406C48.0938 98.6099 48.1887 98.5646 48.2686 98.5074C48.3484 98.4502 48.4117 98.3823 48.4546 98.3075C48.4975 98.2327 48.5192 98.1526 48.5185 98.0717C48.5185 96.2537 46.4496 94.7745 43.9125 94.7745ZM33.6608 97.4571C33.8449 97.0365 34.2114 96.669 34.7072 96.4076C35.2029 96.1463 35.802 96.0049 36.4177 96.0038C37.7056 96.0038 38.8073 96.6147 39.172 97.4571H33.6556H33.6608ZM41.1556 97.4571C41.3401 97.0374 41.7068 96.6707 42.2023 96.4104C42.6979 96.1502 43.2966 96.0098 43.9112 96.0098C44.5259 96.0098 45.1245 96.1502 45.6201 96.4104C46.1156 96.6707 46.4823 97.0374 46.6668 97.4571H41.1556Z" fill="#FFA500"/>
<path d="M33.6634 97.4591C33.8475 97.0386 34.214 96.671 34.7098 96.4097C35.2055 96.1484 35.8046 96.0069 36.4203 96.0059C37.7082 96.0059 38.8099 96.6168 39.1746 97.4591H33.6582H33.6634ZM41.1582 97.4591C41.3427 97.0394 41.7094 96.6728 42.2049 96.4125C42.7005 96.1522 43.2992 96.0119 43.9138 96.0119C44.5285 96.0119 45.1271 96.1522 45.6227 96.4125C46.1182 96.6728 46.4849 97.0394 46.6694 97.4591H41.1582ZM100.111 107.804H93.6013C92.8939 107.803 92.2058 107.639 91.6384 107.336C91.071 107.034 90.6542 106.609 90.4495 106.124C90.2447 105.64 90.2628 105.121 90.501 104.644C90.7393 104.167 91.1851 103.758 91.7729 103.476C91.9082 103.412 92.0152 103.321 92.0812 103.215C92.1471 103.109 92.1694 102.991 92.1453 102.876C92.0639 102.465 92.1066 102.046 92.2705 101.648C92.4344 101.25 92.7157 100.882 93.0954 100.568C93.475 100.254 93.9443 100.003 94.4715 99.8297C94.9986 99.6568 95.5715 99.5669 96.1513 99.5659C98.3858 99.5659 100.201 100.867 100.201 102.467C100.201 102.906 100.064 103.333 99.7875 103.735C99.7298 103.822 99.7009 103.918 99.7031 104.015C99.7054 104.111 99.7387 104.206 99.8004 104.292C99.8635 104.378 99.954 104.452 100.065 104.507C100.175 104.563 100.303 104.599 100.437 104.613C101.531 104.727 102.358 105.409 102.358 106.199C102.358 106.626 102.121 107.035 101.699 107.336C101.278 107.638 100.707 107.808 100.111 107.808V107.804Z" fill="#FFA500"/>
<path d="M40.3463 111.729H14.9316V112.96H40.3463V111.729Z" fill="url(#paint0_linear_889_2)"/>
<path d="M97.0354 111.729H40.3535V112.96H97.0354V111.729Z" fill="#FFA500"/>
<path d="M122.454 111.729H97.0312V112.96H122.454V111.729Z" fill="url(#paint1_linear_889_2)"/>
</g>
<defs>
<linearGradient id="paint0_linear_889_2" x1="14.9291" y1="112.343" x2="40.3541" y2="112.343" gradientUnits="userSpaceOnUse">
<stop stop-color="white"/>
<stop offset="1" stop-color="#FFA500"/>
</linearGradient>
<linearGradient id="paint1_linear_889_2" x1="97.0312" y1="112.343" x2="122.456" y2="112.343" gradientUnits="userSpaceOnUse">
<stop stop-color="#FFA500"/>
<stop offset="1" stop-color="white"/>
</linearGradient>
</defs>
</svg>
