<svg width="158" height="113" viewBox="0 0 158 113" fill="none" xmlns="http://www.w3.org/2000/svg">
<mask id="mask0_889_1527" style="mask-type:luminance" maskUnits="userSpaceOnUse" x="0" y="0" width="158" height="113">
<path d="M0.00144271 0H157.198V112.96H0L0.00144271 0Z" fill="white"/>
</mask>
<g mask="url(#mask0_889_1527)">
<path d="M115.563 27.5846C115.623 27.6594 115.699 27.7003 115.778 27.7003C115.856 27.7003 115.932 27.6594 115.993 27.5846L117.953 25.1299L119.91 27.5846C119.97 27.6594 120.046 27.7003 120.125 27.7003C120.203 27.7003 120.279 27.6594 120.34 27.5846L122.299 25.1299L124.26 27.5846C124.329 27.6704 124.418 27.7114 124.507 27.6988C124.596 27.6862 124.678 27.6209 124.736 27.5172C124.792 27.4113 124.819 27.2765 124.81 27.1415C124.801 27.0064 124.758 26.8817 124.689 26.7939L122.514 24.072C122.453 23.9971 122.377 23.9562 122.299 23.9562C122.221 23.9562 122.145 23.9971 122.084 24.072L120.125 26.5267L118.168 24.072C118.108 23.9971 118.032 23.9562 117.953 23.9562C117.875 23.9562 117.799 23.9971 117.738 24.072L115.778 26.5267L113.822 24.072C113.752 23.9866 113.664 23.9459 113.575 23.9589C113.486 23.972 113.404 24.0376 113.347 24.1415C113.291 24.2473 113.265 24.3816 113.273 24.5161C113.282 24.6507 113.325 24.7749 113.393 24.8627L115.563 27.5846ZM38.1226 9.5414H40.5868C40.0489 10.4754 39.7094 11.6309 39.6121 12.8585C39.5149 14.0861 39.6645 15.3293 40.0414 16.4276H38.1226C38.048 16.4279 37.9742 16.4503 37.9054 16.4936C37.8366 16.5369 37.7741 16.6003 37.7216 16.68C37.6691 16.7597 37.6275 16.8542 37.5993 16.9581C37.571 17.0621 37.5567 17.1734 37.5571 17.2857C37.5571 17.7614 37.8095 18.1437 38.1226 18.1437H40.203C40.3949 18.1437 40.5637 17.996 40.6661 17.7788C41.0524 18.4191 41.5232 18.9308 42.0483 19.2813C42.5735 19.6318 43.1415 19.8133 43.716 19.8142H51.5254C52.5121 19.8125 53.4581 19.2219 54.1561 18.1717C54.8541 17.1216 55.2471 15.6976 55.249 14.2119C55.2475 12.7262 54.8548 11.3019 54.1571 10.2514C53.4594 9.20083 52.5135 8.60961 51.5268 8.60731C51.1431 8.61021 50.7694 8.6971 50.4058 8.86799C50.2336 7.60019 49.7764 6.46053 49.1113 5.64106C48.4462 4.82158 47.6138 4.37237 46.7543 4.36914C45.3434 4.36914 44.0853 5.54219 43.4476 7.39299C43.0004 7.43861 42.5734 7.59502 42.1737 7.83397H38.1197C38.045 7.83397 37.9711 7.85619 37.9021 7.89937C37.8331 7.94254 37.7705 8.00582 37.7178 8.08555C37.6651 8.16529 37.6234 8.25992 37.5951 8.36399C37.5667 8.46807 37.5524 8.57956 37.5527 8.69203C37.5527 9.16777 37.8052 9.55009 38.1183 9.55009L38.1226 9.5414ZM43.7347 9.08957H43.7953C43.9116 9.09323 44.0258 9.04397 44.1231 8.94823C44.2204 8.85249 44.2962 8.71473 44.3407 8.553C44.5645 7.70779 44.9771 7.00656 45.5073 6.57012C46.0376 6.13368 46.6523 5.98936 47.2457 6.16202C47.839 6.33467 48.3738 6.8135 48.7578 7.516C49.1419 8.21851 49.3512 9.10071 49.3498 10.0106V10.0975C49.3443 10.2507 49.3667 10.4033 49.4145 10.5388C49.4623 10.6743 49.5337 10.7877 49.6211 10.8667C49.7084 10.9458 49.8084 10.9875 49.9103 10.9875C50.0122 10.9874 50.1122 10.9456 50.1995 10.8665C50.5922 10.5142 51.0397 10.3244 51.4967 10.3164C51.9538 10.3084 52.4041 10.4825 52.8021 10.821C53.2001 11.1595 53.5315 11.6505 53.7628 12.2441C53.9942 12.8376 54.1172 13.5128 54.1194 14.201C54.1194 16.3472 52.9551 18.0894 51.5268 18.0894H43.7174C42.0626 18.0894 40.7166 16.0714 40.7166 13.5841C40.7181 12.9892 40.7976 12.4007 40.9505 11.8522C41.1035 11.3038 41.3268 10.8062 41.6078 10.388C41.8887 9.96979 42.2217 9.63925 42.5877 9.41532C42.9537 9.19138 43.3455 9.07847 43.7405 9.08305L43.7347 9.08957Z" fill="#3C3C3C"/>
<path d="M34.2889 12.9443H38.4511C38.5257 12.944 38.5995 12.9216 38.6683 12.8783C38.7371 12.835 38.7996 12.7717 38.8521 12.692C38.9047 12.6123 38.9462 12.5177 38.9745 12.4138C39.0027 12.3099 39.0171 12.1986 39.0167 12.0863C39.0171 11.974 39.0027 11.8627 38.9745 11.7587C38.9462 11.6548 38.9047 11.5603 38.8521 11.4806C38.7996 11.4009 38.7371 11.3375 38.6683 11.2942C38.5995 11.2509 38.5257 11.2285 38.4511 11.2282H34.2904C34.2158 11.2285 34.142 11.2509 34.0732 11.2942C34.0043 11.3375 33.9419 11.4009 33.8894 11.4806C33.8368 11.5603 33.7952 11.6548 33.767 11.7587C33.7388 11.8627 33.7244 11.974 33.7248 12.0863C33.7248 12.5598 33.9759 12.9443 34.2889 12.9443ZM36.5799 17.2846C36.5803 17.1723 36.566 17.061 36.5378 16.9571C36.5095 16.8531 36.4679 16.7586 36.4154 16.6789C36.3629 16.5992 36.3004 16.5359 36.2316 16.4926C36.1628 16.4493 36.089 16.4268 36.0144 16.4265H35.5773C35.5026 16.4265 35.4286 16.4488 35.3596 16.4919C35.2906 16.5351 35.228 16.5984 35.1753 16.6781C35.1226 16.7579 35.0809 16.8525 35.0526 16.9566C35.0243 17.0606 35.0099 17.1721 35.0103 17.2846C35.0103 17.7603 35.2642 18.1427 35.5773 18.1427H36.0144C36.089 18.1424 36.1628 18.1199 36.2316 18.0766C36.3004 18.0333 36.3629 17.97 36.4154 17.8903C36.4679 17.8106 36.5095 17.7161 36.5378 17.6121C36.566 17.5082 36.5803 17.3969 36.5799 17.2846ZM42.068 6.0755H42.5051C42.5797 6.07521 42.6535 6.05278 42.7223 6.00948C42.7912 5.96617 42.8536 5.90285 42.9062 5.82315C42.9587 5.74344 43.0003 5.64891 43.0285 5.54497C43.0567 5.44103 43.0711 5.32973 43.0707 5.21744C43.0711 5.10514 43.0567 4.99384 43.0285 4.8899C43.0003 4.78596 42.9587 4.69143 42.9062 4.61173C42.8536 4.53202 42.7912 4.4687 42.7223 4.4254C42.6535 4.3821 42.5797 4.35966 42.5051 4.35938H42.068C41.9934 4.35966 41.9196 4.3821 41.8508 4.4254C41.782 4.4687 41.7195 4.53202 41.667 4.61173C41.6145 4.69143 41.5729 4.78596 41.5447 4.8899C41.5164 4.99384 41.5021 5.10514 41.5025 5.21744C41.5025 5.691 41.7549 6.0755 42.068 6.0755ZM26.6339 45.3747H27.1692V46.1872C27.1636 46.3041 27.1741 46.4215 27.2 46.5321C27.2259 46.6426 27.2667 46.744 27.3197 46.8298C27.3728 46.9156 27.437 46.984 27.5084 47.0308C27.5798 47.0776 27.6568 47.1017 27.7347 47.1017C27.8126 47.1017 27.8896 47.0776 27.961 47.0308C28.0324 46.984 28.0966 46.9156 28.1497 46.8298C28.2027 46.744 28.2435 46.6426 28.2694 46.5321C28.2953 46.4215 28.3058 46.3041 28.3002 46.1872V45.3747H28.8355C28.9101 45.3744 28.9839 45.352 29.0527 45.3087C29.1215 45.2654 29.184 45.2021 29.2365 45.1224C29.289 45.0427 29.3306 44.9481 29.3588 44.8442C29.3871 44.7402 29.4014 44.6289 29.401 44.5167C29.4014 44.4044 29.3871 44.293 29.3588 44.1891C29.3306 44.0852 29.289 43.9907 29.2365 43.9109C29.184 43.8312 29.1215 43.7679 29.0527 43.7246C28.9839 43.6813 28.9101 43.6589 28.8355 43.6586H28.3017V42.8461C28.3056 42.7306 28.2938 42.615 28.2671 42.5065C28.2404 42.3979 28.1993 42.2987 28.1463 42.2148C28.0934 42.131 28.0296 42.0642 27.959 42.0185C27.8883 41.9729 27.8123 41.9494 27.7354 41.9494C27.6586 41.9494 27.5825 41.9729 27.5119 42.0185C27.4412 42.0642 27.3775 42.131 27.3245 42.2148C27.2715 42.2987 27.2305 42.3979 27.2038 42.5065C27.177 42.615 27.1653 42.7306 27.1692 42.8461V43.6586H26.6339C26.5593 43.6589 26.4855 43.6813 26.4167 43.7246C26.3479 43.7679 26.2854 43.8312 26.2329 43.9109C26.1804 43.9907 26.1388 44.0852 26.1106 44.1891C26.0823 44.293 26.068 44.4044 26.0684 44.5167C26.0684 44.9924 26.3208 45.3747 26.6339 45.3747ZM122.046 50.4318H122.581V51.2443C122.576 51.3612 122.586 51.4786 122.612 51.5892C122.638 51.6998 122.679 51.8011 122.732 51.8869C122.785 51.9727 122.849 52.0411 122.92 52.0879C122.992 52.1347 123.069 52.1589 123.147 52.1589C123.225 52.1589 123.302 52.1347 123.373 52.0879C123.444 52.0411 123.509 51.9727 123.562 51.8869C123.615 51.8011 123.656 51.6998 123.681 51.5892C123.707 51.4786 123.718 51.3612 123.712 51.2443V50.4318H124.249C124.324 50.4316 124.397 50.4091 124.466 50.3658C124.535 50.3225 124.597 50.2592 124.65 50.1795C124.703 50.0998 124.744 50.0053 124.772 49.9013C124.801 49.7974 124.815 49.6861 124.815 49.5738C124.815 49.4615 124.801 49.3502 124.772 49.2462C124.744 49.1423 124.703 49.0478 124.65 48.9681C124.597 48.8884 124.535 48.825 124.466 48.7817C124.397 48.7384 124.324 48.716 124.249 48.7157H123.712V47.9033C123.718 47.7863 123.707 47.6689 123.681 47.5584C123.656 47.4478 123.615 47.3465 123.562 47.2607C123.509 47.1749 123.444 47.1064 123.373 47.0596C123.302 47.0128 123.225 46.9887 123.147 46.9887C123.069 46.9887 122.992 47.0128 122.92 47.0596C122.849 47.1064 122.785 47.1749 122.732 47.2607C122.679 47.3465 122.638 47.4478 122.612 47.5584C122.586 47.6689 122.576 47.7863 122.581 47.9033V48.7157H122.047C121.973 48.7157 121.899 48.7379 121.83 48.7811C121.761 48.8243 121.698 48.8876 121.645 48.9673C121.593 49.047 121.551 49.1417 121.523 49.2457C121.494 49.3498 121.48 49.4613 121.48 49.5738C121.48 50.0473 121.733 50.4318 122.046 50.4318Z" fill="#3C3C3C"/>
<path d="M37.1632 111.248H0.00195312V112.964H37.1632V111.248Z" fill="url(#paint0_linear_889_1527)"/>
<path d="M120.032 111.248H37.166V112.964H120.032V111.248Z" fill="#3C3C3C"/>
<path d="M157.193 111.248H120.031V112.964H157.193V111.248Z" fill="url(#paint1_linear_889_1527)"/>
</g>
<mask id="mask1_889_1527" style="mask-type:luminance" maskUnits="userSpaceOnUse" x="18" y="23" width="121" height="87">
<path d="M18.5039 23.8984H138.7V109.865H18.5039V23.8984Z" fill="white"/>
</mask>
<g mask="url(#mask1_889_1527)">
<path d="M78.2465 27.6087C78.2998 30.9106 78.3359 31.3451 78.623 31.4255C78.8928 31.508 78.9289 31.1822 78.9289 27.7174C78.9289 24.0614 78.9116 23.8984 78.5696 23.8984C78.209 23.8984 78.209 24.0331 78.2465 27.6087ZM77.9219 33.8715C77.238 34.2777 76.7706 35.4681 76.7706 36.7411V37.9337H80.5476V36.9866C80.5476 34.6296 79.2174 33.0591 77.9219 33.8715ZM74.7941 42.1045C73.1927 47.4115 71.359 60.491 70.0822 75.8991L69.6681 80.7173H64.9029V84.6448L63.6434 85.8353C62.9595 86.4587 62.3839 87.1626 62.3839 87.3776C62.3839 87.6774 62.0968 87.7578 61.2153 87.7578C60.5675 87.7578 60.0467 87.6491 60.0467 87.5145C60.0467 87.0539 59.3095 79.1207 58.9502 75.708C58.0861 67.6118 56.7919 59.9218 55.9105 57.756L55.5498 56.8871H50.6763L50.1194 58.7032C49.4904 60.8146 48.5728 66.0412 47.9265 71.2395C47.4216 75.2475 46.3785 85.8374 46.3785 86.9996V87.7599H42.6015V90.8989L41.6132 91.7939C40.7317 92.6064 40.6235 92.7953 40.6235 93.6078C40.6235 94.4745 40.5874 94.5289 39.9945 94.5289C39.2933 94.5289 39.4189 95.1523 38.8259 88.7071C38.1954 81.9642 37.3327 76.3857 36.5406 73.7312L36.2535 72.8384L34.3477 72.9187L32.4405 73.0013L32.0091 74.6262C31.2185 77.6305 30.3197 84.2929 29.6358 92.0111L29.4194 94.5289H26.7764V95.6932C26.7764 96.775 26.7216 96.9379 26.1474 97.3985C25.5357 97.8851 25.5169 97.9415 25.5169 99.5643C25.5169 101.135 25.553 101.298 26.1474 102.084L26.7764 102.897V110.235H22.6402C19.9957 110.235 18.5039 110.343 18.5039 110.504C18.5039 110.667 20.0505 110.776 22.783 110.776C27.8555 110.804 129.339 110.776 135.274 110.776C137.864 110.776 139.357 110.667 139.357 110.504C139.357 110.343 137.864 110.235 135.22 110.235H131.083V102.894L131.712 102.082C132.305 101.296 132.341 101.133 132.341 99.5621C132.341 97.8829 132.323 97.8568 131.712 97.342C131.136 96.8815 131.083 96.7207 131.083 95.691V94.5267H128.421L128.294 92.6846C127.881 86.5369 126.442 76.1663 125.704 74.0005L125.328 72.8623H121.587L121.192 74.2721C120.436 76.9527 119.393 84.3168 118.854 90.8685C118.547 94.7157 118.602 94.5267 117.684 94.5267C116.875 94.5267 116.875 94.5267 116.875 93.5795C116.875 92.7389 116.786 92.5499 115.976 91.7917C115.095 90.9793 115.095 90.9511 115.04 89.4348L114.986 87.8924L113.153 87.8099C112.127 87.7838 111.3 87.647 111.3 87.5123C111.3 87.0518 110.563 79.0903 110.204 75.7058C109.338 67.6096 108.044 59.9196 107.163 57.7539L106.803 56.8849H101.93L101.409 58.6184C100.707 60.9211 100.078 64.3881 99.3403 69.9666C98.7474 74.5697 97.938 82.3943 97.7043 85.9156L97.5773 87.7556H96.2832C95.168 87.7556 94.9703 87.6752 94.8982 87.269C94.8448 86.9975 94.2692 86.3219 93.6026 85.7527L92.4167 84.7513V80.7151H87.5793L87.4885 79.8223C87.4351 79.3618 87.1826 76.5726 86.9316 73.6747C85.8164 60.895 84.378 50.1443 82.9742 44.2682C81.986 40.043 82.3452 40.3689 78.5509 40.3689H75.3134L74.7941 42.1045Z" fill="#3C3C3C"/>
<path d="M81.4122 42.3861C81.4122 42.4383 81.6575 43.3528 81.9345 44.4237C82.927 48.0298 84.0754 55.42 85.0507 64.2743C85.5715 69.0012 86.4588 78.7962 86.4588 79.7368C86.4588 80.1539 86.2857 80.206 84.8228 80.206H83.1882L81.8998 76.8628L80.6303 73.5457H76.5055L75.3398 76.8628L74.1914 80.2082H70.7809L70.8848 79.0829C70.9381 78.4833 71.1805 75.7397 71.4243 73.0222C72.6247 59.3909 74.366 47.2195 75.6875 43.3007L76.0194 42.334H78.7158C80.1946 42.334 81.4122 42.3601 81.4122 42.3861ZM55.618 60.0231C56.5413 63.0926 57.8975 73.3067 58.7862 83.6795L59.118 87.4637H56.6452L56.1403 86.0082C55.8357 85.1049 55.505 84.2221 55.1491 83.3624L54.6442 82.1719H51.564L50.658 84.8178L49.7534 87.4637H47.3167L47.422 86.3276C48.7623 71.3756 49.7361 63.8333 50.8326 59.9427L51.1976 58.6198H55.1838L55.618 60.0231ZM106.778 59.9123C107.678 62.9687 109.063 73.3828 109.927 83.6925L110.256 87.4919L109.029 87.4115L107.799 87.3312L106.934 84.8069L106.068 82.2827L104.477 82.2045L102.901 82.1241L101.916 84.8069L100.929 87.4637H98.5213L98.6078 86.321C99.7505 72.9309 100.945 63.6595 102.018 59.8319L102.381 58.5046H106.344L106.778 59.9123ZM36.254 76.2633C36.8311 78.6485 37.4601 83.0322 37.9997 88.3239C38.6287 94.3151 38.6287 94.1066 37.7472 94.1066C37.0633 94.1066 37.0273 94.0545 36.3088 92.2905L35.5716 90.4767H33.0714L32.4423 92.2905L31.8119 94.1066H31.004C30.2292 94.1066 30.2119 94.0805 30.2826 93.381C30.3374 92.99 30.5351 90.9155 30.7515 88.7888C31.3444 82.5391 32.2259 76.8324 32.8376 75.0946C33.0887 74.3951 33.1262 74.369 34.4737 74.4472L35.8414 74.5254L36.254 76.2633ZM125.385 76.2589C126.103 79.4739 126.732 84.2812 127.577 93.116L127.667 94.1066H126.912C126.139 94.1066 126.139 94.1066 125.455 92.2775L124.771 90.4484H122.309L121.606 92.1993C120.924 93.9241 120.888 93.9763 120.132 94.0545L119.341 94.1327L119.467 92.5143C119.934 86.5817 121.03 78.4529 121.732 75.7354L122.11 74.2474H124.916L125.385 76.2589Z" fill="#F5F5F5"/>
<path d="M81.2831 77.9234L82.2901 80.5845L78.6934 80.6627C76.7155 80.6909 75.0607 80.6627 75.0246 80.6105C74.9698 80.5302 75.3665 79.2811 75.8873 77.7909L76.8395 75.1016L78.5491 75.1819L80.2573 75.2623L81.2831 77.9234Z" fill="#F5F5F5"/>
<path d="M91.5177 83.1541V84.5096H65.6211V81.8008H91.5177V83.1541Z" fill="white"/>
<path d="M55.0491 85.5944C55.4271 86.5697 55.733 87.4365 55.733 87.5451C55.733 87.6798 54.5644 87.7623 53.1246 87.7623H50.5176L51.1827 85.729L51.8665 83.6719L53.1072 83.7522L54.3653 83.8348L55.0491 85.5944ZM106.411 85.7312L107.114 87.7623H101.754L102.33 86.1918C102.653 85.3511 102.993 84.4322 103.103 84.1606C103.264 83.8087 103.552 83.7001 104.505 83.7001H105.71L106.411 85.7312Z" fill="#F5F5F5"/>
<path d="M92.5124 86.9483L93.5641 87.7695L93.616 89.6094L93.6507 91.4472L92.7562 92.4899L91.8631 93.5587H64.6551L64.078 92.7636C63.5154 91.9946 63.498 91.8947 63.498 90.0308V88.0931L64.6032 87.0982L65.6895 86.1055H91.4606L92.5124 86.9483Z" fill="#D8D8D8"/>
<path d="M62.3822 89.9257V90.7382H43.5V89.1133H62.3822V89.9257ZM114.177 89.9257V90.7382H94.934V89.1133H114.177V89.9257Z" fill="white"/>
<path d="M62.0842 92.2937C62.0842 92.4784 62.4189 93.1409 62.8229 93.7492C63.3509 94.5421 63.7029 94.8853 64.055 94.8853C64.7229 94.8853 64.7042 95.5457 63.9828 96.6579L63.4202 97.529H52.8682C40.7321 97.529 41.6814 97.7419 41.6814 95.0439C41.6814 93.432 41.6814 93.432 42.4389 92.7173L43.1775 91.9787H52.6402C59.9216 91.9787 62.0842 92.0569 62.0842 92.2937ZM115.205 92.7716C115.943 93.5623 115.978 93.6427 115.978 94.9396C115.978 95.9693 115.891 96.445 115.591 96.9207L115.222 97.529H94.3576L93.5843 96.6579C93.127 96.18 92.811 95.626 92.8283 95.3871C92.8457 95.1481 93.3722 94.3031 94.0056 93.4841L95.1482 92.0026H104.781L114.414 91.9766L115.205 92.7716Z" fill="#D8D8D8"/>
<path d="M35.6445 93.3105L36.1119 94.527H32.7129L33.1096 93.3105C33.4862 92.1179 33.5223 92.0918 34.3504 92.0918C35.177 92.0918 35.2131 92.1461 35.6445 93.3083M124.755 93.1758C124.971 93.7428 125.15 94.2837 125.15 94.3662C125.15 94.4748 124.432 94.5291 123.531 94.5291C122.651 94.5291 121.914 94.4466 121.914 94.3662C121.914 94.2576 122.093 93.7145 122.309 93.1475C122.67 92.1722 122.758 92.0918 123.514 92.0918C124.287 92.0918 124.36 92.1743 124.755 93.1758Z" fill="#F5F5F5"/>
<path d="M74.4332 102.682V110.233H73.354V106.39C73.354 102.311 73.2285 101.463 72.5273 100.985C72.2936 100.827 72.0945 100.481 72.0945 100.19C72.0945 99.8993 71.8608 99.4214 71.5564 99.1042C71.2679 98.7871 71.0168 98.4156 71.0168 98.257C71.0168 97.7009 70.4224 96.9841 69.9737 96.9841C69.4688 96.9841 68.8585 97.6727 68.8585 98.2027C68.8585 98.3895 68.6248 98.7871 68.319 99.1042C68.0304 99.4214 67.7794 99.8993 67.7794 100.19C67.7794 100.481 67.5817 100.827 67.3466 100.985C66.6454 101.463 66.5199 102.311 66.5199 106.39V110.233H65.6211V95.1289H74.4332V102.682ZM81.8054 102.682C81.8054 109.225 81.7693 110.233 81.5356 110.233C81.3192 110.233 81.2658 109.781 81.2658 107.848C81.2658 105.806 81.2124 105.384 80.9052 104.933C80.7089 104.641 80.5474 104.324 80.5474 104.192C80.5286 103.979 79.6832 102.734 79.3413 102.443C79.1075 102.256 77.8495 103.794 77.8495 104.27C77.8495 104.431 77.6865 104.748 77.4888 105.013C77.183 105.382 77.1296 105.782 77.1296 107.848V110.233H75.332V95.1289H81.8054V102.682ZM91.5163 102.682V110.233H90.4371V106.179C90.4371 102.947 90.3837 102.019 90.15 101.542C90.0058 101.224 89.7547 100.959 89.6105 100.959C89.5421 100.957 89.4772 100.913 89.4299 100.839C89.3827 100.764 89.3568 100.665 89.358 100.562C89.358 100.323 89.0709 99.7407 88.729 99.2107C88.387 98.7067 88.0999 98.1245 88.0999 97.9116C88.0999 97.3816 87.4709 96.9319 86.8765 97.0384C86.5346 97.0905 86.3196 97.3555 86.122 97.9659C85.9777 98.4156 85.6719 98.9196 85.4555 99.0782C85.239 99.2367 85.0068 99.6343 84.9519 99.9775C84.8798 100.349 84.5927 100.879 84.3056 101.198L83.7834 101.781V110.231H82.5253V95.1289H91.5163V102.682Z" fill="white"/>
<path d="M40.6255 96.0156C40.6255 96.3675 39.7787 96.4218 34.1507 96.4218C28.5227 96.4218 27.6758 96.3675 27.6758 96.0156C27.6758 95.6637 28.5212 95.6094 34.1507 95.6094C39.7787 95.6094 40.6255 95.6637 40.6255 96.0156ZM130.186 96.0156C130.186 96.3675 129.322 96.4218 123.531 96.4218C117.741 96.4218 116.877 96.3675 116.877 96.0156C116.877 95.6637 117.741 95.6094 123.531 95.6094C129.322 95.6094 130.186 95.6637 130.186 96.0156ZM93.4618 98.4269C93.8384 98.9417 93.8571 99.0764 93.8571 104.601V110.233H92.4188V103.708C92.4188 96.5044 92.3279 96.9367 93.4618 98.4269ZM64.9034 103.871V110.233H63.8243V98.8309L64.3292 98.1792C64.5976 97.8295 64.8313 97.5036 64.8674 97.5036C64.8847 97.5036 64.9034 100.375 64.9034 103.871Z" fill="white"/>
<path d="M70.367 99.0866C70.4204 99.306 70.4752 99.7252 70.4752 100.042C70.4752 100.486 70.582 100.633 70.9787 100.707C71.3913 100.781 71.4635 100.903 71.5168 101.663C71.5717 102.449 71.6251 102.549 71.9497 102.425C72.1473 102.352 72.381 102.449 72.4705 102.647C72.5614 102.842 72.6321 104.611 72.6321 106.601V110.235H67.2363V106.601C67.2363 104.611 67.3085 102.842 67.3994 102.647C67.4888 102.451 67.7225 102.352 67.9202 102.425C68.2448 102.549 68.2982 102.449 68.353 101.665C68.4064 100.905 68.4785 100.781 68.9099 100.707C69.2879 100.633 69.3946 100.486 69.3946 100.045C69.3946 99.1604 69.575 98.6934 69.9342 98.6934C70.1145 98.6934 70.3122 98.865 70.367 99.0844M87.6319 99.8968C87.7762 100.598 87.8844 100.792 88.2263 100.792C88.587 100.792 88.6404 100.913 88.6404 101.737C88.6404 102.584 88.675 102.682 89.0169 102.56C89.7541 102.293 89.8984 102.995 89.8984 106.774V110.235H84.3238V106.629C84.3238 102.753 84.432 102.269 85.2413 102.61C85.5645 102.753 85.6006 102.706 85.4924 102.269C85.312 101.446 85.5457 100.792 86.0492 100.792C86.4099 100.792 86.4821 100.672 86.4821 100.114C86.4821 98.6369 87.3809 98.4674 87.6319 99.8968Z" fill="#F5F5F5"/>
<path d="M131.234 98.2313C131.534 98.5203 131.623 98.8678 131.623 99.6781C131.623 100.286 131.534 100.923 131.41 101.125C131.251 101.386 129.327 101.472 123.765 101.472L116.349 101.444L115.873 100.749C115.309 99.9388 115.202 98.8678 115.697 98.8678C115.873 98.8678 116.192 98.5789 116.404 98.2009L116.774 97.5645L123.801 97.71C129.063 97.8251 130.934 97.9403 131.234 98.2313ZM41.6127 98.2878C41.7931 98.6072 42.0802 98.8678 42.2792 98.8678C42.7279 98.8678 42.6919 99.967 42.2071 100.806L41.8291 101.472H34.2405C28.5923 101.472 26.6143 101.386 26.4527 101.125C26.3272 100.923 26.2363 100.286 26.2363 99.6781C26.2363 97.7382 26.2551 97.7382 34.2578 97.71C41.0558 97.71 41.2895 97.7382 41.6127 98.2878Z" fill="#D8D8D8"/>
<path d="M62.9232 104.719V110.236H55.5495V107.241C55.5495 104.034 55.5668 104.141 54.4343 102.353C54.2515 102.044 54.0887 101.709 53.9481 101.354C53.8253 101.046 53.6342 100.814 53.4085 100.698C53.0132 100.567 52.3121 101.171 52.3121 101.645C52.3121 101.827 52.1505 102.116 51.9514 102.301C51.7552 102.486 51.5922 102.722 51.5922 102.879C51.5922 103.009 51.3945 103.404 51.1435 103.772C50.7107 104.402 50.6933 104.586 50.6933 107.345V110.234H43.5V99.2032H62.9232V104.719ZM114.177 104.575V110.236H106.803V107.163C106.803 103.874 106.82 103.982 105.688 102.149C105.504 101.832 105.341 101.488 105.202 101.124C105.081 100.809 104.89 100.57 104.662 100.45C104.267 100.315 103.566 100.935 103.566 101.421C103.566 101.608 103.404 101.906 103.205 102.095C103.009 102.284 102.846 102.525 102.846 102.688C102.846 102.822 102.648 103.226 102.397 103.604C101.964 104.252 101.947 104.441 101.947 107.271V110.236H94.5733V98.9121H114.177V104.575Z" fill="white"/>
<path d="M53.576 103.22C53.576 103.394 53.6842 103.468 53.8458 103.394C54.1156 103.244 54.1877 103.491 54.1343 104.334C54.0968 104.656 54.2065 104.756 54.5109 104.706C54.9249 104.656 54.9249 104.706 54.9783 107.432L55.0331 110.234H51.4004L51.4538 107.432C51.5072 104.804 51.5259 104.656 51.8678 104.732C52.1737 104.782 52.2444 104.656 52.2271 104.111C52.2271 103.589 52.3165 103.415 52.5502 103.441C52.7479 103.468 52.8561 103.318 52.8561 102.946C52.8561 102.625 52.9109 102.301 52.9816 102.203C53.1446 102.006 53.576 102.746 53.576 103.22ZM104.83 103.035C104.83 103.213 104.938 103.289 105.099 103.213C105.369 103.061 105.441 103.313 105.388 104.18C105.352 104.51 105.46 104.612 105.765 104.56C106.179 104.51 106.179 104.56 106.233 107.358L106.287 110.234H102.654L102.707 107.358C102.762 104.664 102.78 104.51 103.121 104.586C103.427 104.636 103.499 104.51 103.482 103.95C103.482 103.415 103.572 103.237 103.805 103.263C104.003 103.289 104.111 103.137 104.111 102.755C104.111 102.425 104.165 102.092 104.237 101.99C104.398 101.788 104.83 102.553 104.83 103.035Z" fill="#F5F5F5"/>
<path d="M115.977 106.359V110.233H115.077V101.539L115.527 102.028C115.96 102.514 115.961 102.595 115.977 106.359ZM42.6008 106.036C42.6008 110.044 42.5835 110.233 42.2415 110.233C41.8996 110.233 41.8809 110.044 41.8809 106.522C41.8809 103.462 41.9357 102.732 42.1882 102.325C42.3497 102.054 42.5113 101.837 42.5474 101.837C42.5647 101.837 42.6008 103.733 42.6008 106.036Z" fill="white"/>
<path d="M41.1637 106.445V110.236H36.1286V108.205C36.1286 106.282 36.0925 106.093 35.4621 104.82C35.0668 104.008 34.6542 103.465 34.4565 103.465C34.1507 103.465 33.2504 104.603 33.2504 104.981C33.2504 105.035 33.0888 105.335 32.8912 105.633C32.6026 106.067 32.5305 106.526 32.5305 108.205V110.236H27.6758V102.652H41.1637V106.445ZM130.185 106.567V110.236H125.328V108.27C125.328 106.647 125.256 106.202 124.969 105.783C124.772 105.494 124.608 105.205 124.608 105.127C124.608 105.048 124.43 104.707 124.215 104.34C123.62 103.345 123.153 103.502 122.397 104.996C121.768 106.228 121.733 106.41 121.733 108.27V110.236H116.697V102.9H130.185V106.567Z" fill="white"/>
<path d="M79.4691 104.557C79.4691 104.878 79.56 104.976 79.7389 104.904C79.9366 104.778 80.0087 104.926 80.0087 105.395C80.0087 105.864 80.0981 106.038 80.3694 106.038C80.6925 106.038 80.7286 106.212 80.7286 108.135V110.233H77.6701V108.234C77.6701 106.457 77.7061 106.236 78.0307 106.112C78.2645 106.012 78.3914 105.765 78.3914 105.371C78.3914 104.926 78.4636 104.778 78.6598 104.902C78.8401 104.976 78.9295 104.878 78.9295 104.581C78.9295 104.335 78.9844 104.064 79.0377 103.99C79.2354 103.742 79.4691 104.064 79.4691 104.557ZM34.8158 105.652C34.9962 105.652 35.0669 105.806 34.9962 106.162C34.9241 106.544 34.9962 106.67 35.2472 106.67C35.5531 106.67 35.5891 106.875 35.5891 108.452V110.233H33.252V108.324C33.252 106.746 33.2866 106.468 33.5203 106.568C33.7006 106.67 33.7901 106.568 33.7901 106.188C33.7901 105.884 33.8983 105.654 34.0599 105.654C34.2041 105.654 34.3484 105.4 34.3484 105.067L34.3845 104.509L34.4566 105.069C34.4912 105.4 34.6543 105.652 34.8158 105.652ZM123.62 105.423C123.548 105.552 123.638 105.654 123.782 105.654C123.961 105.654 124.07 105.882 124.07 106.188C124.07 106.568 124.16 106.67 124.339 106.568C124.573 106.468 124.609 106.746 124.609 108.326V110.233H122.271V108.452C122.271 106.875 122.307 106.67 122.613 106.67C122.864 106.67 122.936 106.544 122.864 106.162C122.792 105.806 122.864 105.654 123.062 105.654C123.224 105.654 123.351 105.476 123.351 105.248C123.351 105.043 123.44 104.941 123.529 105.017C123.638 105.119 123.674 105.297 123.62 105.423Z" fill="#F5F5F5"/>
<path fill-rule="evenodd" clip-rule="evenodd" d="M75.6934 61.0045C75.7121 56.8336 76.1608 55.2913 77.6713 54.3702C78.1763 54.0444 79.668 54.3702 80.1528 54.9133C81.2492 56.1298 81.3589 56.6446 81.4123 60.5722L81.4844 64.1999H75.6934V61.0045ZM80.7284 60.6786C80.7284 57.9459 80.4586 56.6186 79.7935 55.9691C79.1472 55.3456 78.3739 55.2087 77.7261 55.6432C76.8273 56.2384 76.5936 57.2681 76.5936 60.4093V63.1181H80.7299L80.7284 60.6786Z" fill="#3C3C3C"/>
<path d="M77.6712 54.3705L77.7 54.4704H77.6986L77.6712 54.3705ZM81.4843 64.2002L81.5564 64.198L81.5578 64.3088H81.4843V64.2002ZM75.6932 64.2002V64.3088H75.6211V64.2002H75.6932ZM76.5935 63.1162V63.2248H76.5213V63.1162H76.5935ZM80.7297 63.1162H80.8019V63.2248H80.7297V63.1162ZM77.6986 54.4704C76.9556 54.9245 76.4824 55.524 76.1881 56.5124C75.8909 57.5138 75.774 58.9237 75.7654 61.0069L75.6211 61.0047C75.6298 58.9172 75.7466 57.4704 76.0568 56.4255C76.3699 55.372 76.8763 54.7398 77.6438 54.2706L77.6986 54.4704ZM80.1108 55.0005C79.9571 54.8466 79.7881 54.7308 79.6102 54.6573C79.3811 54.5507 79.1466 54.4729 78.909 54.4248C78.6761 54.3714 78.4406 54.3467 78.205 54.351C77.9886 54.3575 77.8126 54.3988 77.7 54.4704L77.6438 54.2706C77.7837 54.1837 77.9814 54.1403 78.2021 54.1337C78.4228 54.1272 78.6782 54.1555 78.9292 54.2098C79.1817 54.2641 79.4327 54.3466 79.6535 54.4487C79.8713 54.553 80.0646 54.679 80.1959 54.8267L80.1108 55.0005ZM81.34 60.5768C81.3126 58.6087 81.2722 57.5138 81.1048 56.7622C80.9418 56.0236 80.6576 55.6066 80.1108 55.0005L80.1959 54.8267C80.747 55.4371 81.0644 55.889 81.2419 56.6949C81.4179 57.4834 81.4583 58.613 81.4843 60.5703L81.34 60.5768ZM81.4121 64.2024L81.34 60.5768L81.4843 60.5681L81.5564 64.198L81.4121 64.2024ZM78.5887 64.0938H81.4843V64.3088L78.5887 64.311V64.0938ZM75.6932 64.0938H78.5887V64.311L75.6932 64.3088V64.0938ZM75.7654 61.0069V64.2002H75.6211V61.0047L75.7654 61.0069ZM79.8338 55.8781C80.5335 56.5624 80.8004 57.9483 80.8004 60.6789H80.6561C80.6561 57.9418 80.3849 56.6753 79.7545 56.0606L79.8338 55.8781ZM77.6957 55.5436C78.3695 55.0939 79.1673 55.2394 79.8324 55.8781L79.7545 56.0606C79.1254 55.4523 78.3767 55.3263 77.7549 55.7434L77.6957 55.5436ZM76.5213 60.4095C76.5213 58.839 76.5791 57.781 76.7536 57.0359C76.9325 56.28 77.2297 55.852 77.6957 55.5436L77.7549 55.7434C77.322 56.0302 77.0537 56.4168 76.8892 57.1076C76.7233 57.8136 76.6656 58.839 76.6656 60.4095H76.5213ZM76.5213 63.1162V60.4095H76.6656V63.1184L76.5213 63.1162ZM78.6609 63.227H76.592V63.0098H78.6609V63.227ZM80.7297 63.227H78.6609V63.0098H80.7297V63.227ZM80.8019 60.6811V63.1162L80.6576 63.1184V60.6811H80.8019Z" fill="black"/>
<path fill-rule="evenodd" clip-rule="evenodd" d="M50.8766 72.9723C50.8766 69.779 51.1291 68.8015 52.1895 68.0173C53.3047 67.1788 54.4372 67.6654 55.1384 69.2359C55.3721 69.8051 55.4442 70.5893 55.4442 72.7029L55.463 75.4379L53.1777 75.5182L50.8766 75.5986V72.9723ZM54.6536 72.1881C54.6536 70.3742 54.5988 70.0484 54.2035 69.4792C53.6278 68.5864 52.7103 68.5582 52.1707 69.4249C51.8302 69.968 51.7754 70.3742 51.7754 72.1338V74.2192H54.6536V72.1881ZM102.132 72.9723C102.132 69.7508 102.42 68.6928 103.462 67.963C104.577 67.2048 105.71 67.6936 106.393 69.2359C106.627 69.8051 106.699 70.5893 106.699 72.7029L106.718 75.4379L104.433 75.5182L102.132 75.5986V72.9723ZM105.909 72.1881C105.909 70.3742 105.854 70.0484 105.459 69.4792C104.883 68.5864 103.967 68.5582 103.426 69.4249C103.085 69.968 103.031 70.3742 103.031 72.1338V74.2192H105.909V72.1881ZM32.7129 84.075C32.7129 81.7723 32.8572 81.1771 33.5771 80.608C34.17 80.0953 34.3129 80.0953 35.0342 80.4733C35.8248 80.8795 36.1307 81.9352 36.1307 84.2379V86.1321H32.7129V84.075ZM35.2304 83.6144C35.2304 82.8302 35.141 82.0439 35.014 81.8549C34.8885 81.6659 34.6202 81.529 34.4037 81.529C33.7387 81.529 33.4328 82.2328 33.4328 83.723V85.0482H35.2304V83.6144ZM121.751 83.9946C121.823 81.7462 122.093 80.962 122.902 80.419C123.461 80.0671 124.306 80.3929 124.755 81.151C125.097 81.7202 125.15 82.1264 125.15 83.9946V86.1321H121.698L121.751 83.9946ZM124.43 83.8034C124.43 83.1278 124.341 82.3415 124.251 82.0439C124.035 81.4486 123.189 81.34 122.848 81.8549C122.722 82.0439 122.631 82.8302 122.631 83.6144V85.0482H124.43V83.8034Z" fill="#3C3C3C"/>
<path d="M52.9596 44.1093C52.9048 44.2179 52.8514 45.5974 52.8514 47.2222C52.8514 49.9029 52.8875 50.1744 53.1746 50.0919C53.4444 50.0115 53.4805 49.6053 53.5353 47.1419C53.5699 44.8392 53.5353 44.2158 53.3189 44.1072C53.1746 44.0268 53.013 44.0268 52.9582 44.1072M104.215 44.1093C104.161 44.2179 104.107 45.5974 104.107 47.2222C104.107 49.9029 104.143 50.1744 104.43 50.0919C104.699 50.0115 104.736 49.6053 104.79 47.1419C104.826 44.8392 104.79 44.2158 104.574 44.1072C104.43 44.0268 104.268 44.0268 104.213 44.1072M52.547 52.2837C52.0623 52.5813 51.7737 53.3655 51.7737 54.4213V55.262H54.6519V54.4213C54.6519 53.8804 54.4716 53.3395 54.1297 52.7964C53.5901 51.9861 53.2309 51.8775 52.547 52.2837ZM103.801 52.2837C103.316 52.5813 103.029 53.3655 103.029 54.4213V55.262H105.906V54.4213C105.906 53.8804 105.725 53.3395 105.385 52.7964C104.845 51.9861 104.483 51.8775 103.801 52.2837ZM34.0414 63.482C33.988 63.6992 33.9693 64.6985 34.0053 65.7281C34.0602 67.3791 34.0962 67.5963 34.4194 67.5963C34.7252 67.5963 34.7801 67.3791 34.8334 65.9736C34.8681 65.1047 34.8508 64.1054 34.7786 63.7513C34.6704 63.0757 34.1842 62.9128 34.0414 63.482ZM123.17 65.4045C123.17 67.5703 123.189 67.7332 123.531 67.7332C123.89 67.7332 123.908 67.5985 123.854 65.5131C123.8 63.6167 123.746 63.2647 123.494 63.1844C123.207 63.1018 123.17 63.3451 123.17 65.4045ZM33.6461 69.9381C33.5206 70.1271 33.4297 70.6158 33.4297 71.022C33.4297 71.7519 33.4484 71.7802 34.4194 71.7802C35.3543 71.7802 35.4091 71.7259 35.4091 71.1285C35.4091 70.7505 35.2836 70.2639 35.1205 70.0467C34.7974 69.5318 33.9519 69.4775 33.6461 69.9381ZM122.756 70.101C122.574 70.3977 122.466 70.7811 122.451 71.185C122.451 71.7259 122.54 71.7802 123.547 71.7802H124.643L124.518 71.0481C124.446 70.6137 124.32 70.1271 124.212 69.9663C123.942 69.4515 123.1 69.5318 122.756 70.101Z" fill="#3C3C3C"/>
</g>
<path d="M81.6717 11.3602C81.7323 11.4351 81.8082 11.476 81.8866 11.476C81.965 11.476 82.041 11.4351 82.1016 11.3602L84.0608 8.90552L86.0171 11.3602C86.0777 11.4351 86.1537 11.476 86.2321 11.476C86.3105 11.476 86.3864 11.4351 86.447 11.3602L88.4077 8.90552L90.3669 11.3602C90.4362 11.4458 90.5252 11.4865 90.6144 11.4734C90.7037 11.4604 90.7858 11.3947 90.843 11.2907C90.8984 11.1851 90.9246 11.0512 90.916 10.9172C90.9074 10.7832 90.8647 10.6594 90.7968 10.5717L88.6226 7.84978C88.562 7.77495 88.4861 7.73405 88.4077 7.73405C88.3293 7.73405 88.2533 7.77495 88.1927 7.84978L86.2321 10.3045L84.2758 7.84978C84.2153 7.7755 84.1396 7.73494 84.0615 7.73494C83.9834 7.73494 83.9078 7.7755 83.8473 7.84978L81.8866 10.3045L79.9303 7.84978C79.8961 7.80703 79.8567 7.77486 79.8143 7.7551C79.7718 7.73534 79.7272 7.72839 79.683 7.73465C79.6388 7.74091 79.5958 7.76024 79.5565 7.79156C79.5173 7.82287 79.4825 7.86554 79.4542 7.91712C79.3983 8.02289 79.3719 8.15722 79.3805 8.29177C79.3891 8.42633 79.4321 8.55058 79.5004 8.63833L81.6717 11.3602Z" fill="#3C3C3C"/>
<defs>
<linearGradient id="paint0_linear_889_1527" x1="0.00195312" y1="112.106" x2="37.1632" y2="112.106" gradientUnits="userSpaceOnUse">
<stop stop-color="white"/>
<stop offset="1" stop-color="#3C3C3C"/>
</linearGradient>
<linearGradient id="paint1_linear_889_1527" x1="120.031" y1="112.106" x2="157.197" y2="112.106" gradientUnits="userSpaceOnUse">
<stop stop-color="#3C3C3C"/>
<stop offset="1" stop-color="white"/>
</linearGradient>
</defs>
</svg>
