<svg width="150" height="113" viewBox="0 0 150 113" fill="none" xmlns="http://www.w3.org/2000/svg">
<path d="M110.733 1.38758C110.609 1.38784 110.485 1.40708 110.37 1.4442C110.254 1.48133 110.15 1.53561 110.062 1.60394C109.974 1.67228 109.904 1.75334 109.856 1.84249C109.809 1.93163 109.785 2.02713 109.785 2.12351C109.773 2.22503 109.789 2.32733 109.831 2.4239C109.873 2.52047 109.941 2.60919 110.03 2.68441C110.119 2.75964 110.228 2.81971 110.349 2.86082C110.469 2.90192 110.6 2.92315 110.732 2.92315C110.864 2.92315 110.995 2.90192 111.116 2.86082C111.236 2.81971 111.345 2.75964 111.434 2.68441C111.523 2.60919 111.591 2.52047 111.633 2.4239C111.675 2.32733 111.691 2.22503 111.679 2.12351C111.68 2.02705 111.656 1.93145 111.608 1.84218C111.561 1.75292 111.491 1.67176 111.403 1.60337C111.315 1.53498 111.21 1.48071 111.095 1.44368C110.98 1.40665 110.858 1.38758 110.733 1.38758ZM117.946 53.0851C118.146 53.0763 118.335 53.0087 118.472 52.8961C118.61 52.7835 118.687 52.6345 118.687 52.4797C118.687 52.3248 118.61 52.1758 118.472 52.0633C118.335 51.9507 118.146 51.8831 117.946 51.8743C117.749 51.8865 117.566 51.9555 117.432 52.0675C117.298 52.1795 117.224 52.3263 117.224 52.4787C117.224 52.6311 117.298 52.7779 117.432 52.8899C117.566 53.0019 117.749 53.0709 117.946 53.0831M50.1287 1.38758C50.2422 1.38733 50.3545 1.36981 50.4593 1.33604C50.564 1.30227 50.6591 1.25291 50.7391 1.19077C50.8192 1.12862 50.8826 1.05492 50.9257 0.973872C50.9688 0.892819 50.9909 0.806003 50.9905 0.718379C50.9996 0.626717 50.9841 0.534588 50.945 0.447771C50.9058 0.360954 50.8438 0.281322 50.7629 0.213871C50.682 0.14642 50.5838 0.0926045 50.4747 0.055801C50.3656 0.0189976 50.2478 0 50.1287 0C50.0096 0 49.8918 0.0189976 49.7826 0.055801C49.6735 0.0926045 49.5754 0.14642 49.4944 0.213871C49.4135 0.281322 49.3515 0.360954 49.3124 0.447771C49.2732 0.534588 49.2577 0.626717 49.2668 0.718379C49.2668 1.08733 49.6507 1.38562 50.1287 1.38562M43.9584 79.5687H44.1033V79.6806C44.0974 79.7567 44.1118 79.8329 44.1455 79.9046C44.1792 79.9762 44.2315 80.0418 44.2993 80.0973C44.367 80.1528 44.4487 80.197 44.5394 80.2272C44.6301 80.2574 44.7278 80.273 44.8266 80.273C44.9253 80.273 45.0231 80.2574 45.1137 80.2272C45.2044 80.197 45.2861 80.1528 45.3539 80.0973C45.4216 80.0418 45.4739 79.9762 45.5077 79.9046C45.5414 79.8329 45.5557 79.7567 45.5499 79.6806V79.5687H45.6922C45.7877 79.569 45.8823 79.5546 45.9705 79.5265C46.0587 79.4983 46.1389 79.457 46.2063 79.4048C46.2736 79.3526 46.3269 79.2906 46.3631 79.2224C46.3992 79.1542 46.4175 79.0811 46.4168 79.0074C46.4168 78.8591 46.3405 78.7168 46.2046 78.612C46.0687 78.5071 45.8844 78.4481 45.6922 78.4481H45.5499V78.3343C45.5557 78.2582 45.5414 78.182 45.5077 78.1103C45.4739 78.0387 45.4216 77.9731 45.3539 77.9176C45.2861 77.8621 45.2044 77.8179 45.1137 77.7877C45.0231 77.7575 44.9253 77.7419 44.8266 77.7419C44.7278 77.7419 44.6301 77.7575 44.5394 77.7877C44.4487 77.8179 44.367 77.8621 44.2993 77.9176C44.2315 77.9731 44.1792 78.0387 44.1455 78.1103C44.1118 78.182 44.0974 78.2582 44.1033 78.3343V78.4462H43.9584C43.8632 78.4464 43.7691 78.4612 43.6813 78.4895C43.5935 78.5178 43.5138 78.5593 43.4468 78.6114C43.3797 78.6635 43.3266 78.7253 43.2905 78.7933C43.2544 78.8612 43.236 78.934 43.2363 79.0074C43.2363 79.3175 43.5592 79.5687 43.9584 79.5687ZM109.78 107.946C109.753 107.49 109.577 107.047 109.268 106.657C108.96 106.268 108.529 105.945 108.016 105.719C107.821 105.303 107.465 104.945 106.997 104.692C106.528 104.439 105.969 104.304 105.397 104.306C103.856 104.306 102.605 105.279 102.605 106.474V106.582C101.973 106.744 101.435 107.074 101.088 107.513C100.741 107.952 100.607 108.472 100.711 108.98C100.814 109.488 101.148 109.951 101.653 110.287C102.158 110.623 102.801 110.809 103.467 110.813H104.039C104.187 110.816 104.341 110.818 104.502 110.819V112.368C104.496 112.444 104.511 112.52 104.544 112.592C104.578 112.663 104.63 112.729 104.698 112.784C104.766 112.84 104.848 112.884 104.938 112.914C105.029 112.944 105.127 112.96 105.225 112.96C105.324 112.96 105.422 112.944 105.513 112.914C105.603 112.884 105.685 112.84 105.753 112.784C105.82 112.729 105.873 112.663 105.906 112.592C105.94 112.52 105.955 112.444 105.949 112.368V110.819C106.149 110.819 106.312 110.816 106.439 110.809C106.902 110.792 107.355 110.704 107.774 110.551C108.192 110.397 108.567 110.182 108.878 109.916C109.188 109.651 109.427 109.34 109.581 109.003C109.736 108.666 109.802 108.309 109.777 107.952L109.78 107.946ZM107.805 109.163C107.622 109.32 107.401 109.447 107.155 109.537C106.908 109.627 106.641 109.679 106.368 109.689C105.921 109.706 104.787 109.699 104.05 109.691H103.465C103.286 109.691 103.11 109.664 102.945 109.611C102.78 109.559 102.631 109.482 102.504 109.385C102.25 109.188 102.106 108.922 102.106 108.644C102.106 108.366 102.248 108.099 102.503 107.902C102.757 107.706 103.102 107.595 103.462 107.595C103.699 107.595 103.92 107.507 104.055 107.353C104.12 107.279 104.162 107.193 104.176 107.103C104.19 107.013 104.176 106.922 104.136 106.837C104.072 106.704 104.044 106.563 104.053 106.421C104.063 106.28 104.11 106.141 104.191 106.014C104.273 105.887 104.387 105.774 104.527 105.682C104.667 105.59 104.83 105.522 105.005 105.48C105.181 105.439 105.366 105.426 105.549 105.441C105.731 105.457 105.908 105.501 106.067 105.572C106.227 105.642 106.366 105.737 106.476 105.85C106.587 105.963 106.666 106.093 106.709 106.231C106.762 106.4 106.912 106.541 107.116 106.618C107.415 106.721 107.678 106.878 107.883 107.075C108.089 107.273 108.23 107.505 108.297 107.753C108.364 108 108.354 108.257 108.267 108.501C108.181 108.745 108.02 108.97 107.799 109.157L107.805 109.163Z" fill="#3C3C3C"/>
<path d="M92.6529 74.7058H57.3319V82.752H92.6529V74.7058ZM92.6453 55.5717H57.3268V63.6178H92.6453V55.5717ZM92.6631 44.4876V36.4395H68.709L57.2861 42.8627V44.4876H92.6631ZM92.6808 25.3456V22.9062L88.3512 25.3456H92.6808ZM92.6503 111.426V84.9087L75.3165 96.0301L57.2734 107.75V111.426H92.6503Z" fill="#F5F5F5"/>
<path fill-rule="evenodd" clip-rule="evenodd" d="M79.5177 28.7111L79.5075 28.6247V23.487L74.3516 26.3993V31.6273L79.5177 28.7111ZM80.7863 27.9967L85.9524 25.0825V19.8525L80.7863 22.7667V27.9967ZM80.7863 21.2556L92.3007 14.7598C92.3843 14.7125 92.4792 14.6784 92.5799 14.6594C92.6806 14.6405 92.7852 14.637 92.8876 14.6492C92.9901 14.6614 93.0884 14.6891 93.177 14.7306C93.2656 14.7722 93.3428 14.8268 93.404 14.8913C93.4653 14.9559 93.5095 15.0291 93.5341 15.1069C93.5587 15.1846 93.5632 15.2653 93.5474 15.3444C93.5316 15.4235 93.4957 15.4994 93.4419 15.5678C93.3881 15.6362 93.3173 15.6957 93.2337 15.743L87.2287 19.1322V24.3603L94.0625 20.504V112.846H55.9297V42.0226L60.1958 39.6166V34.3866L57.6254 35.8368C57.5355 35.8875 57.4319 35.9218 57.3224 35.9374C57.2129 35.9529 57.1002 35.9492 56.9928 35.9266C56.8854 35.904 56.7859 35.863 56.7018 35.8067C56.6177 35.7504 56.551 35.6802 56.5068 35.6013C56.4387 35.4546 56.4336 35.2949 56.4922 35.1457C56.5508 34.9966 56.67 34.866 56.8322 34.7732L79.5101 21.9778V5.40078C79.5101 5.27014 79.5773 5.14485 79.697 5.05248C79.8166 4.9601 79.9789 4.9082 80.1482 4.9082C80.3174 4.9082 80.4797 4.9601 80.5994 5.05248C80.7191 5.14485 80.7863 5.27014 80.7863 5.40078V21.2556ZM66.633 35.984L61.472 38.8944V33.6663L66.633 30.754V35.984ZM67.9093 30.0318V35.2618L73.0728 32.3495V27.1195L67.9093 30.0318ZM92.7812 111.52H57.2034V107.716L92.7812 84.7123V111.52ZM92.7812 82.8499H57.2034V74.6075H92.7812V82.8499ZM92.7812 73.2809H57.2034V65.0444H92.7812V73.2809ZM92.7812 63.7158H57.2034V55.4734H92.7812V63.7158ZM92.7812 54.1467H57.2034V45.9083H92.7812V54.1467ZM92.7812 44.5816H57.2034V42.8154L68.6771 36.3392H92.7812V44.5816ZM92.7812 35.0126H71.0287L85.6244 26.7741H92.7812V35.0126ZM92.7812 25.4475V22.7353L87.9761 25.4475H92.7812ZM57.2034 84.1765H91.1896L57.2034 106.154V84.1765Z" fill="#3C3C3C"/>
<path d="M79.5217 28.7096L79.598 28.7881L79.6616 28.7528L79.6489 28.6939L79.5217 28.7096ZM79.5116 23.4874H79.6387V23.2932L79.4353 23.407L79.5116 23.4874ZM74.3557 26.3978L74.2794 26.3193L74.2286 26.3468V26.3978H74.3557ZM74.3557 31.6258H74.2286V31.8201L74.4319 31.7063L74.3557 31.6258ZM80.7878 27.9952H80.6607V28.1876L80.8641 28.0737L80.7878 27.9952ZM85.9564 25.081L86.0327 25.1595L86.0836 25.13V25.081H85.9564ZM85.9564 19.851H86.0836V19.6586L85.8802 19.7725L85.9564 19.851ZM80.7904 22.7652L80.7141 22.6867L80.6633 22.7162V22.7652H80.7904ZM80.7878 21.2541H80.6607V21.4484L80.8641 21.3326L80.7878 21.2541ZM87.2327 19.1307L87.1564 19.0522L87.1056 19.0797V19.1307H87.2327ZM87.2327 24.3588H87.1056V24.5531L87.309 24.4392L87.2327 24.3588ZM94.0666 20.5025H94.1937V20.3102L93.9903 20.424L94.0666 20.5025ZM94.0666 83.4607H93.9395V83.4666L94.0666 83.4607ZM94.0666 83.5608L93.9395 83.5549V83.5608H94.0666ZM94.0666 112.845V112.943H94.1937V112.845H94.0666ZM55.9338 112.845H55.8066V112.943H55.9338V112.845ZM55.9338 42.0211L55.8575 41.9426L55.8066 41.972V42.0211H55.9338ZM60.1998 39.6151L60.2761 39.6936L60.327 39.6641V39.6151H60.1998ZM60.1998 34.3851H60.327V34.1908L60.1236 34.3066L60.1998 34.3851ZM56.5109 35.5998L56.3914 35.6332L56.3939 35.6391L56.5109 35.5998ZM79.5141 21.9763L79.5879 22.0548L79.6387 22.0254V21.9744L79.5141 21.9763ZM61.4761 38.8929H61.349V39.0872L61.5524 38.9733L61.4761 38.8929ZM66.6371 35.9825L66.7134 36.061L66.7642 36.0316V35.9825H66.6371ZM61.4761 33.6648L61.3998 33.5863L61.349 33.6138V33.6648H61.4761ZM66.6371 30.7525H66.7642V30.5582L66.5608 30.6721L66.6371 30.7525ZM67.9133 35.2603H67.7862V35.4546L67.9896 35.3408L67.9133 35.2603ZM67.9133 30.0303L67.8396 29.9518L67.7888 29.9813V30.0303H67.9133ZM73.0769 32.3461L73.1531 32.4265L73.204 32.3971V32.348L73.0769 32.3461ZM73.0769 27.118H73.204V26.9257L73.0006 27.0395L73.0769 27.118ZM57.2075 111.518H57.0804V111.616H57.2075V111.518ZM92.7852 111.518V111.616H92.9123V111.518H92.7852ZM57.2075 107.715L57.1261 107.638L57.0804 107.668V107.715H57.2075ZM92.7852 84.7108H92.9123V84.5008L92.7039 84.6362L92.7852 84.7108ZM57.2075 82.8484H57.0804V82.9465H57.2075V82.8484ZM92.7852 82.8484V82.9465H92.9123V82.8484H92.7852ZM57.2075 74.606V74.5079H57.0804V74.606H57.2075ZM92.7852 74.606H92.9123V74.5079H92.7852V74.606ZM57.2075 73.2794H57.0804V73.3775H57.2075V73.2794ZM92.7852 73.2794V73.3775H92.9123V73.2794H92.7852ZM57.2075 65.0429V64.9447H57.0804V65.0429H57.2075ZM92.7852 65.0429H92.9123V64.9447H92.7852V65.0429ZM57.2075 63.7143H57.0804V63.8124H57.2075V63.7143ZM92.7852 63.7143V63.8124H92.9123V63.7143H92.7852ZM57.2075 55.4719V55.3738H57.0804V55.4719H57.2075ZM92.7852 55.4719H92.9123V55.3738H92.7852V55.4719ZM57.2075 54.1452H57.0804V54.2434H57.2075V54.1452ZM92.7852 54.1452V54.2434H92.9123V54.1452H92.7852ZM57.2075 45.9068V45.8086H57.0804V45.9068H57.2075ZM92.7852 45.9068H92.9123V45.8086H92.7852V45.9068ZM57.2075 44.5801H57.0804V44.6783H57.2075V44.5801ZM92.7852 44.5801V44.6783H92.9123V44.5801H92.7852ZM57.2075 42.8139L57.1312 42.7354L57.0804 42.7648V42.8139H57.2075ZM68.6811 36.3377V36.2396H68.6405L68.6074 36.2592L68.6811 36.3377ZM92.7852 36.3377H92.9123V36.2396H92.7852V36.3377ZM71.0328 35.0111L70.9565 34.9326L70.6438 35.1092H71.0328V35.0111ZM92.7852 35.0111V35.1092H92.9123V35.0111H92.7852ZM85.6285 26.7726V26.6745H85.5878L85.5548 26.6941L85.6285 26.7726ZM92.7852 26.7726H92.9123V26.6745H92.7852V26.7726ZM92.7852 22.7338H92.9123V22.5415L92.709 22.6553L92.7852 22.7338ZM92.7852 25.446V25.5441H92.9123V25.446H92.7852ZM87.9802 25.446L87.9039 25.3675L87.5912 25.5441H87.9802V25.446ZM91.1937 84.1751L91.2751 84.2516L91.5446 84.0769H91.1937V84.1751ZM57.2075 84.1751V84.0769H57.0804V84.1751H57.2075ZM57.2075 106.153H57.0804V106.363L57.2888 106.227L57.2075 106.153ZM79.3845 28.6232C79.3845 28.6586 79.3887 28.6932 79.3972 28.7272L79.6489 28.6939L79.6387 28.6213L79.3845 28.6232ZM79.3845 23.4855V28.6213H79.6387V23.4874L79.3845 23.4855ZM79.4353 23.407L74.2794 26.3193L74.4319 26.4743L79.5879 23.5659L79.4353 23.407ZM74.2311 26.3978V31.6258H74.4853V26.3978H74.2311ZM74.4345 31.7063L79.6006 28.79L79.448 28.6311L74.2819 31.5473L74.4345 31.7063ZM80.8667 28.0757L86.0327 25.1595L85.8827 25.0025L80.7167 27.9167L80.8667 28.0757ZM86.0836 25.081V19.851H85.8319V25.081H86.0836ZM85.8802 19.7725L80.7141 22.6867L80.8692 22.8437L86.0327 19.9295L85.8802 19.7725ZM80.92 27.9952V22.7652H80.6633L80.6658 27.9952H80.92ZM92.2335 14.6779L80.7167 21.1737L80.8692 21.3346L92.381 14.8368L92.2335 14.6779ZM93.6242 14.984C93.5723 14.8838 93.4912 14.794 93.3874 14.7217C93.2835 14.6494 93.1595 14.5964 93.025 14.5669C92.8904 14.5373 92.7489 14.5319 92.6113 14.5512C92.4736 14.5704 92.3461 14.6138 92.2335 14.6779L92.3835 14.8349C92.465 14.7889 92.559 14.758 92.6584 14.7445C92.7577 14.7309 92.8598 14.7351 92.9567 14.7567C93.0536 14.7783 93.1429 14.8167 93.2176 14.869C93.2923 14.9214 93.348 14.9862 93.3852 15.0586L93.6242 14.984ZM93.314 15.82C93.4797 15.7272 93.6002 15.5962 93.6565 15.4443C93.7127 15.2924 93.7013 15.1304 93.6242 14.984L93.3852 15.0586C93.4407 15.1642 93.4514 15.281 93.4108 15.3906C93.3703 15.5001 93.2834 15.596 93.164 15.663L93.314 15.82ZM87.3115 19.2092L93.314 15.82L93.164 15.663L87.1615 19.0503L87.3115 19.2092ZM87.3624 24.3588V19.1307H87.1056V24.3588H87.3624ZM93.9903 20.424L87.1615 24.2803L87.3115 24.4373L94.1428 20.583L93.9903 20.424ZM94.1962 83.4607V20.5045H93.942L93.9395 83.4607H94.1962ZM94.1962 83.5667V83.4568L93.9395 83.4666V83.5549L94.1962 83.5667ZM94.1937 112.845L94.1962 83.5608H93.9395L93.942 112.845H94.1937ZM55.9338 112.943H94.0666V112.747H55.9338V112.943ZM55.8066 42.0211V112.845H56.0609V42.0211H55.8066ZM60.1236 39.5346L55.86 41.9426L56.0075 42.0996L60.2761 39.6936L60.1236 39.5346ZM60.0727 34.3851V39.6151H60.327V34.3851H60.0727ZM57.7032 35.9158L60.2736 34.4636L60.1236 34.3066L57.5558 35.7568L57.7032 35.9158ZM56.3939 35.6391C56.6151 36.0335 57.2532 36.1709 57.7032 35.9158L57.5532 35.7568C57.4786 35.7985 57.3928 35.8267 57.3022 35.8394C57.2115 35.8521 57.1184 35.8489 57.0296 35.8301C56.9407 35.8112 56.8585 35.7772 56.789 35.7306C56.7195 35.6839 56.6644 35.6259 56.6278 35.5606L56.3939 35.6391ZM56.76 34.6932C56.5755 34.7987 56.44 34.9474 56.3736 35.117C56.3072 35.2867 56.3134 35.4665 56.3914 35.6332L56.6304 35.5665C56.5719 35.44 56.5675 35.3023 56.6178 35.1738C56.6682 35.0452 56.7706 34.9305 56.91 34.8502L56.76 34.6932ZM79.4379 21.8978L56.76 34.6932L56.91 34.8502L79.5879 22.0548L79.4379 21.8978ZM79.387 5.40126V21.9744H79.6412V5.40126H79.387ZM80.1497 4.81055C80.0493 4.81055 79.9499 4.82584 79.8572 4.85555C79.7645 4.88526 79.6803 4.9288 79.6095 4.98368C79.5386 5.03856 79.4825 5.10369 79.4443 5.17535C79.4061 5.24701 79.3867 5.32378 79.387 5.40126H79.6412C79.6412 5.18342 79.8701 5.0068 80.1497 5.0068V4.81055ZM80.9175 5.40126C80.9178 5.32361 80.8983 5.24668 80.8599 5.1749C80.8216 5.10311 80.7652 5.03789 80.6941 4.98299C80.623 4.92808 80.5385 4.88458 80.4455 4.85499C80.3525 4.82539 80.2503 4.81029 80.1497 4.81055V5.0068C80.4294 5.0068 80.6607 5.18342 80.6607 5.40126H80.9175ZM80.9175 21.2541V5.40126H80.6607V21.2541H80.9175ZM61.5524 38.9733L66.7134 36.061L66.5608 35.904L61.3998 38.8144L61.5524 38.9733ZM61.349 33.6648V38.8929H61.6032V33.6648H61.349ZM66.5608 30.6721L61.3998 33.5863L61.5524 33.7414L66.7134 30.831L66.5608 30.6721ZM66.7642 35.9825V30.7525H66.51V35.9825H66.7642ZM68.0405 35.2603V30.0303H67.7888L67.7862 35.2603H68.0405ZM73.0031 32.2676L67.8396 35.1818L67.9896 35.3388L73.1506 32.4265L73.0031 32.2676ZM72.9523 27.118V32.348H73.2065V27.118H72.9523ZM67.9896 30.1108L73.1506 27.1965L73.0031 27.0395L67.8396 29.9518L67.9896 30.1108ZM57.2075 111.616H92.7852V111.42H57.2075V111.616ZM57.0804 107.715V111.518H57.3346V107.715H57.0804ZM92.7039 84.6362L57.1261 107.638L57.2888 107.79L92.8666 84.7854L92.7039 84.6362ZM92.9123 111.518V84.7108H92.6581V111.518H92.9123ZM57.2075 82.9465H92.7852V82.7503H57.2075V82.9465ZM57.0804 74.606V82.8484H57.3346V74.606H57.0804ZM92.7852 74.5079H57.2075V74.7041H92.7852V74.5079ZM92.9123 82.8484V74.606H92.6581V82.8484H92.9123ZM57.2075 73.3775H92.7852V73.1813H57.2075V73.3775ZM57.0804 65.0429V73.2794H57.3346V65.0429H57.0804ZM92.7852 64.9447H57.2075V65.141H92.7852V64.9447ZM92.9123 73.2794V65.0429H92.6581V73.2794H92.9123ZM57.2075 63.8124H92.7852V63.6162H57.2075V63.8124ZM57.0804 55.4719V63.7143H57.3346V55.4719H57.0804ZM92.7852 55.3738H57.2075V55.57H92.7852V55.3738ZM92.9123 63.7143V55.4719H92.6581V63.7143H92.9123ZM57.2075 54.2434H92.7852V54.0491H57.2075V54.2434ZM57.0804 45.9107V54.1472H57.3346V45.9087L57.0804 45.9107ZM92.7852 45.8126H57.2075V46.0088H92.7852V45.8126ZM92.9123 54.1472V45.9068L92.6581 45.9087V54.1472H92.9123ZM57.2075 44.6783H92.7852V44.484H57.2075V44.6783ZM57.0804 42.8159V44.5801L57.3346 44.5821V42.8159H57.0804ZM68.6074 36.2612L57.1312 42.7354L57.2837 42.8944L68.7574 36.4182L68.6074 36.2612ZM92.7852 36.2396L68.6837 36.2416V36.4378H92.7852V36.2396ZM92.9123 44.5801V36.3377L92.6581 36.3397V44.5821L92.9123 44.5801ZM71.0328 35.1092H92.7852V34.9149H71.0328V35.1092ZM85.5548 26.6961L70.9591 34.9346L71.1091 35.0916L85.7022 26.855L85.5548 26.6961ZM92.7852 26.6745H85.6285V26.8727H92.7852V26.6745ZM92.9123 35.0131V26.7746H92.6581V35.0131H92.9123ZM92.6581 22.7358V25.448H92.9123V22.7358H92.6581ZM88.0564 25.5284L92.8615 22.8163L92.709 22.6573L87.9039 25.3695L88.0564 25.5284ZM92.7852 25.3518H87.9802V25.548H92.7852V25.3518ZM91.1937 84.0769H57.2075V84.2751H91.1937V84.0769ZM57.2888 106.227L91.2751 84.2516L91.1124 84.1005L57.1287 106.078L57.2888 106.227ZM57.0804 84.1751V106.153H57.3346V84.1731L57.0804 84.1751Z" fill="#3C3C3C"/>
<path fill-rule="evenodd" clip-rule="evenodd" d="M81.7361 99.5454H86.6861V98.2188H81.7361V99.5454ZM81.7361 108.01H86.6861V106.681H81.7361V108.01ZM69.6803 108.01H74.6302V106.681H69.6777L69.6803 108.01Z" fill="#3C3C3C" stroke="#3C3C3C" stroke-width="0.1"/>
<path d="M47.1165 93.1367C46.4984 93.1374 45.8895 93.2525 45.341 93.4724C44.7924 93.6924 44.3202 94.0106 43.964 94.4005C43.608 94.0109 43.1362 93.6928 42.5881 93.4729C42.0401 93.253 41.4317 93.1377 40.814 93.1367C39.785 93.1398 38.7995 93.4575 38.0734 94.0203C37.3472 94.5831 36.9394 95.345 36.9395 96.1393C36.9395 96.4513 37.2623 96.7006 37.664 96.7006H43.242V112.259C43.2361 112.335 43.2505 112.411 43.2842 112.483C43.3179 112.555 43.3702 112.62 43.438 112.676C43.5057 112.731 43.5874 112.775 43.6781 112.806C43.7688 112.836 43.8665 112.852 43.9653 112.852C44.064 112.852 44.1617 112.836 44.2524 112.806C44.3431 112.775 44.4248 112.731 44.4926 112.676C44.5603 112.62 44.6126 112.555 44.6463 112.483C44.68 112.411 44.6944 112.335 44.6886 112.259V96.7006H50.269C50.3641 96.7006 50.4582 96.6861 50.5459 96.658C50.6337 96.6298 50.7134 96.5886 50.7805 96.5366C50.8476 96.4847 50.9007 96.423 50.9368 96.3552C50.973 96.2873 50.9914 96.2146 50.9911 96.1413C50.9917 95.3466 50.5843 94.5842 49.8581 94.021C49.1318 93.4578 48.1459 93.1398 47.1165 93.1367ZM38.4979 95.58C38.6522 95.1984 38.9598 94.8645 39.3761 94.6267C39.7925 94.3889 40.2961 94.2595 40.814 94.2573C41.8996 94.2573 42.8225 94.8146 43.1326 95.58H38.4928H38.4979ZM44.8004 95.58C44.9547 95.1984 45.2623 94.8645 45.6787 94.6267C46.095 94.3889 46.5986 94.2595 47.1165 94.2573C48.2046 94.2573 49.125 94.8146 49.4351 95.58H44.8004Z" fill="#3C3C3C"/>
<path d="M38.4889 95.5786C38.6433 95.1966 38.9513 94.8625 39.3681 94.6247C39.785 94.3869 40.2891 94.2577 40.8075 94.2559C41.8931 94.2559 42.816 94.8132 43.1261 95.5786H38.4863H38.4889ZM44.7939 95.5786C44.9481 95.1972 45.2553 94.8636 45.6711 94.6259C46.087 94.3881 46.59 94.2585 47.1075 94.2559C48.2007 94.2559 49.1185 94.8132 49.4261 95.5786H44.7939ZM107.799 109.161C107.617 109.317 107.396 109.445 107.15 109.535C106.904 109.625 106.637 109.677 106.365 109.687C105.915 109.706 104.783 109.699 104.046 109.691H103.461C103.283 109.691 103.106 109.664 102.942 109.611C102.777 109.559 102.627 109.482 102.501 109.384C102.246 109.188 102.103 108.922 102.102 108.644C102.102 108.366 102.245 108.099 102.499 107.902C102.754 107.706 103.099 107.595 103.459 107.595C103.576 107.594 103.69 107.571 103.793 107.528C103.896 107.485 103.985 107.424 104.051 107.35C104.117 107.275 104.159 107.19 104.173 107.1C104.187 107.011 104.173 106.92 104.133 106.835C104.056 106.677 104.03 106.508 104.057 106.34C104.083 106.173 104.162 106.013 104.286 105.874C104.41 105.735 104.576 105.622 104.769 105.543C104.963 105.464 105.178 105.423 105.396 105.422C106.027 105.422 106.566 105.756 106.705 106.231C106.759 106.4 106.909 106.541 107.112 106.616C107.412 106.719 107.675 106.876 107.881 107.074C108.087 107.271 108.229 107.503 108.295 107.751C108.362 107.999 108.352 108.256 108.265 108.501C108.178 108.745 108.017 108.97 107.796 109.157L107.799 109.161Z" fill="#F5F5F5"/>
<path d="M113.263 24.8322C113.392 24.9163 113.555 24.9624 113.723 24.9624C113.892 24.9624 114.055 24.9163 114.183 24.8322L118.391 22.1377L122.596 24.8322C122.725 24.9168 122.888 24.9633 123.057 24.9633C123.226 24.9633 123.39 24.9168 123.519 24.8322L127.729 22.1377L131.939 24.8322C132.012 24.879 132.097 24.9142 132.187 24.9357C132.278 24.9572 132.374 24.9646 132.468 24.9575C132.563 24.9504 132.655 24.9289 132.738 24.8942C132.822 24.8596 132.896 24.8125 132.956 24.7557C133.21 24.5182 133.17 24.1669 132.859 23.9687L128.192 20.9779C128.063 20.8938 127.9 20.8477 127.732 20.8477C127.563 20.8477 127.4 20.8938 127.271 20.9779L123.059 23.6724L118.854 20.9799C118.725 20.8958 118.562 20.8496 118.393 20.8496C118.225 20.8496 118.062 20.8958 117.933 20.9799L113.726 23.6724L109.521 20.9799C109.372 20.8905 109.183 20.8496 108.996 20.8657C108.808 20.8818 108.636 20.9538 108.517 21.0662C108.397 21.1787 108.338 21.3228 108.354 21.4679C108.37 21.613 108.458 21.7477 108.6 21.8434L113.263 24.8322Z" fill="#3C3C3C"/>
<path d="M56.2369 111.822H0V112.941H56.2369V111.822Z" fill="url(#paint0_linear_889_1516)"/>
<path d="M150.001 111.822H93.3496V112.941H150.001V111.822Z" fill="url(#paint1_linear_889_1516)"/>
<defs>
<linearGradient id="paint0_linear_889_1516" x1="0" y1="112.382" x2="56.2344" y2="112.382" gradientUnits="userSpaceOnUse">
<stop stop-color="white"/>
<stop offset="1" stop-color="#3C3C3C"/>
</linearGradient>
<linearGradient id="paint1_linear_889_1516" x1="93.3496" y1="112.382" x2="150.001" y2="112.382" gradientUnits="userSpaceOnUse">
<stop stop-color="#3C3C3C"/>
<stop offset="1" stop-color="white"/>
</linearGradient>
</defs>
</svg>
