<svg width="158" height="113" viewBox="0 0 158 113" fill="none" xmlns="http://www.w3.org/2000/svg">
<mask id="mask0_894_3254" style="mask-type:luminance" maskUnits="userSpaceOnUse" x="0" y="0" width="158" height="113">
<path d="M0 0H157.196V112.709H0V0Z" fill="white"/>
</mask>
<g mask="url(#mask0_894_3254)">
<path d="M37.1613 110.996H0V112.708H37.1613V110.996Z" fill="url(#paint0_linear_894_3254)"/>
<path d="M120.032 110.996H37.166V112.708H120.032V110.996Z" fill="#FFA500"/>
<path d="M157.191 110.996H120.029V112.708H157.191V110.996Z" fill="url(#paint1_linear_894_3254)"/>
</g>
<path d="M40.4297 32.7395V29.9802L41.7154 28.1406L43.0011 29.9802V32.7395" stroke="#FFA500"/>
<path d="M41.7148 28.1423V26.3027" stroke="#FFA500"/>
<path d="M40.4297 32.7395V29.9802L41.7154 28.1406L43.0011 29.9802V32.7395" stroke="#FFA500"/>
<path d="M41.7148 28.1423V26.3027" stroke="#FFA500"/>
<path d="M40.4297 32.7395V29.9802L41.7154 28.1406L43.0011 29.9802V32.7395" stroke="#FFA500"/>
<path d="M41.7148 28.1423V26.3027" stroke="#FFA500"/>
<path d="M40.4297 32.7395V29.9802L41.7154 28.1406L43.0011 29.9802V32.7395" stroke="#FFA500"/>
<path d="M41.7148 28.1423V26.3027" stroke="#FFA500"/>
<path d="M43.8574 32.7395V29.9802L45.1431 28.1406L46.4289 29.9802V32.7395" stroke="#FFA500"/>
<path d="M45.1426 28.1423V26.3027" stroke="#FFA500"/>
<path d="M47.2871 32.7395V29.9802L48.5728 28.1406L49.8585 29.9802V32.7395" stroke="#FFA500"/>
<path d="M48.5723 28.1423V26.3027" stroke="#FFA500"/>
<path d="M50.7129 32.7395V29.9802L51.9986 28.1406L53.2843 29.9802V32.7395" stroke="#FFA500"/>
<path d="M51.998 28.1423V26.3027" stroke="#FFA500"/>
<path d="M54.1426 32.7395V29.9802L55.4283 28.1406L56.714 29.9802V32.7395" stroke="#FFA500"/>
<path d="M55.4277 28.1423V26.3027" stroke="#FFA500"/>
<path d="M72.1426 32.7395V29.9802L73.4283 28.1406L74.714 29.9802V32.7395" stroke="#FFA500"/>
<path d="M73.4277 28.1423V26.3027" stroke="#FFA500"/>
<path d="M75.5703 32.7395V29.9802L76.856 28.1406L78.1417 29.9802V32.7395" stroke="#FFA500"/>
<path d="M76.8555 28.1423V26.3027" stroke="#FFA500"/>
<path d="M79 32.7395V29.9802L80.2857 28.1406L81.5714 29.9802V32.7395" stroke="#FFA500"/>
<path d="M80.2852 28.1423V26.3027" stroke="#FFA500"/>
<path d="M103 32.7395V29.9802L104.286 28.1406L105.571 29.9802V32.7395" stroke="#FFA500"/>
<path d="M104.285 28.1423V26.3027" stroke="#FFA500"/>
<path d="M103 32.7395V29.9802L104.286 28.1406L105.571 29.9802V32.7395" stroke="#FFA500"/>
<path d="M104.285 28.1423V26.3027" stroke="#FFA500"/>
<path d="M103 32.7395V29.9802L104.286 28.1406L105.571 29.9802V32.7395" stroke="#FFA500"/>
<path d="M104.285 28.1423V26.3027" stroke="#FFA500"/>
<path d="M103 32.7395V29.9802L104.286 28.1406L105.571 29.9802V32.7395" stroke="#FFA500"/>
<path d="M104.285 28.1423V26.3027" stroke="#FFA500"/>
<path d="M106.43 32.7395V29.9802L107.715 28.1406L109.001 29.9802V32.7395" stroke="#FFA500"/>
<path d="M107.715 28.1423V26.3027" stroke="#FFA500"/>
<path d="M109.857 32.7395V29.9802L111.143 28.1406L112.429 29.9802V32.7395" stroke="#FFA500"/>
<path d="M111.143 28.1423V26.3027" stroke="#FFA500"/>
<path d="M113.287 32.7395V29.9802L114.573 28.1406L115.859 29.9802V32.7395" stroke="#FFA500"/>
<path d="M114.572 28.1423V26.3027" stroke="#FFA500"/>
<path d="M116.713 32.7395V29.9802L117.999 28.1406L119.284 29.9802V32.7395" stroke="#FFA500"/>
<path d="M117.998 28.1423V26.3027" stroke="#FFA500"/>
<line x1="31" y1="109.5" x2="127" y2="109.5" stroke="#FFA500"/>
<rect x="34.0703" y="49.9805" width="12.7143" height="59.5205" stroke="#FFA500"/>
<path d="M41.2843 86.0352H41.7843V85.5352V77.8072C41.7843 76.821 40.9848 76.0215 39.9986 76.0215C39.0124 76.0215 38.2129 76.821 38.2129 77.8072V85.5352V86.0352H38.7129H41.2843Z" stroke="#FFA500"/>
<path d="M41.2843 68.0078H41.7843V67.5078V59.7799C41.7843 58.7936 40.9848 57.9941 39.9986 57.9941C39.0124 57.9941 38.2129 58.7936 38.2129 59.7799V67.5078V68.0078H38.7129H41.2843Z" stroke="#FFA500"/>
<path d="M41.2843 68.0078H41.7843V67.5078V59.7799C41.7843 58.7936 40.9848 57.9941 39.9986 57.9941C39.0124 57.9941 38.2129 58.7936 38.2129 59.7799V67.5078V68.0078H38.7129H41.2843Z" stroke="#FFA500"/>
<path d="M41.2843 104.063H41.7843V103.563V95.8345C41.7843 94.8483 40.9848 94.0488 39.9986 94.0488C39.0124 94.0488 38.2129 94.8483 38.2129 95.8345V103.563V104.063H38.7129H41.2843Z" stroke="#FFA500"/>
<rect x="85.5" y="49.9805" width="12.7143" height="59.5205" stroke="#FFA500"/>
<path d="M92.714 86.0352H93.214V85.5352V77.8072C93.214 76.821 92.4145 76.0215 91.4283 76.0215C90.4421 76.0215 89.6426 76.821 89.6426 77.8072V85.5352V86.0352H90.1426H92.714Z" stroke="#FFA500"/>
<path d="M92.714 68.0078H93.214V67.5078V59.7799C93.214 58.7936 92.4145 57.9941 91.4283 57.9941C90.4421 57.9941 89.6426 58.7936 89.6426 59.7799V67.5078V68.0078H90.1426H92.714Z" stroke="#FFA500"/>
<path d="M92.714 68.0078H93.214V67.5078V59.7799C93.214 58.7936 92.4145 57.9941 91.4283 57.9941C90.4421 57.9941 89.6426 58.7936 89.6426 59.7799V67.5078V68.0078H90.1426H92.714Z" stroke="#FFA500"/>
<path d="M92.714 104.063H93.214V103.563V95.8345C93.214 94.8483 92.4145 94.0488 91.4283 94.0488C90.4421 94.0488 89.6426 94.8483 89.6426 95.8345V103.563V104.063H90.1426H92.714Z" stroke="#FFA500"/>
<rect x="111.213" y="49.9805" width="12.7143" height="59.5205" stroke="#FFA500"/>
<path d="M118.427 86.0352H118.927V85.5352V77.8072C118.927 76.821 118.127 76.0215 117.141 76.0215C116.155 76.0215 115.355 76.821 115.355 77.8072V85.5352V86.0352H115.855H118.427Z" stroke="#FFA500"/>
<path d="M118.427 68.0078H118.927V67.5078V59.7799C118.927 58.7936 118.127 57.9941 117.141 57.9941C116.155 57.9941 115.355 58.7936 115.355 59.7799V67.5078V68.0078H115.855H118.427Z" stroke="#FFA500"/>
<path d="M118.427 68.0078H118.927V67.5078V59.7799C118.927 58.7936 118.127 57.9941 117.141 57.9941C116.155 57.9941 115.355 58.7936 115.355 59.7799V67.5078V68.0078H115.855H118.427Z" stroke="#FFA500"/>
<path d="M118.427 104.063H118.927V103.563V95.8345C118.927 94.8483 118.127 94.0488 117.141 94.0488C116.155 94.0488 115.355 94.8483 115.355 95.8345V103.563V104.063H115.855H118.427Z" stroke="#FFA500"/>
<rect x="59.7871" y="49.9805" width="12.7143" height="59.5205" stroke="#FFA500"/>
<path d="M67.0011 86.0352H67.5011V85.5352V77.8072C67.5011 76.821 66.7016 76.0215 65.7154 76.0215C64.7292 76.0215 63.9297 76.821 63.9297 77.8072V85.5352V86.0352H64.4297H67.0011Z" stroke="#FFA500"/>
<path d="M67.0011 68.0078H67.5011V67.5078V59.7799C67.5011 58.7936 66.7016 57.9941 65.7154 57.9941C64.7292 57.9941 63.9297 58.7936 63.9297 59.7799V67.5078V68.0078H64.4297H67.0011Z" stroke="#FFA500"/>
<path d="M67.0011 68.0078H67.5011V67.5078V59.7799C67.5011 58.7936 66.7016 57.9941 65.7154 57.9941C64.7292 57.9941 63.9297 58.7936 63.9297 59.7799V67.5078V68.0078H64.4297H67.0011Z" stroke="#FFA500"/>
<path d="M67.0011 104.063H67.5011V103.563V95.8345C67.5011 94.8483 66.7016 94.0488 65.7154 94.0488C64.7292 94.0488 63.9297 94.8483 63.9297 95.8345V103.563V104.063H64.4297H67.0011Z" stroke="#FFA500"/>
<rect x="46.9297" y="49.9805" width="12.7143" height="59.5205" stroke="#FFA500"/>
<path d="M49.502 88.2438C49.502 85.6698 50.9795 83.3319 53.2877 82.2223C55.5958 83.3319 57.0734 85.6698 57.0734 88.2438V109.501H49.502V88.2438Z" stroke="#FFA500"/>
<line x1="47.2871" y1="72.1582" x2="73.0014" y2="72.1582" stroke="#FFA500"/>
<path d="M57.5734 68.0078H58.0734V67.5078V59.7799C58.0734 58.7936 57.2739 57.9941 56.2877 57.9941C55.3014 57.9941 54.502 58.7936 54.502 59.7799V67.5078V68.0078H55.002H57.5734Z" stroke="#FFA500"/>
<path d="M51.5734 68.0078H52.0734V67.5078V59.7799C52.0734 58.7936 51.2739 57.9941 50.2877 57.9941C49.3014 57.9941 48.502 58.7936 48.502 59.7799V67.5078V68.0078H49.002H51.5734Z" stroke="#FFA500"/>
<rect x="72.6426" y="49.9805" width="12.7143" height="59.5205" stroke="#FFA500"/>
<path d="M75.2148 88.2438C75.2148 85.6698 76.6924 83.3319 79.0006 82.2223C81.3087 83.3319 82.7863 85.6698 82.7863 88.2438V109.501H75.2148V88.2438Z" stroke="#FFA500"/>
<line x1="73" y1="72.1582" x2="97.8571" y2="72.1582" stroke="#FFA500"/>
<path d="M83.2863 68.0078H83.7863V67.5078V59.7799C83.7863 58.7936 82.9868 57.9941 82.0006 57.9941C81.0143 57.9941 80.2148 58.7936 80.2148 59.7799V67.5078V68.0078H80.7148H83.2863Z" stroke="#FFA500"/>
<path d="M77.2863 68.0078H77.7863V67.5078V59.7799C77.7863 58.7936 76.9868 57.9941 76.0006 57.9941C75.0143 57.9941 74.2148 58.7936 74.2148 59.7799V67.5078V68.0078H74.7148H77.2863Z" stroke="#FFA500"/>
<rect x="98.3574" y="49.9805" width="12.7143" height="59.5205" stroke="#FFA500"/>
<path d="M100.93 88.2438C100.93 85.6698 102.407 83.3319 104.715 82.2223C107.024 83.3319 108.501 85.6698 108.501 88.2438V109.501H100.93V88.2438Z" stroke="#FFA500"/>
<line x1="98.7148" y1="72.1582" x2="111.572" y2="72.1582" stroke="#FFA500"/>
<path d="M109.001 68.0078H109.501V67.5078V59.7799C109.501 58.7936 108.702 57.9941 107.715 57.9941C106.729 57.9941 105.93 58.7936 105.93 59.7799V67.5078V68.0078H106.43H109.001Z" stroke="#FFA500"/>
<path d="M103.001 68.0078H103.501V67.5078V59.7799C103.501 58.7936 102.702 57.9941 101.715 57.9941C100.729 57.9941 99.9297 58.7936 99.9297 59.7799V67.5078V68.0078H100.43H103.001Z" stroke="#FFA500"/>
<rect x="31.5" y="44.8281" width="94.1429" height="5.43836" stroke="#FFA500"/>
<rect x="34.0723" y="33.2402" width="89.8571" height="11.8767" stroke="#FFA500"/>
<path d="M39.5714 42.2542H40.0714V41.7542V37.8892C40.0714 36.903 39.2719 36.1035 38.2857 36.1035C37.2995 36.1035 36.5 36.903 36.5 37.8892V41.7542V42.2542H37H39.5714Z" stroke="#FFA500"/>
<path d="M52.4289 42.2542H52.9289V41.7542V37.8892C52.9289 36.903 52.1294 36.1035 51.1431 36.1035C50.1569 36.1035 49.3574 36.903 49.3574 37.8892V41.7542V42.2542H49.8574H52.4289Z" stroke="#FFA500"/>
<path d="M58.4289 42.2542H58.9289V41.7542V37.8892C58.9289 36.903 58.1294 36.1035 57.1431 36.1035C56.1569 36.1035 55.3574 36.903 55.3574 37.8892V41.7542V42.2542H55.8574H58.4289Z" stroke="#FFA500"/>
<path d="M66.9992 42.2542H67.4992V41.7542V37.8892C67.4992 36.903 66.6997 36.1035 65.7134 36.1035C64.7272 36.1035 63.9277 36.903 63.9277 37.8892V41.7542V42.2542H64.4277H66.9992Z" stroke="#FFA500"/>
<path d="M77.2863 42.2542H77.7863V41.7542V37.8892C77.7863 36.903 76.9868 36.1035 76.0006 36.1035C75.0143 36.1035 74.2148 36.903 74.2148 37.8892V41.7542V42.2542H74.7148H77.2863Z" stroke="#FFA500"/>
<path d="M83.2863 42.2542H83.7863V41.7542V37.8892C83.7863 36.903 82.9868 36.1035 82.0006 36.1035C81.0143 36.1035 80.2148 36.903 80.2148 37.8892V41.7542V42.2542H80.7148H83.2863Z" stroke="#FFA500"/>
<path d="M92.714 42.2542H93.214V41.7542V37.8892C93.214 36.903 92.4145 36.1035 91.4283 36.1035C90.4421 36.1035 89.6426 36.903 89.6426 37.8892V41.7542V42.2542H90.1426H92.714Z" stroke="#FFA500"/>
<path d="M102.999 42.2542H103.499V41.7542V37.8892C103.499 36.903 102.7 36.1035 101.713 36.1035C100.727 36.1035 99.9277 36.903 99.9277 37.8892V41.7542V42.2542H100.428H102.999Z" stroke="#FFA500"/>
<path d="M108.999 42.2542H109.499V41.7542V37.8892C109.499 36.903 108.7 36.1035 107.713 36.1035C106.727 36.1035 105.928 36.903 105.928 37.8892V41.7542V42.2542H106.428H108.999Z" stroke="#FFA500"/>
<path d="M118.429 42.2542H118.929V41.7542V37.8892C118.929 36.903 118.129 36.1035 117.143 36.1035C116.157 36.1035 115.357 36.903 115.357 37.8892V41.7542V42.2542H115.857H118.429Z" stroke="#FFA500"/>
<path d="M36.6445 33.5282V20.719C36.6445 19.8117 37.3801 19.0762 38.2874 19.0762C39.1947 19.0762 39.9302 19.8117 39.9302 20.719V23.2118V33.5282H36.6445Z" stroke="#FFA500"/>
<path d="M37.8594 28.0184C37.8594 27.7817 38.0513 27.5898 38.2879 27.5898V27.5898C38.5246 27.5898 38.7165 27.7817 38.7165 28.0184V32.7405H37.8594V28.0184Z" fill="#FFA500"/>
<line x1="35.2871" y1="24.5137" x2="41.2871" y2="24.5137" stroke="#FFA500"/>
<line x1="38.2148" y1="19.8633" x2="38.2148" y2="16.0003" stroke="#FFA500"/>
<path d="M119.787 33.5282V20.719C119.787 19.8117 120.523 19.0762 121.43 19.0762C122.337 19.0762 123.073 19.8117 123.073 20.719V23.2118V33.5282H119.787Z" stroke="#FFA500"/>
<path d="M121.002 28.0184C121.002 27.7817 121.194 27.5898 121.431 27.5898V27.5898C121.667 27.5898 121.859 27.7817 121.859 28.0184V32.7405H121.002V28.0184Z" fill="#FFA500"/>
<line x1="118.43" y1="24.5137" x2="124.43" y2="24.5137" stroke="#FFA500"/>
<line x1="121.357" y1="19.8633" x2="121.357" y2="16.0003" stroke="#FFA500"/>
<path d="M73.2852 22.9375H80.428C81.2564 22.9375 81.928 23.6091 81.928 24.4375V33.5265H71.7852V24.4375C71.7852 23.6091 72.4567 22.9375 73.2852 22.9375Z" stroke="#FFA500"/>
<defs>
<linearGradient id="paint0_linear_894_3254" x1="0" y1="111.852" x2="37.1613" y2="111.852" gradientUnits="userSpaceOnUse">
<stop stop-color="white"/>
<stop offset="1" stop-color="#FFA500"/>
</linearGradient>
<linearGradient id="paint1_linear_894_3254" x1="120.029" y1="111.852" x2="157.195" y2="111.852" gradientUnits="userSpaceOnUse">
<stop stop-color="#FFA500"/>
<stop offset="1" stop-color="white"/>
</linearGradient>
</defs>
</svg>
