<svg width="158" height="113" viewBox="0 0 158 113" fill="none" xmlns="http://www.w3.org/2000/svg">
<mask id="mask0_888_11" style="mask-type:luminance" maskUnits="userSpaceOnUse" x="0" y="0" width="158" height="113">
<path d="M0.00144278 0H157.198V112.96H0L0.00144278 0Z" fill="white"/>
</mask>
<g mask="url(#mask0_888_11)">
<path d="M37.168 79.61H57.8997V111.245H54.6002V92.6177H55.0417C55.1163 92.6174 55.1901 92.595 55.2589 92.5517C55.3277 92.5084 55.3902 92.4451 55.4427 92.3654C55.4952 92.2857 55.5368 92.1911 55.565 92.0872C55.5933 91.9833 55.6076 91.872 55.6072 91.7597C55.6076 91.6474 55.5933 91.5361 55.565 91.4321C55.5368 91.3282 55.4952 91.2337 55.4427 91.154C55.3902 91.0743 55.3277 91.0109 55.2589 90.9676C55.1901 90.9243 55.1163 90.9019 55.0417 90.9016H54.6002V90.7126C54.6002 83.7982 49.4829 81.1827 49.2636 81.0806H49.2593C49.2305 81.069 49.2016 81.0596 49.1727 81.0524C49.166 81.0524 49.1574 81.0502 49.1468 81.0459H49.0342C49.0198 81.0459 48.9996 81.0567 48.9852 81.0567C48.9632 81.0621 48.9415 81.0701 48.9203 81.0806H48.9131C48.6952 81.1892 43.575 83.796 43.575 90.7126V90.9016H43.135C43.0604 90.9019 42.9866 90.9243 42.9178 90.9676C42.849 91.0109 42.7865 91.0743 42.734 91.154C42.6815 91.2337 42.6399 91.3282 42.6117 91.4321C42.5834 91.5361 42.5691 91.6474 42.5695 91.7597C42.5695 92.2332 42.8219 92.6177 43.135 92.6177H43.5765V111.245H37.168V79.61ZM42.2795 72.2784V77.896H40.2885V72.2784H42.2795ZM45.4001 72.2784V77.896H43.4091V72.2784H45.4001ZM48.5206 72.2784V77.896H46.5297V72.2784H48.5206ZM51.6427 72.2784V77.896H49.6517V72.2784H51.6427ZM54.7632 72.2784V77.896H52.7723V72.2784H54.7632ZM57.8982 72.2784V77.896H55.8929V72.2784H57.8982ZM66.5083 62.9375H68.6724V70.5623H66.5083V62.9375ZM101.306 72.2784V77.896H99.3011V72.2784H101.306ZM104.427 72.2784V77.896H102.436V72.2784H104.427ZM107.548 72.2784V77.896H105.557V72.2784H107.548ZM110.668 72.2784V77.896H108.677V72.2784H110.668ZM113.789 72.2784V77.896H111.798V72.2784H113.789ZM116.909 72.2784V77.896H114.92V72.2784H116.909ZM111.437 100.544C111.169 97.0601 109.288 95.3744 108.26 94.9508C108.25 94.9522 108.237 94.9486 108.221 94.9399C108.203 94.9399 108.184 94.9269 108.165 94.9269H108.055C108.035 94.9264 108.015 94.9323 107.996 94.9443C107.985 94.9443 107.973 94.9464 107.962 94.9508C106.933 95.3744 105.052 97.0601 104.785 100.544C104.645 100.567 104.516 100.666 104.422 100.823C104.328 100.981 104.276 101.185 104.276 101.396V111.245H103.726V92.6177H112.489V111.245H111.938V101.396C111.939 101.184 111.888 100.979 111.794 100.822C111.7 100.664 111.57 100.565 111.43 100.544H111.437ZM113.627 92.6221H114.069C114.143 92.6215 114.217 92.5989 114.285 92.5554C114.354 92.512 114.416 92.4486 114.469 92.369C114.521 92.2893 114.563 92.1949 114.591 92.0911C114.619 91.9873 114.633 91.8761 114.633 91.764C114.633 91.6519 114.619 91.5408 114.591 91.437C114.563 91.3332 114.521 91.2388 114.469 91.1591C114.416 91.0794 114.354 91.016 114.285 90.9726C114.217 90.9292 114.143 90.9065 114.069 90.906H113.627V90.717C113.627 83.8025 108.508 81.1892 108.289 81.0871H108.286C108.257 81.0755 108.229 81.0654 108.2 81.0567C108.193 81.0567 108.185 81.0553 108.177 81.0524H108.064C108.05 81.0524 108.034 81.0632 108.018 81.0632C107.996 81.0669 107.975 81.0741 107.954 81.085H107.947C107.728 81.1936 102.609 83.8025 102.609 90.7191V90.906H102.169C102.095 90.9062 102.021 90.9287 101.952 90.972C101.883 91.0153 101.821 91.0786 101.768 91.1583C101.716 91.238 101.674 91.3325 101.646 91.4365C101.618 91.5404 101.603 91.6517 101.604 91.764C101.604 92.2398 101.856 92.6221 102.169 92.6221H102.609V111.252H99.3112V79.6165H120.043V111.252H113.634V92.6221H113.627ZM90.691 70.5623H88.5269V62.9375H90.691V70.5623ZM88.0898 90.906H87.2646C86.9183 78.1002 78.8291 74.6462 78.7468 74.6137C78.7353 74.6151 78.7237 74.6108 78.7122 74.6006C78.6934 74.6006 78.6747 74.5898 78.6559 74.5898H78.5463C78.5261 74.5927 78.5049 74.5985 78.4828 74.6071C78.4732 74.6071 78.4636 74.6086 78.454 74.6115C78.3703 74.6462 70.281 78.1002 69.9348 90.906H69.1052C69.0306 90.9062 68.9568 90.9287 68.888 90.972C68.8192 91.0153 68.7567 91.0786 68.7042 91.1583C68.6517 91.238 68.6101 91.3325 68.5819 91.4365C68.5536 91.5404 68.5393 91.6517 68.5397 91.764V111.25H67.7707V72.2871H89.4258V111.254H88.6554V91.7684C88.6559 91.6559 88.6417 91.5443 88.6136 91.4402C88.5854 91.336 88.5439 91.2412 88.4913 91.1612C88.4388 91.0813 88.3763 91.0178 88.3073 90.9744C88.2384 90.9309 88.1645 90.9062 88.0898 90.906ZM87.3973 70.5645H85.4064V62.9397H87.3973V70.5645ZM84.2767 70.5645H82.2858V62.9397H84.2767V70.5645ZM81.1547 70.5645H79.1638V62.9397H81.1547V70.5645ZM78.0341 70.5645H76.0432V62.9397H78.0341V70.5645ZM74.9136 70.5645H72.9226V62.9397H74.9136V70.5645ZM71.793 70.5645H69.802V62.9397H71.793V70.5645ZM44.7032 92.6221H53.4662V111.252H52.9166V101.403C52.9183 101.19 52.8669 100.984 52.7726 100.826C52.6782 100.668 52.5478 100.569 52.4073 100.549C52.1404 97.0666 50.2577 95.3787 49.229 94.9551C49.2194 94.9566 49.2069 94.953 49.1915 94.9443C49.1727 94.9443 49.154 94.9334 49.1352 94.9334H49.027C49.0062 94.9326 48.9856 94.9385 48.9664 94.9508C48.9549 94.9508 48.9434 94.9522 48.9318 94.9551C47.9032 95.3787 46.0219 97.0666 45.755 100.549C45.6151 100.571 45.4856 100.671 45.3916 100.829C45.2976 100.986 45.2456 101.191 45.2457 101.403V111.252H44.696V92.6221H44.7032ZM120.034 77.9004H118.043V72.2849H120.034V77.9004ZM120.034 70.5688H98.0373V62.944H120.034V70.5688ZM37.168 62.944H59.1649V70.5688H37.168V62.944ZM39.1589 72.2849V77.9004H37.168V72.2849H39.1589Z" fill="#F5F5F5"/>
<path d="M60.7305 58.7806V49.4983H64.9518V58.7806H60.7305ZM92.2594 58.7806V49.4983H96.4808V58.7806H92.2594ZM94.3701 33.6035L95.9917 37.3051H92.7499L94.3701 33.6035ZM78.6071 45.5686H91.1298V47.7843H66.0815V45.5686H78.6071ZM62.8426 33.6035L64.4642 37.3051H61.2224L62.8426 33.6035Z" fill="#D8D8D8"/>
<path d="M77.5646 18.1138C77.7226 18.1023 77.8716 17.9996 77.9808 17.8271C78.0899 17.6546 78.1508 17.4255 78.1508 17.1873C78.1508 16.949 78.0899 16.7199 77.9808 16.5475C77.8716 16.375 77.7226 16.2723 77.5646 16.2608C77.4065 16.2723 77.2575 16.375 77.1483 16.5475C77.0392 16.7199 76.9783 16.949 76.9783 17.1873C76.9783 17.4255 77.0392 17.6546 77.1483 17.8271C77.2575 17.9996 77.4065 18.1023 77.5646 18.1138ZM115.568 27.5807C115.629 27.6555 115.705 27.6964 115.783 27.6964C115.862 27.6964 115.938 27.6555 115.998 27.5807L117.959 25.126L119.915 27.5807C119.976 27.6555 120.052 27.6964 120.13 27.6964C120.209 27.6964 120.285 27.6555 120.345 27.5807L122.304 25.126L124.265 27.5807C124.334 27.6665 124.423 27.7076 124.512 27.6949C124.602 27.6823 124.684 27.617 124.741 27.5134C124.797 27.4074 124.824 27.2726 124.816 27.1376C124.807 27.0025 124.764 26.8778 124.695 26.79L122.519 24.0681C122.459 23.9932 122.383 23.9523 122.304 23.9523C122.226 23.9523 122.15 23.9932 122.089 24.0681L120.13 26.5228L118.174 24.0681C118.113 23.9932 118.037 23.9523 117.959 23.9523C117.881 23.9523 117.805 23.9932 117.744 24.0681L115.783 26.5228L113.827 24.0681C113.758 23.9827 113.669 23.942 113.58 23.9551C113.491 23.9681 113.409 24.0337 113.352 24.1376C113.296 24.2434 113.27 24.3777 113.279 24.5122C113.287 24.6468 113.33 24.771 113.399 24.8588L115.568 27.5807ZM45.4239 5.18203H47.8895C47.3511 6.11559 47.0111 7.27083 46.9134 8.49843C46.8156 9.72603 46.9647 10.9695 47.3413 12.0682H45.4225C45.348 12.0688 45.2743 12.0915 45.2057 12.1349C45.1371 12.1783 45.0748 12.2417 45.0224 12.3214C44.97 12.401 44.9286 12.4955 44.9004 12.5993C44.8723 12.7031 44.858 12.8142 44.8584 12.9263C44.8584 13.402 45.1108 13.7844 45.4239 13.7844H47.5043C47.6962 13.7844 47.865 13.6367 47.9674 13.4194C48.3536 14.0597 48.8244 14.5714 49.3496 14.922C49.8748 15.2725 50.4428 15.454 51.0173 15.4549H58.8267C59.8136 15.4531 60.7599 14.8622 61.4579 13.8116C62.1559 12.7609 62.5488 11.3364 62.5503 9.85032C62.5488 8.3646 62.1561 6.9404 61.4584 5.88984C60.7607 4.83928 59.8148 4.24806 58.8281 4.24577C58.4443 4.24866 58.0707 4.33555 57.7071 4.50644C57.5347 3.23941 57.0776 2.10053 56.4128 1.28152C55.7479 0.462514 54.916 0.0133932 54.0571 0.00976562C52.6475 0.00976563 51.3881 1.18281 50.7504 3.03579C50.3031 3.07924 49.8761 3.23564 49.4765 3.4746H45.4225C45.3478 3.4746 45.2738 3.49682 45.2048 3.54C45.1358 3.58317 45.0732 3.64644 45.0205 3.72618C44.9678 3.80591 44.9261 3.90054 44.8978 4.00462C44.8695 4.1087 44.8551 4.22018 44.8555 4.33266C44.8555 4.80839 45.1079 5.19072 45.421 5.19072L45.4239 5.18203ZM51.036 4.73019H51.0966C51.2131 4.7343 51.3276 4.68525 51.4252 4.58948C51.5228 4.49371 51.5989 4.35571 51.6434 4.19363C51.8672 3.34841 52.2798 2.64719 52.8101 2.21075C53.3403 1.77431 53.9551 1.62999 54.5484 1.80264C55.1417 1.9753 55.6765 2.45412 56.0606 3.15663C56.4446 3.85913 56.654 4.74133 56.6525 5.65125V5.73814C56.6475 5.89096 56.67 6.04298 56.7178 6.17806C56.7655 6.31313 56.8367 6.42621 56.9237 6.50529C57.0107 6.58438 57.1103 6.62651 57.2119 6.62722C57.3135 6.62792 57.4133 6.58718 57.5008 6.50931C57.8934 6.15695 58.341 5.96715 58.798 5.95916C59.2551 5.95117 59.7054 6.12526 60.1034 6.4638C60.5013 6.80234 60.8328 7.29328 61.0641 7.88686C61.2955 8.48045 61.4185 9.15557 61.4207 9.8438C61.4207 11.99 60.2549 13.7322 58.8267 13.7322H51.0173C49.3625 13.7322 48.0164 11.7142 48.0164 9.22687C48.018 8.63203 48.0975 8.0435 48.2504 7.49503C48.4033 6.94657 48.6267 6.44896 48.9076 6.03078C49.1886 5.61259 49.5216 5.28205 49.8876 5.05811C50.2536 4.83418 50.6453 4.72127 51.0404 4.72585L51.036 4.73019Z" fill="#3C3C3C"/>
<path d="M41.5913 8.58496H45.7521C45.8266 8.58467 45.9004 8.56224 45.9693 8.51894C46.0381 8.47563 46.1005 8.41232 46.1531 8.33261C46.2056 8.2529 46.2472 8.15837 46.2754 8.05443C46.3036 7.9505 46.318 7.83919 46.3176 7.7269C46.318 7.6146 46.3036 7.5033 46.2754 7.39936C46.2472 7.29542 46.2056 7.20089 46.1531 7.12119C46.1005 7.04148 46.0381 6.97816 45.9693 6.93486C45.9004 6.89156 45.8266 6.86912 45.7521 6.86884H41.5927C41.5181 6.86912 41.4443 6.89156 41.3755 6.93486C41.3067 6.97816 41.2443 7.04148 41.1917 7.12119C41.1392 7.20089 41.0976 7.29542 41.0694 7.39936C41.0411 7.5033 41.0268 7.6146 41.0272 7.7269C41.0272 8.20263 41.2782 8.58496 41.5913 8.58496ZM43.8794 12.9252C43.8798 12.8129 43.8655 12.7016 43.8372 12.5977C43.809 12.4938 43.7674 12.3992 43.7149 12.3195C43.6624 12.2398 43.5999 12.1765 43.5311 12.1332C43.4623 12.0899 43.3885 12.0675 43.3139 12.0672H42.8767C42.8022 12.0675 42.7284 12.0899 42.6595 12.1332C42.5907 12.1765 42.5283 12.2398 42.4757 12.3195C42.4232 12.3992 42.3816 12.4938 42.3534 12.5977C42.3252 12.7016 42.3108 12.8129 42.3112 12.9252C42.3112 13.401 42.5637 13.7833 42.8767 13.7833H43.3139C43.3885 13.783 43.4623 13.7606 43.5311 13.7173C43.5999 13.674 43.6624 13.6106 43.7149 13.5309C43.7674 13.4512 43.809 13.3567 43.8372 13.2528C43.8655 13.1488 43.8798 13.0375 43.8794 12.9252ZM49.3675 1.71612H49.8046C49.8792 1.71584 49.953 1.6934 50.0218 1.6501C50.0906 1.6068 50.1531 1.54348 50.2056 1.46377C50.2582 1.38407 50.2997 1.28954 50.328 1.1856C50.3562 1.08166 50.3705 0.970356 50.3702 0.858061C50.3705 0.745767 50.3562 0.634463 50.328 0.530526C50.2997 0.426588 50.2582 0.332058 50.2056 0.252351C50.1531 0.172644 50.0906 0.109325 50.0218 0.0660228C49.953 0.0227202 49.8792 0.000284284 49.8046 0L49.3675 0C49.2929 0.000284284 49.2191 0.0227202 49.1503 0.0660228C49.0815 0.109325 49.019 0.172644 48.9665 0.252351C48.9139 0.332058 48.8724 0.426588 48.8441 0.530526C48.8159 0.634463 48.8016 0.745767 48.8019 0.858061C48.8019 1.33162 49.0544 1.71612 49.3675 1.71612ZM34.2926 43.2159H34.8293V44.0283C34.8238 44.1453 34.8343 44.2627 34.8602 44.3732C34.8861 44.4838 34.9268 44.5851 34.9799 44.6709C35.0329 44.7567 35.0972 44.8252 35.1686 44.872C35.24 44.9188 35.317 44.9429 35.3949 44.9429C35.4727 44.9429 35.5497 44.9188 35.6211 44.872C35.6925 44.8252 35.7568 44.7567 35.8098 44.6709C35.8629 44.5851 35.9036 44.4838 35.9295 44.3732C35.9554 44.2627 35.9659 44.1453 35.9604 44.0283V43.2159H36.4956C36.5702 43.2156 36.644 43.1932 36.7128 43.1499C36.7816 43.1066 36.8441 43.0432 36.8966 42.9635C36.9492 42.8838 36.9908 42.7893 37.019 42.6854C37.0472 42.5814 37.0616 42.4701 37.0612 42.3578C37.0614 42.2457 37.0469 42.1346 37.0186 42.031C36.9903 41.9273 36.9486 41.833 36.8961 41.7535C36.8436 41.674 36.7812 41.6109 36.7125 41.5677C36.6438 41.5246 36.5701 41.5022 36.4956 41.5019H35.9618V40.6895C35.9657 40.5739 35.9539 40.4583 35.9272 40.3498C35.9005 40.2413 35.8594 40.1421 35.8065 40.0582C35.7535 39.9743 35.6898 39.9075 35.6191 39.8619C35.5485 39.8163 35.4724 39.7927 35.3956 39.7927C35.3187 39.7927 35.2426 39.8163 35.172 39.8619C35.1014 39.9075 35.0376 39.9743 34.9847 40.0582C34.9317 40.1421 34.8906 40.2413 34.8639 40.3498C34.8372 40.4583 34.8254 40.5739 34.8293 40.6895V41.4998H34.2941C34.2195 41.5 34.1457 41.5225 34.0769 41.5658C34.0081 41.6091 33.9456 41.6724 33.8931 41.7521C33.8405 41.8318 33.7989 41.9263 33.7707 42.0303C33.7425 42.1342 33.7281 42.2455 33.7285 42.3578C33.7285 42.8336 33.9796 43.2159 34.2926 43.2159ZM80.6627 101.104H80.7767V101.275C80.7711 101.392 80.7816 101.509 80.8076 101.62C80.8335 101.731 80.8742 101.832 80.9273 101.918C80.9803 102.004 81.0446 102.072 81.1159 102.119C81.1873 102.166 81.2644 102.19 81.3422 102.19C81.4201 102.19 81.4971 102.166 81.5685 102.119C81.6399 102.072 81.7041 102.004 81.7572 101.918C81.8103 101.832 81.851 101.731 81.8769 101.62C81.9028 101.509 81.9133 101.392 81.9078 101.275V101.101H82.0203C82.0948 101.101 82.1684 101.079 82.2372 101.036C82.3059 100.992 82.3683 100.929 82.4208 100.85C82.4733 100.77 82.5149 100.676 82.5432 100.572C82.5716 100.469 82.586 100.358 82.5858 100.245C82.5862 100.133 82.5719 100.022 82.5437 99.9179C82.5154 99.814 82.4739 99.7195 82.4213 99.6398C82.3688 99.5601 82.3063 99.4967 82.2375 99.4534C82.1687 99.4101 82.0949 99.3877 82.0203 99.3874H81.9078V99.2158C81.9133 99.0989 81.9028 98.9815 81.8769 98.8709C81.851 98.7603 81.8103 98.659 81.7572 98.5732C81.7041 98.4874 81.6399 98.4189 81.5685 98.3722C81.4971 98.3254 81.4201 98.3012 81.3422 98.3012C81.2644 98.3012 81.1873 98.3254 81.1159 98.3722C81.0446 98.4189 80.9803 98.4874 80.9273 98.5732C80.8742 98.659 80.8335 98.7603 80.8076 98.8709C80.7816 98.9815 80.7711 99.0989 80.7767 99.2158V99.3874H80.6613C80.5867 99.3877 80.5129 99.4101 80.4441 99.4534C80.3753 99.4967 80.3128 99.5601 80.2603 99.6398C80.2077 99.7195 80.1662 99.814 80.1379 99.9179C80.1097 100.022 80.0953 100.133 80.0957 100.245C80.0957 100.719 80.3496 101.104 80.6627 101.104ZM111.387 47.4649C111.461 47.4646 111.535 47.4423 111.604 47.3991C111.672 47.3559 111.735 47.2928 111.787 47.2133C111.84 47.1339 111.881 47.0396 111.91 46.9359C111.938 46.8322 111.952 46.7211 111.952 46.609V46.4352H112.065C112.139 46.435 112.213 46.4126 112.282 46.3694C112.35 46.3263 112.413 46.2631 112.465 46.1837C112.518 46.1042 112.559 46.0099 112.588 45.9062C112.616 45.8025 112.63 45.6915 112.63 45.5794C112.631 45.4671 112.616 45.3558 112.588 45.2518C112.56 45.1479 112.518 45.0534 112.466 44.9736C112.413 44.8939 112.351 44.8306 112.282 44.7873C112.213 44.744 112.139 44.7216 112.065 44.7213H111.952V44.5475C111.958 44.4306 111.947 44.3132 111.921 44.2026C111.895 44.092 111.855 43.9907 111.802 43.9049C111.749 43.8191 111.684 43.7507 111.613 43.7039C111.542 43.6571 111.464 43.6329 111.387 43.6329C111.309 43.6329 111.232 43.6571 111.16 43.7039C111.089 43.7507 111.025 43.8191 110.972 43.9049C110.919 43.9907 110.878 44.092 110.852 44.2026C110.826 44.3132 110.816 44.4306 110.821 44.5475V44.7213H110.707C110.633 44.7216 110.559 44.744 110.49 44.7873C110.421 44.8306 110.359 44.8939 110.306 44.9736C110.254 45.0534 110.212 45.1479 110.184 45.2518C110.156 45.3558 110.141 45.4671 110.142 45.5794C110.142 46.0529 110.394 46.4374 110.707 46.4374H110.821V46.609C110.821 47.0826 111.074 47.4649 111.387 47.4649Z" fill="#3C3C3C"/>
<path fill-rule="evenodd" clip-rule="evenodd" d="M59.5938 49.4944H58.4974C58.4228 49.4941 58.349 49.4717 58.2802 49.4284C58.2114 49.3851 58.1489 49.3218 58.0964 49.2421C58.0438 49.1624 58.0023 49.0678 57.974 48.9639C57.9458 48.86 57.9315 48.7487 57.9318 48.6364C57.9318 48.1606 58.1843 47.7783 58.4974 47.7783H59.627V38.0833L59.6472 37.9291C59.6472 37.9204 59.6491 37.9109 59.653 37.9008C59.653 37.8892 59.6544 37.8791 59.6573 37.8704C59.6721 37.8087 59.6914 37.7496 59.715 37.6944V37.6771L62.2931 31.7858V28.5534C62.2931 28.0798 62.5456 27.6953 62.8587 27.6953C63.1703 27.6953 63.4228 28.0798 63.4228 28.5555V31.7858L66.0009 37.6836V37.6944C66.0237 37.751 66.043 37.8107 66.0586 37.8726L66.0615 37.8856C66.0663 37.9001 66.0692 37.9146 66.0702 37.9291C66.0824 37.9776 66.0888 38.0291 66.0889 38.0811V43.8486H91.1343V38.0833C91.1367 38.021 91.1449 37.9596 91.1589 37.9008L91.1646 37.8704C91.1794 37.8087 91.1988 37.7496 91.2223 37.6944V37.6771L93.799 31.7858V28.5534C93.799 28.0798 94.0515 27.6953 94.3646 27.6953C94.6776 27.6953 94.9301 28.0798 94.9301 28.5555V31.7858L97.4664 37.5793L97.4822 37.6162L97.4967 37.6532L97.5111 37.6901L97.527 37.7292C97.5539 37.7985 97.5743 37.8731 97.5876 37.9508C97.5953 37.9754 97.5991 38.0007 97.5991 38.0268L97.6063 38.0789C97.6103 38.1046 97.6127 38.1308 97.6135 38.1571C97.6135 38.1789 97.6126 38.1977 97.6107 38.2136L97.6063 38.2723V47.7783H98.7374C99.0505 47.7783 99.3029 48.1606 99.3029 48.6364C99.3033 48.7487 99.289 48.86 99.2608 48.9639C99.2325 49.0678 99.1909 49.1624 99.1384 49.2421C99.0859 49.3218 99.0234 49.3851 98.9546 49.4284C98.8858 49.4717 98.812 49.4941 98.7374 49.4944H97.6063V58.7767H121.809C122.122 58.7767 122.375 59.159 122.375 59.6348C122.375 59.747 122.361 59.8584 122.333 59.9623C122.304 60.0662 122.263 60.1608 122.21 60.2405C122.158 60.3202 122.095 60.3835 122.026 60.4268C121.958 60.4701 121.884 60.4925 121.809 60.4928H35.391C35.3165 60.4922 35.2429 60.4696 35.1742 60.4262C35.1056 60.3827 35.0433 60.3194 34.9909 60.2397C34.9385 60.16 34.8971 60.0656 34.8689 59.9618C34.8408 59.858 34.8265 59.7469 34.8269 59.6348C34.8269 59.159 35.0793 58.7767 35.391 58.7767H59.5953L59.5938 49.4944ZM60.7249 49.4944V58.7767H64.9463V49.4944H60.7249ZM64.9463 39.0152H60.7249V47.7783H64.9463V39.0152ZM91.1199 49.4944H66.073V58.7767H91.1185L91.1199 49.4944ZM92.251 39.0152V47.7783H96.4724V39.0152H92.251ZM92.251 49.4944V58.7767H96.4724V49.4944H92.251ZM95.9818 37.2991L94.3617 33.5996L92.7401 37.2991H95.9818ZM91.1199 45.5647H66.073V47.7783H91.1185L91.1199 45.5647ZM64.4558 37.2991L62.8356 33.5996L61.2154 37.2991H64.4558ZM121.164 72.2732V111.331L29.1945 111.338V109.8L29.0142 109.793L28.8324 109.789H28.3852C28.0968 109.788 27.8115 109.701 27.5454 109.534C27.2794 109.366 27.0379 109.122 26.8347 108.813C26.6315 108.505 26.4707 108.14 26.3615 107.738C26.2522 107.336 26.1967 106.906 26.198 106.472C26.198 105.001 26.8357 103.748 27.71 103.313V103.148C27.71 101.317 28.691 99.8311 29.8957 99.8311C30.8234 99.8311 31.6298 100.7 31.9429 101.993C32.7537 102.696 33.2774 103.972 33.3221 105.403C33.3599 106.504 33.1062 107.582 32.6167 108.402C32.1272 109.222 31.4418 109.716 30.7108 109.776C30.6098 109.789 30.4814 109.795 30.3256 109.793V111.334H36.0387V72.2754H35.3953C35.3206 72.2751 35.2467 72.2526 35.1778 72.2092C35.1089 72.1657 35.0463 72.1022 34.9938 72.0223C34.9412 71.9424 34.8997 71.8476 34.8715 71.7434C34.8434 71.6392 34.8292 71.5277 34.8298 71.4152C34.8298 70.9416 35.0822 70.5593 35.3953 70.5593H36.0402V62.9345H35.3953C35.3207 62.9342 35.2469 62.9118 35.1781 62.8685C35.1093 62.8252 35.0468 62.7618 34.9943 62.6821C34.9418 62.6024 34.9002 62.5079 34.8719 62.404C34.8437 62.3 34.8294 62.1887 34.8298 62.0764C34.8298 61.6029 35.0822 61.2184 35.3953 61.2184H121.809C122.121 61.2184 122.373 61.6029 122.373 62.0764C122.374 62.1885 122.359 62.2997 122.331 62.4035C122.303 62.5073 122.262 62.6017 122.209 62.6814C122.157 62.7611 122.095 62.8244 122.026 62.8678C121.957 62.9113 121.884 62.9339 121.809 62.9345H121.164V70.5593H121.809C122.121 70.5593 122.373 70.9416 122.373 71.4173C122.374 71.5295 122.359 71.6406 122.331 71.7444C122.303 71.8482 122.262 71.9426 122.209 72.0223C122.157 72.102 122.095 72.1653 122.026 72.2088C121.957 72.2522 121.884 72.2748 121.809 72.2754L121.164 72.2732ZM27.3291 106.478C27.3291 107.36 27.8052 108.079 28.3852 108.079H28.8367C29.4138 108.092 30.2996 108.103 30.6502 108.075C30.8641 108.059 31.0737 107.979 31.2671 107.841C31.4605 107.702 31.6339 107.508 31.7772 107.268C31.9205 107.029 32.0309 106.749 32.1022 106.445C32.1735 106.141 32.2041 105.818 32.1925 105.497C32.1781 105.045 32.0813 104.609 31.9128 104.235C31.7443 103.862 31.5106 103.565 31.2374 103.379C31.1586 103.323 31.0891 103.242 31.0341 103.14C30.9791 103.038 30.9401 102.919 30.92 102.792C30.8687 102.441 30.7391 102.126 30.5528 101.901C30.3665 101.676 30.1346 101.553 29.8957 101.554C29.7246 101.556 29.5563 101.62 29.4053 101.741C29.2542 101.862 29.1247 102.036 29.0278 102.248C28.931 102.461 28.8696 102.705 28.8489 102.961C28.8282 103.217 28.8487 103.476 28.9089 103.717C28.9405 103.847 28.9511 103.986 28.9398 104.123C28.9285 104.261 28.8956 104.392 28.844 104.506C28.7926 104.62 28.7236 104.713 28.6429 104.778C28.5622 104.843 28.4723 104.877 28.3808 104.877C28.1005 104.881 27.8324 105.051 27.6351 105.351C27.4378 105.651 27.3287 106.056 27.3291 106.478ZM57.8987 79.6135H37.1713V111.247H43.5798V92.6191H43.1383C43.0637 92.6188 42.9899 92.5964 42.9211 92.553C42.8523 92.5097 42.7898 92.4464 42.7373 92.3667C42.6848 92.287 42.6432 92.1925 42.615 92.0885C42.5867 91.9846 42.5724 91.8733 42.5728 91.761C42.5728 91.2853 42.8252 90.903 43.1383 90.903H43.5798V90.714C43.5798 83.7995 48.6985 81.1906 48.9178 81.0819H48.925C48.9536 81.068 48.9831 81.0585 49.013 81.0537L49.0375 81.0472H49.1515L49.1775 81.0537C49.2068 81.0598 49.2357 81.0692 49.264 81.0819H49.2669C49.4862 81.184 54.605 83.7973 54.605 90.714V90.903H55.045C55.3581 90.903 55.6105 91.2853 55.6105 91.761C55.6109 91.8733 55.5966 91.9846 55.5683 92.0885C55.5401 92.1925 55.4985 92.287 55.446 92.3667C55.3935 92.4464 55.331 92.5097 55.2622 92.553C55.1934 92.5964 55.1196 92.6188 55.045 92.6191H54.605V111.247H57.903L57.8987 79.6135ZM42.2799 77.8973V72.2819H40.289V77.8995L42.2799 77.8973ZM45.4005 77.8973V72.2819H43.4095V77.8995L45.4005 77.8973ZM48.5225 77.8973V72.2819H46.5316V77.8995L48.5225 77.8973ZM51.6431 77.8973V72.2819H49.6521V77.8995L51.6431 77.8973ZM54.7637 77.8973V72.2819H52.7727V77.8995L54.7637 77.8973ZM57.9001 77.8973V72.2819H55.8947V77.8995L57.9001 77.8973ZM66.6444 72.2819H59.0326V111.247H66.6458L66.6444 72.2819ZM68.6728 62.941H66.5087V70.5658H68.6728V62.941ZM101.307 77.8995V72.2819H99.3015V77.8995H101.307ZM104.427 77.8995V72.2819H102.437V77.8995H104.427ZM107.548 77.8995V72.2819H105.557V77.8995H107.548ZM110.669 77.8995V72.2819H108.678V77.8995H110.669ZM113.789 77.8995V72.2819H111.8V77.8995H113.789ZM116.911 77.8995V72.2819H114.92V77.8995H116.911ZM110.341 101.4C110.341 98.1737 108.626 96.9724 108.114 96.6856H108.109C107.586 96.9724 105.886 98.1628 105.886 101.4C105.886 101.83 105.678 102.184 105.41 102.247V111.249H110.816V102.247C110.682 102.215 110.561 102.112 110.474 101.956C110.386 101.801 110.339 101.603 110.341 101.4ZM108.261 94.9543C109.289 95.3779 111.171 97.0636 111.438 100.548H111.43C111.571 100.568 111.701 100.667 111.795 100.824C111.889 100.982 111.941 101.187 111.94 101.4V111.249H112.489V92.6212H103.728V111.249H104.277V101.4C104.277 100.959 104.5 100.594 104.787 100.548C105.055 97.0658 106.936 95.3779 107.964 94.9543C107.975 94.9485 107.987 94.9463 107.998 94.9478C108.017 94.9355 108.038 94.9296 108.059 94.9304H108.168L108.197 94.9369C108.206 94.9398 108.215 94.942 108.225 94.9434C108.238 94.9521 108.249 94.9557 108.261 94.9543ZM108.118 82.8176C108.953 83.3129 112.498 85.7046 112.498 90.7226V90.9095H103.735V90.7226C103.735 85.7046 107.278 83.3129 108.118 82.8176ZM114.069 92.6256H113.636V111.255H120.042V79.6178H99.3159V111.253H102.613V92.6234H102.172C102.098 92.6231 102.024 92.6007 101.955 92.5574C101.886 92.5141 101.824 92.4508 101.771 92.3711C101.719 92.2914 101.677 92.1968 101.649 92.0929C101.621 91.989 101.607 91.8776 101.607 91.7654C101.607 91.2918 101.859 90.9073 102.172 90.9073H102.613V90.7205C102.613 83.8038 107.733 81.1971 107.951 81.0885H107.958C107.977 81.0783 107.999 81.0711 108.023 81.0667L108.044 81.0602L108.067 81.0537H108.181L108.196 81.058H108.203C108.232 81.0653 108.261 81.0754 108.29 81.0885H108.294C108.512 81.1906 113.632 83.8038 113.632 90.7205V90.9073H114.072C114.385 90.9073 114.638 91.2918 114.638 91.7654C114.638 91.8776 114.624 91.989 114.595 92.0929C114.567 92.1968 114.525 92.2914 114.473 92.3711C114.42 92.4508 114.358 92.5141 114.289 92.5574C114.22 92.6007 114.147 92.6231 114.072 92.6234M98.1733 78.7554V72.2819H90.5558V111.247H98.1704L98.1733 78.7554ZM91.8254 70.5658H96.9066V62.941H91.8254V70.5658ZM88.5317 70.5658H90.6958V62.941H88.5317V70.5658ZM86.1498 91.7675C86.1498 80.4759 79.6432 76.8438 78.6001 76.3355C77.495 76.8568 71.0547 80.3912 71.0547 91.7654C71.0551 91.8778 71.0407 91.9893 71.0124 92.0934C70.9841 92.1975 70.9424 92.2921 70.8897 92.3718C70.837 92.4516 70.7744 92.5148 70.7054 92.558C70.6364 92.6012 70.5624 92.6234 70.4877 92.6234H69.674V111.253H87.529V92.6234H86.7153C86.6407 92.6231 86.5669 92.6007 86.4981 92.5574C86.4293 92.5141 86.3668 92.4508 86.3143 92.3711C86.2618 92.2914 86.2202 92.1968 86.192 92.0929C86.1637 91.989 86.1494 91.8798 86.1498 91.7675ZM87.2693 90.9051H88.0945C88.4076 90.9051 88.6601 91.2896 88.6601 91.7632V111.249H89.4291V72.2884H67.774V111.255H68.543V91.7697C68.543 91.2918 68.7954 90.9095 69.1085 90.9095H69.9381C70.2843 78.1037 78.3736 74.6497 78.4558 74.6172C78.4654 74.6114 78.4755 74.6092 78.4861 74.6106L78.5092 74.602C78.5227 74.5962 78.5366 74.5933 78.551 74.5933H78.6607L78.6881 74.5976L78.7169 74.6041C78.7275 74.6128 78.7386 74.6164 78.7501 74.615C78.8338 74.6497 86.9216 78.1037 87.2693 90.9116M85.4111 70.568H87.4021V62.9432H85.4111V70.568ZM82.2891 70.568H84.28V62.9432H82.2891V70.568ZM79.1685 70.568H81.1595V62.9432H79.1685V70.568ZM76.0479 70.568H78.0389V62.9432H76.0479V70.568ZM72.9274 70.568H74.9183V62.9432H72.9274V70.568ZM69.8053 70.568H71.7963V62.9432H69.8053V70.568ZM49.0924 82.8198C48.2527 83.3151 44.7109 85.7068 44.7109 90.7248V90.9116H53.4739V90.7248C53.4739 85.7068 49.9291 83.3151 49.0924 82.8198ZM53.4695 92.6278H44.6993V111.257H45.249V101.408C45.249 100.967 45.4712 100.602 45.7583 100.557C46.0266 97.0723 47.9079 95.3866 48.9351 94.963C48.9467 94.9572 48.9582 94.955 48.9697 94.9565C48.9889 94.9442 49.0095 94.9382 49.0303 94.9391H49.14L49.1688 94.9456L49.1962 94.95C49.2083 94.9568 49.2209 94.9612 49.2338 94.963C50.2624 95.3844 52.1437 97.0723 52.4106 100.557C52.5509 100.577 52.6811 100.675 52.7754 100.833C52.8697 100.991 52.9212 101.196 52.9199 101.408V111.257H53.4695V92.6278ZM51.3141 101.404C51.3141 98.1758 49.5988 96.9745 49.0866 96.69H49.0823C48.5586 96.9745 46.8591 98.165 46.8591 101.404C46.8591 101.832 46.6513 102.186 46.383 102.249V111.251H51.7888V102.249C51.6553 102.217 51.5338 102.114 51.4467 101.958C51.3595 101.803 51.3125 101.607 51.3141 101.404ZM118.044 77.9017H120.033V72.2863H118.042L118.044 77.9017ZM98.0362 70.5701H120.033V62.9454H98.0362V70.5701ZM60.295 70.5701H65.3762V62.9454H60.295V70.5701ZM59.1625 62.9454H37.1669V70.5701H59.1625V62.9454ZM39.1564 77.9017V72.2863H37.1655V77.9017H39.1564Z" fill="#3C3C3C"/>
<path d="M60.1671 75.8991H65.5196C65.594 75.8985 65.6677 75.8759 65.7363 75.8324C65.805 75.789 65.8673 75.7256 65.9196 75.646C65.972 75.5663 66.0135 75.4719 66.0416 75.3681C66.0698 75.2643 66.084 75.1531 66.0837 75.041C66.084 74.9289 66.0698 74.8178 66.0416 74.714C66.0135 74.6102 65.972 74.5158 65.9196 74.4361C65.8673 74.3564 65.805 74.293 65.7363 74.2496C65.6677 74.2062 65.594 74.1835 65.5196 74.183H60.1671C60.0925 74.1832 60.0187 74.2057 59.9499 74.249C59.8811 74.2923 59.8186 74.3556 59.7661 74.4353C59.7136 74.515 59.672 74.6096 59.6438 74.7135C59.6155 74.8174 59.6012 74.9287 59.6016 75.041C59.6016 75.5146 59.854 75.8991 60.1671 75.8991ZM60.1671 79.6116H65.5196C65.594 79.611 65.6677 79.5883 65.7363 79.5449C65.805 79.5015 65.8673 79.4381 65.9196 79.3584C65.972 79.2788 66.0135 79.1843 66.0416 79.0805C66.0698 78.9767 66.084 78.8656 66.0837 78.7535C66.084 78.6414 66.0698 78.5303 66.0416 78.4265C66.0135 78.3227 65.972 78.2282 65.9196 78.1486C65.8673 78.0689 65.805 78.0055 65.7363 77.9621C65.6677 77.9186 65.594 77.896 65.5196 77.8954H60.1671C60.0925 77.8957 60.0187 77.9182 59.9499 77.9615C59.8811 78.0048 59.8186 78.0681 59.7661 78.1478C59.7136 78.2275 59.672 78.322 59.6438 78.426C59.6155 78.5299 59.6012 78.6412 59.6016 78.7535C59.6016 79.2271 59.854 79.6116 60.1671 79.6116ZM97.0456 74.183H91.6932C91.6186 74.1832 91.5448 74.2057 91.476 74.249C91.4072 74.2923 91.3447 74.3556 91.2922 74.4353C91.2396 74.515 91.1981 74.6096 91.1698 74.7135C91.1416 74.8174 91.1273 74.9287 91.1276 75.041C91.1276 75.5146 91.3801 75.8991 91.6932 75.8991H97.0456C97.1201 75.8985 97.1937 75.8759 97.2624 75.8324C97.331 75.789 97.3933 75.7256 97.4457 75.646C97.4981 75.5663 97.5395 75.4719 97.5677 75.3681C97.5958 75.2643 97.6101 75.1531 97.6097 75.041C97.6101 74.9287 97.5958 74.8174 97.5675 74.7135C97.5393 74.6096 97.4977 74.515 97.4452 74.4353C97.3927 74.3556 97.3302 74.2923 97.2614 74.249C97.1926 74.2057 97.1202 74.1832 97.0456 74.183ZM97.0456 77.8954H91.6932C91.6186 77.8957 91.5448 77.9182 91.476 77.9615C91.4072 78.0048 91.3447 78.0681 91.2922 78.1478C91.2396 78.2275 91.1981 78.322 91.1698 78.426C91.1416 78.5299 91.1273 78.6412 91.1276 78.7535C91.1276 79.2271 91.3801 79.6116 91.6932 79.6116H97.0456C97.1201 79.611 97.1937 79.5883 97.2624 79.5449C97.331 79.5015 97.3933 79.4381 97.4457 79.3584C97.4981 79.2788 97.5395 79.1843 97.5677 79.0805C97.5958 78.9767 97.6101 78.8656 97.6097 78.7535C97.6101 78.6412 97.5958 78.5299 97.5675 78.426C97.5393 78.322 97.4977 78.2275 97.4452 78.1478C97.3927 78.0681 97.3302 78.0048 97.2614 77.9615C97.1926 77.9182 97.1202 77.8957 97.0456 77.8954ZM62.839 40.3514C62.7644 40.3517 62.6906 40.3742 62.6218 40.4175C62.553 40.4608 62.4905 40.5241 62.438 40.6038C62.3855 40.6835 62.3439 40.778 62.3157 40.882C62.2874 40.9859 62.2731 41.0972 62.2735 41.2095V44.7047C62.2679 44.8217 62.2784 44.9391 62.3043 45.0497C62.3302 45.1602 62.371 45.2616 62.424 45.3474C62.4771 45.4332 62.5413 45.5016 62.6127 45.5484C62.6841 45.5952 62.7611 45.6193 62.839 45.6193C62.9169 45.6193 62.9939 45.5952 63.0653 45.5484C63.1367 45.5016 63.2009 45.4332 63.254 45.3474C63.307 45.2616 63.3478 45.1602 63.3737 45.0497C63.3996 44.9391 63.4101 44.8217 63.4046 44.7047V41.2095C63.4049 41.0972 63.3906 40.9859 63.3624 40.882C63.3341 40.778 63.2926 40.6835 63.24 40.6038C63.1875 40.5241 63.125 40.4608 63.0562 40.4175C62.9874 40.3742 62.9136 40.3517 62.839 40.3514ZM94.368 45.5628C94.4427 45.5628 94.5166 45.5406 94.5856 45.4974C94.6546 45.4542 94.7172 45.391 94.7699 45.3112C94.8226 45.2315 94.8643 45.1369 94.8926 45.0328C94.9209 44.9287 94.9353 44.8172 94.9349 44.7047V41.2095C94.9405 41.0926 94.93 40.9752 94.9041 40.8646C94.8782 40.754 94.8374 40.6527 94.7844 40.5669C94.7313 40.4811 94.6671 40.4127 94.5957 40.3659C94.5243 40.3191 94.4473 40.2949 94.3694 40.2949C94.2915 40.2949 94.2145 40.3191 94.1431 40.3659C94.0717 40.4127 94.0075 40.4811 93.9544 40.5669C93.9014 40.6527 93.8606 40.754 93.8347 40.8646C93.8088 40.9752 93.7983 41.0926 93.8039 41.2095V44.7047C93.8039 45.1783 94.0549 45.5628 94.368 45.5628Z" fill="#3C3C3C"/>
<path d="M37.1652 111.248H0.00390625V112.964H37.1652V111.248Z" fill="url(#paint0_linear_888_11)"/>
<path d="M120.034 111.248H37.168V112.964H120.034V111.248Z" fill="#3C3C3C"/>
<path d="M157.194 111.248H120.033V112.964H157.194V111.248Z" fill="url(#paint1_linear_888_11)"/>
</g>
<defs>
<linearGradient id="paint0_linear_888_11" x1="0.00390625" y1="112.106" x2="37.1652" y2="112.106" gradientUnits="userSpaceOnUse">
<stop stop-color="white"/>
<stop offset="1" stop-color="#3C3C3C"/>
</linearGradient>
<linearGradient id="paint1_linear_888_11" x1="120.033" y1="112.106" x2="157.199" y2="112.106" gradientUnits="userSpaceOnUse">
<stop stop-color="#3C3C3C"/>
<stop offset="1" stop-color="white"/>
</linearGradient>
</defs>
</svg>
