<svg width="158" height="113" viewBox="0 0 158 113" fill="none" xmlns="http://www.w3.org/2000/svg">
<mask id="mask0_895_3366" style="mask-type:luminance" maskUnits="userSpaceOnUse" x="0" y="0" width="158" height="113">
<path d="M0 0H157.196V112.709H0V0Z" fill="white"/>
</mask>
<g mask="url(#mask0_895_3366)">
<path d="M37.1613 110.996H0V112.708H37.1613V110.996Z" fill="url(#paint0_linear_895_3366)"/>
<path d="M120.032 110.996H37.166V112.708H120.032V110.996Z" fill="#FFA500"/>
<path d="M157.191 110.996H120.029V112.708H157.191V110.996Z" fill="url(#paint1_linear_895_3366)"/>
</g>
<path d="M94.2476 52.63H94.7476V52.13V34.8347C94.7476 33.623 93.7653 32.6406 92.5535 32.6406C91.3417 32.6406 90.3594 33.623 90.3594 34.8347V52.13V52.63H90.8594H94.2476Z" stroke="#FFA500"/>
<path d="M67.1421 52.63H67.6421V52.13V34.8347C67.6421 33.623 66.6598 32.6406 65.448 32.6406C64.2362 32.6406 63.2539 33.623 63.2539 34.8347V52.13V52.63H63.7539H67.1421Z" stroke="#FFA500"/>
<path d="M73.9175 50.7311H74.4175V50.2311V34.8347C74.4175 33.623 73.4352 32.6406 72.2234 32.6406C71.0116 32.6406 70.0293 33.623 70.0293 34.8347V50.2311V50.7311H70.5293H73.9175Z" stroke="#FFA500"/>
<path d="M70.5293 43.5859H73.9175" stroke="#FFA500"/>
<path d="M77.3066 43.5859H80.6949" stroke="#FFA500"/>
<path d="M84.082 43.5859H87.4703" stroke="#FFA500"/>
<path d="M80.6949 50.7311H81.1949V50.2311V34.8347C81.1949 33.623 80.2125 32.6406 79.0008 32.6406C77.789 32.6406 76.8066 33.623 76.8066 34.8347V50.2311V50.7311H77.3066H80.6949Z" stroke="#FFA500"/>
<path d="M87.4703 50.7311H87.9703V50.2311V34.8347C87.9703 33.623 86.9879 32.6406 85.7761 32.6406C84.5644 32.6406 83.582 33.623 83.582 34.8347V50.2311V50.7311H84.082H87.4703Z" stroke="#FFA500"/>
<rect x="65.3828" y="54.5312" width="26.1059" height="55.9682" stroke="#FFA500"/>
<path d="M31 110.999V51.9615L34.0407 50.2324H62.6235" stroke="#FFA500"/>
<path d="M127 110.999V51.9615L123.959 50.2324H95.3765" stroke="#FFA500"/>
<path d="M53.5879 51.1816V56.8785" stroke="#FFA500"/>
<path d="M103.848 51.1816V56.8785" stroke="#FFA500"/>
<path d="M31 54.0303H64.8824L62.5722 50.2324H61.2521" stroke="#FFA500"/>
<path d="M126.436 54.0303H92.5532L94.8634 50.2324H96.1834" stroke="#FFA500"/>
<path d="M42.2949 51.1816V56.8785" stroke="#FFA500"/>
<path d="M115.141 51.1816V56.8785" stroke="#FFA500"/>
<path d="M42.293 55.9297V101.165" stroke="#FFA500"/>
<path d="M42.293 101.166V111" stroke="#FFA500"/>
<path d="M115.143 55.9297V99.6053" stroke="#FFA500"/>
<path d="M115.143 99.6055V109.1" stroke="#FFA500"/>
<path d="M115.143 109.1V110.999" stroke="#FFA500"/>
<path d="M53.5879 55.9297V101.165" stroke="#FFA500"/>
<path d="M53.5879 101.166V111" stroke="#FFA500"/>
<path d="M103.846 55.9297V99.6053" stroke="#FFA500"/>
<path d="M103.846 99.6055V109.1" stroke="#FFA500"/>
<path d="M103.848 109.098V110.997" stroke="#FFA500"/>
<rect x="32.7578" y="78.2168" width="2.12941" height="8.59576" rx="1.06471" stroke="#FFA500"/>
<rect x="38.4043" y="78.2168" width="2.12941" height="8.59576" rx="1.06471" stroke="#FFA500"/>
<rect x="0.5" y="-0.5" width="2.12941" height="8.59576" rx="1.06471" transform="matrix(-1 0 0 1 125.178 78.7168)" stroke="#FFA500"/>
<rect x="0.5" y="-0.5" width="2.12941" height="8.59576" rx="1.06471" transform="matrix(-1 0 0 1 119.531 78.7168)" stroke="#FFA500"/>
<rect x="44.0527" y="78.2168" width="2.12941" height="8.59576" rx="1.06471" stroke="#FFA500"/>
<rect x="49.6992" y="78.2168" width="2.12941" height="8.59576" rx="1.06471" stroke="#FFA500"/>
<rect x="0.5" y="-0.5" width="2.12941" height="8.59576" rx="1.06471" transform="matrix(-1 0 0 1 113.883 78.7168)" stroke="#FFA500"/>
<rect x="0.5" y="-0.5" width="2.12941" height="8.59576" rx="1.06471" transform="matrix(-1 0 0 1 108.236 78.7168)" stroke="#FFA500"/>
<rect x="55.3457" y="78.2168" width="2.12941" height="8.59576" rx="1.06471" stroke="#FFA500"/>
<rect x="60.9922" y="78.2168" width="2.12941" height="8.59576" rx="1.06471" stroke="#FFA500"/>
<rect x="0.5" y="-0.5" width="2.12941" height="8.59576" rx="1.06471" transform="matrix(-1 0 0 1 102.588 78.7168)" stroke="#FFA500"/>
<rect x="0.5" y="-0.5" width="2.12941" height="8.59576" rx="1.06471" transform="matrix(-1 0 0 1 96.9414 78.7168)" stroke="#FFA500"/>
<path d="M31 72.0703H65.4471" stroke="#FFA500"/>
<path d="M126.436 72.0703H91.9885" stroke="#FFA500"/>
<path d="M78.4347 83.2647L84.7111 90.3001V110.498H72.1582V90.3001L78.4347 83.2647Z" stroke="#FFA500"/>
<path d="M72.2891 78.7159C72.2891 79.6903 72.0532 80.5483 71.6978 81.1458C71.3361 81.7539 70.9073 82.0137 70.5303 82.0137C70.1534 82.0137 69.7245 81.7539 69.3628 81.1458C69.0074 80.5483 68.7715 79.6903 68.7715 78.7159C68.7715 77.7414 69.0074 76.8834 69.3628 76.2859C69.7245 75.6778 70.1534 75.418 70.5303 75.418C70.9073 75.418 71.3361 75.6778 71.6978 76.2859C72.0532 76.8834 72.2891 77.7414 72.2891 78.7159Z" stroke="#FFA500"/>
<path d="M88.0997 78.7159C88.0997 79.6903 87.8637 80.5483 87.5083 81.1458C87.1466 81.7539 86.7178 82.0137 86.3409 82.0137C85.9639 82.0137 85.5351 81.7539 85.1734 81.1458C84.818 80.5483 84.582 79.6903 84.582 78.7159C84.582 77.7414 84.818 76.8834 85.1734 76.2859C85.5351 75.6778 85.9639 75.418 86.3409 75.418C86.7178 75.418 87.1466 75.6778 87.5083 76.2859C87.8637 76.8834 88.0997 77.7414 88.0997 78.7159Z" stroke="#FFA500"/>
<rect x="68.5538" y="67.6046" width="0.564706" height="5.13212" rx="0.282353" stroke="#FFA500" stroke-width="0.564706"/>
<rect x="70.8116" y="67.6046" width="0.564706" height="5.13212" rx="0.282353" stroke="#FFA500" stroke-width="0.564706"/>
<rect x="73.0714" y="67.6046" width="0.564706" height="5.13212" rx="0.282353" stroke="#FFA500" stroke-width="0.564706"/>
<rect x="75.3292" y="67.6046" width="0.564706" height="5.13212" rx="0.282353" stroke="#FFA500" stroke-width="0.564706"/>
<rect x="77.589" y="67.6046" width="0.564706" height="5.13212" rx="0.282353" stroke="#FFA500" stroke-width="0.564706"/>
<rect x="79.8468" y="67.6046" width="0.564706" height="5.13212" rx="0.282353" stroke="#FFA500" stroke-width="0.564706"/>
<rect x="82.1066" y="67.6046" width="0.564706" height="5.13212" rx="0.282353" stroke="#FFA500" stroke-width="0.564706"/>
<rect x="84.3644" y="67.6046" width="0.564706" height="5.13212" rx="0.282353" stroke="#FFA500" stroke-width="0.564706"/>
<rect x="86.6241" y="67.6046" width="0.564706" height="5.13212" rx="0.282353" stroke="#FFA500" stroke-width="0.564706"/>
<rect x="88.882" y="67.6046" width="0.564706" height="5.13212" rx="0.282353" stroke="#FFA500" stroke-width="0.564706"/>
<rect x="66.4865" y="65.8986" width="23.8976" height="0.94947" stroke="#FFA500" stroke-width="0.94947"/>
<rect x="32.4132" y="58.1105" width="0.564706" height="10.8289" rx="0.282353" stroke="#FFA500" stroke-width="0.564706"/>
<rect x="40.3195" y="58.1105" width="0.564706" height="10.8289" rx="0.282353" stroke="#FFA500" stroke-width="0.564706"/>
<path d="M37.7784 67.8238H38.2784V67.3238V62.7564C38.2784 61.8565 37.5488 61.127 36.6489 61.127C35.749 61.127 35.0195 61.8565 35.0195 62.7564V67.3238V67.8238H35.5195H37.7784Z" stroke="#FFA500"/>
<rect x="-0.282353" y="0.282353" width="0.564706" height="10.8289" rx="0.282353" transform="matrix(-1 0 0 1 124.74 57.8281)" stroke="#FFA500" stroke-width="0.564706"/>
<rect x="-0.282353" y="0.282353" width="0.564706" height="10.8289" rx="0.282353" transform="matrix(-1 0 0 1 116.834 57.8281)" stroke="#FFA500" stroke-width="0.564706"/>
<path d="M119.657 67.8238H119.157V67.3238V62.7564C119.157 61.8565 119.887 61.127 120.787 61.127C121.687 61.127 122.416 61.8565 122.416 62.7564V67.3238V67.8238H121.916H119.657Z" stroke="#FFA500"/>
<rect x="43.7062" y="58.1105" width="0.564706" height="10.8289" rx="0.282353" stroke="#FFA500" stroke-width="0.564706"/>
<rect x="51.6124" y="58.1105" width="0.564706" height="10.8289" rx="0.282353" stroke="#FFA500" stroke-width="0.564706"/>
<path d="M49.0713 67.8238H49.5713V67.3238V62.7564C49.5713 61.8565 48.8418 61.127 47.9419 61.127C47.042 61.127 46.3125 61.8565 46.3125 62.7564V67.3238V67.8238H46.8125H49.0713Z" stroke="#FFA500"/>
<rect x="-0.282353" y="0.282353" width="0.564706" height="10.8289" rx="0.282353" transform="matrix(-1 0 0 1 113.447 57.8281)" stroke="#FFA500" stroke-width="0.564706"/>
<rect x="-0.282353" y="0.282353" width="0.564706" height="10.8289" rx="0.282353" transform="matrix(-1 0 0 1 105.541 57.8281)" stroke="#FFA500" stroke-width="0.564706"/>
<path d="M108.364 67.8238H107.864V67.3238V62.7564C107.864 61.8565 108.594 61.127 109.494 61.127C110.394 61.127 111.123 61.8565 111.123 62.7564V67.3238V67.8238H110.623H108.364Z" stroke="#FFA500"/>
<rect x="55.0011" y="58.1105" width="0.564706" height="10.8289" rx="0.282353" stroke="#FFA500" stroke-width="0.564706"/>
<rect x="62.9074" y="58.1105" width="0.564706" height="10.8289" rx="0.282353" stroke="#FFA500" stroke-width="0.564706"/>
<path d="M60.3662 67.8238H60.8662V67.3238V62.7564C60.8662 61.8565 60.1367 61.127 59.2368 61.127C58.3369 61.127 57.6074 61.8565 57.6074 62.7564V67.3238V67.8238H58.1074H60.3662Z" stroke="#FFA500"/>
<rect x="-0.282353" y="0.282353" width="0.564706" height="10.8289" rx="0.282353" transform="matrix(-1 0 0 1 102.154 57.8281)" stroke="#FFA500" stroke-width="0.564706"/>
<rect x="-0.282353" y="0.282353" width="0.564706" height="10.8289" rx="0.282353" transform="matrix(-1 0 0 1 94.2478 57.8281)" stroke="#FFA500" stroke-width="0.564706"/>
<path d="M97.0713 67.8238H96.5713V67.3238V62.7564C96.5713 61.8565 97.3008 61.127 98.2007 61.127C99.1006 61.127 99.8301 61.8565 99.8301 62.7564V67.3238V67.8238H99.3301H97.0713Z" stroke="#FFA500"/>
<rect x="68.2715" y="57.8262" width="2.25882" height="5.69682" stroke="#FFA500"/>
<rect x="72.7891" y="57.8262" width="2.25882" height="5.69682" stroke="#FFA500"/>
<rect x="77.3066" y="57.8262" width="2.25882" height="5.69682" stroke="#FFA500"/>
<rect x="81.8242" y="57.8262" width="2.25882" height="5.69682" stroke="#FFA500"/>
<rect x="86.3418" y="57.8262" width="2.25882" height="5.69682" stroke="#FFA500"/>
<rect x="65.5117" y="51.6309" width="25.8471" height="2.89894" rx="1.44947" stroke="#FFA500"/>
<rect x="60.8652" y="29.8418" width="36.2706" height="2.79788" stroke="#FFA500"/>
<path d="M98.1996 30.2926V49.282M58.1055 29.3431L63.1878 17H94.2466L99.8937 29.3431H58.1055Z" stroke="#FFA500"/>
<path d="M59.8008 30.291V49.2804" stroke="#FFA500"/>
<path d="M51.8941 37.8899H59.8V33.1426H53.5882L48.5059 37.8899H51.8941ZM51.8941 37.8899V50.233" stroke="#FFA500"/>
<path d="M106.106 37.8899H98.2V33.1426H104.412L109.494 37.8899H106.106ZM106.106 37.8899V50.233" stroke="#FFA500"/>
<defs>
<linearGradient id="paint0_linear_895_3366" x1="0" y1="111.852" x2="37.1613" y2="111.852" gradientUnits="userSpaceOnUse">
<stop stop-color="white"/>
<stop offset="1" stop-color="#FFA500"/>
</linearGradient>
<linearGradient id="paint1_linear_895_3366" x1="120.029" y1="111.852" x2="157.195" y2="111.852" gradientUnits="userSpaceOnUse">
<stop stop-color="#FFA500"/>
<stop offset="1" stop-color="white"/>
</linearGradient>
</defs>
</svg>
